<svg width="12" height="12" version="1.1" viewBox="0 0 12 12" xmlns="http://www.w3.org/2000/svg"><rect id="a" width="12" height="12" fill="none" visibility="hidden"/><path d="m6 0c-0.42264 0.04314-0.59536 0.50129-0.72568 0.84563-0.18793 0.5273-0.30128 1.0853-0.27432 1.6465v1.4766c-1.6667 1.1771-3.3333 2.3542-5 3.5312v1c1.6667-0.41666 3.3333-0.83334 5-1.25v2.4062c-0.66667 0.44792-1.3333 0.89586-2 1.3438v1l3-0.75 3 0.75v-1c-0.66667-0.44792-1.3333-0.89586-2-1.3438v-2.4062c1.6667 0.41666 3.3333 0.83334 5 1.25v-1c-1.6667-1.1771-3.3333-2.3542-5-3.5312-0.0080192-0.68221 0.016283-1.3666-0.012598-2.0474-0.11076-0.61683-0.22651-1.2822-0.65057-1.7696-0.090133-0.086685-0.2085-0.15382-0.33683-0.15176z" fill-rule="evenodd"/></svg>
