<svg width="12" height="12" version="1.1" viewBox="0 0 12 12" xmlns="http://www.w3.org/2000/svg"><path d="m1.3003 8.0935v-3.9065c-0.43872 0.10995-0.82638 0.35281-1.246 0.51345-0.093376-0.54375-0.040606-1.0982-0.05398-1.6473 0.13185-0.19791 0.49108-0.25532 0.70309-0.40371 1.7655-0.88316 3.5311-1.7663 5.2966-2.6494 1.9999 1.0004 3.9998 2.0008 5.9997 3.0011-0.0093 0.56059 0.02742 1.1239-0.04314 1.6819-0.35955-0.073451-0.6533-0.32196-1.0074-0.41757-0.20459-0.121-0.28899-0.07134-0.24941 0.14209v7.5925h-1.2978c-0.017391-2.8091-0.034781-5.6181-0.052166-8.4272-1.0732-0.45279-2.1312-0.94409-3.228-1.3387-0.37479-0.046336-0.69188 0.21262-1.039 0.30827-0.81542 0.33026-1.6219 0.68203-2.4326 1.0234-0.017395 2.8114-0.034785 5.6228-0.05217 8.4342h-1.2978c5.57e-5 -1.3022-1.047e-4 -2.6045 8.6e-5 -3.9065zm2.6952 3.7509c-0.18743-0.33426 0.054277-0.70941 0.083187-1.0566 0.35135-1.4788 0.67245-2.9665 1.0939-4.4273 0.097943-0.27117 0.18897-0.60914 0.47188-0.73929 0.33366-0.10369 0.61709 0.18707 0.72556 0.47536 0.12417 0.28855 0.14202 0.6115 0.27803 0.89577 0.25923 0.2709 0.70263 0.17948 0.97277 0.42927 0.21819 0.32809-0.19212 0.53952-0.46322 0.38531-0.31005-0.060004-0.62078-0.15067-0.88761-0.32455-0.14383-0.2759-0.25046 0.044292-0.15365 0.19994 0.22536 1.31 0.62519 2.5852 0.85405 3.8928 0.031177 0.4032-0.53128 0.54421-0.74839 0.24302-0.15223-0.28665-0.16506-0.62419-0.25882-0.93281-0.16713-0.71133-0.33082-1.4235-0.49624-2.1352-0.26657 1.0164-0.48091 2.049-0.83264 3.041-0.11035 0.24603-0.4858 0.26732-0.63877 0.05319zm3.3053-0.011c0.24267-1.6309 0.58135-3.2456 0.89516-4.8637 0.10107-0.20847 0.019142-0.64991 0.2736-0.69278 0.10635 0.25216-0.045916 0.55226-0.053396 0.82282-0.25482 1.5861-0.54109 3.1697-0.92816 4.729-0.045152 0.18695-0.15046 0.20755-0.18721 0.004646zm-3.3804-4.438c-0.33727-0.1723-0.11682-0.60036-0.072427-0.87987 0.091688-0.35446 0.16321-0.71701 0.31041-1.0541 0.22407-0.17708 0.80253-0.14158 0.76128 0.22934-0.051901 0.51604-0.23638 1.0064-0.34936 1.5102-0.067706 0.35887-0.3973 0.31935-0.6499 0.1944zm1.6315-2.0575c-0.35501-0.35882 2.324e-4 -1.1001 0.50768-1.001 0.26339 0.10865 0.57767 0.37976 0.5031 0.697-0.081474 0.38065-0.55828 0.59931-0.895 0.39153-0.042313-0.023752-0.081557-0.053096-0.11578-0.087538z" stroke-width=".099995"/></svg>
