<svg width="14" height="14" version="1.1" viewBox="0 0 14 14" xmlns="http://www.w3.org/2000/svg"><rect id="a" width="14" height="14" fill="none" visibility="hidden"/><path id="b" d="m3 0v1c0.40448 0.031368 0.83455-0.067568 1.2226 0.059534 0.4293 0.25992 0.51469 0.80194 0.62522 1.2499 0.014044 0.16329 0.12759 0.52829 0.052354 0.56769-0.78611-0.60974-1.8163-1.0676-2.8239-0.81373-1.0124 0.25177-1.6566 1.3314-1.5742 2.3425 0.048829 1.1571 0.75655 2.1396 1.4594 3.0063 0.42567 0.53081 0.87271 1.0439 1.3199 1.5566 0.33842 1.1936 0.85585 2.3711 1.7188 3.2812v0.75c-0.3128 0.19916-0.77677 0.30488-1 0.5594v0.4406h6v-0.5c-0.3128-0.19916-0.77677-0.30488-1-0.5594v-0.6906c0.86289-0.91015 1.3803-2.0877 1.7188-3.2812 0.86645-1.0245 1.8172-2.0082 2.4324-3.2135 0.42108-0.87992 0.51984-1.9982-0.045785-2.8396-0.47493-0.74021-1.4326-1.0752-2.2771-0.87419-0.65247 0.12645-1.2452 0.4613-1.7658 0.8648 0.08745-0.61568 0.15472-1.297 0.59689-1.7744 0.29041-0.22292 0.67582-0.10263 1.0138-0.13188 0.09751-0.024632 0.29482 0.050525 0.32684-0.039598v-0.9604c-2.6667 9.9998e-6 -5.3334-2e-5 -8.0001 1.5e-5zm-0.625 3.0312c0.86065-0.11581 1.6422 0.39664 2.2683 0.92783 0.030523 0.198-0.4646 0.10556-0.59777 0.29221-0.70808 0.43006-0.94358 1.2936-1.0151 2.0687-0.044052 0.22158 0.0035672 0.64317-0.057518 0.74125-0.60718-0.73269-1.3038-1.491-1.45-2.4686-0.08531-0.53275 0.015072-1.2138 0.55822-1.4678 0.093154-0.044302 0.19259-0.074723 0.29389-0.093604zm8.75 0c0.55621-0.12851 1.2392 0.1919 1.327 0.79628 0.20462 0.88524-0.23986 1.7541-0.77377 2.4324-0.21456 0.2871-0.44504 0.56182-0.67825 0.83383-8.54e-4 -0.89084-0.079739-1.8762-0.70323-2.5707-0.26501-0.27911-0.6347-0.44961-1.0155-0.49186 0.5213-0.4716 1.136-0.88878 1.8437-1z"/></svg>
