<svg width="14" height="14" version="1.1" viewBox="0 0 14 14" xmlns="http://www.w3.org/2000/svg"><rect id="a" width="14" height="14" fill="none" visibility="hidden"/><path id="b" d="m7-0.0097656c-0.73607-0.037559-1.3895 0.74778-1.1588 1.4639 0.19607 0.73586 1.1602 1.0867 1.7955 0.67785 0.57535-0.33038 0.75821-1.1894 0.30955-1.6971-0.22744-0.27986-0.58545-0.44871-0.94621-0.4446zm-1.1992 3.0098c-0.53269-0.012958-0.96112 0.59712-0.75087 1.0923 0.32847 1.1781 1.0363 2.2157 1.3271 3.405 0.048673 0.65249 0.013571 1.3086 0.023414 1.9629v0.55733h1.1992c0.01518-0.84205-0.031274-1.6889 0.024895-2.5279 0.22569-0.91656 0.70623-1.74 1.0499-2.6135 0.1639-0.41054 0.37802-0.85206 0.2997-1.3041-0.11245-0.41132-0.56939-0.63312-0.97297-0.57213-0.73345 6.66e-5 -1.4671-1.333e-4 -2.2004 1e-4zm-0.80078 8c-0.40159-0.04293-0.63201 0.37052-0.66118 0.71548 0.020133 0.26339 0.098737 0.7486-0.33706 0.61845-0.43375-0.10686-0.63051 0.35694-0.92027 0.58458-0.19275 0.14224 0.15721 0.05969 0.25521 0.0815h7.6633l-0.66602-0.66602h-0.66797c-0.017009-0.41395 0.051882-0.90397-0.2807-1.2193-0.33132-0.2-0.73227-0.08569-1.0983-0.11468-1.0957-7e-6 -2.1913 1.3e-5 -3.287-1e-5z"/></svg>
