<svg width="14" height="14" version="1.1" viewBox="0 0 14 14" xmlns="http://www.w3.org/2000/svg"><rect id="a" width="14" height="14" fill="none" visibility="hidden"/><path id="b" d="m1 0c-0.60236-0.016395-1.0928 0.59668-0.9997 1.1808 0.010655 0.67076-0.023947 1.3444 0.019136 2.0133 0.091983 0.4489 0.52033 0.80709 0.98057 0.80584v-2h12v2c0.60895-0.00456 1.0942-0.62739 0.9997-1.2191-0.01218-0.66053 0.02732-1.3248-0.02192-1.9829-0.11543-0.53409-0.68671-0.87943-1.2154-0.79796-3.9205-6.6659e-6 -7.8432 1.3332e-5 -11.762-1e-5zm1 3c0.00302 2.7154-0.00608 5.431 0.00461 8.1462 0.038422 0.50652 0.53502 0.91215 1.0397 0.84985 2.6312 0.0074 5.2625 0.0055 7.8936-3.1e-5 0.62548 0.05943 1.1561-0.56888 1.0622-1.1743v-7.8218h-1v6c-0.96525 0.028158-1.8184 0.82666-1.9822 1.7661 0.081063 0.32105-0.29841 0.22366-0.49317 0.2339h-3.5246c-0.028158-0.96525-0.82666-1.8184-1.7661-1.9822-0.32105 0.081063-0.22366-0.29841-0.2339-0.49317v-5.5246c-0.33336 6.7e-6 -0.66671-1.33e-5 -1.0001 1e-5zm5 1c-1.0603 0.0095351-2.2007 0.41296-2.8082 1.3269-0.30491 0.48624-0.22743 1.1558 0.16694 1.5697 0.69368 0.81754 1.8237 1.1458 2.867 1.0949 0.98358-0.056349 2.0148-0.46916 2.5782-1.3113 0.29085-0.4661 0.24784-1.1027-0.11609-1.5175-0.62698-0.80555-1.699-1.148-2.6879-1.1626zm-5 8.5c-0.00106 0.51659 0.09547 1.1491 0.60106 1.4139 0.43494 0.1617 0.90788 0.0547 1.3602 0.08597 2.3793-0.0026 4.7588 0.0057 7.1379-0.0043 0.55934-0.05984 0.8569-0.65827 0.88301-1.1665 0.05321-0.14251 0.01145-0.44585-0.1447-0.18303-0.30158 0.34394-0.7851 0.34278-1.204 0.32542-2.5833 0.01541-5.1669 0.05102-7.75 0.05255-0.35563-0.03464-0.64949-0.27123-0.88356-0.52398z"/></svg>
