<svg width="14" height="14" version="1.1" viewBox="0 0 14 14" xmlns="http://www.w3.org/2000/svg"><rect id="a" width="14" height="14" fill="none" visibility="hidden"/><path id="b" d="m0 2c0.0028699 2.383-0.0057826 4.7662 0.0044026 7.149 0.037774 0.51617 0.55148 0.91625 1.0613 0.84729 4.0135 0.00599 8.0271 0.00653 12.041-0.00124 0.55786-0.022741 0.97262-0.59556 0.8938-1.1337v-6.8614c-4.6667 2.66e-5 -9.3334-5.34e-5 -14 3.99e-5zm3 1h8c0.02816 0.96525 0.82666 1.8184 1.7661 1.9822 0.321-0.081069 0.22368 0.2983 0.2339 0.49304v1.5248c-0.96525 0.028158-1.8184 0.82666-1.9822 1.7661 0.08107 0.32099-0.2983 0.22369-0.49304 0.2339h-7.5248c-0.028158-0.96525-0.82666-1.8184-1.7661-1.9822-0.32099 0.081069-0.22369-0.2983-0.2339-0.49304v-1.5248c1.0374-0.030088 1.9699-0.96267 2-2zm4 1c-1.0135 0.0042888-2.1181 0.32811-2.7396 1.1801-0.41014 0.56059-0.31283 1.3978 0.19016 1.8696 0.75533 0.7864 1.9201 1.0202 2.9719 0.92932 0.92813-0.083601 1.9163-0.47361 2.4096-1.3085 0.31338-0.57065 0.1621-1.3206-0.31435-1.7545-0.65025-0.6621-1.6149-0.90739-2.5178-0.91604zm-7 6.5c0.0012815 0.50721 0.077461 1.1287 0.56689 1.4029 0.42912 0.17684 0.90326 0.06626 1.3536 0.097 3.7266-0.0022 7.4532 0.0047 11.18-0.0036 0.54957-0.04954 0.85293-0.63167 0.87783-1.1316 0.05199-0.13694 0.03117-0.49656-0.13956-0.21793-0.32628 0.34615-0.82338 0.38047-1.2686 0.35305-3.8836-0.001533-7.7673 0.00382-11.651-0.002651-0.36405-0.017926-0.66788-0.2541-0.919-0.49721z"/></svg>
