<svg width="14" height="14" version="1.1" viewBox="0 0 14 14" xmlns="http://www.w3.org/2000/svg"><rect id="a" width="14" height="14" fill="none" visibility="hidden"/><path id="b" d="m1 1c1.8333 2 3.6667 4 5.5 6v4c-1.3406 0.33214-2.7065 0.66683-3.9234 1.3405-0.20113 0.10902-0.71907 0.47367-0.47834 0.66503 1.5763-0.01286 3.1553-2e-3 4.7327-0.0056h5.169c-0.07642-0.44776-0.54992-0.6418-0.90504-0.83672-1.1233-0.53955-2.3356-0.8606-3.5433-1.1467-0.11454-0.15818-0.026122-0.3959-0.05172-0.59077v-3.4258c1.8333-2 3.6667-4 5.5-6-4 4e-5 -8.0001-8e-5 -12 6e-5z"/></svg>
