<svg width="14" height="14" version="1.1" viewBox="0 0 14 14" xmlns="http://www.w3.org/2000/svg"><path d="m7 0c-1.3333 1-2.6667 2-4 3v11h1c3.018e-4 -2.7443-5.988e-4 -5.4888 4.418e-4 -8.2329 0.05382-1.2581 1.0568-2.3352 2.2428-2.6633 1.1358-0.34419 2.4371 0.13036 3.1374 1.0756 0.45431 0.58712 0.67002 1.3401 0.61935 2.0787v7.742h1v-11c-1.3333-1-2.6667-2-4-3zm-0.35742 4.5c-0.56984 0.404-1.0902 0.97435-1.1722 1.6967-0.11481 0.61083-0.17549 1.2331-0.34543 1.8326-0.25252 0.22375-0.64739 0.43096-0.62346 0.82124-0.068479 0.20977 0.16729 0.13769 0.28871 0.14946h4.7098c0.03319-0.2479-0.045467-0.50425-0.25303-0.65515-0.21936-0.14926-0.4785-0.30647-0.49016-0.60359-0.17308-0.71704-0.18726-1.4672-0.41169-2.172-0.18505-0.46851-0.5687-0.85763-1.02-1.0693-0.22749 2.67e-5 -0.45522-5.34e-5 -0.68256 4e-5zm0.35742 5.25c-0.47792-0.044465-0.82185 0.48323-0.7255 0.9223 0.069972 0.5125 0.78664 0.78274 1.1687 0.42388 0.34409-0.27077 0.42851-0.86584 0.060536-1.152-0.13622-0.12393-0.31952-0.19492-0.5037-0.19421z"/></svg>
