<svg width="14" height="14" version="1.1" viewBox="0 0 14 14" xmlns="http://www.w3.org/2000/svg"><rect id="a" width="14" height="14" fill="none" visibility="hidden"/><path id="b" d="m0 0v10h2.0001v-3.5c1.0361-0.014465 2.0744 0.032741 3.109-0.031636 1.0297-0.10344 2.0959-0.63083 2.5486-1.6058 0.45336-0.94849 0.44015-2.0813 0.089956-3.0599-0.37982-0.9747-1.3308-1.689-2.375-1.7748-0.72021-0.057311-1.4439-0.016574-2.1659-0.027872-1.0689 3.3326e-5 -2.1379-6.6657e-5 -3.2068 5e-5zm2.0001 2c0.95885 0.013733 1.9201-0.029528 2.8774 0.025664 0.56892 0.073357 1.106 0.52879 1.1245 1.1287 0.057185 0.64911-0.48938 1.2287-1.119 1.3054-0.54593 0.080832-1.1 0.023648-1.6499 0.040179h-1.2329c-1.067e-4 -0.83327 2.133e-4 -1.667-1.6e-4 -2.5zm6.9999 5v0.59386l0.50037 0.40614v0.75h-3.0001c-0.11004-0.43065 0.41376-0.17025 0.64394-0.27141 0.40275-0.10854 0.10446-0.57345-0.2145-0.48439-0.53219 0.021341-1.0669-0.014566-1.5985 0.019653-0.41686 0.11373-0.021847 0.63174 0.28777 0.48615h0.38122c0.029793 0.43328-0.28415 0.79-0.41161 1.1875-0.051781 0.32037-0.23036 0.37365-0.51371 0.30659-0.88097-0.023462-1.7632 0.56233-1.9966 1.4284-0.26429 0.87738 0.13382 1.9202 0.96413 2.3382 0.76237 0.42425 1.8078 0.26966 2.3755-0.40759 0.44102-0.49727 0.6017-1.2054 0.48858-1.8531h0.84378c0.60731-0.66666 1.2146-1.3333 1.8219-2 0.058496 0.26919 0.43826 0.63417 0.275 0.83708-0.98591 0.64686-1.1369 2.2084-0.30718 3.0423 0.65848 0.70652 1.8661 0.84303 2.6233 0.21487 0.96647-0.73711 1.0656-2.4011 0.08402-3.1684-0.46484-0.37151-1.1074-0.51783-1.6843-0.36331-0.18282-0.45211-0.4046-0.8924-0.56254-1.3521-1.23e-4 -0.30347-2.47e-4 -0.60693-3.7e-4 -0.9104-0.33329-0.26669-0.6668-0.53334-0.99997-0.80005zm-2.5935 2.5h2.1938c-0.39793 0.41667-0.79586 0.83334-1.1938 1.25h-0.84378c-0.10126-0.26222-0.6357-0.37464-0.39614-0.70484 0.079981-0.18171 0.1599-0.36351 0.23992-0.54516zm-1.4063 1.5c0.72535-0.03992 1.2604 0.87341 0.87046 1.4884-0.29071 0.56598-1.1551 0.69439-1.5826 0.2127-0.40442-0.40221-0.37221-1.1365 0.090277-1.4827 0.17386-0.1413 0.39724-0.22288 0.62183-0.21838zm6.0002 0c0.72535-0.03992 1.2604 0.87341 0.87046 1.4884-0.29071 0.56598-1.1551 0.69439-1.5826 0.2127-0.40443-0.40221-0.37221-1.1365 0.090278-1.4827 0.17386-0.1413 0.39724-0.22288 0.62183-0.21838z"/></svg>
