<svg width="14" height="14" version="1.1" viewBox="0 0 14 14" xmlns="http://www.w3.org/2000/svg"><rect id="a" width="14" height="14" fill="none" visibility="hidden"/><path id="b" d="m3 0c-1.1062 0.031654-2.0753 1.0819-1.9996 2.1902-0.0029943 3.3011 0.0036708 6.6023-0.0033334 9.9035-0.06614 0.73857-0.5094 1.375-0.99713 1.9063h11c-0.50598-0.5532-0.97397-1.2241-1-2 1.0768-0.0092 2.1548 0.01909 3.2308-0.01539 0.5324-0.08278 0.83083-0.66422 0.76903-1.1661-0.0044-1.9858 0.0097-3.9721-0.0072-5.9575-0.11852-1.0642-1.1479-1.9542-2.2261-1.8604-0.58886-0.0027868-1.1777 9.561e-4 -1.7666-6.049e-4 -0.023809-0.7537 0.11886-1.5932-0.34607-2.2496-0.35283-0.50607-0.97522-0.75456-1.5793-0.74432-1.6911-0.012134-3.3835-0.0034327-5.0745-0.0061231zm1 1c1.1885 0.013206 2.3789-0.028644 3.5662 0.025456 0.49909 0.043158 1.0973 0.14989 1.3636 0.6277 0.17965 0.2578-0.048782 0.46698-0.31426 0.34948-1.1755 0.023171-2.4105 0.0088781-3.491 0.53861-0.70025 0.36356-1.1094 1.1378-1.1215 1.9134-0.011556 0.59349 0.051579 1.2746-0.37752 1.7501-0.27909 0.32457-0.81525 0.40894-1.1393 0.1001-0.49337-0.41769-0.50583-1.1216-0.48479-1.7161 0.01309-0.78227-0.044864-1.5708 0.053808-2.3487 0.077958-0.48294 0.37904-0.96629 0.8747-1.1004 0.34303-0.11875 0.71026-0.13658 1.0701-0.13958zm6 3.5c0.60793 0.02369 1.2338-0.06653 1.8272 0.098711 0.49492 0.19781 0.67953 0.77411 0.66386 1.2671 0.01803 1.3909 0.0049 2.7823 9e-3 4.1734v0.46075h-2.5c-6.6e-5 -2-6e-6 -4.0001-7.6e-5 -6zm-8 7.5h7v1h-7v-1z"/></svg>
