<svg width="14" height="14" version="1.1" viewBox="0 0 14 14" xmlns="http://www.w3.org/2000/svg"><rect id="a" width="14" height="14" fill="none" visibility="hidden"/><path id="b" d="m7.0002 0.023159c-0.36558 0.045195-0.45587 0.49034-0.48996 0.79606 0.0037629 0.34608-0.56356 0.15188-0.80905 0.29821-2.2085 0.48604-4.0483 2.3081-4.5598 4.5102-0.10787 0.26541-0.050922 0.68789-0.1998 0.86494-0.32902 0.014208-0.78477 0.075878-0.89642 0.44168-0.020315 0.3724 0.42891 0.50465 0.72893 0.5413 0.42755-0.036286 0.19336 0.60537 0.3599 0.88445 0.4639 2.0738 2.1361 3.7989 4.1739 4.3776 0.36783 0.15874 0.91541 0.11809 1.1931 0.28784 0.01766 0.3412 0.05832 0.78935 0.40601 0.95655 0.36967 0.07483 0.52804-0.38267 0.56854-0.67453 0.0053-0.23231 0.00482-0.42806 0.29804-0.3737 1.9994-0.22292 3.8281-1.5474 4.6599-3.3796 0.30105-0.64762 0.48208-1.3502 0.53549-2.0622 0.35958-0.010907 0.83573-0.041854 1.0171-0.40674 0.076975-0.36879-0.37934-0.5285-0.6706-0.56854-0.23112-0.0057304-0.42761-0.0041521-0.3759-0.29656-0.25708-2.1094-1.7113-4.0271-3.689-4.8152-0.55744-0.22706-1.1503-0.36659-1.7504-0.41297-0.00774-0.34999-0.073023-0.90409-0.5-0.96875zm-0.5 2.2812v3.5l-2.4688-2.4688c0.70097-0.57262 1.569-0.9342 2.4688-1.0312zm1 0c0.90068 0.093059 1.7646 0.46502 2.4688 1.0312l-2.4688 2.4688v-3.5zm3.1875 1.7188c0.5718 0.70098 0.93386 1.5695 1.0312 2.4688h-3.5c0.82292-0.82292 1.6458-1.6458 2.4688-2.4688zm-7.3438 0.03125 2.4375 2.4375h-3.4688c0.10353-0.88879 0.47012-1.7417 1.0312-2.4375zm3.6562 2.1875c0.54625-0.024929 0.9416 0.63899 0.65948 1.1075-0.23692 0.48717-0.99873 0.52405-1.2814 0.061838-0.34178-0.4756 0.035704-1.1866 0.62191-1.1693zm-4.6875 1.25h3.5312c-0.83333 0.83333-1.6667 1.6667-2.5 2.5-0.57645-0.7104-0.93931-1.5897-1.0312-2.5zm5.8438 0h3.5625c-0.09332 0.91554-0.48096 1.7903-1.0625 2.5-0.83333-0.83333-1.6667-1.6667-2.5-2.5zm-1.6562 0.71875v3.5c-0.89923-0.09739-1.7678-0.45945-2.4688-1.0312 0.82292-0.82292 1.6458-1.6458 2.4688-2.4688zm1 0c0.82292 0.83333 1.6458 1.6667 2.4688 2.5-0.70517 0.55978-1.573 0.91033-2.4688 1v-3.5z"/></svg>
