<svg width="12" height="12" version="1.1" viewBox="0 0 12 12" xmlns="http://www.w3.org/2000/svg"><rect width="12" height="12" fill="none" visibility="hidden"/><path d="m1.9141 0.49609c-0.71843-0.018139-1.3767 0.59083-1.4138 1.3086-0.009578 1.8012-0.001401 3.6028-0.00412 5.4042 0.002683 0.99545-0.005407 1.9912 0.00412 2.9864 0.037194 0.71775 0.69541 1.3267 1.4138 1.3086 2.7483-0.0012 5.4968 0.0024 8.245-0.0018 0.71829-0.01881 1.344-0.66091 1.3443-1.3794-1.48e-4 -2.7606 0.0026-5.5212-0.0014-8.2817-0.018792-0.71833-0.66089-1.344-1.3794-1.3444-2.7362-0.0010766-5.4724-1.5399e-4 -8.2086-4.6149e-4zm1.0859 0.50391h6l1 1v8h-0.65625c-0.00414 0.41566-0.20563 0.92287-0.66883 0.98877-0.34739 0.082588-0.66764-0.17528-0.7843-0.48877-0.14238-0.14154-0.015578-0.55243-0.27639-0.5h-3.3642c-0.051641 0.39714-0.21824 0.89148-0.65891 0.98877-0.40992 0.091514-0.7484-0.26216-0.8507-0.62775-0.070891-0.16781-0.019544-0.43634-0.27081-0.36102h-0.46957v-8l1-1zm1 1v1h4v-1h-4zm-1 2v3h6v-3h-6zm0 4v1h1v-1h-1zm5 0v1h1v-1h-1z" fill="#000405"/></svg>
