<svg width="14" height="14" version="1.1" viewBox="0 0 14 14" xmlns="http://www.w3.org/2000/svg"><rect id="a" width="14" height="14" fill="none" visibility="hidden"/><path id="b" d="m1 1c0.00217 2.0463-0.004346 4.0928 0.00328 6.139 0.019272 0.86074 0.5428 1.651 1.2714 2.0874 1.1296 0.69051 2.5051 0.82475 3.8014 0.75531 1.1377-0.080499 2.3468-0.36465 3.1892-1.183 0.47959-0.46562 0.74465-1.132 0.7347-1.7986 0.71345-0.00408 1.4274 0.00832 2.1405-0.00649 0.94791-0.109 1.7749-0.94662 1.8566-1.8998-0.0017-0.44229 0.01962-0.88665-0.01494-1.3276-0.16961-0.99626-1.1336-1.8361-2.1604-1.7661h-1.8218v-1h-9zm9 2.25c0.6237 0.00401 1.2479-0.00823 1.8713 0.00649 0.52672 0.03752 0.84658 0.56781 0.86996 1.0539 0.06911 0.56-0.17015 1.2638-0.77262 1.4141-0.41928 0.051478-0.84557 0.014178-1.268 0.025526h-0.70065v-2.5zm-10 7.75c0.024416 0.96144 0.83063 1.821 1.7661 1.9822 0.56475 0.03757 1.1328 0.0088 1.699 0.01783 1.8762-0.0019 3.7525 0.0039 5.6286-0.0029 0.96773-0.08321 1.8202-0.93565 1.9034-1.9034 0.036071-0.17378-0.22288-0.062243-0.33368-0.093714h-10.663z"/></svg>
