<svg width="14" height="14" version="1.1" viewBox="0 0 14 14" xmlns="http://www.w3.org/2000/svg"><rect id="a" width="14" height="14" fill="none" visibility="hidden"/><path id="b" d="m2 2c-0.96144 0.024416-1.821 0.83063-1.9822 1.7661-0.037572 0.56475-0.0088196 1.1328-0.017834 1.699 0.0041581 0.89174-0.0084253 1.784 0.0064888 2.6754 0.109 0.94791 0.94662 1.7749 1.8998 1.8566 0.3853 0.0064572 0.77083 0.0011903 1.1562 0.0028992 0.20722-1.111 1.247-1.9958 2.381-1.9994 1.1157-0.046806 2.1813 0.76256 2.4562 1.8411-0.024812 0.23505 0.20864 0.1399 0.35454 0.15831h5.7457c0.001845-0.48422-0.35456-0.9767-0.86586-0.99361-0.54433-0.014221-1.0895-0.0026222-1.6341-0.0063858-2e-3 -1.6967 0.0039-3.3936-3e-3 -5.0903-0.084841-0.86006-0.77224-1.6027-1.5855-1.8512-0.41926-0.10276-0.8552-0.042139-1.2827-0.058551h-6.6288zm0.84375 2c0.74802 0.00406 1.4997-0.0085 2.2485 0.00659 0.45397 0.031514 0.88463 0.38454 0.90133 0.85927 0.066406 0.44804-0.17733 0.94144-0.63259 1.0671-0.38642 0.11616-0.79496 0.049255-1.1926 0.067047-0.44136-0.0086661-0.88479 0.018421-1.3247-0.015625-0.44878-0.050696-0.8412-0.42923-0.84088-0.89352-0.056294-0.44908 0.2117-0.92238 0.65858-1.0454 0.059472-0.019824 0.12047-0.035081 0.1823-0.045422zm5.1562 0c0.42211-0.0024603 0.89948-0.040467 1.2267 0.28262 0.44942 0.44699 0.34817 1.3698-0.27356 1.6144-0.32909 0.14577-0.69621 0.099543-1.0455 0.096405-0.45397-0.031514-0.88463-0.38454-0.90133-0.85927-0.066406-0.44803 0.17733-0.94144 0.63259-1.0671 0.11627-0.039206 0.23825-0.063288 0.36102-0.067047zm-2.5 5c-0.82985-0.023672-1.5644 0.74959-1.498 1.5772 0.019224 0.82964 0.82844 1.5232 1.6514 1.4151 0.8273-0.0617 1.4787-0.90433 1.3294-1.7207-0.097169-0.71448-0.76118-1.2851-1.4827-1.2716z"/></svg>
