<svg width="14" height="14" version="1.1" viewBox="0 0 14 14" xmlns="http://www.w3.org/2000/svg"><path d="m3.8672 1.0634c-0.72247 0.04021-1.3726 0.51467-1.6852 1.1585-0.65872 1.1497-1.3302 2.2925-1.9807 3.4466-0.41626 0.81656-0.16544 1.9006 0.578 2.4409 0.50512 0.33002 1.0419 0.61016 1.5607 0.91846 0.81644 0.46521 1.6235 0.94803 2.4469 1.4002 0.18758 0.12781 0.085941-0.16393 0.11152-0.26969 0.00389-1.1267-0.00791-2.2537 0.00614-3.3801 0.068106-1.3135 1.102-2.4968 2.3927-2.7471 0.53569-0.10388 1.0841-0.046532 1.6261-0.061447 0.35119 0.071826 0.024865-0.21887-0.09304-0.34527-0.34163-0.31088-0.77238-0.49523-1.1622-0.73681-0.93798-0.5373-1.8701-1.0853-2.8118-1.6157-0.30479-0.15197-0.64803-0.23324-0.98907-0.20851zm0.30468 0.70896c0.7042-0.013399 1.3162 0.66003 1.2334 1.3604-0.042643 0.71182-0.77912 1.2705-1.4762 1.118-0.70401-0.1115-1.1884-0.8984-0.96923-1.577 0.14648-0.52951 0.66337-0.91279 1.212-0.90134zm-2.1211 3.6737c0.70463-0.013128 1.3167 0.66148 1.2326 1.3622-0.043871 0.71114-0.78021 1.2687-1.4767 1.1155-0.70322-0.11211-1.1871-0.8982-0.968-1.5763 0.14652-0.52961 0.66333-0.91266 1.212-0.90142zm5.8476-0.47644c-0.94106-0.020443-1.8219 0.71529-1.9688 1.645-0.058493 0.48147-0.020042 0.96884-0.031128 1.4531 0.00368 1.0186-0.00748 2.0376 0.00581 3.056 0.051952 0.93867 0.85206 1.7595 1.7891 1.8354 0.79983 0.02274 1.601 0.0043 2.4014 0.01029 0.66943-0.0058 1.3396 0.01219 2.0085-0.01029 0.93703-0.07588 1.7372-0.89668 1.7891-1.8354 0.01338-1.3844 0.0021-2.7695 0.0058-4.1542 0.02044-0.94106-0.7153-1.8219-1.645-1.9688-0.48147-0.058493-0.96884-0.020042-1.4531-0.031128h-2.9017zm3.9998 0.75c1.1433-0.060951 1.7488 1.616 0.7347 2.2612-0.90345 0.73868-2.3468-0.30999-1.9235-1.3975 0.15617-0.50523 0.66002-0.8713 1.1888-0.8637zm-3.9998 3.9998c1.1434-0.060659 1.7485 1.6153 0.7347 2.2612-0.90345 0.73869-2.3468-0.30999-1.9235-1.3975 0.15617-0.50523 0.66002-0.8713 1.1888-0.8637z"/></svg>
