<svg width="14" height="14" enable-background="new" version="1.1" xmlns="http://www.w3.org/2000/svg"><rect id="a" width="14" height="14" fill="none" visibility="hidden"/><path d="m3 10c0.057524-0.64606 0.42048-1.2155 0.76575-1.7472 0.62877-0.89111 1.428-1.7364 2.4723-2.1219 0.76057-0.29168 1.6122-0.058672 2.2649 0.38165 0.98122 0.65896 1.7552 1.6112 2.2661 2.6724 0.052585 0.21219 0.38845 0.73645 0.132 0.81503h-7.901zm4-7c-1.3211 0.023758-2.535 0.67567-3.5689 1.4508-1.3109 1.0146-2.4362 2.3216-3.0727 3.8641-0.21314 0.53557-0.35749 1.1059-0.35844 1.685h1c0.01381-1.395 0.81005-2.6455 1.7396-3.6292 0.97036-0.99493 2.1418-1.8475 3.4846-2.252 0.6631-0.21697 1.3799-0.10643 2.0129 0.15442 1.4833 0.60762 2.7758 1.6591 3.7289 2.9426 0.58462 0.80929 1.0316 1.769 1.034 2.7842h1c-0.023758-1.3211-0.67567-2.535-1.4508-3.5689-1.0146-1.3109-2.3216-2.4362-3.8641-3.0727-0.53557-0.21308-1.1059-0.35755-1.685-0.35844z" fill-rule="evenodd"/></svg>
