<svg width="14" height="14" version="1.1" viewBox="0 0 14 14" xmlns="http://www.w3.org/2000/svg"><rect id="a" width="14" height="14" fill="none" visibility="hidden"/><path id="b" d="m2 1c-0.77909-0.023712-1.5772 0.43069-1.8514 1.1794-0.22413 0.56459-0.12718 1.1795-0.1486 1.771v10.05h7v-7.875c0.39436-0.061812 0.81091 0.21266 0.85337 0.62238 0.044363 0.49778 0.011508 1.0002 0.021629 1.5 0.00509 0.9928-0.010467 1.9861 0.00833 2.9786 0.028336 0.70049 0.4452 1.378 1.0973 1.6593 0.6538 0.31919 1.4449 0.3092 2.0918-0.02282 0.65807-0.30303 1.0421-1.0155 1.0496-1.7248 0.0069384-1.3791 0.0010524-2.7584 0.0030034-4.1376 0.63115-0.066052 1.0024-0.69182 1.1655-1.2451 0.16812-0.55737 0.21002-1.1442 0.20955-1.7236h-0.75c-0.0055-0.69975 0.01103-1.4007-0.0084-2.0997-0.040134-0.46357-0.79121-0.39893-0.7416 0.068416v2h-1c-0.0055-0.69852 0.01105-1.3983-0.0084-2.096-0.04592-0.43511-0.7447-0.38647-0.73945 0.046481-0.004992 0.68308-7.37e-4 1.3664-0.002151 2.0495h-0.75c0.016806 0.87307 0.087086 1.8202 0.6281 2.5448 0.16865 0.26284 0.52116 0.3955 0.7469 0.4948-0.0015 1.3466 0.0029 2.6933-0.0022 4.0398 0.01086 0.41667-0.33838 0.77656-0.75199 0.78974-0.44982 0.063361-0.95954-0.23862-0.98717-0.72219-0.019671-0.97892-0.0032434-1.9592-0.0086416-2.9386-0.011073-0.51879 0.026592-1.0404-0.028633-1.5567-0.15527-0.99169-1.0998-1.7716-2.0964-1.7766-0.0075682-0.71764 0.016491-1.4364-0.014736-2.1532-0.055207-0.72686-0.5572-1.4068-1.266-1.6137-0.54718-0.17103-1.1258-0.088413-1.6894-0.10814h-2.0298zm0.96875 2h2.75c-0.57292 0.88889-1.1458 1.7778-1.7188 2.6667h2.0625c-1.2604 1.7778-2.5208 3.5556-3.7812 5.3333h-0.6875c0.45833-1.3333 0.91667-2.6667 1.375-4h-1.7188c0.57292-1.3333 1.1458-2.6667 1.7188-4z"/></svg>
