<svg width="16" height="16" version="1.1" viewBox="0 0 16 16" xmlns="http://www.w3.org/2000/svg"><rect id="a" width="14" height="14" fill="none" visibility="hidden"/><path id="b" d="m7 0c-0.44536-0.028236-0.87146 0.28612-0.95938 0.72675-0.07625 0.38901-0.026268 0.78951-0.040619 1.184-2e-7 0.69642-5e-7 1.3928-7e-7 2.0892h-4v2h4c3e-7 2.6667 7e-7 5.3333 1e-6 8h2c-3e-7 -2.6667-7e-7 -5.3333-1e-6 -8h4v-2h-4c-0.00433-1.0307 0.0087-2.062-0.00659-3.0923-0.031516-0.45397-0.38454-0.88463-0.85927-0.90133-0.044568-0.004383-0.089358-0.0063851-0.13414-0.0063858z"/></svg>
