<svg width="14" height="14" version="1.1" viewBox="0 0 14 14" xmlns="http://www.w3.org/2000/svg"><rect id="a" width="14" height="14" fill="none" visibility="hidden"/><path d="m1 1c-0.5754-0.01839-1.0623 0.53191-1 1.099 8.6397e-4 3.6509-0.0017281 7.3018 0.0012963 10.953 0.011774 0.55628 0.54961 1.007 1.0977 0.94839 3.9842-8.64e-4 7.9684 0.0017 11.953-0.0013 0.55628-0.01177 1.007-0.54961 0.94839-1.0977-8.64e-4 -3.6509 0.001728-7.3018-0.001296-10.953-0.011774-0.55628-0.54962-1.007-1.0977-0.94839h-11.901zm0.25 1c0.2125 0.016885 0.4404-0.040224 0.63997 0.042583 0.18036 0.14699 0.086597 0.4016 0.11003 0.6034 0.044534 0.21109-0.13339 0.40133-0.349 0.35402-0.20352-0.023908-0.45955 0.07126-0.60842-0.11003-0.081633-0.19976-0.026394-0.42735-0.042583-0.63997-0.0032451-0.13438 0.11557-0.25323 0.25-0.25zm2.75 0h6v5h-6v-5zm8.25 0c0.2125 0.016885 0.4404-0.040223 0.63997 0.042583 0.18036 0.14699 0.086596 0.4016 0.11003 0.6034 0.044534 0.21109-0.13339 0.40133-0.349 0.35402-0.20352-0.023908-0.45955 0.07126-0.60842-0.11003-0.081633-0.19976-0.026394-0.42735-0.042583-0.63997-0.003245-0.13438 0.11557-0.25323 0.25-0.25zm-11 2c0.2125 0.016885 0.4404-0.040224 0.63997 0.042583 0.18036 0.14699 0.086597 0.4016 0.11003 0.6034 0.044534 0.21109-0.13339 0.40133-0.349 0.35402-0.20352-0.023908-0.45955 0.07126-0.60842-0.11003-0.081633-0.19976-0.026394-0.42735-0.042583-0.63997-0.0032451-0.13438 0.11557-0.25323 0.25-0.25zm11 0c0.2125 0.016885 0.4404-0.040224 0.63997 0.042583 0.18036 0.14699 0.086596 0.4016 0.11003 0.6034 0.044534 0.21109-0.13339 0.40133-0.349 0.35402-0.20352-0.023908-0.45955 0.07126-0.60842-0.11003-0.081633-0.19976-0.026394-0.42735-0.042583-0.63997-0.003245-0.13438 0.11557-0.25323 0.25-0.25zm-11 2c0.2125 0.016885 0.4404-0.040224 0.63997 0.042583 0.18036 0.14699 0.086597 0.4016 0.11003 0.6034 0.044534 0.21109-0.13339 0.40133-0.349 0.35402-0.20352-0.023908-0.45955 0.07126-0.60842-0.11003-0.081633-0.19976-0.026394-0.42735-0.042583-0.63997-0.0032451-0.13438 0.11557-0.25323 0.25-0.25zm11 0c0.2125 0.016885 0.4404-0.040223 0.63997 0.042583 0.18036 0.14699 0.086596 0.4016 0.11003 0.6034 0.044534 0.21109-0.13339 0.40133-0.349 0.35402-0.20352-0.023908-0.45955 0.07126-0.60842-0.11003-0.081633-0.19976-0.026394-0.42735-0.042583-0.63997-0.003245-0.13438 0.11557-0.25323 0.25-0.25zm-11 2c0.2125 0.016885 0.4404-0.040224 0.63997 0.042583 0.18036 0.14699 0.086597 0.4016 0.11003 0.6034 0.044534 0.21109-0.13339 0.40133-0.349 0.35402-0.20352-0.023908-0.45955 0.07126-0.60842-0.11003-0.081633-0.19976-0.026394-0.42735-0.042583-0.63997-0.0032451-0.13438 0.11557-0.25323 0.25-0.25zm2.75 0h6v5h-6v-5zm8.25 0c0.2125 0.016885 0.4404-0.040223 0.63997 0.042583 0.18036 0.14699 0.086596 0.4016 0.11003 0.6034 0.044534 0.21109-0.13339 0.40133-0.349 0.35402-0.20352-0.023908-0.45955 0.07126-0.60842-0.11003-0.081633-0.19976-0.026394-0.42735-0.042583-0.63997-0.003245-0.13438 0.11557-0.25323 0.25-0.25zm-11 2c0.2125 0.01689 0.4404-0.040223 0.63997 0.04258 0.18036 0.14699 0.086597 0.40161 0.11003 0.6034 0.044534 0.21109-0.13339 0.40133-0.349 0.35402-0.20352-0.023908-0.45955 0.07126-0.60842-0.11003-0.081633-0.19976-0.026394-0.42735-0.042583-0.63997-0.0032451-0.13438 0.11557-0.25323 0.25-0.25zm11 0c0.2125 0.01689 0.4404-0.040223 0.63997 0.04258 0.18036 0.14699 0.0866 0.4016 0.11003 0.6034 0.04453 0.21109-0.13339 0.40133-0.349 0.35402-0.20352-0.02391-0.45955 0.07126-0.60842-0.11003-0.081633-0.19976-0.026394-0.42734-0.042583-0.63996-0.003245-0.13438 0.11557-0.25323 0.25-0.25zm-11 2c0.2125 0.01689 0.4404-0.04022 0.63997 0.04258 0.18036 0.14699 0.086597 0.40161 0.11003 0.6034 0.044534 0.21109-0.13339 0.40133-0.349 0.35402-0.20352-0.023908-0.45955 0.07126-0.60842-0.11003-0.081633-0.19976-0.026394-0.42735-0.042583-0.63997-0.0032451-0.13438 0.11557-0.25323 0.25-0.25zm11 0c0.2125 0.01689 0.4404-0.04022 0.63997 0.04258 0.18036 0.14699 0.0866 0.4016 0.11003 0.6034 0.04453 0.21109-0.13339 0.40133-0.349 0.35402-0.20352-0.02391-0.45955 0.07126-0.60842-0.11003-0.081633-0.19976-0.026394-0.42734-0.042583-0.63996-0.003245-0.13438 0.11557-0.25323 0.25-0.25z"/></svg>
