<svg width="14" height="14" version="1.1" viewBox="0 0 14 14" xmlns="http://www.w3.org/2000/svg"><rect id="a" width="14" height="14" fill="none" visibility="hidden"/><path id="b" d="m4.0002 0.40625c-1.6686 0.72094-2.892 2.3923-3.0166 4.2132-0.1462 1.6804 0.65677 3.3849 2.0084 4.3831 0.31207 0.23464 0.65097 0.43366 1.0082 0.59118v-1.1562c-1.237-0.69351-2.045-2.0852-1.9994-3.5071 0.0046712-1.375 0.80489-2.6962 1.9994-3.3679v-1.1562zm6 0v1.1562c1.237 0.69351 2.045 2.0852 1.9994 3.5071-0.0047 1.375-0.80489 2.6962-1.9994 3.3679v1.1562c1.6686-0.72094 2.892-2.3923 3.0166-4.2132 0.1462-1.6804-0.65677-3.3849-2.0084-4.3831-0.31207-0.23464-0.65097-0.43366-1.0082-0.59118zm-5 1.7812c-1.2039 0.41498-2.0704 1.6545-1.9975 2.9335 0.033561 1.1957 0.87354 2.3006 1.9975 2.6915v-1.0938c-0.8386-0.45573-1.2301-1.556-0.86561-2.4384 0.16269-0.4194 0.47613-0.77555 0.86561-0.99905v-1.0938zm4 0v1.0938c0.8386 0.45573 1.2301 1.556 0.86561 2.4384-0.16269 0.4194-0.47613 0.77555-0.86561 0.99905v1.0938c1.2039-0.41498 2.0704-1.6545 1.9975-2.9335-0.035728-1.1999-0.87057-2.2967-1.9975-2.6915zm-2.1562 1.8125c-0.46169 0.053513-0.84986 0.45912-0.84213 0.93128-0.0037819 2.6895-5.432e-4 5.3792-0.0016222 8.0687h-3v1h8v-1h-3c-0.00191-2.6969 0.0038216-5.394-0.0028687-8.0909 3.148e-4 -0.46429-0.3921-0.84283-0.84088-0.89352-0.10326-0.011033-0.20874-0.031563-0.3125-0.015625z"/></svg>
