<svg width="14" height="14" version="1.1" viewBox="0 0 14 14" xmlns="http://www.w3.org/2000/svg"><rect id="a" width="14" height="14" fill="none" visibility="hidden"/><path d="m11.474 2.5c0.024965 0.81895-0.72579 1.5633-1.5493 1.498-0.8544-0.021454-1.5336-0.89275-1.3807-1.7265 0.097631-0.81206 0.95121-1.432 1.7535-1.2411 0.6789 0.13259 1.1879 0.78118 1.1765 1.4695zm-8.4735 3.5h2v3h-2v-3zm2.4735-3.5c0.024964 0.81895-0.72579 1.5633-1.5493 1.498-0.8544-0.021454-1.5336-0.89275-1.3807-1.7265 0.097631-0.81206 0.95121-1.432 1.7535-1.2411 0.6789 0.13259 1.1879 0.78118 1.1765 1.4695zm-5.4735 2.5h7v1h-7v-1zm1 8c0.66667-1.3333 1.3333-2.6667 2-4h1c-0.66667 1.3333-1.3333 2.6667-2 4h-1zm6 0c-0.66667-1.3333-1.3333-2.6667-2-4h-1c0.66667 1.3333 1.3333 2.6667 2 4h1zm2-7h2v3h-2v-3zm-2-1h7v1h-7v-1zm0 8c0.66667-1.3333 1.3333-2.6667 2-4h1c-0.66667 1.3333-1.3333 2.6667-2 4h-1zm6 0c-0.66667-1.3333-1.3333-2.6667-2-4h-1c0.66667 1.3333 1.3333 2.6667 2 4h1z" fill-rule="evenodd"/></svg>
