<svg width="14" height="14" version="1.1" viewBox="0 0 14 14" xmlns="http://www.w3.org/2000/svg"><path d="m6 0v3.2715c-1.3328 0.68887-1.2901 2.7867 0 3.4788v7.2497h2v-7.2715c1.3575-0.69997 1.268-2.793 0-3.4986v-3.2299h-2zm5.0059 0v1.2812c1.0825 0.61831 1.8328 1.7754 1.9277 3.0217 0.13775 1.2852-0.34462 2.6427-1.3518 3.4739-0.14933 0.22873-0.61495 0.25999-0.57589 0.56903v1.1404c1.7469-0.7804 2.9232-2.6154 2.9925-4.5161 0.098437-1.7678-0.76945-3.5589-2.2428-4.5486-0.23713-0.16178-0.4882-0.30317-0.74968-0.42166zm-8.0059 0.0039062c-1.6953 0.75491-2.8651 2.5028-2.9819 4.3468-0.15485 1.8824 0.77714 3.8216 2.3835 4.8294 0.16594 0.062337 0.53451 0.40299 0.59838 0.24465v-1.1454c-1.5146-0.88781-2.2427-2.8095-1.8726-4.4992 0.21723-1.0693 0.93419-2.0022 1.8726-2.5457v-1.2305zm1 1.8555c-1.2226 0.43467-2.0714 1.7113-1.9975 3.0072 0.0325 1.2132 0.8545 2.3589 1.9975 2.7701v-1.1445c-0.92514-0.54704-1.1732-1.8682-0.68789-2.7867 0.13226-0.32825 0.50541-0.51343 0.68789-0.75319v-1.0929zm6.0059 0.00977v1.1055c0.89324 0.49943 1.3077 1.7372 0.79666 2.6451-0.17565 0.34249-0.50676 0.58598-0.79666 0.80045v1.1052c1.0322-0.35957 1.8391-1.3185 1.9439-2.4166 0.16019-1.2194-0.47581-2.5089-1.5772-3.0751-0.11838-0.062994-0.24102-0.11799-0.36678-0.16454zm-6.0059 12.131h6l-3-3-3 3z"/></svg>
