<svg width="14" height="14" version="1.1" viewBox="0 0 14 14" xmlns="http://www.w3.org/2000/svg"><rect id="a" width="14" height="14" fill="none" visibility="hidden"/><path id="b" d="m7 0c-0.44536-0.028236-0.87146 0.28612-0.95938 0.72675 0.026082 0.24044-0.096796 0.32156-0.30845 0.34467-1.1607 0.30953-2.3214 0.61905-3.4822 0.92858-0.0054894 0.33875 0.010932 0.68221-0.0081248 1.0181-0.74729 1.6606-1.4946 3.3213-2.2419 4.9819-0.017401 0.8145 0.57263 1.5514 1.3305 1.8071 0.82137 0.28089 1.7653 0.27044 2.5593-0.094742 0.65532-0.3019 1.1417-1.0002 1.1021-1.7304-0.74729-1.6606-1.4946-3.3213-2.2419-4.9819h3.25v10h-4c-0.33333 0.33333-0.66667 0.66667-1 1h12l-1-1h-4v-10h3.25c-0.75 1.6667-1.5 3.3333-2.25 5-0.017798 0.79008 0.53254 1.5183 1.2652 1.7849 0.80365 0.29663 1.7283 0.29436 2.5254-0.023182 0.70759-0.2795 1.245-1.0092 1.2012-1.7798-0.74729-1.6606-1.4946-3.3213-2.2419-4.9819v-1c-1.25-0.33333-2.5-0.66667-3.75-1 0.0018451-0.48422-0.35456-0.9767-0.86586-0.99361-0.044568-0.004383-0.089358-0.0063851-0.13414-0.0063858zm-4.5 4c0.58333 1.3333 1.1667 2.6667 1.75 4h-3.5c0.58333-1.3333 1.1667-2.6667 1.75-4zm9 0c0.58333 1.3333 1.1667 2.6667 1.75 4h-3.5c0.58333-1.3333 1.1667-2.6667 1.75-4z"/></svg>
