<svg width="14" height="14" version="1.1" viewBox="0 0 14 14" xmlns="http://www.w3.org/2000/svg"><rect id="a" width="14" height="14" fill="none" visibility="hidden"/><path id="b" d="m7 8c0.59766 0.00172 1.3127 0.071886 1.6729 0.61597 0.36084 0.60539 0.30668 1.3417 0.32662 2.0208 0.071171 0.93724-0.37464 1.806-0.44601 2.7276-0.06393 0.33117 0.16505 0.71966 0.53951 0.63233 0.70999-0.05188 1.1926-0.68706 1.4559-1.2911 0.48124-1.1276 0.56234-2.3777 0.55925-3.5889-0.016577-1.0625-0.21359-2.1309-0.02294-3.1889 0.16778-1.1979 0.62175-2.329 0.87177-3.5078 0.11429-0.70607-0.007931-1.4897-0.45933-2.0611-0.20943-0.28265-0.54775-0.42205-0.8913-0.34466-0.67882 0.025146-1.299 0.31914-1.8909 0.62484-0.87791 0.41982-1.9093 0.45225-2.8436 0.22198-0.73614-0.2063-1.3611-0.71834-2.1356-0.80719-0.31286-0.01601-0.67379-0.14696-0.95123 0.053581-0.62523 0.43917-0.79994 1.2674-0.78213 1.9893 0.096481 0.89911 0.44977 1.7438 0.65858 2.6192 0.25438 0.94423 0.3882 1.9238 0.32807 2.9024-0.029427 1.2608-0.11332 2.532 0.064302 3.7855 0.17503 0.88101 0.53951 1.7963 1.2714 2.3592 0.26849 0.18612 0.66165 0.34352 0.96442 0.14924 0.2611-0.27992 0.13956-0.70011 0.088655-1.0371-0.14971-0.74102-0.43339-1.4703-0.37777-2.2383 0.019944-0.67909-0.034222-1.4154 0.32662-2.0208 0.3578-0.5468 1.0772-0.6117 1.6729-0.61597z"/></svg>
