<svg width="14" height="14" version="1.1" viewBox="0 0 14 14" xmlns="http://www.w3.org/2000/svg"><rect id="a" width="14" height="14" fill="none" visibility="hidden"/><path id="b" d="m7 1c-1.3173-0.012299-2.6044 0.68042-3.3332 1.7758-0.48293 0.63962-0.70523 1.4332-0.76058 2.2242-0.71701 0.015347-1.5448 0.038167-2.0804 0.58717-0.53762 0.59413-0.61903 1.4394-0.70948 2.2005-0.14817 1.733-0.10442 3.4749-0.11638 5.2123h14c-0.014651-1.7909 0.038542-3.5878-0.13301-5.373-0.097116-0.74474-0.20054-1.5893-0.78404-2.1273-0.54493-0.46638-1.3086-0.484-1.9892-0.49976-0.056512-0.80855-0.29582-1.6162-0.79216-2.2667-0.7317-1.0783-1.9989-1.7427-3.3016-1.7333zm0 2c0.80196-0.029772 1.5759 0.47854 1.8756 1.2211 0.083362 0.23102 0.23315 0.59111 0.14733 0.77889h-4.0854c0.039596-0.88749 0.66489-1.7531 1.5556-1.9419 0.16596-0.039095 0.33653-0.057453 0.50695-0.05807zm-1 3h2v2h2v2h-2v2h-2v-2h-2v-2h2v-2z"/></svg>
