<svg width="14" height="14" version="1.1" viewBox="0 0 14 14" xmlns="http://www.w3.org/2000/svg"><rect id="a" width="14" height="14" fill="none" visibility="hidden"/><path id="b" d="m1 6c0.5 2.6667 1 5.3333 1.5 8h5c0.5-2.6667 1-5.3333 1.5-8h-8zm1.18 1h5.63c-0.12333 0.66667-0.24667 1.3333-0.37 2h-4.89m1.45-4c-0.0087148-0.905 0.22688-1.9119 1.0027-2.4661 0.70684-0.51789 1.611-0.54996 2.4527-0.53394h0.54462v-1c-0.41808-0.010713-0.83939 0.024694-1.2549-0.024719-0.34569-0.021518-0.66689-0.44969-0.38965-0.74335 0.31652-0.3232 0.79344-0.2108 1.1989-0.23193 0.85983 0.0040617 1.7202-0.0082495 2.5797 0.0063858 0.31816 0.002446 0.72361 0.27489 0.5896 0.63259-0.17022 0.37328-0.62831 0.36997-0.98102 0.36102h-0.74261v1h4v1.5c-2.0652 0.00275-4.1306-0.00554-6.1956 0.0042-0.49932 0.00576-1.0507 0.24499-1.2002 0.76155-0.15087 0.20056 0.0028871 0.64937-0.18339 0.73425h-1.4208z"/></svg>
