<svg width="14" height="14" version="1.1" viewBox="0 0 14 14" xmlns="http://www.w3.org/2000/svg"><rect id="a" width="14" height="14" fill="none" visibility="hidden"/><path id="b" d="m8 1c-1.0181 0.69706-2.3194 1.1028-3.5419 0.77268-0.53565-0.14187-1.0469-0.39869-1.4581-0.77268v7c0.9594 0.87003 2.3957 1.1042 3.6086 0.68787 0.65984-0.19438 1.2265-0.58953 1.8066-0.94337 1.0353-0.60712 2.3411-0.84718 3.4833-0.40448 0.40162 0.15264 0.78416 0.36832 1.1015 0.65998v-7c-0.9594-0.87003-2.3957-1.1042-3.6086-0.68787-0.49464 0.15884-0.95985 0.40022-1.3914 0.68787zm-6.5-0.75c-0.39978 0.02262-0.52337 0.4941-0.5 0.8292 0.00191 4.0039-0.003823 8.0079 0.00287 12.012-0.00151 0.31476 0.22356 0.73081 0.59039 0.64746 0.37949-0.12046 0.42316-0.57557 0.40674-0.91647-0.0019113-3.9709 0.0038233-7.9419-0.0028687-11.913-0.011435-0.28602-0.16513-0.65262-0.49713-0.65918z"/></svg>
