<svg width="14" height="14" version="1.1" viewBox="0 0 14 14" xmlns="http://www.w3.org/2000/svg"><rect id="a" width="14" height="14" fill="none" visibility="hidden"/><path id="b" d="m2 1c-0.96144 0.024416-1.821 0.83063-1.9822 1.7661-0.035667 0.40978-0.010096 0.82271-0.017834 1.2339h4l1-1h4l1 1h4c-0.012729-0.44209 0.031067-0.88844-0.03458-1.3268-0.21504-0.95331-1.1475-1.7417-2.1436-1.6732h-9.8218zm-2 3.75c0.011442 0.17598-0.022915 0.36338 0.017144 0.53223 0.219 0.40548 0.63079 0.77419 1.1214 0.71777 0.63799-0.0025409 1.2763 0.0050829 1.9141-0.0038125 0.41989-0.066223 0.74945-0.415 0.9473-0.76599v-0.4802h-4zm10 0v0.5c0.24315 0.39302 0.63503 0.80302 1.1386 0.75 0.65521-0.00541 1.3115 0.010959 1.966-0.00842 0.39946-0.082947 0.70886-0.42048 0.89538-0.76138v-0.4802h-4zm-8.5 3.25c-0.74455-0.025698-1.4486 0.57802-1.4919 1.3305-0.083967 0.65468 0.28069 1.3646 0.92946 1.5728 0.46217 0.15538 0.95509 0.07778 1.4336 0.096717 0.28605-0.036046 0.62973 0.12762 0.62741 0.45458 0.053638 0.32952-0.26642 0.58694-0.57776 0.54542h-1.9208v1c0.71493-0.0043 1.4304 0.0089 2.145-7e-3 0.76356-0.052799 1.3828-0.76499 1.355-1.5242 0.026817-0.8228-0.75258-1.5167-1.5594-1.4688-0.35195-0.0082351-0.70642 0.017666-1.0566-0.015259-0.46273-0.058145-0.52535-0.79938-0.087402-0.94287 0.30364-0.079529 0.62434-0.026434 0.93593-0.04187h1.2674v-1h-2zm5 0c-0.56128-0.0274-1.1358 0.28624-1.3455 0.82022-0.23095 0.50797-0.13354 1.0715-0.1545 1.6103 0.012818 0.45271-0.030906 0.90944 0.033371 1.3587 0.087799 0.58188 0.54095 1.1112 1.1418 1.1848 0.48472 0.04673 0.97433 0.02169 1.4611 0.02173 0.57224-0.0079 1.1021-0.40399 1.2632-0.95416 0.16194-0.48145 0.080843-0.99394 0.10057-1.4919-0.012669-0.44612 0.030674-0.89622-0.033371-1.3389-0.087799-0.58188-0.54095-1.1112-1.1418-1.1847-0.43849-0.048454-0.88393-0.017061-1.3248-0.026035zm5 0c-0.74454-0.025698-1.4486 0.57802-1.4919 1.3305-0.083966 0.65468 0.28069 1.3646 0.92946 1.5728 0.46217 0.15538 0.95509 0.07778 1.4336 0.09672 0.28605-0.03605 0.62973 0.12762 0.62741 0.45458 0.05364 0.32952-0.26642 0.58694-0.57776 0.54542h-1.9208v1c0.71493-0.0043 1.4304 0.0089 2.145-7e-3 0.76356-0.052802 1.3828-0.765 1.355-1.5243 0.026817-0.8228-0.75258-1.5167-1.5594-1.4688-0.35195-0.0082351-0.70642 0.017666-1.0566-0.015259-0.46273-0.058145-0.52535-0.79938-0.087402-0.94287 0.30364-0.079529 0.62434-0.026434 0.93593-0.04187h1.2674v-1h-2zm-5.5 1.75c-0.005334-0.37692 0.28669-0.75071 0.68186-0.74785 0.34784 0.017511 0.73772-0.07686 1.0397 0.14246 0.32745 0.25343 0.27815 0.69374 0.27848 1.0608-0.00676 0.3871 0.014175 0.77581-0.011719 1.1618-0.035209 0.38266-0.39605 0.67632-0.77788 0.63281-0.35083-0.01285-0.77582 0.073458-1.0273-0.2373-0.26842-0.33273-0.16087-0.77378-0.18311-1.1661v-0.84663z" color="#000000"/></svg>
