<svg width="14" height="14" version="1.1" viewBox="0 0 14 14" xmlns="http://www.w3.org/2000/svg"><rect id="a" width="14" height="14" fill="none" visibility="hidden"/><path id="b" d="m5 3c-1.2338-0.014069-2.5539 0.38125-3.3586 1.3648-0.42541 0.50743-0.6903 1.1653-0.64136 1.8332v0.80201h12c-0.014689-0.47194 0.038607-0.94962-0.048828-1.416-0.27429-1.2138-1.3446-2.1142-2.5219-2.4077-0.92457-0.2541-1.8886-0.15658-2.835-0.17632h-2.5943zm-4 5c-0.32596-0.016441-0.77859 0.15756-0.74707 0.54681 0.071692 0.38781 0.53096 0.47388 0.86586 0.45319 3.9907-0.00191 7.9815 0.00382 11.972-0.00287 0.31476 0.00151 0.73081-0.22356 0.64746-0.59039-0.12046-0.37949-0.57557-0.42316-0.91647-0.40674h-11.822zm0 2.0312c0.013606 0.42014-0.072467 0.88233 0.21009 1.2398 0.33366 0.48246 0.92009 0.77933 1.5077 0.72891 2.9489-0.0013 5.8979 0.0025 8.8467-0.0019 0.67102-0.06364 1.3461-0.58497 1.4331-1.2778 0.0052-0.2296 1e-3 -0.45938 0.0024-0.68905h-12z"/></svg>
