<svg width="14" height="14" version="1.1" viewBox="0 0 14 14" xmlns="http://www.w3.org/2000/svg"><rect id="a" width="14" height="14" fill="none" visibility="hidden"/><path id="b" d="m7 0c-1.6542 0.55733-3.0248 1.8098-3.8409 3.3405-0.88373 1.6453-1.2798 3.5551-1.1212 5.416 0.17341 1.8955 1.2 3.7409 2.8508 4.7311 0.34946 0.21207 0.72284 0.38494 1.1113 0.51239-0.78301-1.2886-1.45-2.7419-1.3885-4.2821 0.039611-1.2511 0.73032-2.4026 1.6809-3.186 0.18166-0.1294 0.6061-0.53245 0.68467-0.46756-0.30064 0.99404-0.17979 2.0639 0.071926 3.0551 0.19 0.67823 0.45687 1.3635 0.951 1.8806 0.46993-0.48745 0.81278-1.1079 0.97473-1.7653 0.013586-0.18333 0.021675-0.2987 0.16029-0.094645 0.59019 0.60935 0.99853 1.4591 0.87281 2.3225-0.11286 0.92009-0.65348 1.7019-1.0078 2.5375 1.4063-0.71054 2.5061-2.0381 2.8445-3.5879 0.31718-1.3698 0.1479-2.8373-0.45539-4.1059-0.50803-1.0995-1.1614-2.1655-1.3225-3.3884-0.089025-0.26539 0.013005-0.78446-0.13084-0.88916-1.1386 0.51534-1.9154 1.7255-1.9357 2.9713-0.7211-0.47109-1.1053-1.3103-1.2974-2.1247-0.21534-0.958-0.1056-1.9807 0.29737-2.8753z"/></svg>
