<svg width="14.933" height="14.933" version="1.1" viewBox="0 0 14 14" xmlns="http://www.w3.org/2000/svg"><path d="m8.5372 1.2756c-0.069494 1.245 1.7582 1.7155 2.3411 0.67028 0.63868-0.90903-0.39008-2.2919-1.4652-1.8685-0.51041 0.15651-0.88367 0.66344-0.87597 1.1982zm-6.8522 8.5591c0.90954 0.23122 1.817 0.47213 2.7278 0.69729 0.31306 0.029038 0.68478-0.047116 0.83052-0.3598 0.41035-0.67615 0.8207-1.3523 1.2311-2.0284 0.53192 0.57096 1.0638 1.1419 1.5957 1.7129-0.2239 1.1247-0.45722 2.2491-0.6752 3.374-0.028255 0.46266 0.45635 0.89836 0.91108 0.71623 0.38896-0.14152 0.40847-0.59565 0.48524-0.94164 0.24424-1.2192 0.49283-2.4376 0.73433-3.6573 0.065068-0.3108-0.0047795-0.65426-0.24938-0.86869-0.43261-0.48295-0.86522-0.9659-1.2978-1.4489 0.50631-0.6565 1.0126-1.313 1.5189-1.9695 0.35566 0.38847 0.6949 0.79335 1.0615 1.1708 0.29485 0.23204 0.67432-8.02e-5 0.86566-0.25661 0.50321-0.56174 1.0064-1.1235 1.5096-1.6852 0.28127-0.34447 0.057643-0.97808-0.41441-0.97638-0.30281-0.015091-0.44392 0.28517-0.63279 0.46657-0.34144 0.38128-0.68287 0.76255-1.0243 1.1438-0.54829-0.60994-1.0924-1.2237-1.6434-1.8312-0.15816-0.20063-0.41386-0.17263-0.62862-0.10799-1.1037 0.24918-2.211 0.48516-3.3125 0.7426-0.33613 0.19024-0.4588 0.57751-0.66045 0.88504-0.14308 0.24657-0.28617 0.49313-0.42925 0.7397-0.36536 0.30164-0.15336 1.0142 0.3376 1.0103 0.31471 0.011022 0.45327-0.29295 0.58795-0.52203 0.23565-0.39468 0.4713-0.78936 0.70695-1.184 0.48521-0.082221 0.97042-0.16444 1.4556-0.24666-1.0066 1.5626-2.0131 3.1252-3.0197 4.6878-0.82015-0.23547-1.6403-0.47093-2.4605-0.7064-0.38931-0.02926-0.80203 0.32866-0.76905 0.72762 0.037171 0.3439 0.32599 0.63813 0.65755 0.71611z"/></svg>
