<svg width="14" height="14" version="1.1" viewBox="0 0 14 14" xmlns="http://www.w3.org/2000/svg"><rect id="a" width="14" height="14" fill="none" visibility="hidden"/><path id="b" d="m4.5 1c-1.1667 1-2.3333 2-3.5 3 1.1667 1 2.3333 2 3.5 3v-2h5v2c1.1667-1 2.3333-2 3.5-3-1.1667-1-2.3333-2-3.5-3v2h-5v-2zm-1.5 6.5c-0.49421 0.064925-0.87102 0.4361-1.2848 0.68359-0.18027 0.20874-0.61289 0.2182-0.71516 0.3956v1.4208c0.49845-0.065714 0.88252-0.43385 1.3003-0.68359 0.29513-0.19376 0.67499-0.44875 1.0258-0.22412 0.54504 0.25949 0.98202 0.7246 1.569 0.89648 0.37541 0.046322 0.6823-0.24087 0.98698-0.41866 0.35506-0.21613 0.69245-0.51743 1.1179-0.57011 0.47924 0.069432 0.85078 0.42208 1.2554 0.66145 0.29722 0.17944 0.65502 0.4605 1.0147 0.27294 0.57832-0.24722 1.0328-0.72774 1.6347-0.92316 0.37155-0.042219 0.67549 0.24301 0.978 0.41866 0.35507 0.21566 0.69213 0.51673 1.1171 0.57011v-1.5c-0.41831-0.078451-0.74053-0.39475-1.0989-0.60558-0.34158-0.20467-0.74601-0.52762-1.1589-0.32881-0.57323 0.25767-1.0259 0.74565-1.6369 0.92316-0.35713 0.046316-0.6493-0.22952-0.9407-0.39551-0.37118-0.22292-0.72252-0.53527-1.1646-0.59326-0.48298 0.070178-0.86092 0.42057-1.2695 0.66145-0.29083 0.1697-0.63674 0.46178-0.9874 0.27294-0.57326-0.25816-1.0267-0.74548-1.6379-0.92316l-0.053859-0.00836zm0 3c-0.49421 0.064925-0.87102 0.4361-1.2848 0.68359-0.18027 0.20874-0.61289 0.2182-0.71516 0.3956v1.4208c0.49845-0.065714 0.88252-0.43385 1.3003-0.68359 0.29513-0.19376 0.67499-0.44875 1.0258-0.22412 0.54504 0.25949 0.98202 0.7246 1.569 0.89648 0.37541 0.046321 0.6823-0.24087 0.98698-0.41866 0.35506-0.21613 0.69245-0.51743 1.1179-0.57011 0.47924 0.06943 0.85078 0.42208 1.2554 0.66145 0.29722 0.17944 0.65502 0.4605 1.0147 0.27294 0.57832-0.24722 1.0328-0.72774 1.6347-0.92316 0.37155-0.04222 0.67549 0.24301 0.978 0.41866 0.35507 0.21566 0.69213 0.51673 1.1171 0.57011v-1.5c-0.41831-0.078451-0.74053-0.39476-1.0989-0.60558-0.34158-0.20467-0.74601-0.52762-1.1589-0.32881-0.57323 0.25767-1.0259 0.74565-1.6369 0.92316-0.35713 0.046316-0.6493-0.22952-0.9407-0.39551-0.37118-0.22292-0.72252-0.53527-1.1646-0.59326-0.48298 0.070178-0.86092 0.42056-1.2695 0.66145-0.29083 0.1697-0.63674 0.46178-0.9874 0.27294-0.57326-0.25816-1.0267-0.74548-1.6379-0.92316l-0.053859-0.0084z"/></svg>
