<svg width="14" height="14" version="1.1" viewBox="0 0 14 14" xmlns="http://www.w3.org/2000/svg"><rect id="a" width="14" height="14" fill="none" visibility="hidden"/><path d="m0 11h14c-0.51315 0.97615-1.5193 1.5595-2.492 1.9973-1.3944 0.59086-2.8971 0.95102-4.4128 1.002-1.4737-0.005668-2.9334-0.36588-4.2921-0.9223-1.0709-0.46225-2.1415-1.0864-2.8031-2.077zm9-10.939c-0.7537-2.166e-4 -1.3328 0.59901-1.696 1.2018-0.12672 0.15627-0.23754 0.52838-0.33175 0.57342-0.3055-0.70064-0.74189-1.4418-1.4874-1.735-0.68-0.2579-1.4711 0.076014-1.8515 0.67562-0.44735 0.66941-0.64991 1.4937-0.62693 2.2942-0.021591 0.35014 0.36545 0.65033 0.67721 0.43559 0.34212-0.16354 0.26888-0.58248 0.48034-0.84377 0.23183-0.37429 0.49451-0.83476 0.96277-0.92165 0.41321-0.016556 0.62243 0.43185 0.74816 0.75832 0.24231 0.70413 0.34226 1.4542 0.36732 2.1958 0.071138 0.30419-0.21276 0.03921-0.37117 0.016004-1.1624-0.42408-2.6098 0.048624-3.2109 1.1532-0.38262 0.6419-0.42898 1.4014-0.41016 2.1292 0.022364 0.36329-0.085262 0.77872 0.18393 1.0771 0.37291 0.42889 1.2084 0.24934 1.2992-0.33691 0.052644-0.51679-0.029478-1.0429 0.055144-1.5574 0.10937-0.64223 0.74261-1.2428 1.4212-1.0936 0.69199 0.16884 1.0849 0.91496 1.0327 1.5926v2.3244c0.27764-0.1796 0.56563-0.54531 0.93248-0.3984 0.18722 0.026424 0.4998 0.47342 0.55302 0.31921 0.013169-0.86958 0.00653-1.7402 0.032043-2.6091 0.054704-0.66712 0.62774-1.3528 1.3399-1.2882 0.72412 0.089276 1.1809 0.84285 1.1425 1.5334 0.01189 0.39184-0.02693 0.78798 0.02604 1.1765 0.1321 0.61845 1.0807 0.72145 1.3755 0.17944 0.16187-0.31179 0.07709-0.67252 0.09842-1.0093 0.023489-0.75755-0.051984-1.552-0.4833-2.2001-0.67318-1.0862-2.1784-1.4767-3.3261-0.95917-0.37956 0.2231-0.096245-0.51602-0.11917-0.73588 0.11047-0.66296 0.22472-1.3775 0.66844-1.9093 0.20077-0.25432 0.59025-0.26932 0.82449-0.052868 0.3119 0.2491 0.51375 0.60419 0.69347 0.95389-0.00461 0.4039 0.59321 0.74352 0.87738 0.3929 0.21238-0.34924 0.10226-0.78187 0.05658-1.1624-0.1507-0.80216-0.51192-1.6864-1.302-2.0435-0.19877-0.085893-0.41573-0.12647-0.63191-0.12604z" fill-rule="evenodd"/></svg>
