<svg width="14" height="14" version="1.1" viewBox="0 0 14 14" xmlns="http://www.w3.org/2000/svg"><rect id="a" width="14" height="14" fill="none" visibility="hidden"/><path id="b" d="m10.781 0c-0.20833 0.23958-0.41667 0.47917-0.625 0.71875 0.43635 0.40745 0.88433 0.80278 1.3125 1.2188-0.20381 0.2425-0.50753 0.4767-0.4501 0.833 0.03927 0.44215 0.4364 0.68539 0.70736 0.98675 0.08629 0.10002 0.2112 0.18405 0.274 0.2938-0.0029 2.0416 0.0058 4.0835-0.0044 6.125-0.014889 0.31541-0.088837 0.81799-0.4956 0.82398-0.40676-6e-3 -0.48071-0.50857-0.49557-0.82398-0.0144-1.4506 0.0069-2.902-0.01092-4.3524-0.034405-0.81707-0.6464-1.5526-1.4376-1.7488-0.16405-0.12622-0.6025 0.061856-0.55591-0.2134-0.0067311-0.67101 0.013836-1.3433-0.010973-2.0135-0.059111-0.51992-0.57473-0.90289-1.088-0.84794-1.9855 8.239e-4 -3.9711-0.0016479-5.9566 0.0012359-0.50617-0.0037276-0.94631 0.44015-0.94324 0.94528-0.0027245 4.0178-3.897e-4 8.0357-0.0011679 12.053h8v-9c0.48422-0.00185 0.9767 0.35456 0.99361 0.86586 0.017085 1.4382-0.00244 2.8774 0.00995 4.3158 0.01725 0.63836 0.21714 1.3876 0.84306 1.6842 0.61665 0.27893 1.4723 0.14285 1.8347-0.4725 0.41768-0.68922 0.29997-1.5163 0.31869-2.2844-0.003333-2.1098 0.006721-4.2197-0.005126-6.3294-0.002797-0.45759-0.15967-0.92915-0.52612-1.2226-0.56061-0.52105-1.1253-1.0378-1.6875-1.5571zm-8.7812 3h6v3h-6v-3z"/></svg>
