<svg width="14" height="14" version="1.1" viewBox="0 0 14 14" xmlns="http://www.w3.org/2000/svg"><rect id="a" width="14" height="14" fill="none" visibility="hidden"/><path id="b" d="m6 2c0.4641 0.75397 1.2493 1.4421 2.1819 1.4149 0.70509-0.023037 1.3267-0.43929 1.8181-0.91494 0.33204 0.50086 0.66604 1.0004 1 1.5-0.90133 0.56616-2.0857 0.86755-3.0986 0.41786-0.98421-0.43996-1.5529-1.4458-1.9014-2.4179zm-5 2c0.32005 0.67319 0.65258 1.3405 1 2 0.36134-0.69868 1.201-0.95461 1.9348-0.99805 0.59332-0.00463 1.2876 0.09057 1.6688 0.59666 0.26913 0.37162 0.098837 0.92537-0.30528 1.1216-0.39215 0.22357-0.85421 0.2764-1.2983 0.27984v1.5c0.6292-0.14479 1.3992 0.09112 1.6698 0.71871 0.24273 0.48696-0.02571 1.0696-0.47014 1.332-0.82386 0.51749-1.8768 0.51289-2.7908 0.26892-0.99551-0.27048-1.8865-0.92586-2.4088-1.8196-0.011334 1.127 0.30819 2.3374 1.1984 3.0896 0.86413 0.73341 2.0563 0.98346 3.1649 0.88749 0.92868-0.1015 1.7023-0.77711 2.1028-1.596 0.37296-0.73332 0.5319-1.5623 0.53394-2.3811 0.47685 0.52821 1.3353 0.5175 1.8769 0.095882 0.73799-0.52765 1.0814-1.4619 1.878-1.9185 0.47848-0.2607 1.1736-0.26841 1.5248 0.2059 0.46136 0.62809 0.47829 1.4656 0.3598 2.2071-0.12365 0.72201-0.46946 1.4995-1.1983 1.7794-1.1962 0.48447-2.7799 0.0077-3.3623-1.1829-0.15092-0.43107-0.053631 0.35861-0.053864 0.52131 0.049643 0.76324 0.42163 1.5457 1.1255 1.9052 0.72567 0.37975 1.5826 0.43839 2.384 0.34782 0.90682-0.11254 1.7132-0.72643 2.086-1.5572 0.58947-1.2844 0.46555-2.7912 0.0013-4.0941-0.29062-0.85065-0.86001-1.6928-1.7563-1.9721-0.77381-0.23776-1.645-0.088624-2.3354 0.31859-0.50937 0.34608-0.69354 0.9712-1.0905 1.4201-0.2505 0.38028-0.54244 0.80316-1.0281 0.8824-0.44792 0.12384-0.91893-0.03283-1.2644-0.32896-0.33531-0.18969 0.26728-0.35694 0.3311-0.59839 0.64007-0.85245 0.42741-2.1139-0.29083-2.8515-0.83598-0.8689-2.1363-1.1053-3.2921-0.94304-0.67831 0.098998-1.3566 0.32823-1.8955 0.763zm6-2c0.33333-0.33333 0.66667-0.66667 1-1 0.33333 0.33333 0.66667 0.66667 1 1l-1 1-1-1z"/></svg>
