<svg version="1.1" viewBox="0 0 16 16" xmlns="http://www.w3.org/2000/svg"><rect id="a" width="16" height="16" fill="none" visibility="hidden"/><path d="m15 13.597v-0.43257c-0.44473 1.48e-4 -0.88945 2.97e-4 -1.3342 4.45e-4v-6.4773h1.3342l-4.4529-4.0173-4.4455 4.0173h1.4421v6.4773h-2.3227c-0.45249-1.3968-0.90499-2.7935-1.3575-4.1903 1.0733 0.39749 2.1701 0.78089 3.3187 0.87642-1.1512-0.74128-2.2382-1.5953-3.1418-2.6293 0.67211 0.20202 1.3543 0.41023 2.0612 0.43257-1.2889-0.8953-2.4175-2.0258-3.2683-3.3475-0.40907-0.61349-0.76172-1.2617-1.1233-1.9035 0.065525 1.0688 0.18151 2.1378 0.12481 3.2103-0.04645 1.5094-0.2129 3.0425-0.75884 4.4606-0.18948 0.37698 0.42132-0.18728 0.58282-0.27463 0.44106-0.339 0.839-0.72932 1.228-1.1259-0.40309 1.0619-1.151 1.9355-1.8843 2.7835 1.0439-0.26612 1.9096-0.98028 2.6034-1.7792 0.29995 1.1623 0.59991 2.3246 0.89986 3.4869-1.1673-0.0012-2.3346-0.0025-3.5019-0.0037-0.00126 0.14168-0.00251 0.28336-0.00377 0.42504 4.6667 4e-3 9.3333 0.0072 14 0.01079z" stroke-miterlimit="10.433" stroke-width="0"/></svg>
