<svg width="14" height="14" version="1.1" viewBox="0 0 14 14" xmlns="http://www.w3.org/2000/svg"><rect id="a" width="14" height="14" fill="none" visibility="hidden"/><path id="b" d="m0.625 3c-0.40703-0.031691-0.65532 0.3845-0.625 0.75v7.25h1.25v-1.75c3.8333 3e-3 7.6667 0.018821 11.5 0v1.75h1.25c-0.0011-2.1042 0.0022-4.2086-0.0017-6.3128 0.017318-0.38377-0.31094-0.75926-0.71057-0.68244-0.42167 0.032584-0.57202 0.50261-0.53773 0.86399v3.1312h-11.5c-0.0019165-1.4469 0.0038437-2.894-0.0028992-4.3408 4.858e-4 -0.34429-0.25159-0.68546-0.6221-0.65918zm2.875 1c-0.82985-0.023672-1.5644 0.74959-1.498 1.5772 0.019224 0.82964 0.82844 1.5232 1.6514 1.4151 0.8273-0.061697 1.4787-0.90433 1.3294-1.7207-0.097169-0.71448-0.76118-1.2851-1.4827-1.2716zm2 1v2h6.5c-0.025226-0.90241-0.74658-1.6947-1.5922-1.9435-0.42507-0.1-0.86596-0.040238-1.2988-0.056545h-3.609z"/></svg>
