<svg width="14" height="14" version="1.1" viewBox="0 0 14 14" xmlns="http://www.w3.org/2000/svg"><rect id="a" width="14" height="14" fill="none" visibility="hidden"/><path id="b" d="m7.0312 0c-0.67708 1.1562-1.3542 2.3125-2.0312 3.4688h-4c0.66667 1.1667 1.3333 2.3333 2 3.5-0.66667 1.1667-1.3333 2.3333-2 3.5h4c0.67708 1.1771 1.3542 2.3542 2.0312 3.5312 0.66667-1.1771 1.3333-2.3542 2-3.5312h3.9688c-0.65625-1.1667-1.3125-2.3333-1.9688-3.5 0.65625-1.1667 1.3125-2.3333 1.9688-3.5h-3.9688c-0.66667-1.1562-1.3333-2.3125-2-3.4688zm0 2.4375c0.19792 0.34375 0.39583 0.6875 0.59375 1.0312h-1.1875c0.19792-0.34375 0.39583-0.6875 0.59375-1.0312zm-3.9062 2.1875h1.2188c-0.20833 0.35417-0.41667 0.70833-0.625 1.0625-0.19792-0.35417-0.39583-0.70833-0.59375-1.0625zm2.6562 0h2.5c0.4375 0.78125 0.875 1.5625 1.3125 2.3438-0.4375 0.78125-0.875 1.5625-1.3125 2.3438h-2.5c-0.4375-0.78125-0.875-1.5625-1.3125-2.3438 0.4375-0.78125 0.875-1.5625 1.3125-2.3438zm3.9062 0h1.25c-0.20833 0.36458-0.41667 0.72917-0.625 1.0938-0.20833-0.36458-0.41667-0.72917-0.625-1.0938zm0.625 3.5938c0.20833 0.36458 0.41667 0.72917 0.625 1.0938h-1.25c0.20833-0.36458 0.41667-0.72917 0.625-1.0938zm-6.5938 0.03125c0.20833 0.35417 0.41667 0.70833 0.625 1.0625h-1.2188c0.19792-0.35417 0.39583-0.70833 0.59375-1.0625zm2.7188 2.2188h1.1875c-0.19792 0.34375-0.39583 0.6875-0.59375 1.0312-0.19792-0.34375-0.39583-0.6875-0.59375-1.0312z"/></svg>
