<svg width="14" height="14" version="1.1" viewBox="0 0 14 14" xmlns="http://www.w3.org/2000/svg"><rect id="a" width="14" height="14" fill="none" visibility="hidden"/><path d="m2.5918 0.87695c-0.23044 0.03663-0.68591-8.0177e-4 -0.5918 0.34084v7.7822c1.3597-5.504e-4 2.7761 0.62265 3.4994 1.8122 0.22878 0.36605 0.39237 0.77058 0.50061 1.1878v-8.4004c-0.5273-1.0595-1.3428-2.0383-2.4398-2.5319-0.30506-0.12857-0.63613-0.20454-0.96841-0.19076zm3.4082 11.123c-1.3969-1.0556-3.0939-1.6414-4.7994-1.9673-0.25555 0.049547-0.19871-0.16406-0.20061-0.32972v-7.3026c-0.33333-0.13346-0.66667-0.26693-1-0.40039v9c2 0.66667 4 1.3333 6 2 0.67258-0.0042 1.3479 0.0084 2.0188-0.0063 1.9937-0.66454 3.9875-1.3291 5.9812-1.9937v-9c-0.33333 0.13346-0.66667 0.26693-1 0.40039v8c-1.6667 0.5332-3.3333 1.0664-5 1.5996-0.63639-0.23684-1.3629-0.23056-2 0zm6-11c-1.4748-0.059149-2.9063 0.48114-4.1724 1.1966-0.4669 0.27006-0.91601 0.57322-1.3276 0.92251v8.4648c1.5661-1.2762 3.4801-2.1708 5.5-2.3848v-8.1992z"/></svg>
