<svg width="14" height="14" version="1.1" viewBox="0 0 14 14" xmlns="http://www.w3.org/2000/svg"><rect id="a" width="14" height="14" fill="none" visibility="hidden"/><path id="b" d="m7.0003 0-3 1.5c-0.33881 1.0152-0.43963 2.1069-0.26159 3.1641 0.06583 0.44919 0.15905 0.89385 0.26159 1.3359h1c-0.33333 2.6667-0.66667 5.3333-1 8h6c-0.33333-2.6667-0.66667-5.3333-1-8h1c0.32205-1.1983 0.56828-2.4736 0.24231-3.6991-0.12599-0.27233-0.076471-0.71577-0.36627-0.86288-0.95868-0.47934-1.9174-0.95868-2.876-1.438zm-6.2812 1.4688c-0.30341 0.17662-0.083194 0.50788 0.18383 0.54228 0.58295 0.22932 1.1612 0.47226 1.7471 0.69292 0.33071 0.05721 0.38952-0.48263 0.058005-0.51461-0.61885-0.24458-1.234-0.49956-1.8552-0.73754-0.044731-0.010728-0.093172-0.0046017-0.13379 0.01695zm12.375 0c-0.64144 0.26068-1.2893 0.50745-1.9267 0.77694-0.27804 0.18748 0.0501 0.61891 0.31269 0.4124 0.61693-0.25086 1.2402-0.48785 1.8531-0.74753 0.24085-0.15225 0.025465-0.56748-0.23915-0.44181zm-8.5938 0.53125h5c0.25828 0.97816 0.25828 2.0218 0 3h-5c-0.2583-0.97907-0.25832-2.0209 0-3zm-3.75 1.25c-0.36226-0.014902-0.29157 0.58843 0.059397 0.5 0.66613-0.0037309 1.333 0.0074709 1.9987-0.0056152 0.32857-0.06906 0.18121-0.58871-0.13727-0.49438h-1.9208zm10.5 0c-0.36248-0.014918-0.2919 0.58861 0.0594 0.5 0.6661-0.00373 1.3329 0.00747 1.9986-0.00562 0.32821-0.06921 0.1813-0.58866-0.13716-0.49438h-1.9208zm-8.6563 1.125c-0.64144 0.26068-1.2893 0.50745-1.9267 0.77694-0.27804 0.18748 0.050102 0.61891 0.31269 0.4124 0.61693-0.25086 1.2402-0.48785 1.8531-0.74753 0.24085-0.15225 0.025465-0.56748-0.23915-0.44181zm8.625 0c-0.30341 0.17662-0.08319 0.50788 0.18383 0.54228 0.58295 0.22932 1.1612 0.47226 1.7471 0.69292 0.33071 0.057211 0.38952-0.48263 0.058-0.51461-0.61884-0.24458-1.234-0.49955-1.8552-0.73754-0.04473-0.010727-0.09317-0.0046-0.13379 0.01695z"/></svg>
