<svg width="14" height="14" version="1.1" viewBox="0 0 14 14" xmlns="http://www.w3.org/2000/svg"><rect id="a" width="14" height="14" fill="none" visibility="hidden"/><path id="b" d="m6 2c-0.97636 0.025315-1.8509 0.85651-1.9885 1.8127-0.02563 0.79336-0.0046578 1.5886-0.011475 2.3827v5.8045h8c-0.0019-2.6979 0.0039-5.3959-0.0029-8.0937-0.083206-0.96773-0.93565-1.8202-1.9034-1.9034-1.3645-0.0067313-2.7292-9.913e-4 -4.0937-0.0028992zm1 2h2v1h-2v-1zm-2 2h6v1h-6v-1zm1 2h4v1h-4v-1zm-3 5c-0.33333 0.33333-0.66667 0.66667-1 1v1h12v-1l-1-1h-10z"/></svg>
