<svg width="14" height="14" version="1.1" viewBox="0 0 14 14" xmlns="http://www.w3.org/2000/svg"><rect id="a" width="14" height="14" fill="none" visibility="hidden"/><rect width="16" height="16" fill="none" visibility="hidden"/><path id="b" d="m7 0c-0.66051 0.52068-1.3469 1.0342-1.8688 1.7008-0.21207 0.25971-0.10542 0.60423-0.13123 0.91014v7.3891h4v-8c-0.11183-0.40775-0.4841-0.67753-0.76753-0.97032-0.39422-0.36244-0.80869-0.7025-1.2325-1.0297zm-3 11c-0.46092-0.041241-0.85212 0.32836-0.91626 0.77124-0.090681 0.40281-0.081534 0.81837-0.08374 1.2288h-1c-0.33333 0.33333-0.66667 0.66667-1 1h12l-1-1h-1c-0.01677-0.58544 0.05475-1.247-0.32495-1.7375-0.3306-0.364-0.85009-0.23949-1.286-0.26245h-5.3891z"/></svg>
