<svg width="14" height="14" version="1.1" viewBox="0 0 14 14" xmlns="http://www.w3.org/2000/svg"><rect id="a" width="14" height="14" fill="none" visibility="hidden"/><path id="b" d="m0.625 0c-0.40703-0.031691-0.65532 0.3845-0.625 0.75v5.75h1.25v-1.5c3.8333 3e-3 7.6667 0.018821 11.5 0v1.5h1.25c-0.0045-1.6256 9e-3 -3.2517-0.0069-4.8769-0.002358-0.38347-0.36579-0.70628-0.74691-0.61239-0.38396 0.051664-0.54827 0.47498-0.49619 0.81849v1.9208h-11.5c-0.00419-1.0446 0.00846-2.0898-0.00649-3.134-0.013998-0.33432-0.26409-0.6371-0.61851-0.61597zm2.875 0c-0.82985-0.023672-1.5644 0.74959-1.498 1.5772 0.019224 0.82964 0.82844 1.5232 1.6514 1.4151 0.8273-0.061697 1.4787-0.90433 1.3294-1.7207-0.097169-0.71448-0.76118-1.2851-1.4827-1.2716zm2 1v2h6.5c-0.025226-0.90241-0.74658-1.6947-1.5922-1.9435-0.42507-0.1-0.86596-0.040238-1.2988-0.056545h-3.609zm-1.5 5c-0.33333 1-0.66667 2-1 3-0.5691-0.0070486-1.0653 0.52987-1 1.099v2.901h1c-0.00185 0.48422 0.35456 0.9767 0.86586 0.99361 0.44803 0.066406 0.94144-0.17733 1.0671-0.63259 0.047499-0.21654 0.029391-0.43734 0.30464-0.36102h3.7624c-0.00185 0.48422 0.35456 0.9767 0.86586 0.99361 0.44803 0.06641 0.94144-0.17733 1.0671-0.63259 0.0475-0.21654 0.02939-0.43734 0.30464-0.36102h0.76241c-0.0034-1.0323 0.0069-2.065-0.0052-3.097-0.050794-0.48918-0.49949-0.9068-0.9948-0.90298-0.33333-1-0.66667-2-1-3h-6zm1 1h4c0.20833 0.66667 0.41667 1.3333 0.625 2h-5.25c0.20833-0.66667 0.41667-1.3333 0.625-2zm-1 3.25c0.54625-0.02493 0.9416 0.63899 0.65948 1.1075-0.23692 0.48717-0.99873 0.52405-1.2814 0.06184-0.34178-0.4756 0.035704-1.1866 0.62191-1.1693zm6 0c0.54625-0.02493 0.9416 0.63899 0.65948 1.1075-0.23692 0.48717-0.99873 0.52405-1.2814 0.06184-0.34178-0.4756 0.035704-1.1866 0.62191-1.1693z"/></svg>
