<svg width="14" height="14" version="1.1" viewBox="0 0 14 14" xmlns="http://www.w3.org/2000/svg"><rect id="a" width="14" height="14" fill="none" visibility="hidden"/><path id="b" d="m11.656 5.8256c0.38562 0.2483 0.64836 0.69751 0.58779 1.1639-0.0096 0.32472-0.14156 0.6298-0.27602 0.92046-0.7621 0.01252-1.5593 0.25701-2.0681 0.85185-0.47768 0.53782-0.70176 1.2451-0.83659 1.9387-0.4615 0.54878-1.2245 0.64556-1.8952 0.70628-0.80622 0.04564-1.6153 0.01842-2.4215 0.05369 0.014309-0.41021 0.073068-0.83502 0.022215-1.2511-0.052185-0.78483-0.46023-1.5766-1.1856-1.9343-0.66429-0.35954-1.4338-0.36754-2.1695-0.37662-0.24939-0.26428-0.25911-0.71928 0.022332-0.96442 0.3331-0.38189 0.66621-0.76378 0.99931-1.1457 1.7304-0.010045 3.4607 0.0071237 5.1909 0.026406 0.26031 0.30007 0.38856 0.69662 0.573 1.0462 0.14716 0.17088 0.17167 0.63089 0.35374 0.62752 0.51206-0.1693 0.76115-0.67958 1.0681-1.0797 0.037428-1.0988-0.28835-2.1663-0.51412-3.2311-0.070225-0.35359-0.17757-0.70782-0.16585-1.0712 0.14743-0.29506 0.44063 0.25371 0.56733 0.37148 0.78355 1.0703 1.4546 2.2183 2.1477 3.3476zm-0.10899 2.3531c1.0796-0.10083 2.1046 0.70867 2.3636 1.7416 0.31463 1.0819-0.20092 2.3552-1.228 2.8511-0.91346 0.48047-2.1213 0.18134-2.7378-0.63663-0.78612-0.96238-0.68802-2.513 0.2366-3.3514 0.36912-0.34944 0.85847-0.56744 1.3657-0.60463zm-9.254 0.0057c1.0846-0.038304 2.0461 0.85364 2.2403 1.895 0.23078 1.0578-0.30081 2.2505-1.2992 2.709-0.8984 0.45097-2.0678 0.16222-2.6824-0.62454-0.7518-0.90103-0.73924-2.3412 0.056805-3.2113 0.41701-0.47799 1.0424-0.79563 1.6844-0.76811zm9.3401 0.8263c-0.8178 0.024728-1.468 0.8154-1.4279 1.6152-0.0025 0.80912 0.70665 1.5851 1.5385 1.5365 0.82881 0.0061 1.5041-0.80199 1.4576-1.6092 0.0068-0.83287-0.7141-1.6037-1.5682-1.5425zm-9.3351 0.0057c-0.84386-0.030038-1.5606 0.78584-1.5013 1.6131-0.01592 0.82551 0.73134 1.6051 1.5727 1.5328 0.8247-0.021433 1.4726-0.83238 1.4194-1.6354-0.0097036-0.78723-0.68198-1.5308-1.4908-1.5105z" fill="#1a1a1a" fill-rule="evenodd"/></svg>
