<svg width="14" height="14" version="1.1" viewBox="0 0 14 14" xmlns="http://www.w3.org/2000/svg"><rect id="a" width="14" height="14" fill="none" visibility="hidden"/><path id="b" d="m12.105 8.5928c0.30112 0.16576 0.51322 0.50028 0.45076 0.85087-0.06672 0.18003-0.07111 0.56862-0.30937 0.5784-0.71478 0.0071-1.4592 0.33534-1.8073 0.98633-0.192 0.28188-0.23114 0.64444-0.36121 0.94138-0.42926 0.40536-1.0628 0.4282-1.6205 0.46466-0.55872 0.01665-1.1183 0.0071-1.6767 0.02755 0.046735-0.53242 0.07938-1.1261-0.22684-1.6007-0.41968-0.66449-1.2733-0.82595-2.0037-0.82589-0.12743-0.028854-0.30904 0.054826-0.39186-0.068918-0.17665-0.21124-0.077979-0.49848 0.12229-0.64828 0.23971-0.24362 0.47942-0.48725 0.71912-0.73087 1.3334-0.0070559 2.6667 0.0047697 4 0.01804 0.26571 0.30626 0.41845 0.6968 0.61561 1.049 0.12385 0.26688 0.54644-0.17637 0.67715-0.34084 0.29078-0.22054 0.27595-0.56545 0.21581-0.89047-0.10025-0.77295-0.38935-1.5073-0.49827-2.2773 0.10466-0.36751 0.48 0.2667 0.62304 0.40362 0.5194 0.66666 0.9943 1.3667 1.472 2.0634zm-0.08398 1.6074c0.87409-0.08042 1.7859 0.56571 1.8792 1.4632 0.11803 0.84578-0.55856 1.6456-1.3754 1.7933-0.85893 0.1954-1.8492-0.31186-2.0878-1.1824-0.22791-0.73521 0.1866-1.565 0.87417-1.884 0.22081-0.10992 0.46394-0.17331 0.70981-0.19011zm-7.1309 0.0039c0.92173-0.04472 1.8256 0.7644 1.763 1.7104-0.020824 0.9175-0.92733 1.635-1.8176 1.5783-0.87604 6e-3 -1.7234-0.73212-1.7123-1.6324-0.030897-0.92996 0.8649-1.6969 1.7669-1.6563zm7.1973 0.56445c-0.64322 0.0014-1.231 0.6331-1.0795 1.2827 0.13659 0.6966 0.98337 1.0616 1.6092 0.77921 0.53543-0.20305 0.84699-0.87062 0.59198-1.399-0.1862-0.43096-0.65976-0.69056-1.1217-0.66293zm-7.1934 0.0039c-0.63629-0.03457-1.2525 0.55458-1.1518 1.2045 0.076249 0.67304 0.83897 1.0938 1.4666 0.90645 0.59572-0.1347 1.0084-0.82149 0.76815-1.4013-0.16653-0.43129-0.62397-0.72124-1.083-0.70968zm-3.8944-10.772v10h2v-3.5c0.95493-0.0062672 1.9104 0.013494 2.865-0.01178 1.0375-0.054904 2.1317-0.48834 2.6807-1.4183 0.51283-0.86864 0.55581-1.9519 0.31654-2.9132-0.24191-0.96552-1.0137-1.7767-1.9816-2.0309-0.67074-0.19211-1.3725-0.10659-2.0602-0.12587h-3.8204zm2 2c0.90591 0.00571 1.8125-0.011803 2.718 0.00947 0.56506 0.026653 1.1596 0.38638 1.2571 0.97879 0.14306 0.58925-0.24199 1.2077-0.80741 1.3943-0.50009 0.1835-1.0381 0.09728-1.5586 0.11743h-1.609v-2.5z" fill="#1a1a1a" fill-rule="evenodd"/></svg>
