<svg width="14" height="14" version="1.1" viewBox="0 0 14 14" xmlns="http://www.w3.org/2000/svg"><rect id="a" width="14" height="14" fill="none" visibility="hidden"/><path id="b" d="m6 1c-1.888-0.021519-3.7756 0.88684-4.8728 2.435-1.5767 2.1538-1.4939 5.3593 0.21817 7.4135 1.1628 1.4421 3.037 2.2281 4.8771 2.1486 1.583-0.04933 3.2237-0.51524 4.409-1.6072 0.12061-0.11578 0.55172-0.53617 0.18579-0.27703-0.84993 0.47394-1.7922 0.84002-2.7728 0.88686-1.9254 0.012743-3.7095-1.2656-4.5499-2.9598-0.5804-1.1329-0.65876-2.5109-0.17222-3.6914 0.73069-1.8405 2.5478-3.2772 4.5563-3.3467 0.96238-0.010495 1.8908 0.34258 2.7373 0.77282 0.15261 0.06774 0.53688 0.35557 0.24827 0.070403-1.231-1.3141-3.1107-1.8355-4.8642-1.845zm4.5 3c-0.33333 0.66667-0.66667 1.3333-1 2h-2.5c0.66667 0.5 1.3333 1 2 1.5-0.33333 0.83333-0.66667 1.6667-1 2.5 0.83333-0.5 1.6667-1 2.5-1.5 0.83333 0.5 1.6667 1 2.5 1.5-0.33333-0.83333-0.66667-1.6667-1-2.5 0.66667-0.5 1.3333-1 2-1.5h-2.5c-0.33333-0.66667-0.66667-1.3333-1-2z"/></svg>
