<svg width="14" height="14" version="1.1" viewBox="0 0 14 14" xmlns="http://www.w3.org/2000/svg"><rect id="a" width="14" height="14" fill="none" visibility="hidden"/><path id="b" d="m13.007 0.0030896c-3.3333 0.66667-6.6667 1.3333-10 2v8.5625c-1.1519-0.25065-2.4548 0.38187-2.9079 1.4815-0.2081 0.47723-0.080427 1.0682 0.32202 1.4034 0.98936 0.84686 2.6445 0.69227 3.4901-0.28922 0.4264-0.46907 0.63761-1.1094 0.59573-1.7396v-6.7312c2.3333-0.45833 4.6667-0.91667 7-1.375v5.625c-1.1444-0.19457-2.4455 0.39256-2.9077 1.4882-0.20941 0.47495-0.077938 1.0632 0.32199 1.3967 1.0501 0.8998 2.8411 0.66286 3.641-0.4607 0.354-0.46696 0.47592-1.063 0.44474-1.6389v-9.7228z"/></svg>
