<svg width="14" height="14" version="1.1" viewBox="0 0 14 14" xmlns="http://www.w3.org/2000/svg"><path d="m0 0v3h1v-2h12v2h1v-3h-14zm3 2v12h3v-1c-0.061655-1.0556 1.5769-1.3816 1.9239-0.38268 0.12702 0.44093 0.059021 0.90107 0.07612 1.3528 0.052958 0.069185 0.23397 0.010313 0.33658 0.029849h2.6634v-12h-1v11h-1c0.092608-1.7124-2.2688-2.6906-3.4142-1.4142-0.39531 0.35565-0.56216 0.93419-0.60559 1.4142h-0.9802v-11h-1zm2 2v6h1v-2.5c0.60924-0.0060459 1.2195 0.012502 1.8281-0.01004 0.69107-0.078793 1.083-0.77938 1.151-1.4135 0.085323-0.69959-0.091467-1.5321-0.72913-1.926-0.40304-0.22927-0.87504-0.12761-1.3159-0.15039h-1.934zm1 0.875c0.52343 0.00664 1.0485-0.013792 1.5708 0.011175 0.52671 0.11343 0.67247 0.77205 0.52124 1.2232-0.08479 0.33916-0.4238 0.56053-0.76554 0.51559h-1.3265v-1.75z"/></svg>
