<svg width="14" height="14" version="1.1" viewBox="0 0 14 14" xmlns="http://www.w3.org/2000/svg"><rect id="a" width="14" height="14" fill="none" visibility="hidden"/><path id="b" d="m2.9995 2c-0.44583-0.024207-0.99077 0.24498-0.99153 0.75 7.528e-4 0.50502 0.5457 0.77421 0.99153 0.75 2.6873-7.246e-4 5.3745 0.0014494 8.0618-0.0010872 0.43059 0.006249 0.94208-0.26534 0.94249-0.74891-0.002788-0.50966-0.55637-0.77363-1.0043-0.75h-8zm1 2-0.75 3c-0.80897 0.0057497-1.6188-0.011901-2.4272 0.0095787-0.41671 0.022708-0.86624 0.35321-0.81046 0.81064 0.059615 0.50396 0.62093 0.71458 1.0669 0.67978h1.7958c-0.29167 1.1667-0.58333 2.3333-0.875 3.5h1.5c0.29167-1.1667 0.58333-2.3333 0.875-3.5h5.25c0.29167 1.1667 0.58333 2.3333 0.875 3.5h1.5c-0.29167-1.1667-0.58333-2.3333-0.875-3.5 0.68474-0.00553 1.3703 0.011595 2.0545-0.00958 0.41818-0.022424 0.87651-0.349 0.82087-0.81064-0.062851-0.50778-0.63121-0.71356-1.0796-0.67978h-2.1708c-0.25-1-0.5-2-0.75-3h-1.5l0.75 3h-4.5l0.75-3h-1.5z"/></svg>
