<svg width="14" height="14" version="1.1" viewBox="0 0 14 14" xmlns="http://www.w3.org/2000/svg"><rect id="a" width="14" height="14" fill="none" visibility="hidden"/><path id="b" d="m6.4996 0c-0.82985-0.023672-1.5644 0.74959-1.498 1.5772 0.019224 0.82964 0.82845 1.5232 1.6514 1.4151 0.8273-0.061697 1.4787-0.90433 1.3294-1.7207-0.097169-0.71448-0.76118-1.2851-1.4827-1.2716zm-5.3322 4.5732c0.44407 0.80894 0.88814 1.6179 1.3322 2.4268 1-0.33333 2-0.66667 3-1 0.33333 1.3333 0.66667 2.6667 1 4-0.69776 0.70427-1.409 1.3957-2.098 2.1084-0.44052 0.39351-0.56912 1.1684-0.12879 1.609 0.34849 0.34218 0.85568 0.27855 1.3009 0.28262 1.8229-0.0013 3.646 0.0026 5.4688-2e-3 0.47043-0.01481 0.93392-0.36945 0.95064-0.86391 0.06641-0.44803-0.17733-0.94144-0.63259-1.0671-0.38642-0.11611-0.79496-0.049208-1.1926-0.067h-2.1684c0.49699-0.51443 1.0372-0.99 1.4854-1.549 0.30292-0.37474 0.48284-0.87399 0.34816-1.3526-0.28471-1.3793-0.55719-2.7614-0.84506-4.1399-0.13493-0.5651-0.59179-1.0618-1.1884-1.1242-0.57814-0.078908-1.149 0.087514-1.7204 0.15381-0.20627 0.041065-0.38181 0.17933-0.57559 0.25988-0.83472 0.41736-1.6694 0.83472-2.5042 1.2521-0.34906-0.51608-0.68468-1.0421-1.0422-1.5519-0.1963-0.27581-0.66828-0.27878-0.82113 0.040891-0.099265 0.18243-0.06617 0.40839 0.031114 0.58419z"/></svg>
