<svg width="14" height="14" version="1.1" viewBox="0 0 14 14" xmlns="http://www.w3.org/2000/svg"><rect id="a" width="14" height="14" fill="none" visibility="hidden"/><path id="b" d="m3.4062 1c-0.93299 0.049494-1.6831 1.1135-1.3103 1.9984 0.27781 0.75515 1.216 1.2439 1.9696 0.87721 0.72571-0.30604 1.173-1.2307 0.80081-1.9621-0.25671-0.54766-0.84504-0.95124-1.4602-0.91349zm8 3c-0.933 0.049494-1.6831 1.1135-1.3103 1.9984 0.27781 0.75515 1.216 1.2439 1.9696 0.87721 0.72571-0.30604 1.173-1.2307 0.80081-1.9621-0.25671-0.54766-0.84504-0.95124-1.4602-0.91349zm-8.4062 0.5c-0.67267-0.024678-1.2323 0.47932-1.4974 1.0619-0.27638 0.56551-0.40428 1.1909-0.47135 1.8131l-1.0312-0.375v1c1.9896 0.70833 3.9792 1.4167 5.9688 2.125-0.32292 1.2917-0.64583 2.5833-0.96875 3.875h4c-0.3125-1.0417-0.625-2.0833-0.9375-3.125 1.9792 0.70833 3.9583 1.4167 5.9375 2.125v-1c-0.3125-0.11458-0.625-0.22917-0.9375-0.34375 0.17531-1.0199 0.3159-2.0856 0.07602-3.1071-0.10944-0.51126-0.48878-1.0392-1.0581-1.0467-0.66792-0.060371-1.2686 0.39833-1.5443 0.98165-0.3323 0.65147-0.45422 1.3867-0.50485 2.1097-1.9792-0.70833-3.9583-1.4167-5.9375-2.125 0.1508-0.99123 0.27569-2.0276 0.012027-3.0113-0.13153-0.51269-0.53372-0.98582-1.1058-0.95747z"/></svg>
