<svg width="14" height="14" version="1.1" viewBox="0 0 14 14" xmlns="http://www.w3.org/2000/svg"><rect id="a" width="14" height="14" fill="none" visibility="hidden"/><path id="b" d="m5 0c-0.33333 0.33333-0.66667 0.66667-1 1v1h6v-1c-0.33333-0.33333-0.66667-0.66667-1-1h-4zm-1 3c-0.040431 0.55554 0.011812 1.1515 0.34294 1.6211 0.77798 1.1293 2.3404 1.67 3.6433 1.2145 0.93314-0.30547 1.8404-1.0342 1.9953-2.0533 0.031544-0.25953 0.013893-0.52155 0.018523-0.78235h-6zm0 4c-0.73099-0.017741-1.3053 0.56872-1.5849 1.1946-0.34253 0.70792-0.44094 1.5022-0.4151 2.2806v3.5248h1.5312c1.8229-2.3333 3.6458-4.6667 5.4688-7h-5zm6.5 0c-1.8229 2.3333-3.6458 4.6667-5.4688 7h6.9688c-0.0046-1.4445 0.0096-2.8893-0.0078-4.3337-0.052323-0.78899-0.15506-1.6434-0.66809-2.2795-0.20325-0.24015-0.50672-0.39309-0.82411-0.3868z"/></svg>
