<svg width="12" height="12" version="1.1" viewBox="0 0 12 12" xmlns="http://www.w3.org/2000/svg"><rect id="a" width="12" height="12" fill="none" visibility="hidden"/><path d="m1 0c-0.57185-0.011511-1.0589 0.53679-1 1.1018 0.0093169 0.36707-0.021668 0.73711 0.021994 1.1017 0.094894 0.44555 0.52109 0.79698 0.97801 0.79644v-2h10v2c0.57396-0.00653 1.0618-0.56674 1-1.1358-0.0093-0.35413 0.02173-0.71132-0.02211-1.0629-0.10784-0.49494-0.61108-0.85388-1.1137-0.80131h-9.8642zm6.5 11.988c-1.8333 0.004071-3.6667 0.008141-5.5 0.012212v-10c1.8259-0.0040623 3.6519-0.0081247 5.4778-0.012187-0.9963 1.6689-1.9926 3.3378-2.9889 5.0066 1.0037 1.6644 2.0074 3.3289 3.0111 4.9933zm2.5 0.012212c-0.33334-0.005181-0.66668-0.010362-1-0.015543-1.0037-1.6644-2.0074-3.3289-3.0111-4.9933 0.9963-1.6689 1.9926-3.3378 2.9889-5.0066 0.34074 0.0051727 0.68148 0.010345 1.0222 0.015518v10z"/></svg>
