<svg width="14" height="14" version="1.1" viewBox="0 0 14 14" xmlns="http://www.w3.org/2000/svg"><rect id="a" width="14" height="14" fill="none" visibility="hidden"/><path id="b" d="m11.719 0.5c-0.56171-0.022726-1.0626 0.30364-1.5352 0.56712-1.1493 0.70933-2.1739 1.6008-3.1524 2.5266 0.69456 0.056004 1.361 0.66001 1.3788 1.3752 0.066768 0.071181 0.33834-0.30434 0.48231-0.41202 0.94592-0.96459 1.8939-1.9606 2.5567-3.148 0.14104-0.28143 0.28973-0.58558 0.26974-0.90895zm-9.7814 2.75c-0.43372 0.029155-0.90809 0.028692-1.2813 0.28125 0.28549 0.47958 0.82685 0.72146 1.3025 0.97144 1.2161 0.57316 2.5178 0.93912 3.8226 1.2473-0.33548-0.61554-0.17333-1.5015 0.41455-1.9065 0.017704-0.093952-0.43536-0.11614-0.60819-0.17652-1.2002-0.24193-2.4218-0.44632-3.6501-0.417zm5.0626 1.25c-0.4061-0.021124-0.6604 0.51812-0.38583 0.81805 0.24077 0.32462 0.81449 0.18216 0.87568-0.21728 0.069757-0.29988-0.18196-0.60883-0.48985-0.60077zm1.3125 1.0312c-0.24847 0.65545-1.0588 0.96131-1.7135 0.82063-0.27434-0.11353 0.073426 0.3252 0.090971 0.46687 0.57352 1.2446 1.1925 2.4936 2.0854 3.5442 0.21667 0.20702 0.54712 0.64346 0.81897 0.54022 0.19325-0.58052 0.046228-1.205-0.064529-1.7885-0.27769-1.2332-0.72775-2.4207-1.2174-3.5834zm-1.9063 2.2188c-0.13542 1.75-0.27084 3.5-0.40625 5.25h-2v1h6.0001v-1h-2c-0.072918-0.92708-0.14583-1.8542-0.21875-2.7812-0.49356-0.80266-0.94536-1.6304-1.375-2.4688z"/></svg>
