<svg width="14" height="14" version="1.1" viewBox="0 0 14 14" xmlns="http://www.w3.org/2000/svg"><rect id="a" width="14" height="14" fill="none" visibility="hidden"/><path id="b" d="m0 0v14h14v-14h-14zm1 1h3v12h-0.5v-4.2188c-0.34607 0.39179-0.54222 0.91231-0.5 1.4365v2.7822h-2v-12zm4 0h4v12h-0.5v-5h-3v5h-0.5v-12zm5 0h3v12h-2c-0.0034-1.0409 0.0068-2.0821-0.0052-3.1227-0.035266-0.40829-0.23349-0.7867-0.4948-1.096v4.2188h-0.5v-12zm-3 2c-0.56918-0.00449-1.1292 0.25744-1.5 0.6875v2.625c0.59975 0.72077 1.7294 0.9052 2.5227 0.40186 0.17497-0.14723 0.50615-0.27273 0.47729-0.54045v-2.4864c-0.37173-0.43046-0.92977-0.69167-1.5-0.6875z"/></svg>
