<svg width="14" height="14" version="1.1" viewBox="0 0 14 14" xmlns="http://www.w3.org/2000/svg"><rect id="a" width="14" height="14" fill="none" visibility="hidden"/><path id="b" d="m5.1111 8.6906c-0.53259-0.96219-1.0652-1.9244-1.5978-2.8866h-3.2134c0.4354 0.26135 0.87081 0.52269 1.3062 0.78404-0.28191 0.51525-0.58414 1.0203-0.85273 1.5422-0.14652 0.33169 6.3179e-4 0.67925 0.17935 0.96325 0.37898 0.68524 0.75795 1.3705 1.1369 2.0557 0.17282-0.51752 0.49206-0.96631 0.74404-1.4464 0.33631-0.59878 0.67262-1.1976 1.0089-1.7963 0.42946 0.26135 0.85892 0.52269 1.2884 0.78404zm-2.388 2.3162c-0.32169 0.49909-0.060519 1.2348 0.50009 1.4238 0.34261 0.09761 0.70474 0.03806 1.0568 0.05453h2.4294v-2.6544h-3.3334c-0.2162 0.39274-0.43694 0.78308-0.65284 1.1761zm4.2784-6.5746h3.196c0.53836-0.96201 1.0767-1.924 1.6151-2.886-0.43523 0.26135-0.87046 0.52269-1.3057 0.78404-0.30268-0.52592-0.58029-1.0677-0.90027-1.5827-0.24157-0.33138-0.67313-0.26479-1.0303-0.27028h-2.1076c0.32211 0.38864 0.52027 0.85932 0.77706 1.2908 0.34803 0.62671 0.69606 1.2534 1.0441 1.8801-0.4261 0.2668-0.85905 0.52249-1.2884 0.78404zm-1.5637-3.8125c-0.40414-0.02437-0.73739 0.26774-0.8926 0.61948-0.51 0.90993-1.02 1.8199-1.53 2.7298 0.73509 0.44578 1.475 0.88346 2.2165 1.3185 0.56052-0.9949 1.1153-1.9931 1.6665-2.9931-0.25212-0.44682-0.47074-0.91438-0.74826-1.3455-0.16714-0.21794-0.43989-0.3354-0.71212-0.32915zm4.1069 9.1752v-1.5496c-0.53276 0.96201-1.0655 1.924-1.5983 2.886 0.53276 0.95621 1.0655 1.9124 1.5983 2.8686v-1.5501c0.57003-0.0039 1.1406 0.0081 1.7103-0.0064 0.36814-0.02222 0.57957-0.34713 0.72591-0.64609 0.37914-0.68525 0.75827-1.3705 1.1374-2.0557-0.42983 0.12214-0.88003 0.050929-1.3204 0.066144-0.75106-0.00429-1.5021-0.00858-2.2532-0.01286zm2.3712-4.8815c-0.73793 0.44132-1.4779 0.87914-2.217 1.3185 0.56114 1.0039 1.1224 2.0077 1.6843 3.0111 0.49676-0.00894 0.99571 0.019544 1.4909-0.017546 0.64546-0.10408 0.97503-0.94538 0.61276-1.4787-0.52362-0.94446-1.0472-1.8889-1.5709-2.8334z"/></svg>
