<svg width="14" height="14" version="1.1" viewBox="0 0 14 14" xmlns="http://www.w3.org/2000/svg"><rect id="a" width="14" height="14" fill="none" visibility="hidden"/><path id="b" d="m3.5 0c-1.154-0.022572-2.2372 0.86242-2.4492 1.9962-0.2437 1.0905 0.35145 2.2894 1.3654 2.7573 0.9779 0.49162 2.2576 0.22861 2.9599-0.61064 0.16285-0.11211 0.18623-0.43982 0.4188-0.39283h1.2052l1-1 1 1 1-1c0.33333 0.33333 0.66667 0.66667 1 1 0.17003-0.00894 0.3529 0.017572 0.51521-0.012675 0.49493-0.41244 0.98986-0.82488 1.4848-1.2373-0.5-0.41667-1-0.83333-1.5-1.25h-5.8438c-0.4326-0.76222-1.2774-1.2592-2.1562-1.25zm-1 2c0.4061-0.021122 0.66039 0.51812 0.38582 0.81805-0.24077 0.32462-0.81449 0.18216-0.87567-0.21728-0.069756-0.29987 0.18195-0.60883 0.48984-0.60077zm1.5 4c-0.33333 1-0.66667 2-1 3-0.5691-0.0070486-1.0653 0.52987-1 1.099v2.901h1c-0.00185 0.48422 0.35456 0.9767 0.86586 0.99361 0.44803 0.066406 0.94144-0.17733 1.0671-0.63259 0.047499-0.21654 0.029391-0.43734 0.30464-0.36102h3.7624c-0.00185 0.48422 0.35456 0.9767 0.86586 0.99361 0.44803 0.06641 0.94144-0.17733 1.0671-0.63259 0.0475-0.21654 0.02939-0.43734 0.30464-0.36102h0.76241c-0.0034-1.0323 0.0069-2.065-0.0052-3.097-0.050794-0.48918-0.49949-0.9068-0.9948-0.90298-0.33333-1-0.66667-2-1-3h-6zm1 1h4c0.20833 0.66667 0.41667 1.3333 0.625 2h-5.25c0.20833-0.66667 0.41667-1.3333 0.625-2zm-1 3.25c0.54625-0.02493 0.9416 0.63899 0.65948 1.1075-0.23692 0.48717-0.99873 0.52405-1.2814 0.06184-0.34178-0.4756 0.035704-1.1866 0.62191-1.1693zm6 0c0.54625-0.02493 0.9416 0.63899 0.65948 1.1075-0.23692 0.48717-0.99873 0.52405-1.2814 0.06184-0.34178-0.4756 0.035704-1.1866 0.62191-1.1693z"/></svg>
