<svg width="14" height="14" version="1.1" viewBox="0 0 14 14" xmlns="http://www.w3.org/2000/svg"><rect id="a" width="14" height="14" fill="none" visibility="hidden"/><path id="b" d="m3.5 0c-1.154-0.022572-2.2372 0.86242-2.4492 1.9962-0.2437 1.0905 0.35145 2.2894 1.3654 2.7573 0.9779 0.49162 2.2576 0.22861 2.9599-0.61064 0.16285-0.11211 0.18623-0.43982 0.4188-0.39283h1.2052l1-1 1 1 1-1c0.33333 0.33333 0.66667 0.66667 1 1 0.17003-0.00894 0.3529 0.017572 0.51521-0.012675 0.49493-0.41244 0.98986-0.82488 1.4848-1.2373-0.5-0.41667-1-0.83333-1.5-1.25h-5.8438c-0.4326-0.76222-1.2774-1.2592-2.1562-1.25zm-1 2c0.4061-0.021122 0.66039 0.51812 0.38582 0.81805-0.24077 0.32462-0.81449 0.18216-0.87567-0.21728-0.069756-0.29987 0.18195-0.60883 0.48984-0.60077zm5.5 3.4375c0.010417 0.33333 0.020833 0.66667 0.03125 1 0.32292 0.1875 0.64583 0.375 0.96875 0.5625v1h-4v-1c0.38815-0.016696 0.8445 0.080607 1.1445-0.23193 0.27725-0.29366-0.043955-0.72183-0.38965-0.74335-0.45172-0.049876-0.90931-0.013692-1.3636-0.024719-0.38185 0.0103-0.76686-0.024079-1.1461 0.024719-0.34569 0.021518-0.66689 0.44969-0.38965 0.74335 0.29994 0.31258 0.75627 0.21528 1.1445 0.23193-0.005065 0.33894 0.010087 0.68185-0.0074965 1.0183-0.185 0.45222-0.37 0.90445-0.555 1.3567-1.0489-0.067613-2.0756 0.66727-2.3493 1.6818-0.30865 1.0091 0.19319 2.1755 1.125 2.6628 0.91787 0.52354 2.1709 0.28918 2.8457-0.5214 0.51797-0.58774 0.71449-1.456 0.44115-2.1982h1.5c0.71877-0.66661 1.4374-1.3337 2.1562-2 0.09375 0.23958 0.1875 0.47917 0.28125 0.71875-0.96035 0.60497-1.3485 1.9526-0.83333 2.9684 0.44218 0.95382 1.5823 1.511 2.6052 1.2533 1.0849-0.23249 1.9231-1.3148 1.8149-2.43-0.074391-1.1751-1.1645-2.1566-2.3368-2.1354-0.19036 0.054003-0.17548-0.19672-0.25244-0.31152-0.14243-0.3616-0.30516-0.71921-0.43506-1.0833v-1.3552c-0.66667-0.39583-1.3333-0.79167-2-1.1875zm-3.1562 3.5625h3.1122c-0.43533 0.41667-0.87067 0.83333-1.306 1.25h-1.5562c-0.12151-0.22462-0.44528-0.39087-0.50961-0.58656 0.086535-0.22115 0.17307-0.44229 0.25961-0.66344zm-1.5312 1.5c0.68289-0.02472 1.2741 0.63408 1.1814 1.31-0.044926 0.68165-0.76094 1.1984-1.4227 1.0411-0.67316-0.1135-1.1126-0.87727-0.89345-1.5192 0.14258-0.48964 0.62564-0.84083 1.1347-0.8319zm7.375 0c0.68289-0.02472 1.2741 0.63408 1.1814 1.31-0.0449 0.68098-0.75999 1.1981-1.4213 1.0411-0.67225-0.11627-1.0721-0.88786-0.86642-1.5192 0.13123-0.48649 0.60114-0.84342 1.1063-0.8319z"/></svg>
