<svg width="14" height="14" version="1.1" viewBox="0 0 14 14" xmlns="http://www.w3.org/2000/svg"><rect id="a" width="14" height="14" fill="none" visibility="hidden"/><path id="b" d="m4 0c-0.63203 0.047681-1.1327 0.51334-1.5436 0.9577-1.2019 1.3836-1.6908 3.3411-1.3479 5.1341 0.24313 1.2176 1.028 2.3387 2.1415 2.9082l-0.5 5h2.5l-0.5-5c1.2873-0.65523 2.112-2.0377 2.2247-3.4607 0.15576-1.788-0.44548-3.6887-1.7733-4.9286-0.3375-0.29446-0.73712-0.59042-1.2014-0.61067zm4 0.75c8.45e-4 2.0987-0.00169 4.1975 0.00127 6.2962 0.028792 0.50259 0.53064 0.75686 0.91473 0.97729 0.37413 0.20842 0.8411 0.48898 0.834 0.97655l-0.5 5h2.5c-0.16667-1.6667-0.33333-3.3333-0.5-5-0.0071-0.48757 0.45987-0.76814 0.834-0.97655 0.3841-0.22044 0.88594-0.4747 0.91473-0.97729 0.0011-2.1289 0.0042-4.2581-0.0016-6.387 0.0015-0.31476-0.22356-0.73081-0.59039-0.64746-0.3795 0.12046-0.42316 0.57557-0.40674 0.91647-0.0019 1.7076 0.0038 3.4155-0.0029 5.123-0.06261 0.49575-0.93165 0.49575-0.99426 0-0.0086-1.7971 0.0029-3.5948-0.0057-5.392 0.0015-0.31476-0.22356-0.73081-0.59039-0.64746-0.3795 0.12046-0.42317 0.57557-0.40674 0.91647-0.0019129 1.7065 0.003825 3.4133-0.0028687 5.1197-0.07922 0.45051-0.854 0.46916-0.9859 0.044803-0.025578-0.5704-0.004204-1.1444-0.01123-1.7162-0.0041748-1.2534 0.0084036-2.5074-0.0063858-3.7605-0.002446-0.31816-0.27489-0.72361-0.63259-0.5896-0.27781 0.11484-0.36227 0.45056-0.36102 0.72363z"/></svg>
