<svg width="14" height="14" version="1.1" viewBox="0 0 14 14" xmlns="http://www.w3.org/2000/svg"><rect id="a" width="14" height="14" fill="none" visibility="hidden"/><path d="m4.0078 0c-0.33333 0.66667-0.66667 1.3333-1 2h0.46875c0.34896-0.66667 0.69792-1.3333 1.0469-2h-0.51562zm4 0c-0.33333 0.66667-0.66667 1.3333-1 2h0.46875c0.34896-0.66667 0.69792-1.3333 1.0469-2h-0.51562zm4 0c-0.33333 0.66667-0.66667 1.3333-1 2h0.46875c0.34896-0.66667 0.69792-1.3333 1.0469-2h-0.51563zm-11.008 2c-0.33333 0.66667-0.66667 1.3333-1 2h0.46875c0.34961-0.66667 0.69922-1.3333 1.0488-2h-0.51758zm4.0078 0c-0.33333 0.66667-0.66667 1.3333-1 2h0.46875c0.34896-0.66667 0.69792-1.3333 1.0469-2h-0.51562zm4 0c-0.33333 0.66667-0.66667 1.3333-1 2h0.46875c0.34896-0.66667 0.69792-1.3333 1.0469-2h-0.51562zm4 0c-0.33333 0.66667-0.66667 1.3333-1 2h0.46875c0.34896-0.66667 0.69792-1.3333 1.0469-2h-0.51563zm-10.508 2c-0.33333 0.66667-0.66667 1.3333-1 2h0.46875c0.34961-0.66667 0.69922-1.3333 1.0488-2h-0.51758zm7.9824 0c-0.33333 0.66667-0.66667 1.3333-1 2h0.46875c0.34961-0.66667 0.69922-1.3333 1.0488-2h-0.51758zm-3.4824 1c-2.3333 1.3333-4.6667 2.6667-7 4h2c0.33333-0.13346 0.66667-0.26693 1-0.40039v4.9004c0.040912 0.8044 1.1577 0.48813 1-0.17819v-5.1226l3-1.1992 3 1.1992v5.3008c0.04091 0.8044 1.1577 0.48813 1-0.17819v-4.7222c0.34042 0.13094 0.67701 0.28174 1.0198 0.40039h1.9802c-2.3333-1.3333-4.6667-2.6667-7-4z" fill-rule="evenodd"/></svg>
