<svg width="16" height="16" version="1.1" viewBox="0 0 16 16" xmlns="http://www.w3.org/2000/svg"><rect id="a" width="14" height="14" fill="none" visibility="hidden"/><path id="b" d="m0 0c-0.010398 0.83681 0.5108 1.5816 1.1354 2.0931 0.27689 0.18098 0.73732 0.11536 0.78343 0.53067 0.1364 0.27643 0.44754 0.39271 0.73957 0.36061h1.0916c-0.047839 0.30203 0.42316 0.47414 0.079102 0.68379-0.059621 0.21876-0.074236 0.38083-0.33649 0.31621-0.4079 0.011003-0.81947-0.025184-1.2244 0.024719-0.29464 0.052744-0.27499 0.38405-0.26819 0.61387 0.00615 0.31704-0.012825 0.63589 0.010455 0.95171 0.062037 0.29271 0.36699 0.45052 0.64794 0.4097h1.0916v1h-0.75c-0.00517 0.4613 0.37668 0.79709 0.75 1 0.00286 1.8533-0.00573 3.707 0.0043 5.56 0.10295 0.42715 0.65406 0.50655 1.0211 0.42822 0.30733-0.03871 0.52651-0.32283 0.47461-0.62679v-7.3614h3.5v7.5c0.022243 0.45518 0.59811 0.55471 0.95847 0.47998 0.29986-0.03163 0.5995-0.27406 0.54153-0.59878v-5.3812c0.352-0.22767 0.75642-0.53599 0.75-1h-0.75v-1c0.44467-0.00745 0.89187 0.015115 1.3349-0.011653 0.27843-0.077039 0.45772-0.36422 0.41508-0.64674-0.01081-0.3576 0.02558-0.71922-0.0268-1.0734-0.06203-0.29698-0.39665-0.2738-0.63159-0.26819h-1.0916c0.05188-0.31177-0.42844-0.47844-0.0791-0.71539 0.04954-0.21695 0.09547-0.33909 0.33649-0.28461 0.36014-0.00349 0.72086 0.00714 1.0806-0.00562 0.48489 0.013388 0.254-0.66456 0.68398-0.67917 0.37776-0.066723 0.72514-0.2536 0.97519-0.54685 0.46381-0.4585 0.76267-1.0949 0.75281-1.7528-3.1808 0.53125-6.4187 0.94666-9.6466 0.65314-1.4634-0.12389-2.9142-0.36538-4.3534-0.65314zm5.25 2.9844h1v1h-1c0.041216-0.30695-0.42272-0.47852-0.079102-0.70486 0.050389-0.08972 0.079457-0.19194 0.079102-0.29514zm2.5 0h1c-0.024122 0.30709 0.41954 0.48542 0.079102 0.72593-0.046254 0.21629-0.10286 0.32486-0.33649 0.27407h-0.74261v-1z"/></svg>
