<svg width="14" height="14" version="1.1" viewBox="0 0 14 14" xmlns="http://www.w3.org/2000/svg"><rect id="a" width="14" height="14" fill="none" visibility="hidden"/><path id="b" d="m6.9843 0c-0.3342 0.33333-0.66841 0.66667-1.0026 1 0.01889 0.37764 0.16461 0.86493 0.068169 1.1746-1.1966 0.37725-2.0945 1.5615-2.0734 2.8254-0.021374 1.2525 0.86576 2.4229 2.0467 2.8068 0.24398 0.13985-0.023938 0.61064 0.00594 0.88539-0.09554 0.21637-0.028694 0.37726 0.14887 0.50355 0.096871 0.11002 0.2316 0.20432 0.30505 0.32405v0.38645c-0.93437-0.64587-1.9027-1.2702-2.6896-2.098-1.0839-1.1828-1.3389-2.9831-0.76565-4.4615 0.36178-0.97218 1.0594-1.8158 1.9513-2.3467-1.874 0.46367-3.4787 2.0054-3.8671 3.9181-0.24768 1.1235-0.099567 2.3561 0.54857 3.3237 0.52041 0.83775 1.3231 1.4307 1.9974 2.1321 0.19996 0.11185 0.27794 0.56354 0.36059 0.58419 0.32019-0.31935 0.64037-0.6387 0.96056-0.95806 0.4282 0.23958 0.8564 0.47917 1.2846 0.71875-0.42644 0.2633-0.85495 0.52322-1.2846 0.78125 0.1671 0.16667 0.3342 0.33333 0.50131 0.5 0.35509-0.19792 0.71018-0.39583 1.0653-0.59375v0.71875c-0.5143 0.22924-0.72971 0.92073-0.41882 1.3935 0.30678 0.54596 1.1388 0.64611 1.5664 0.18857 0.47046-0.43603 0.35527-1.3128-0.23898-1.5821v-0.71875c0.34465 0.19792 0.6893 0.39583 1.0339 0.59375 0.1671-0.16667 0.3342-0.33333 0.5013-0.5-0.41727-0.26119-0.83482-0.52193-1.2533-0.78125 0.41775-0.23958 0.83551-0.47917 1.2533-0.71875 0.3342 0.33333 0.66841 0.66667 1.0026 1 0.041818-0.45886 0.45655-0.75266 0.759-1.055 0.85882-0.75931 1.7314-1.6043 2.0697-2.7347 0.49503-1.6655-0.061452-3.5567-1.292-4.7642-0.69665-0.69721-1.5829-1.2057-2.5393-1.4461 1.5873 0.92369 2.501 2.8581 2.1997 4.6704-0.15239 1.0406-0.73348 1.9866-1.5425 2.6489-0.67946 0.59157-1.4146 1.1153-2.1611 1.6182 0.010112-0.14824-0.019748-0.31306 0.014018-0.45148 0.16243-0.16201 0.32486-0.32401 0.48729-0.48602-0.023944-0.37523-0.19816-0.86685-0.098815-1.1742 1.1867-0.36099 2.0971-1.5109 2.1034-2.7624 0.047485-1.2318-0.78557-2.4062-1.9327-2.829-0.44095-0.061331-0.076765-0.62517-0.11843-0.93263 0.10356-0.22312 0.011374-0.38011-0.16364-0.51151-0.26411-0.26342-0.52822-0.52685-0.79234-0.79027zm0.72063 3.125c0.94582 0.33925 1.4995 1.4544 1.2116 2.4141-0.16346 0.60312-0.62616 1.1158-1.2116 1.3359-0.12067-1.2465-0.12067-2.5035 0-3.75zm-1.5039 0.03125c0.10307 0.30789 0.077764 0.75078 0.1166 1.112 0.047896 0.86864 0.031782 1.7409-0.053936 2.6067-0.93987-0.3377-1.4951-1.4421-1.2155-2.3988 0.15514-0.58657 0.5928-1.0868 1.1528-1.3199zm-1.7232 8.8438c-0.40636-0.021595-0.66242 0.51779-0.38683 0.81805 0.24148 0.32439 0.81602 0.18268 0.87795-0.21728 0.070007-0.30046-0.18309-0.60895-0.49112-0.60077zm5.0131 0c-0.40635-0.021595-0.66242 0.51779-0.38683 0.81805 0.24148 0.32439 0.81602 0.18268 0.87795-0.21728 0.070007-0.30046-0.18309-0.60895-0.49112-0.60077z"/></svg>
