<svg width="14" height="14" version="1.1" viewBox="0 0 14 14" xmlns="http://www.w3.org/2000/svg"><rect id="a" width="14" height="14" fill="none" visibility="hidden"/><path d="m7.0078 0.041016c-0.81223-0.025609-1.5622 0.71118-1.4981 1.5321 0.022738 0.85277 0.89859 1.5182 1.7267 1.3671 0.80598-0.094256 1.4329-0.93659 1.2408-1.7358-0.13438-0.67613-0.78585-1.1747-1.4694-1.1634zm-5.5078 1.459c-0.46126-0.0062681-0.52524 0.46979-0.5 0.81678 0.0027471 2.0288-0.0056211 4.0577 0.0044198 6.0864-0.023765 0.41363 0.21141 0.77805 0.51952 1.0328 0.32477 0.30325 0.69115 0.56354 0.94781 0.93219 0.28107 0.32621 0.54186 0.71123 0.52271 1.1617 0.011297 0.82329 0.0029749 1.6468 0.005534 2.4702h3c-0.00305-1.0461 0.0062-2.0925-0.00478-3.1384 0.010952-0.3328-0.23343-0.60831-0.54665-0.68892-0.58082-0.18226-1.0738-0.55316-1.5824-0.87581-0.6808-0.47976-1.4048-1.0008-1.7584-1.7812-0.1729-0.41503-0.086954-0.87109-0.10779-1.3076v-4.208c0.0054456-0.26903-0.23097-0.50545-0.5-0.5zm11 0c-0.46126-0.00627-0.52524 0.46979-0.5 0.81678-0.0024 1.5923 0.0049 3.1848-0.0037 4.777-0.08248 0.74258-0.68208 1.2838-1.224 1.7344-0.58943 0.45841-1.2173 0.87513-1.8803 1.2177-0.31491 0.13022-0.7565 0.20278-0.85007 0.59135-0.076486 0.42559-0.028507 0.86238-0.042003 1.2934v2.0694h3c0.0056-0.86455-0.01289-1.7297 0.01308-2.5938 0.026267-0.57607 0.49024-0.9793 0.81895-1.4062 0.3715-0.34586 0.82875-0.63435 1.0703-1.0942 0.15897-0.44811 0.078696-0.93385 0.09762-1.4007v-5.505c0.005446-0.26903-0.23097-0.50545-0.5-0.5zm-5.5 2.5c-0.60862 0.0066143-1.3285 0.066351-1.7258 0.59021-0.35484 0.52468-0.25759 1.1859-0.27418 1.786v2.6238h4c-0.0052342-1.1701 0.011379-2.3407-0.010155-3.5105-0.0087107-0.49329-0.20687-1.0347-0.68507-1.2512-0.40188-0.19957-0.8628-0.23516-1.3048-0.23824z" fill-rule="evenodd"/></svg>
