<svg width="14" height="14" version="1.1" viewBox="0 0 14 14" xmlns="http://www.w3.org/2000/svg"><rect id="a" width="14" height="14" fill="none" visibility="hidden"/><path id="b" d="m7 14c2.1218 0.01593 4.2068-1.0196 5.5046-2.6931 1.2692-1.5936 1.7789-3.7586 1.3448-5.75-0.46128-2.248-2.1069-4.2036-4.2383-5.051-2.1131-0.86873-4.6461-0.60336-6.5298 0.69117-1.7753 1.1856-2.9476 3.221-3.0671 5.354-0.14557 2.0528 0.68374 4.142 2.1898 5.5427 1.2806 1.2157 3.0292 1.9146 4.796 1.9062zm0-1c-2.0364 0.021261-4.0322-1.0885-5.0948-2.8245-1.1902-1.8701-1.2051-4.405-0.037898-6.2893 1.0408-1.7469 3.0204-2.8808 5.0551-2.8857 0.98261-0.051215 1.8831 0.60184 2.3103 1.4589 0.6022 1.1356 0.57019 2.6802-0.34059 3.6472-0.54313 0.5928-1.3432 0.84452-2.1206 0.9295-0.93017 0.15325-1.8114 0.74809-2.157 1.6474-0.52048 1.3152-0.10723 2.9667 1.0103 3.8463 0.39163 0.30067 0.88038 0.47342 1.3753 0.47019zm0-2c-0.6104 0.020962-1.1229-0.60774-0.97968-1.2015 0.10278-0.5996 0.81646-0.97532 1.3689-0.71988 0.56661 0.21783 0.7963 0.98865 0.43997 1.4805-0.18147 0.27251-0.50147 0.44371-0.82922 0.44089zm0-6c0.6104 0.020962 1.1229-0.60774 0.97968-1.2015-0.10278-0.5996-0.81646-0.97532-1.3689-0.71988-0.56661 0.21783-0.7963 0.98865-0.43997 1.4805 0.18147 0.27251 0.50147 0.44371 0.82922 0.44089z"/></svg>
