<svg width="14" height="14" version="1.1" viewBox="0 0 14 14" xmlns="http://www.w3.org/2000/svg"><rect id="a" width="14" height="14" fill="none" visibility="hidden"/><path id="b" d="m5.9688 0c-0.57503-0.0061157-1.023 0.56408-0.97246 1.1187-0.0091798 0.29375-0.01836 0.58751-0.02754 0.88126h-1.9688c-0.41667 1.3333-0.83333 2.6667-1.25 4-0.73669-0.019507-1.4421 0.49147-1.6377 1.2042-0.17521 0.58612-0.093013 1.2031-0.11229 1.8055v2.9903h2c0.00804 0.38524-0.017518 0.77245 0.015625 1.1562 0.050696 0.44878 0.42923 0.8412 0.89352 0.84088 0.43636 0.05137 0.90198-0.19802 1.0238-0.63611 0.11616-0.38642 0.049255-0.79496 0.067047-1.1926-0.045839-0.16774 0.051938-0.19262 0.19799-0.16947 1.934-0.010073 3.868-0.020146 5.802-0.030219 0.0083 0.39564-0.017921 0.79331 0.01563 1.1875 0.0507 0.44878 0.42923 0.8412 0.89352 0.84088 0.43636 0.05137 0.90198-0.19802 1.0238-0.63611 0.11615-0.38642 0.04925-0.79496 0.067042-1.1926-0.04584-0.16798 0.051939-0.19235 0.19799-0.16844h1.802c-0.0041-1.4026 0.0084-2.8055-0.0065-4.2079-0.017858-0.66051-0.36931-1.3428-1.0029-1.6009-0.31032-0.1381-0.65271-0.19095-0.99063-0.1912-0.33333-1.3333-0.66667-2.6667-1-4h-2c-0.0091316-0.40167 0.020612-0.80587-0.019742-1.2056-0.082761-0.50748-0.59982-0.85036-1.0991-0.79445h-1.9125zm0.03125 1h2v1h-2v-1zm-2 2.5h6c0.19792 0.83333 0.39583 1.6667 0.59375 2.5h-7.2812c0.22917-0.83333 0.45833-1.6667 0.6875-2.5zm-1 4.5c0.6104-0.020962 1.1229 0.60774 0.97968 1.2015-0.10278 0.5996-0.81646 0.97532-1.3689 0.71988-0.56661-0.21783-0.7963-0.98865-0.43997-1.4805 0.18147-0.27251 0.50147-0.44371 0.82922-0.44089zm8 0c0.6104-0.020962 1.1229 0.60774 0.97968 1.2015-0.10278 0.5996-0.81646 0.97532-1.3689 0.71988-0.56661-0.21783-0.7963-0.98865-0.43997-1.4805 0.18147-0.27251 0.50147-0.44371 0.82922-0.44089z"/></svg>
