<svg width="14" height="14" version="1.1" viewBox="0 0 14 14" xmlns="http://www.w3.org/2000/svg"><rect id="a" width="14" height="14" fill="none" visibility="hidden"/><path id="b" d="m0 0c0.0021888 2.3663-0.0043832 4.7327 0.0032959 7.0989 0.079012 1.2944 0.64526 2.651 1.7919 3.3449 0.99451 0.58998 2.2343 0.6864 3.3431 0.40672 0.29297-0.090957 0.01606-0.58196 0.11176-0.85054 0.095937-0.38196-0.27947-0.079125-0.4926-0.074158-1.0082 0.19655-2.1773 0.032117-2.9095-0.74561-0.64459-0.68286-0.88799-1.6557-0.84787-2.5762v-5.104c1.3974 0.6837 3.031 0.91394 4.5469 0.5242 0.5011-0.12291 0.98752-0.30247 1.4531-0.5242v1.1562c0.30414 0.082953 0.77784 0.37149 1 0.28435v-2.9406c-1.4782 0.68868-3.12 1.165-4.7638 0.95785-1.1247-0.12827-2.2029-0.50976-3.2362-0.95785zm2.5 3c-0.6104-0.020962-1.1229 0.60774-0.97968 1.2015 0.10278 0.5996 0.81646 0.97532 1.3689 0.71988 0.56661-0.21783 0.7963-0.98865 0.43997-1.4805-0.18147-0.27251-0.50147-0.44371-0.82922-0.44089zm3.5 0c0.00219 2.3663-0.00438 4.7327 0.0033 7.0989 0.079012 1.2944 0.64526 2.651 1.7919 3.3449 0.98313 0.5888 2.2004 0.66693 3.304 0.44078 1.057-0.21327 1.9747-0.95403 2.4239-1.9315 0.36612-0.75221 0.50837-1.5962 0.47692-2.4283v-6.5248c-1.4782 0.68868-3.12 1.165-4.7638 0.95785-1.1247-0.12827-2.2029-0.50976-3.2362-0.95785zm2.5 3c0.6104-0.020962 1.1229 0.60774 0.97968 1.2015-0.10278 0.5996-0.81646 0.97532-1.3689 0.71988-0.56661-0.21783-0.7963-0.98865-0.43997-1.4805 0.18147-0.27251 0.50147-0.44371 0.82922-0.44089zm3 0c0.6104-0.020962 1.1229 0.60774 0.97968 1.2015-0.10278 0.5996-0.81646 0.97532-1.3689 0.71988-0.56661-0.21783-0.7963-0.98865-0.43997-1.4805 0.18147-0.27251 0.50147-0.44371 0.82922-0.44089zm-7.5 0.5c-0.69228-0.022938-1.4331 0.29221-1.7527 0.93518-0.17295 0.32593-0.24709 0.6977-0.24726 1.0648h3.25v-1.6562c-0.35853-0.26377-0.81398-0.34464-1.25-0.34375zm4 3.5h4c-0.02442 0.96144-0.83063 1.821-1.7661 1.9822-0.91816 0.12664-1.7942-0.55227-2.1185-1.3812-0.072983-0.19152-0.11547-0.39566-0.1154-0.60099z"/></svg>
