<svg width="14" height="14" version="1.1" viewBox="0 0 14 14" xmlns="http://www.w3.org/2000/svg"><rect id="a" width="14" height="14" fill="none" visibility="hidden"/><path id="b" d="m6.25 0v14h1.5v-14h-1.5zm-3.75 1c-0.82985-0.023672-1.5644 0.74959-1.498 1.5772 0.019224 0.82964 0.82844 1.5232 1.6514 1.4151 0.8273-0.061697 1.4787-0.90433 1.3294-1.7207-0.097169-0.71448-0.76118-1.2851-1.4827-1.2716zm9 0c-0.82985-0.023672-1.5644 0.74959-1.498 1.5772 0.01922 0.82964 0.82844 1.5232 1.6514 1.4151 0.8273-0.061697 1.4787-0.90433 1.3294-1.7207-0.097169-0.71448-0.76118-1.2851-1.4827-1.2716zm-10 4c-0.55698-0.0060204-1.0623 0.55102-0.98596 1.1038 0.25469 0.67276 0.91186 1.0912 1.2051 1.7431 0.13282 0.35482-0.26833 0.57824-0.48469 0.78656-0.61409 0.4884-1.1287 1.1648-1.2097 1.9672-0.015628 0.18622-0.10863 0.48148 0.17325 0.39938h1.552v3h1.5v-3h1.75c0.021196-0.82949-0.37325-1.6315-0.99769-2.1688-0.24729-0.25901-0.61019-0.43664-0.74729-0.78172-0.0039903-0.3797 0.31715-0.65698 0.53235-0.93887 0.26278-0.3303 0.60535-0.63432 0.70905-1.0579 0.014883-0.58271-0.54819-1.1207-1.135-1.0527h-1.8614zm8.5 0c-0.62492-0.0030196-1.1445 0.66337-0.96963 1.2694 0.24566 1.0081 0.73482 1.9334 1.1272 2.8887 0.2373 0.59775 0.53731 1.1929 0.59247 1.842v3h1.5c0.0033-1.0321-0.0066-2.0646 5e-3 -3.0964 0.13312-0.79071 0.50553-1.5138 0.8085-2.2491 0.34013-0.81991 0.7554-1.6233 0.9253-2.5009 0.11219-0.59737-0.42243-1.1963-1.0284-1.1536h-2.9604z"/></svg>
