<svg width="14" height="14" version="1.1" viewBox="0 0 14 14" xmlns="http://www.w3.org/2000/svg"><path d="m4 0.40625c-1.6537 0.71501-2.8714 2.3628-3.0128 4.1662-0.15712 1.634 0.58196 3.3024 1.8629 4.3198 0.35025 0.283 0.7378 0.5199 1.1499 0.70156v-1.1562c-1.2157-0.68261-2.0201-2.0388-2-3.4375-0.020103-1.3987 0.78426-2.7549 2-3.4375v-1.1562zm6 0v1.1562c1.2157 0.68261 2.0201 2.0388 2 3.4375 0.0201 1.3987-0.78426 2.7549-2 3.4375v1.1562c1.6537-0.71501 2.8714-2.3628 3.0128-4.1662 0.15712-1.634-0.58196-3.3024-1.8629-4.3198-0.35025-0.283-0.7378-0.5199-1.1499-0.70156zm-5 1.7812c-1.1839 0.40904-2.0444 1.6141-1.9994 2.8731 0.0083031 1.2173 0.85556 2.3549 1.9994 2.7519v-1.0938c-0.79686-0.43566-1.1979-1.4539-0.909-2.3155 0.14672-0.4714 0.4815-0.8773 0.909-1.122v-1.0938zm4 0v1.0938c0.79686 0.43566 1.1979 1.4539 0.909 2.3155-0.14672 0.4714-0.4815 0.8773-0.909 1.122v1.0938c1.1839-0.40904 2.0444-1.6141 1.9994-2.8731-0.010524-1.2217-0.85246-2.3508-1.9994-2.7519zm-2 0.8125c-0.59961 2.3333-1.1992 4.6667-1.7988 7-0.86719 1.3333-1.7344 2.6667-2.6016 4h1.4004c0.22201-0.33333 0.44401-0.66667 0.66602-1h4.668c0.22201 0.33333 0.44401 0.66667 0.66602 1h1.4004c-0.86654-1.3333-1.7331-2.6667-2.5996-4-0.60026-2.3333-1.2005-4.6667-1.8008-7zm0 4 0.75 3h-1.5l0.75-3zm-1 4h2c0.22201 0.33333 0.44401 0.66667 0.66602 1h-3.332c0.22201-0.33333 0.44401-0.66667 0.66602-1z"/></svg>
