<svg width="14" height="14" version="1.1" viewBox="0 0 14 14" xmlns="http://www.w3.org/2000/svg"><path d="m7 0c-1.6667 0.66667-3.3333 1.3333-5 2v4h10v-4c-1.6667-0.66667-3.3333-1.3333-5-2zm-4 3h2v2h-2v-2zm3 0h2v2h-2v-2zm3 0h2v2h-2v-2zm-5.0938 3.625c-0.30208 2.4583-0.60417 4.9167-0.90625 7.375h1.5c0.0625-0.48958 0.125-0.97917 0.1875-1.4688 0.77083-0.51042 1.5417-1.0208 2.3125-1.5312 0.77083 0.52083 1.5417 1.0417 2.3125 1.5625 0.0625 0.47917 0.125 0.95833 0.1875 1.4375h1.5c-0.30208-2.4479-0.60417-4.8958-0.90625-7.3438-2.0625-0.010417-4.125-0.020833-6.1875-0.03125zm1.4375 0.5625c1.1042 0.010417 2.2083 0.020833 3.3125 0.03125 0.0625 0.52083 0.125 1.0417 0.1875 1.5625-0.61458 0.40625-1.2292 0.8125-1.8438 1.2188-0.61458-0.40625-1.2292-0.8125-1.8438-1.2188l0.1875-1.5938zm-0.3125 2.5c0.40625 0.27083 0.8125 0.54167 1.2188 0.8125-0.47917 0.32292-0.95833 0.64583-1.4375 0.96875 0.072917-0.59375 0.14583-1.1875 0.21875-1.7812zm3.9375 0c0.072917 0.59375 0.14583 1.1875 0.21875 1.7812-0.47917-0.32292-0.95833-0.64583-1.4375-0.96875 0.40625-0.27083 0.8125-0.54167 1.2188-0.8125z"/></svg>
