<svg width="14" height="14" version="1.1" viewBox="0 0 14 14" xmlns="http://www.w3.org/2000/svg"><path d="m7 1c-0.54594-0.024024-1.0264 0.47364-1 1.0158v8.9842h-1v1h-2v2h8v-2h-2v-1h-1c-7.813e-4 -3.0155 0.0015626-6.031-0.001172-9.0465-0.020858-0.5154-0.47682-0.96708-0.99883-0.95348zm-4.2852 0.54492c-0.20634 0.095373-0.19694 0.4434 0.043891 0.48631 0.62961 0.24793 1.2545 0.50964 1.8871 0.74889 0.31898 0.059752 0.3958-0.46782 0.073015-0.50861-0.62386-0.24655-1.244-0.5036-1.8702-0.74354-0.044731-0.010728-0.093172-0.0046-0.13379 0.01695zm8.2852 0.050781c-0.64142 0.26071-1.2893 0.5074-1.9267 0.77694-0.27128 0.17746 0.035341 0.61263 0.29768 0.4184 0.62192-0.25291 1.2503-0.4918 1.8681-0.75353 0.24085-0.15225 0.025465-0.56748-0.23915-0.44181zm-8.2539 1.7305c-0.35387-0.017943-0.29894 0.57707 0.047272 0.5 0.67018-0.00366 1.3411 0.00737 2.0108-0.00562 0.31854-0.06225 0.19268-0.57748-0.1211-0.49438h-1.937zm6.4102 0.050781c-0.35409-0.017965-0.29929 0.57726 0.047272 0.5 0.67014-0.00366 1.341 0.00737 2.0107-0.00562 0.31818-0.062399 0.19277-0.57743-0.12099-0.49438h-1.937zm-4.5664 1.0742c-0.64142 0.26071-1.2893 0.5074-1.9267 0.77694-0.27128 0.17746 0.035341 0.61263 0.29768 0.4184 0.62192-0.25291 1.2503-0.4918 1.8681-0.75353 0.24085-0.15225 0.025465-0.56748-0.23915-0.44181zm4.5352 0.050781c-0.20634 0.095372-0.19694 0.4434 0.043891 0.48631 0.62961 0.24793 1.2545 0.50964 1.8871 0.74889 0.31898 0.059752 0.3958-0.46782 0.07301-0.50861-0.62385-0.24655-1.244-0.50359-1.8702-0.74354-0.044732-0.010727-0.093174-0.0046017-0.13379 0.01695z"/></svg>
