<svg width="14" height="14" version="1.1" viewBox="0 0 14 14" xmlns="http://www.w3.org/2000/svg"><path d="m6.4718 0c-0.42353 3.3333-0.84707 6.6667-1.2706 10-0.86719 1.3333-1.7344 2.6667-2.6016 4h1.4004c0.22201-0.33333 0.44401-0.66667 0.66602-1h4.668c0.22201 0.33333 0.44401 0.66667 0.66602 1h1.4004c-0.84767-1.3585-1.6953-2.717-2.543-4.0755 0.016677-0.36793-0.0591-0.74033-0.092718-1.1087-0.36422-2.9436-0.78808-5.8794-1.2054-8.8158h-1.0875zm0.52822 4 0.75 6h-1.5l0.75-6zm-1 7h2c0.22201 0.33333 0.44401 0.66667 0.66602 1h-3.332c0.22201-0.33333 0.44401-0.66667 0.66602-1z"/></svg>
