<svg width="14" height="14" version="1.1" viewBox="0 0 14 14" xmlns="http://www.w3.org/2000/svg"><path d="m6.4727 0c-0.42383 3.3333-0.84766 6.6667-1.2715 10-0.86719 1.3333-1.7344 2.6667-2.6016 4h1.4004c0.22201-0.33333 0.44401-0.66667 0.66602-1h4.668c0.22201 0.33333 0.44401 0.66667 0.66602 1h1.4004c-0.84766-1.3587-1.6953-2.7174-2.543-4.0762 0.016648-0.3679-0.059154-0.74028-0.092798-1.1087-0.36442-2.9434-0.78849-5.879-1.206-8.8152h-1.0859zm-3.7578 1.5449c-0.20768 0.09612-0.19592 0.44546 0.046216 0.48724 0.62883 0.24765 1.2529 0.50899 1.8847 0.74796 0.32139 0.059278 0.39458-0.47095 0.069915-0.50985-0.62282-0.24616-1.2419-0.50274-1.8671-0.7423-0.044731-0.010728-0.093172-0.0046-0.13379 0.01695zm8.2852 0.050781c-0.64144 0.26069-1.2893 0.50744-1.9267 0.77694-0.2727 0.17948 0.03839 0.61403 0.30078 0.41716 0.62089-0.25247 1.2482-0.49101 1.865-0.75229 0.24085-0.15225 0.025465-0.56748-0.23915-0.44181zm-8.2539 1.7305c-0.3556-0.017353-0.29745 0.57948 0.049776 0.5 0.66934-0.00368 1.3394 0.00741 2.0083-0.00562 0.32062-0.063606 0.19035-0.57989-0.12444-0.49438h-1.9336zm6.4102 0.050781c-0.35582-0.017373-0.2978 0.57966 0.049776 0.5 0.66931-0.00368 1.3393 0.00741 2.0082-0.00562 0.32026-0.063755 0.19044-0.57984-0.12433-0.49438h-1.9336zm-2.1562 0.62305 0.75 6h-1.5l0.75-6zm-2.4102 0.45117c-0.64144 0.26069-1.2893 0.50744-1.9267 0.77694-0.2727 0.17948 0.03839 0.61403 0.30078 0.41716 0.62089-0.25247 1.2482-0.49101 1.865-0.75229 0.24085-0.15225 0.025465-0.56748-0.23915-0.44181zm4.5352 0.050781c-0.20768 0.09612-0.19592 0.44546 0.046216 0.48724 0.62883 0.24765 1.2529 0.50899 1.8847 0.74796 0.32139 0.059278 0.39458-0.47095 0.06991-0.50985-0.62281-0.24616-1.2419-0.50274-1.8671-0.7423-0.044732-0.010727-0.093174-0.0046017-0.13379 0.01695zm-3.125 6.498h2c0.22201 0.33333 0.44401 0.66667 0.66602 1h-3.332c0.22201-0.33333 0.44401-0.66667 0.66602-1z"/></svg>
