<svg width="14" height="14" version="1.1" viewBox="0 0 14 14" xmlns="http://www.w3.org/2000/svg"><path d="m2.5 0v3h9v-3h-1.5v1h-2v-1h-2v1h-2v-1h-1.5zm0.5 4c-0.16667 3-0.33333 6-0.5 9h-1.5v1h4.5c0.01358-0.7365 0.10675-1.5451 0.61019-2.1216 0.50245-0.57172 1.5157-0.47225 1.9242 0.16067 0.38896 0.5708 0.45723 1.2883 0.46559 1.9609h4.5v-1h-1.5c-0.16667-3-0.33333-6-0.5-9h-8zm4 2c0.42739-0.024479 0.84637 0.26102 0.94727 0.68359 0.093942 0.36788 0.037176 0.7519 0.052734 1.1277 0.016653 0.12872 0.011333 0.23546-0.14751 0.18868h-1.8525c0.01046-0.39738-0.023507-0.79781 0.022247-1.1928 0.061048-0.4361 0.43874-0.80236 0.8869-0.80432l0.044704-0.00214z"/></svg>
