<svg width="14" height="14" version="1.1" viewBox="0 0 14 14" xmlns="http://www.w3.org/2000/svg"><path d="m8.0685 0.052175c-0.56011 0.029685-1.1155 0.14804-1.6387 0.35045 0.2832 0.28231 0.56641 0.56462 0.84961 0.84692 1.4173-0.39755 3.0323 0.027 4.0448 1.1027 1.0057 1.0089 1.3884 2.5634 1.004 3.9301 0.2832 0.28231 0.56641 0.56462 0.84961 0.84692 0.6834-1.719 0.37835-3.7969-0.81664-5.2178-1.0279-1.263-2.6726-1.9556-4.2927-1.8593zm-0.021484 2.35c-0.47324-0.0039-0.94669 0.10069-1.375 0.30178 0.26758 0.26673 0.53516 0.53346 0.80273 0.8002 0.92707-0.27194 1.9973 0.20964 2.3997 1.09 0.21262 0.44011 0.2538 0.95672 0.12571 1.4274 0.26758 0.26673 0.53516 0.53346 0.80273 0.8002 0.57207-1.1709 0.3139-2.6926-0.65205-3.5787-0.56068-0.53576-1.3293-0.83806-2.1038-0.84084zm-5.0488 0.3524c-1.3059 1.2738-1.8451 3.2581-1.375 5.0192 0.46625 1.8833 2.0672 3.4191 3.966 3.8133 1.7179 0.38848 3.6117-0.15763 4.8485-1.4146-1.0755-1.0721-2.151-2.1442-3.2266-3.2164 0.45247-0.4504 0.90495-0.90079 1.3574-1.3512l-0.73047-0.72816c-0.45182 0.4504-0.90365 0.90079-1.3555 1.3512-1.1615-1.1578-2.3229-2.3156-3.4844-3.4734zm-0.63672 8.1791c-0.63281 1.0371-1.2656 2.0742-1.8984 3.1112h7.2695v-1.4291c-1.9287 0.32391-3.9749-0.30864-5.3711-1.6822z"/></svg>
