<svg width="14" height="14" version="1.1" viewBox="0 0 14 14" xmlns="http://www.w3.org/2000/svg"><rect id="a" width="14" height="14" fill="none" visibility="hidden"/><path id="b" d="m7 0c-0.3081-0.015361-0.54815 0.28108-0.5 0.5792v3.7958c-1.8333 0.875-3.6667 1.75-5.5 2.625h12c-1.8333-0.875-3.6667-1.75-5.5-2.625-0.0019019-1.3127 0.0038108-2.6255-0.0028687-3.9381-0.0098359-0.25784-0.2451-0.45013-0.49713-0.43694zm1 0v3h4c-0.66667-0.5-1.3333-1-2-1.5 0.66667-0.5 1.3333-1 2-1.5h-4zm-7 8v1h1v4h-1v1h12v-1h-1v-4h1v-1h-12zm6 1.5c0.70696 0.00122 1.5185 0.24851 1.8669 0.91553 0.20684 0.41612 0.11082 0.8904 0.13309 1.3368v1.2476h-4c0.00409-0.71238-0.00834-1.4253 0.00649-2.1373 0.046491-0.64608 0.62459-1.1055 1.2154-1.2568 0.25263-0.071989 0.51563-0.10566 0.77813-0.10584z"/></svg>
