<svg width="16" height="16" version="1.1" xmlns="http://www.w3.org/2000/svg"><rect id="a" width="16" height="16" fill="none" visibility="hidden"/><path d="m5 3c0.00288 3.3948-0.00577 6.7898 0.00435 10.185 0.018529 1.0605 0.65142 2.0963 1.6352 2.5225 1.3328 0.62828 3.1457 0.23742 3.929-1.0613 0.41634-0.64335 0.44956-1.4241 0.4315-2.1662-0.002875-3.2214 0.005765-6.4429-0.004349-9.6641-0.018529-1.0605-0.65142-2.0963-1.6352-2.5225-1.3328-0.62828-3.1457-0.23743-3.929 1.0613-0.30262 0.49102-0.43313 1.0728-0.43151 1.6458zm3-2c1.03-0.023266 1.9671 0.86811 1.9974 1.8975 0.076754 1.0283-0.76715 2.0089-1.7936 2.0921-1.0061 0.12641-2.013-0.6375-2.1724-1.6368-0.19845-0.97774 0.46111-2.022 1.4227-2.2766 0.17724-0.050695 0.36158-0.076271 0.54591-0.076207zm0 5c1.03-0.023266 1.9671 0.86811 1.9974 1.8975 0.076754 1.0283-0.76715 2.0089-1.7936 2.0921-1.0061 0.12641-2.013-0.6375-2.1724-1.6368-0.19845-0.97774 0.46111-2.022 1.4227-2.2766 0.17724-0.050695 0.36158-0.076271 0.54591-0.076207zm0 5c1.03-0.02327 1.9671 0.86811 1.9974 1.8975 0.076754 1.0283-0.76715 2.0089-1.7936 2.0921-1.0061 0.12641-2.013-0.6375-2.1724-1.6368-0.19845-0.97774 0.46111-2.022 1.4227-2.2766 0.17724-0.050695 0.36158-0.076271 0.54591-0.076207z"/></svg>
