<svg width="14" height="14" version="1.1" viewBox="0 0 14 14" xmlns="http://www.w3.org/2000/svg"><rect id="a" width="14" height="14" fill="none" visibility="hidden"/><path id="b" d="m4.9391 0.125c-0.59452-0.027737-1.0979 0.43145-1.2713 0.97536-0.2333 0.69385-0.24017 1.5009 0.097928 2.1619 0.29315 0.54226 0.97554 0.98794 1.5917 0.7156 0.8162-0.42929 1.1125-1.4602 0.94547-2.3209-0.10265-0.63076-0.45325-1.3173-1.1118-1.5006-0.082228-0.020855-0.16706-0.031366-0.25189-0.031327zm3.9688 0c-0.69934 0.0099185-1.1808 0.6828-1.3125 1.3125-0.24663 0.86938-0.022709 1.9514 0.77027 2.4677 0.50035 0.34608 1.1813 0.06593 1.5266-0.37199 0.49016-0.58919 0.52216-1.4285 0.37208-2.1481-0.11876-0.58278-0.53038-1.1812-1.1647-1.2477-0.063543-0.0084825-0.12766-0.01243-0.19176-0.012428zm-8.0328 3.0938c-0.41615 0.46907-0.40742 1.1732-0.24816 1.7458 0.15803 0.50504 0.4892 1.0397 1.0265 1.1898 0.60227 0.14711 1.1903-0.30695 1.3831-0.86038 0.31858-0.75012 0.16718-1.7599-0.53554-2.2402-0.38408-0.27114-0.93405-0.37347-1.3345-0.076799-0.10575 0.069456-0.20206 0.15244-0.29144 0.24175zm10.562-0.125c-0.4029 0.29582-0.52037 0.83212-0.57406 1.3029-0.07382 0.64654 0.17232 1.3959 0.80434 1.6774 0.41876 0.21111 0.96027 0.10378 1.2572-0.26232 0.57144-0.61934 0.74343-1.6107 0.3647-2.3711-0.34615-0.58274-1.1796-0.7118-1.7524-0.40048l-0.05017 0.025904zm-4.4375 1.4062c-1.6571-0.020004-3.2673 0.97081-4.0077 2.4514-0.78875 1.5037-0.61457 3.4477 0.43434 4.7842 0.95727 1.2751 2.6259 1.9588 4.2027 1.7208 1.6892-0.21809 3.1787-1.4881 3.6684-3.1182 0.49485-1.5431 0.067941-3.3339-1.0778-4.4817-0.83338-0.86143-2.021-1.3633-3.2199-1.3564zm-1 1.5h2v2h2v2c-0.66667 0.010417-1.3333 0.020833-2 0.03125v1.9688h-2v-2h-2v-2h2v-2z" fill="#1a1a1a"/></svg>
