<svg width="14" height="14" version="1.1" viewBox="0 0 14 14" xmlns="http://www.w3.org/2000/svg"><rect id="a" width="14" height="14" fill="none" visibility="hidden"/><path id="b" d="m9.6562 0.59375c-0.63061 0.11045-0.95981 0.74833-1.1509 1.2975-0.35731 1.2063-0.68808 2.4261-0.88035 3.6713 0.065914 0.49493 0.5428-0.063335 0.7151-0.22758 0.79237-0.76153 1.5861-1.5233 2.3447-2.3184 0.38694-0.41203 0.70046-1.0383 0.44846-1.5982-0.26543-0.50132-0.83283-0.84379-1.4002-0.83383zm-5.4375 0.0625c-0.55871 0.020494-1.1358 0.34043-1.3742 0.85702-0.21617 0.62643 0.19939 1.2381 0.58938 1.695 0.84832 0.9158 1.7442 1.7958 2.7286 2.5652 0.44551 0.087214 0.12956-0.55934 0.10511-0.79929-0.25444-1.0462-0.49502-2.0974-0.80232-3.1295-0.15898-0.53144-0.52457-1.1038-1.1209-1.1814-0.041647-0.0051054-0.083628-0.0074681-0.12558-0.0071128zm-3.2188 5c-0.48417 0.063938-0.88458 0.45465-0.96393 0.93517-0.11869 0.54848 0.01417 1.2471 0.57725 1.499 0.71168 0.31995 1.4941 0.033711 2.2011-0.15315 0.94009-0.24793 1.8861-0.49596 2.787-0.86459 0.29897-0.3472-0.37165-0.42341-0.59962-0.50873-0.99663-0.29522-1.9934-0.59449-3.0016-0.84693-0.32896-0.058407-0.66759-0.072991-1.0003-0.0608zm11.688 0c-0.76728-0.012376-1.4852 0.29497-2.2185 0.47667-0.67761 0.20112-1.3649 0.37883-2.0303 0.6155-0.36493 0.2455 0.1608 0.43416 0.38134 0.48906 1.0571 0.37266 2.1456 0.64784 3.2306 0.92454 0.57629 0.12352 1.2927 0.13805 1.7031-0.36007 0.34086-0.48577 0.3264-1.1881 0.01375-1.6857-0.23828-0.34307-0.68123-0.46743-1.0801-0.45998zm-6.4062 2.4062c-0.26374 0.08194-0.44247 0.32168-0.65987 0.48319-0.7929 0.70513-1.5468 1.4548-2.2703 2.2303-0.37616 0.44332-0.74077 1.0684-0.47712 1.6555 0.28774 0.4883 0.85471 0.83578 1.429 0.81524 0.61273-0.06735 0.98204-0.6613 1.1622-1.1951 0.30162-0.98484 0.52085-1.9935 0.76595-2.9937 0.032508-0.32011 0.25258-0.6655 0.1248-0.97407l-0.033416-0.017193zm1.4688 0.0625c-0.25819 0.1695-0.032001 0.52869-0.029888 0.7799 0.21207 1.0663 0.4959 2.1179 0.80642 3.159 0.18465 0.53304 0.51664 1.1406 1.1342 1.2246 0.60329 0.04145 1.2268-0.3245 1.4895-0.86981 0.22674-0.57406-0.10656-1.1888-0.50068-1.5995-0.87085-0.90135-1.787-1.7586-2.7021-2.6148-0.055538-0.043674-0.122-0.09149-0.19732-0.079394z"/></svg>
