<svg width="14" height="14" version="1.1" viewBox="0 0 14 14" xmlns="http://www.w3.org/2000/svg"><rect id="a" width="14" height="14" fill="none" visibility="hidden"/><path id="b" d="m2 0c0.00321 1.2336-0.00657 2.4673 0.00516 3.7007 0.033977 1.1073 0.67985 2.1328 1.5963 2.7327 0.20762 0.098292 0.36786 0.20797 0.27344 0.44706-0.29162 2.3732-0.58324 4.7464-0.87485 7.1195h1.5c0.0625-0.48958 0.125-0.97917 0.1875-1.4688 0.77083-0.51042 1.5417-1.0208 2.3125-1.5312 0.77083 0.52083 1.5417 1.0417 2.3125 1.5625 0.0625 0.47917 0.125 0.95833 0.1875 1.4375h1.5c-0.30208-2.4479-0.60417-4.8958-0.90625-7.3438 0.97496-0.53528 1.7357-1.5055 1.8705-2.627 0.065119-0.65568 0.024372-1.3164 0.035789-1.9746v-2.0547h-1.5v1.5c-0.21974 0.018686-0.45751-0.0513-0.65686 0.067017-0.77375 0.33988-1.6809 0.42853-2.4733 0.097046-0.50669-0.2246-1.0129-0.4889-1.5773-0.52588-0.62519-0.068288-1.2499 0.10671-1.8123 0.36182h-0.4802v-1.5h-1.5zm3.3438 7.1875c1.0809 0.26743 2.228 0.29417 3.3125 0.03125 0.0625 0.52083 0.125 1.0417 0.1875 1.5625-0.61458 0.40625-1.2292 0.8125-1.8438 1.2188-0.61458-0.40625-1.2292-0.8125-1.8438-1.2188l0.1875-1.5938zm-0.3125 2.5c0.40625 0.27083 0.8125 0.54167 1.2188 0.8125-0.47917 0.32292-0.95833 0.64583-1.4375 0.96875 0.072917-0.59375 0.14583-1.1875 0.21875-1.7812zm3.9375 0c0.072917 0.59375 0.14583 1.1875 0.21875 1.7812-0.47917-0.32292-0.95833-0.64583-1.4375-0.96875 0.40625-0.27083 0.8125-0.54167 1.2188-0.8125z"/></svg>
