<svg width="14" height="14" version="1.1" viewBox="0 0 14 14" xmlns="http://www.w3.org/2000/svg"><rect id="a" width="14" height="14" fill="none" visibility="hidden"/><path id="b" d="m8.2812 1.9062c-0.31766 0.066728-0.58352 0.27388-0.87454 0.4118-0.83556 0.44883-1.6727 0.89491-2.5073 1.3455-0.36975 0.24051-0.44966 0.80528-0.15892 1.1388 0.25316 0.39922 0.50632 0.79843 0.75948 1.1976-1.1667 0.66667-2.3333 1.3333-3.5 2 0.010417 0.20833 0.020833 0.41667 0.03125 0.625 0.38799-0.29223 0.93549-0.51438 1.4-0.25781 0.53468 0.21233 1.0229 0.61558 1.6173 0.63066 0.69739-0.11199 1.247-0.66524 1.9514-0.74785 0.7061 0.075836 1.2508 0.64149 1.9496 0.74785 0.1313 0.0045472 0.26276 0.0010574 0.39413 0.0021515-0.94792-1.5-1.8958-3-2.8438-4.5 0.72351-0.38358 1.457-0.74981 2.1742-1.1444 0.35638-0.21706 0.55661-0.74117 0.25709-1.0872-0.14708-0.20766-0.38327-0.38442-0.65002-0.36212zm1.7188 2.5938c-0.82985-0.023666-1.5644 0.7496-1.498 1.5772 0.019232 0.82964 0.82845 1.5232 1.6514 1.4151 0.82729-0.061705 1.4787-0.90432 1.3294-1.7207-0.097174-0.71448-0.76118-1.2851-1.4827-1.2716zm-7 5.25c-0.70769 0.072078-1.2539 0.63532-1.9511 0.74785-0.10428 0.035314-0.02337 0.24785-0.048892 0.35853v1.1436c0.70895-0.07042 1.2598-0.62388 1.954-0.74785 0.5057 0.0165 0.92689 0.35424 1.3796 0.54291 0.33874 0.1815 0.75175 0.29222 1.108 0.08775 0.52161-0.20076 0.99203-0.56908 1.5583-0.63281 0.70518 0.08186 1.2584 0.62752 1.9536 0.74785 0.51319-0.0182 0.94611-0.35088 1.4064-0.54291 0.33072-0.18043 0.7329-0.29142 1.0818-0.08775 0.52175 0.20038 0.99223 0.5682 1.5582 0.63281v-1.5c-0.50044-0.079375-0.91752-0.40624-1.3832-0.58919-0.34862-0.18561-0.77014-0.2192-1.1197-0.016199-0.49597 0.20337-0.95139 0.55258-1.4971 0.60539-0.55518-0.07977-1.0178-0.44268-1.5373-0.63281-0.3648-0.20254-0.78266-0.095628-1.1294 0.087753-0.44163 0.18455-0.85091 0.48245-1.3333 0.54506-0.57842-0.076043-1.0512-0.47034-1.5942-0.65804-0.13027-0.047523-0.26579-0.090466-0.40576-0.091965z"/></svg>
