<svg width="14" height="14" version="1.1" viewBox="0 0 14 14" xmlns="http://www.w3.org/2000/svg"><rect id="a" width="14" height="14" fill="none" visibility="hidden"/><path id="b" d="m8 0v2c-0.33333-0.16667-0.66667-0.33333-1-0.5-2.3333 1.1667-4.6667 2.3333-7 3.5v2c0.5-0.2168 1-0.43359 1.5-0.65039v7.6504h1.5v-8.3008c1.3333-0.56641 2.6667-1.1328 4-1.6992 0.33333 0.14193 0.66667 0.28385 1 0.42578v4.5742h-3.5c0.025459 1.6666-0.034241 3.3334 0 5h5c0.018271-2.9791 0.00595-5.9583 0-8.9375l1.5 0.63672v8.3008h1.5v-7.6504c0.5 0.2168 1 0.43359 1.5 0.65039v-2l-4.5-2.25c-0.0015514-0.91667-1.4e-6 -1.8333 0-2.75h-1.5zm-1 11c0.48422-0.0018 0.9767 0.35456 0.99361 0.86586 0.013743 0.37768 0.0029586 0.75613 0.0063858 1.1341h-2c0.010686-0.41836-0.024653-0.83992 0.024719-1.2557 0.075896-0.46356 0.53407-0.7354 0.97528-0.74429z"/></svg>
