<svg width="14" height="14" version="1.1" viewBox="0 0 14 14" xmlns="http://www.w3.org/2000/svg"><rect id="a" width="14" height="14" fill="none" visibility="hidden"/><path id="b" d="m2.7188 0c-0.57292 0.57292-1.1458 1.1458-1.7188 1.7188 1.6562 1.4271 3.3125 2.8542 4.9688 4.2812-1.6562 1.4271-3.3125 2.8542-4.9688 4.2812 0.57292 0.57292 1.1458 1.1458 1.7188 1.7188 1.4271-1.6562 2.8542-3.3125 4.2812-4.9688 1.4271 1.6562 2.8542 3.3125 4.2812 4.9688l1.7188-1.7188c-1.6562-1.4271-3.3125-2.8542-4.9688-4.2812 1.6562-1.4271 3.3125-2.8542 4.9688-4.2812-0.57292-0.57292-1.1458-1.1458-1.7188-1.7188-1.4271 1.6562-2.8542 3.3125-4.2812 4.9688-1.4271-1.6562-2.8542-3.3125-4.2812-4.9688zm4.2812 2c-0.31376 0.013983-0.90157 0.052927-1.0235 0.26352 0.34116 0.39133 0.68231 0.78265 1.0235 1.174 0.35417-0.40625 0.70833-0.8125 1.0625-1.2188-0.33206-0.15146-0.69858-0.21926-1.0625-0.21875zm0 3.5c0.4061-0.021122 0.66039 0.51812 0.38582 0.81805-0.24077 0.32462-0.81449 0.18216-0.87567-0.21728-0.069756-0.29987 0.18195-0.60883 0.48984-0.60077zm-2.8125 0.28125c-0.010417 0.15625-0.020833 0.3125-0.03125 0.46875 0.09375-0.083333 0.1875-0.16667 0.28125-0.25-0.083333-0.072917-0.16667-0.14583-0.25-0.21875zm5.625 0c-0.057599 0.081748-0.26044 0.16293-0.2204 0.24506 0.07677 0.054348 0.20094 0.20548 0.25034 0.20394-0.0099777-0.14966-0.019955-0.29933-0.029933-0.44899zm-2.8125 2.7812c-1.125 1.3021-2.25 2.6042-3.375 3.9062-0.041667 0.51042-0.083333 1.0208-0.125 1.5312h7c-0.04167-0.51042-0.08333-1.0208-0.125-1.5312-1.125-1.3021-2.25-2.6042-3.375-3.9062z"/></svg>
