<svg id="d" width="512" height="512" version="1.1" xmlns="http://www.w3.org/2000/svg" xmlns:xlink="http://www.w3.org/1999/xlink"><defs><clipPath id="c"><rect width="512" height="512"/></clipPath><g id="a" transform="translate(-5 -5)"><path d="m2 0-2 6v1h2v3h1v-3h2v-1l-2-6zm0.5 1 1.5 5h-3z" fill="#6b8d5e"/><path d="m7 5h1v5h-1z" fill="#6b8d5e"/><path d="m7.5 0a2.5 3 0 0 1 0 6v-1a1.5 2 0 0 0 0-4 1.5 2 0 1 0 0 4v1a2.5 3 0 1 1 0-6z" fill="#6b8d5e"/></g><g id="b" transform="translate(-5 -5)"><path d="m2 5h1v5h-1z" fill="#6b8d5e"/><path d="m2.5 0a2.5 3 0 0 1 0 6v-1a1.5 2 0 0 0 0-4 1.5 2 0 1 0 0 4v1a2.5 3 0 1 1 0-6z" fill="#6b8d5e"/><path d="m7 0-2 6v1h2v3h1v-3h2v-1l-2-6zm0.5 1 1.5 5h-3z" fill="#6b8d5e"/></g></defs><g id="e" clip-path="url(#c)"><use x="73" y="180" xlink:href="#a"/><use x="312" y="201" xlink:href="#a"/><use x="326" y="181" xlink:href="#b"/><use x="408" y="435" xlink:href="#b"/><use x="114" y="30" xlink:href="#b"/><use x="114" y="542" xlink:href="#b"/><use x="410" y="75" xlink:href="#b"/><use x="52" y="318" xlink:href="#a"/><use x="564" y="318" xlink:href="#a"/><use x="196" y="226" xlink:href="#b"/><use x="153" y="288" xlink:href="#a"/><use x="108" y="349" xlink:href="#b"/><use x="118" y="252" xlink:href="#a"/><use x="288" y="490" xlink:href="#a"/><use x="288" y="-22" xlink:href="#a"/><use x="261" y="279" xlink:href="#b"/><use x="203" y="288" xlink:href="#b"/><use x="81" y="150" xlink:href="#a"/><use x="221" y="441" xlink:href="#a"/><use x="13" y="238" xlink:href="#b"/><use x="525" y="238" xlink:href="#b"/><use x="132" y="341" xlink:href="#a"/><use x="219" y="476" xlink:href="#b"/><use x="219" y="-36" xlink:href="#b"/><use x="443" y="367" xlink:href="#a"/><use x="352" y="488" xlink:href="#a"/><use x="352" y="-24" xlink:href="#a"/><use x="97" y="480" xlink:href="#a"/><use x="97" y="-32" xlink:href="#a"/><use x="44" y="431" xlink:href="#b"/><use x="556" y="431" xlink:href="#b"/><use x="167" y="439" xlink:href="#a"/><use x="496" y="269" xlink:href="#b"/><use x="-16" y="269" xlink:href="#b"/><use x="308" y="307" xlink:href="#a"/><use x="64" y="246" xlink:href="#b"/><use x="283" y="229" xlink:href="#a"/><use x="198" y="168" xlink:href="#a"/><use x="246" y="465" xlink:href="#a"/><use x="246" y="-47" xlink:href="#a"/><use x="251" y="402" xlink:href="#a"/><use x="426" y="309" xlink:href="#a"/><use x="502" y="342" xlink:href="#b"/><use x="-10" y="342" xlink:href="#b"/><use x="284" y="367" xlink:href="#a"/><use x="408" y="11" xlink:href="#a"/><use x="408" y="523" xlink:href="#a"/><use x="494" y="87" xlink:href="#b"/><use x="-18" y="87" xlink:href="#b"/><use x="8" y="415" xlink:href="#a"/><use x="520" y="415" xlink:href="#a"/><use x="31" y="110" xlink:href="#a"/><use x="543" y="110" xlink:href="#a"/><use x="83" y="43" xlink:href="#b"/><use x="83" y="555" xlink:href="#b"/><use x="204" y="1" xlink:href="#a"/><use x="204" y="513" xlink:href="#a"/><use x="179" y="270" xlink:href="#a"/><use x="436" y="402" xlink:href="#a"/><use x="219" y="198" xlink:href="#a"/><use x="255" y="251" xlink:href="#b"/><use x="321" y="29" xlink:href="#a"/><use x="321" y="541" xlink:href="#a"/><use x="195" y="131" xlink:href="#a"/><use x="262" y="161" xlink:href="#a"/><use x="51" y="159" xlink:href="#b"/><use x="563" y="159" xlink:href="#b"/><use x="324" y="279" xlink:href="#b"/><use x="120" y="467" xlink:href="#a"/><use x="120" y="-45" xlink:href="#a"/><use x="121" y="102" xlink:href="#a"/><use x="229" y="229" xlink:href="#a"/><use x="144" y="263" xlink:href="#b"/><use x="372" y="127" xlink:href="#a"/><use x="282" y="102" xlink:href="#a"/><use x="402" y="457" xlink:href="#b"/><use x="402" y="-55" xlink:href="#b"/><use x="68" y="212" xlink:href="#a"/><use x="309" y="121" xlink:href="#b"/><use x="438" y="340" xlink:href="#b"/><use x="181" y="339" xlink:href="#a"/><use x="21" y="355" xlink:href="#b"/><use x="533" y="355" xlink:href="#b"/><use x="67" y="399" xlink:href="#b"/><use x="493" y="315" xlink:href="#a"/><use x="-19" y="315" xlink:href="#a"/><use x="254" y="434" xlink:href="#b"/><use x="222" y="143" xlink:href="#b"/><use x="283" y="195" xlink:href="#b"/><use x="240" y="341" xlink:href="#a"/><use x="493" y="438" xlink:href="#b"/><use x="-19" y="438" xlink:href="#b"/><use x="159" y="387" xlink:href="#b"/><use x="384" y="43" xlink:href="#b"/><use x="384" y="555" xlink:href="#b"/><use x="494" y="406" xlink:href="#b"/><use x="-18" y="406" xlink:href="#b"/><use x="189" y="465" xlink:href="#a"/><use x="189" y="-47" xlink:href="#a"/><use x="130" y="492" xlink:href="#a"/><use x="130" y="-20" xlink:href="#a"/><use x="162" y="205" xlink:href="#b"/><use x="464" y="384" xlink:href="#b"/><use x="-48" y="384" xlink:href="#b"/><use x="421" y="501" xlink:href="#a"/><use x="421" y="-11" xlink:href="#a"/><use x="323" y="498" xlink:href="#b"/><use x="323" y="-14" xlink:href="#b"/><use x="65" y="287" xlink:href="#a"/><use x="358" y="181" xlink:href="#b"/><use x="341" y="403" xlink:href="#b"/><use x="2" y="298" xlink:href="#b"/><use x="514" y="298" xlink:href="#b"/><use x="373" y="463" xlink:href="#b"/><use x="373" y="-49" xlink:href="#b"/><use x="181" y="367" xlink:href="#b"/><use x="225" y="412" xlink:href="#a"/><use x="281" y="459" xlink:href="#b"/><use x="281" y="-53" xlink:href="#b"/><use x="231" y="378" xlink:href="#b"/><use x="407" y="250" xlink:href="#b"/><use x="78" y="16" xlink:href="#a"/><use x="78" y="528" xlink:href="#a"/><use x="222" y="113" xlink:href="#b"/><use x="103" y="435" xlink:href="#a"/><use x="454" y="137" xlink:href="#a"/><use x="-58" y="137" xlink:href="#a"/><use x="18" y="141" xlink:href="#b"/><use x="530" y="141" xlink:href="#b"/><use x="117" y="283" xlink:href="#a"/><use x="324" y="146" xlink:href="#b"/><use x="239" y="293" xlink:href="#a"/><use x="415" y="167" xlink:href="#b"/><use x="131" y="378" xlink:href="#b"/><use x="283" y="134" xlink:href="#a"/><use x="389" y="188" xlink:href="#b"/><use x="501" y="150" xlink:href="#a"/><use x="-11" y="150" xlink:href="#a"/><use x="253" y="135" xlink:href="#b"/><use x="51" y="495" xlink:href="#b"/><use x="563" y="495" xlink:href="#b"/><use x="563" y="-17" xlink:href="#b"/><use x="51" y="-17" xlink:href="#b"/><use x="563" y="-17" xlink:href="#b"/><use x="267" y="9" xlink:href="#a"/><use x="267" y="521" xlink:href="#a"/><use x="405" y="221" xlink:href="#b"/><use x="474" y="42" xlink:href="#a"/><use x="-38" y="42" xlink:href="#a"/><use x="-38" y="554" xlink:href="#a"/><use x="474" y="554" xlink:href="#a"/><use x="-38" y="554" xlink:href="#a"/><use x="466" y="105" xlink:href="#b"/><use x="-46" y="105" xlink:href="#b"/><use x="92" y="269" xlink:href="#a"/><use x="114" y="64" xlink:href="#b"/><use x="82" y="336" xlink:href="#a"/><use x="202" y="255" xlink:href="#b"/><use x="164" y="171" xlink:href="#b"/><use x="478" y="290" xlink:href="#b"/><use x="-34" y="290" xlink:href="#b"/><use x="297" y="9" xlink:href="#a"/><use x="297" y="521" xlink:href="#a"/><use x="159" y="497" xlink:href="#a"/><use x="159" y="-15" xlink:href="#a"/><use x="298" y="73" xlink:href="#b"/><use x="96" y="379" xlink:href="#a"/><use x="359" y="268" xlink:href="#b"/><use x="141" y="15" xlink:href="#b"/><use x="141" y="527" xlink:href="#b"/><use x="345" y="243" xlink:href="#a"/><use x="436" y="433" xlink:href="#b"/><use x="235" y="80" xlink:href="#a"/><use x="98" y="202" xlink:href="#a"/><use x="259" y="493" xlink:href="#b"/><use x="259" y="-19" xlink:href="#b"/><use x="318" y="435" xlink:href="#a"/><use x="90" y="411" xlink:href="#b"/><use x="267" y="72" xlink:href="#b"/><use x="23" y="21" xlink:href="#a"/><use x="535" y="21" xlink:href="#a"/><use x="535" y="533" xlink:href="#a"/><use x="23" y="533" xlink:href="#a"/><use x="535" y="533" xlink:href="#a"/><use x="51" y="133" xlink:href="#a"/><use x="563" y="133" xlink:href="#a"/><use x="11" y="443" xlink:href="#b"/><use x="523" y="443" xlink:href="#b"/><use x="206" y="28" xlink:href="#b"/><use x="206" y="540" xlink:href="#b"/><use x="336" y="310" xlink:href="#a"/><use x="205" y="92" xlink:href="#b"/><use x="385" y="376" xlink:href="#a"/><use x="175" y="15" xlink:href="#a"/><use x="175" y="527" xlink:href="#a"/><use x="503" y="179" xlink:href="#b"/><use x="-9" y="179" xlink:href="#b"/><use x="374" y="217" xlink:href="#b"/><use x="265" y="314" xlink:href="#a"/><use x="171" y="75" xlink:href="#a"/><use x="44" y="459" xlink:href="#a"/><use x="556" y="459" xlink:href="#a"/><use x="556" y="-53" xlink:href="#a"/><use x="44" y="-53" xlink:href="#a"/><use x="556" y="-53" xlink:href="#a"/><use x="444" y="48" xlink:href="#a"/><use x="444" y="560" xlink:href="#a"/><use x="405" y="133" xlink:href="#b"/><use x="345" y="429" xlink:href="#a"/><use x="87" y="234" xlink:href="#a"/><use x="47" y="343" xlink:href="#a"/><use x="559" y="343" xlink:href="#a"/><use x="432" y="136" xlink:href="#b"/><use x="80" y="117" xlink:href="#b"/><use x="189" y="493" xlink:href="#b"/><use x="189" y="-19" xlink:href="#b"/><use x="499" y="502" xlink:href="#b"/><use x="-13" y="502" xlink:href="#b"/><use x="-13" y="-10" xlink:href="#b"/><use x="499" y="-10" xlink:href="#b"/><use x="-13" y="-10" xlink:href="#b"/><use x="15" y="205" xlink:href="#b"/><use x="527" y="205" xlink:href="#b"/><use x="259" y="353" xlink:href="#a"/><use x="143" y="132" xlink:href="#b"/><use x="399" y="105" xlink:href="#a"/><use x="204" y="65" xlink:href="#b"/><use x="465" y="413" xlink:href="#b"/><use x="-47" y="413" xlink:href="#b"/><use x="344" y="458" xlink:href="#b"/><use x="344" y="-54" xlink:href="#b"/><use x="407" y="343" xlink:href="#a"/><use x="470" y="72" xlink:href="#a"/><use x="-42" y="72" xlink:href="#a"/><use x="312" y="403" xlink:href="#a"/><use x="383" y="70" xlink:href="#b"/><use x="119" y="403" xlink:href="#a"/><use x="18" y="173" xlink:href="#b"/><use x="530" y="173" xlink:href="#b"/><use x="43" y="70" xlink:href="#b"/><use x="555" y="70" xlink:href="#b"/><use x="414" y="373" xlink:href="#a"/><use x="287" y="296" xlink:href="#a"/><use x="376" y="350" xlink:href="#b"/><use x="82" y="503" xlink:href="#a"/><use x="82" y="-9" xlink:href="#a"/><use x="466" y="448" xlink:href="#a"/><use x="-46" y="448" xlink:href="#a"/><use x="295" y="384" xlink:href="#b"/><use x="204" y="321" xlink:href="#a"/><use x="292" y="262" xlink:href="#b"/><use x="153" y="104" xlink:href="#b"/><use x="18" y="506" xlink:href="#a"/><use x="530" y="506" xlink:href="#a"/><use x="530" y="-6" xlink:href="#a"/><use x="18" y="-6" xlink:href="#a"/><use x="530" y="-6" xlink:href="#a"/><use x="470" y="163" xlink:href="#b"/><use x="-42" y="163" xlink:href="#b"/><use x="176" y="305" xlink:href="#a"/><use x="467" y="229" xlink:href="#a"/><use x="-45" y="229" xlink:href="#a"/><use x="442" y="469" xlink:href="#b"/><use x="442" y="-43" xlink:href="#b"/><use x="443" y="20" xlink:href="#a"/><use x="443" y="532" xlink:href="#a"/><use x="121" y="219" xlink:href="#a"/><use x="69" y="364" xlink:href="#b"/><use x="310" y="471" xlink:href="#b"/><use x="310" y="-41" xlink:href="#b"/><use x="52" y="47" xlink:href="#b"/><use x="564" y="47" xlink:href="#b"/><use x="564" y="559" xlink:href="#b"/><use x="52" y="559" xlink:href="#b"/><use x="564" y="559" xlink:href="#b"/><use x="37" y="407" xlink:href="#a"/><use x="549" y="407" xlink:href="#a"/><use x="107" y="164" xlink:href="#a"/><use x="43" y="263" xlink:href="#b"/><use x="555" y="263" xlink:href="#b"/><use x="130" y="442" xlink:href="#a"/><use x="315" y="250" xlink:href="#a"/><use x="472" y="8" xlink:href="#a"/><use x="-40" y="8" xlink:href="#a"/><use x="-40" y="520" xlink:href="#a"/><use x="472" y="520" xlink:href="#a"/><use x="-40" y="520" xlink:href="#a"/><use x="448" y="289" xlink:href="#a"/><use x="193" y="194" xlink:href="#b"/><use y="115" xlink:href="#a"/><use x="512" y="115" xlink:href="#a"/><use x="449" y="500" xlink:href="#a"/><use x="-63" y="500" xlink:href="#a"/><use x="-63" y="-12" xlink:href="#a"/><use x="449" y="-12" xlink:href="#a"/><use x="-63" y="-12" xlink:href="#a"/><use x="443" y="79" xlink:href="#b"/><use x="10" y="268" xlink:href="#b"/><use x="522" y="268" xlink:href="#b"/><use x="259" y="188" xlink:href="#a"/><use x="505" y="469" xlink:href="#b"/><use x="-7" y="469" xlink:href="#b"/><use x="-7" y="-43" xlink:href="#b"/><use x="505" y="-43" xlink:href="#b"/><use x="-7" y="-43" xlink:href="#b"/><use x="473" y="477" xlink:href="#b"/><use x="-39" y="477" xlink:href="#b"/><use x="-39" y="-35" xlink:href="#b"/><use x="473" y="-35" xlink:href="#b"/><use x="-39" y="-35" xlink:href="#b"/><use x="144" y="42" xlink:href="#a"/><use x="144" y="554" xlink:href="#a"/><use x="463" y="320" xlink:href="#b"/><use x="-49" y="320" xlink:href="#b"/><use x="262" y="41" xlink:href="#b"/><use x="262" y="553" xlink:href="#b"/><use x="386" y="160" xlink:href="#a"/><use x="343" y="342" xlink:href="#b"/><use x="322" y="59" xlink:href="#a"/><use x="322" y="571" xlink:href="#a"/><use x="226" y="314" xlink:href="#b"/><use x="321" y="369" xlink:href="#a"/><use x="314" y="227" xlink:href="#a"/><use x="254" y="105" xlink:href="#a"/><use x="131" y="190" xlink:href="#b"/><use x="233" y="500" xlink:href="#a"/><use x="233" y="-12" xlink:href="#a"/><use x="494" y="374" xlink:href="#a"/><use x="-18" y="374" xlink:href="#a"/><use x="253" y="216" xlink:href="#a"/><use x="350" y="373" xlink:href="#b"/><use x="353" y="40" xlink:href="#a"/><use x="353" y="552" xlink:href="#a"/><use x="19" y="322" xlink:href="#a"/><use x="531" y="322" xlink:href="#a"/><use x="277" y="409" xlink:href="#b"/><use x="438" y="250" xlink:href="#a"/><use x="91" y="304" xlink:href="#b"/><use x="379" y="15" xlink:href="#b"/><use x="379" y="527" xlink:href="#b"/><use x="353" y="152" xlink:href="#b"/><use x="41" y="381" xlink:href="#a"/><use x="553" y="381" xlink:href="#a"/><use x="469" y="194" xlink:href="#a"/><use x="-43" y="194" xlink:href="#a"/><use x="142" y="311" xlink:href="#a"/><use x="35" y="293" xlink:href="#b"/><use x="547" y="293" xlink:href="#b"/><use x="285" y="434" xlink:href="#a"/><use x="388" y="282" xlink:href="#a"/><use x="154" y="352" xlink:href="#b"/><use x="7" y="379" xlink:href="#b"/><use x="519" y="379" xlink:href="#b"/><use x="345" y="9" xlink:href="#a"/><use x="345" y="521" xlink:href="#a"/><use x="159" y="465" xlink:href="#a"/><use x="159" y="-47" xlink:href="#a"/><use x="399" y="313" xlink:href="#a"/><use x="237" y="17" xlink:href="#b"/><use x="237" y="529" xlink:href="#b"/><use x="385" y="496" xlink:href="#b"/><use x="385" y="-16" xlink:href="#b"/><use x="490" y="212" xlink:href="#b"/><use x="-22" y="212" xlink:href="#b"/><use x="149" y="415" xlink:href="#b"/><use x="377" y="242" xlink:href="#b"/><use x="135" y="161" xlink:href="#a"/><use x="446" y="182" xlink:href="#a"/><use x="405" y="407" xlink:href="#a"/><use x="421" y="195" xlink:href="#a"/><use x="169" y="144" xlink:href="#b"/><use x="324" y="94" xlink:href="#b"/><use x="372" y="400" xlink:href="#a"/><use x="438" y="223" xlink:href="#b"/><use x="501" y="52" xlink:href="#b"/><use x="-11" y="52" xlink:href="#b"/><use x="-11" y="564" xlink:href="#b"/><use x="501" y="564" xlink:href="#b"/><use x="-11" y="564" xlink:href="#b"/><use x="39" y="192" xlink:href="#a"/><use x="551" y="192" xlink:href="#a"/><use x="343" y="207" xlink:href="#a"/><use x="114" y="318" xlink:href="#b"/><use x="342" y="119" xlink:href="#a"/><use x="233" y="175" xlink:href="#b"/><use x="141" y="72" xlink:href="#b"/><use x="40" y="228" xlink:href="#a"/><use x="552" y="228" xlink:href="#a"/><use x="313" y="339" xlink:href="#b"/><use x="483" y="129" xlink:href="#a"/><use x="-29" y="129" xlink:href="#a"/><use x="23" y="477" xlink:href="#b"/><use x="535" y="477" xlink:href="#b"/><use x="535" y="-35" xlink:href="#b"/><use x="23" y="-35" xlink:href="#b"/><use x="535" y="-35" xlink:href="#b"/><use x="464" y="258" xlink:href="#b"/><use x="-48" y="258" xlink:href="#b"/><use x="177" y="108" xlink:href="#a"/><use x="231" y="50" xlink:href="#b"/><use x="231" y="562" xlink:href="#b"/><use x="193" y="429" xlink:href="#a"/><use x="99" y="90" xlink:href="#b"/><use x="369" y="98" xlink:href="#b"/><use x="77" y="74" xlink:href="#a"/><use x="413" y="44" xlink:href="#a"/><use x="413" y="556" xlink:href="#a"/><use x="112" y="129" xlink:href="#a"/><use x="471" y="349" xlink:href="#a"/><use x="-41" y="349" xlink:href="#a"/><use x="13" y="82" xlink:href="#b"/><use x="525" y="82" xlink:href="#b"/><use x="74" y="439" xlink:href="#a"/><use x="143" y="224" xlink:href="#b"/><use x="501" y="236" xlink:href="#b"/><use x="-11" y="236" xlink:href="#b"/><use x="112" xlink:href="#b"/><use x="112" y="512" xlink:href="#b"/><use x="433" y="105" xlink:href="#a"/><use x="504" y="21" xlink:href="#a"/><use x="-8" y="21" xlink:href="#a"/><use x="-8" y="533" xlink:href="#a"/><use x="504" y="533" xlink:href="#a"/><use x="-8" y="533" xlink:href="#a"/><use x="378" y="430" xlink:href="#a"/><use x="346" y="70" xlink:href="#b"/><use x="420" y="279" xlink:href="#a"/><use x="169" y="238" xlink:href="#a"/><use x="18" y="49" xlink:href="#b"/><use x="530" y="49" xlink:href="#b"/><use x="530" y="561" xlink:href="#b"/><use x="18" y="561" xlink:href="#b"/><use x="530" y="561" xlink:href="#b"/><use x="71" y="465" xlink:href="#a"/><use x="71" y="-47" xlink:href="#a"/><use x="283" y="340" xlink:href="#a"/><use x="297" y="165" xlink:href="#b"/><use x="49" y="11" xlink:href="#a"/><use x="561" y="11" xlink:href="#a"/><use x="561" y="523" xlink:href="#a"/><use x="49" y="523" xlink:href="#a"/><use x="561" y="523" xlink:href="#a"/><use x="207" y="389" xlink:href="#b"/><use x="58" y="95" xlink:href="#a"/><use x="570" y="95" xlink:href="#a"/><use x="409" y="478" xlink:href="#a"/><use x="409" y="-34" xlink:href="#a"/><use x="176" y="44" xlink:href="#b"/><use x="176" y="556" xlink:href="#b"/><use x="213" y="351" xlink:href="#b"/><use x="183" y="405" xlink:href="#a"/><use x="360" y="295" xlink:href="#a"/><use x="372" y="321" xlink:href="#b"/><use x="228" y="262" xlink:href="#a"/><use x="289" y="41" xlink:href="#a"/><use x="289" y="553" xlink:href="#a"/></g><desc>Created with Snap</desc></svg>
