<svg id="c" width="512" height="512" version="1.1" xmlns="http://www.w3.org/2000/svg" xmlns:xlink="http://www.w3.org/1999/xlink"><defs><clipPath id="b"><rect width="512" height="512"/></clipPath><g id="a" transform="matrix(.12 0 0 .12 -6.24 -5.88)"><g><g transform="translate(2.1186 -1.2712)" fill="#e6e6e6"><path d="m83.526 24.329 5.0006 5.0005 9.8445 19.744-19.744-9.8445-4.825-4.8248-19.301 19.998 31.527 30.458c0.7699 0.7437 0.818 1.9607 0.1092 2.7628-1.3648 1.5446-2.826 3.0058-4.3705 4.3705-0.8021 0.7088-2.0191 0.6608-2.7628-0.1091l-30.354-31.42-30.325 31.419c-0.7436 0.7704-1.961 0.8188-2.7634 0.1098-1.5441-1.3645-3.005-2.8251-4.3693-4.3692-0.709-0.8023-0.6607-2.0199 0.1098-2.7635l31.523-30.425-20.879-21.613c-3.7644 4.233-6.9481 8.9965-9.4369 14.166l-10.88-9.4668c6.8998-12.68 17.338-23.11 30.006-30.018l9.4619 10.879c-5.1582 2.4839-9.9086 5.6625-14.13 9.4194l21.717 20.98 20.099-19.398-11.368-11.368 9.8994-9.8994 11.543 11.544 1.4376-1.3877 4.6204 4.618-1.3887 1.4389z" fill="#e6e6e6"/></g></g></g></defs><g id="d" clip-path="url(#b)"><use x="16" y="11" xlink:href="#a"/><use x="528" y="11" xlink:href="#a"/><use x="528" y="523" xlink:href="#a"/><use x="16" y="523" xlink:href="#a"/><use x="528" y="523" xlink:href="#a"/><use x="48" y="34" xlink:href="#a"/><use x="560" y="34" xlink:href="#a"/><use x="560" y="546" xlink:href="#a"/><use x="48" y="546" xlink:href="#a"/><use x="560" y="546" xlink:href="#a"/><use x="80" y="11" xlink:href="#a"/><use x="80" y="523" xlink:href="#a"/><use x="112" y="34" xlink:href="#a"/><use x="112" y="546" xlink:href="#a"/><use x="144" y="11" xlink:href="#a"/><use x="144" y="523" xlink:href="#a"/><use x="176" y="34" xlink:href="#a"/><use x="176" y="546" xlink:href="#a"/><use x="208" y="11" xlink:href="#a"/><use x="208" y="523" xlink:href="#a"/><use x="240" y="34" xlink:href="#a"/><use x="240" y="546" xlink:href="#a"/><use x="272" y="11" xlink:href="#a"/><use x="272" y="523" xlink:href="#a"/><use x="304" y="34" xlink:href="#a"/><use x="304" y="546" xlink:href="#a"/><use x="336" y="11" xlink:href="#a"/><use x="336" y="523" xlink:href="#a"/><use x="368" y="34" xlink:href="#a"/><use x="368" y="546" xlink:href="#a"/><use x="400" y="11" xlink:href="#a"/><use x="400" y="523" xlink:href="#a"/><use x="432" y="34" xlink:href="#a"/><use x="432" y="546" xlink:href="#a"/><use x="464" y="11" xlink:href="#a"/><use x="-48" y="11" xlink:href="#a"/><use x="-48" y="523" xlink:href="#a"/><use x="464" y="523" xlink:href="#a"/><use x="-48" y="523" xlink:href="#a"/><use x="496" y="34" xlink:href="#a"/><use x="-16" y="34" xlink:href="#a"/><use x="-16" y="546" xlink:href="#a"/><use x="496" y="546" xlink:href="#a"/><use x="-16" y="546" xlink:href="#a"/><use x="16" y="58" xlink:href="#a"/><use x="528" y="58" xlink:href="#a"/><use x="528" y="570" xlink:href="#a"/><use x="16" y="570" xlink:href="#a"/><use x="528" y="570" xlink:href="#a"/><use x="48" y="81" xlink:href="#a"/><use x="560" y="81" xlink:href="#a"/><use x="80" y="58" xlink:href="#a"/><use x="80" y="570" xlink:href="#a"/><use x="112" y="81" xlink:href="#a"/><use x="144" y="58" xlink:href="#a"/><use x="144" y="570" xlink:href="#a"/><use x="176" y="81" xlink:href="#a"/><use x="208" y="58" xlink:href="#a"/><use x="208" y="570" xlink:href="#a"/><use x="240" y="81" xlink:href="#a"/><use x="272" y="58" xlink:href="#a"/><use x="272" y="570" xlink:href="#a"/><use x="304" y="81" xlink:href="#a"/><use x="336" y="58" xlink:href="#a"/><use x="336" y="570" xlink:href="#a"/><use x="368" y="81" xlink:href="#a"/><use x="400" y="58" xlink:href="#a"/><use x="400" y="570" xlink:href="#a"/><use x="432" y="81" xlink:href="#a"/><use x="464" y="58" xlink:href="#a"/><use x="-48" y="58" xlink:href="#a"/><use x="-48" y="570" xlink:href="#a"/><use x="464" y="570" xlink:href="#a"/><use x="-48" y="570" xlink:href="#a"/><use x="496" y="81" xlink:href="#a"/><use x="-16" y="81" xlink:href="#a"/><use x="16" y="104" xlink:href="#a"/><use x="528" y="104" xlink:href="#a"/><use x="48" y="128" xlink:href="#a"/><use x="560" y="128" xlink:href="#a"/><use x="80" y="104" xlink:href="#a"/><use x="112" y="128" xlink:href="#a"/><use x="144" y="104" xlink:href="#a"/><use x="176" y="128" xlink:href="#a"/><use x="208" y="104" xlink:href="#a"/><use x="240" y="128" xlink:href="#a"/><use x="272" y="104" xlink:href="#a"/><use x="304" y="128" xlink:href="#a"/><use x="336" y="104" xlink:href="#a"/><use x="368" y="128" xlink:href="#a"/><use x="400" y="104" xlink:href="#a"/><use x="432" y="128" xlink:href="#a"/><use x="464" y="104" xlink:href="#a"/><use x="-48" y="104" xlink:href="#a"/><use x="496" y="128" xlink:href="#a"/><use x="-16" y="128" xlink:href="#a"/><use x="16" y="151" xlink:href="#a"/><use x="528" y="151" xlink:href="#a"/><use x="48" y="174" xlink:href="#a"/><use x="560" y="174" xlink:href="#a"/><use x="80" y="151" xlink:href="#a"/><use x="112" y="174" xlink:href="#a"/><use x="144" y="151" xlink:href="#a"/><use x="176" y="174" xlink:href="#a"/><use x="208" y="151" xlink:href="#a"/><use x="240" y="174" xlink:href="#a"/><use x="272" y="151" xlink:href="#a"/><use x="304" y="174" xlink:href="#a"/><use x="336" y="151" xlink:href="#a"/><use x="368" y="174" xlink:href="#a"/><use x="400" y="151" xlink:href="#a"/><use x="432" y="174" xlink:href="#a"/><use x="464" y="151" xlink:href="#a"/><use x="-48" y="151" xlink:href="#a"/><use x="496" y="174" xlink:href="#a"/><use x="-16" y="174" xlink:href="#a"/><use x="16" y="197" xlink:href="#a"/><use x="528" y="197" xlink:href="#a"/><use x="48" y="221" xlink:href="#a"/><use x="560" y="221" xlink:href="#a"/><use x="80" y="197" xlink:href="#a"/><use x="112" y="221" xlink:href="#a"/><use x="144" y="197" xlink:href="#a"/><use x="176" y="221" xlink:href="#a"/><use x="208" y="197" xlink:href="#a"/><use x="240" y="221" xlink:href="#a"/><use x="272" y="197" xlink:href="#a"/><use x="304" y="221" xlink:href="#a"/><use x="336" y="197" xlink:href="#a"/><use x="368" y="221" xlink:href="#a"/><use x="400" y="197" xlink:href="#a"/><use x="432" y="221" xlink:href="#a"/><use x="464" y="197" xlink:href="#a"/><use x="-48" y="197" xlink:href="#a"/><use x="496" y="221" xlink:href="#a"/><use x="-16" y="221" xlink:href="#a"/><use x="16" y="244" xlink:href="#a"/><use x="528" y="244" xlink:href="#a"/><use x="48" y="267" xlink:href="#a"/><use x="560" y="267" xlink:href="#a"/><use x="80" y="244" xlink:href="#a"/><use x="112" y="267" xlink:href="#a"/><use x="144" y="244" xlink:href="#a"/><use x="176" y="267" xlink:href="#a"/><use x="208" y="244" xlink:href="#a"/><use x="240" y="267" xlink:href="#a"/><use x="272" y="244" xlink:href="#a"/><use x="304" y="267" xlink:href="#a"/><use x="336" y="244" xlink:href="#a"/><use x="368" y="267" xlink:href="#a"/><use x="400" y="244" xlink:href="#a"/><use x="432" y="267" xlink:href="#a"/><use x="464" y="244" xlink:href="#a"/><use x="-48" y="244" xlink:href="#a"/><use x="496" y="267" xlink:href="#a"/><use x="-16" y="267" xlink:href="#a"/><use x="16" y="290" xlink:href="#a"/><use x="528" y="290" xlink:href="#a"/><use x="48" y="314" xlink:href="#a"/><use x="560" y="314" xlink:href="#a"/><use x="80" y="290" xlink:href="#a"/><use x="112" y="314" xlink:href="#a"/><use x="144" y="290" xlink:href="#a"/><use x="176" y="314" xlink:href="#a"/><use x="208" y="290" xlink:href="#a"/><use x="240" y="314" xlink:href="#a"/><use x="272" y="290" xlink:href="#a"/><use x="304" y="314" xlink:href="#a"/><use x="336" y="290" xlink:href="#a"/><use x="368" y="314" xlink:href="#a"/><use x="400" y="290" xlink:href="#a"/><use x="432" y="314" xlink:href="#a"/><use x="464" y="290" xlink:href="#a"/><use x="-48" y="290" xlink:href="#a"/><use x="496" y="314" xlink:href="#a"/><use x="-16" y="314" xlink:href="#a"/><use x="16" y="337" xlink:href="#a"/><use x="528" y="337" xlink:href="#a"/><use x="48" y="360" xlink:href="#a"/><use x="560" y="360" xlink:href="#a"/><use x="80" y="337" xlink:href="#a"/><use x="112" y="360" xlink:href="#a"/><use x="144" y="337" xlink:href="#a"/><use x="176" y="360" xlink:href="#a"/><use x="208" y="337" xlink:href="#a"/><use x="240" y="360" xlink:href="#a"/><use x="272" y="337" xlink:href="#a"/><use x="304" y="360" xlink:href="#a"/><use x="336" y="337" xlink:href="#a"/><use x="368" y="360" xlink:href="#a"/><use x="400" y="337" xlink:href="#a"/><use x="432" y="360" xlink:href="#a"/><use x="464" y="337" xlink:href="#a"/><use x="-48" y="337" xlink:href="#a"/><use x="496" y="360" xlink:href="#a"/><use x="-16" y="360" xlink:href="#a"/><use x="16" y="384" xlink:href="#a"/><use x="528" y="384" xlink:href="#a"/><use x="48" y="407" xlink:href="#a"/><use x="560" y="407" xlink:href="#a"/><use x="80" y="384" xlink:href="#a"/><use x="112" y="407" xlink:href="#a"/><use x="144" y="384" xlink:href="#a"/><use x="176" y="407" xlink:href="#a"/><use x="208" y="384" xlink:href="#a"/><use x="240" y="407" xlink:href="#a"/><use x="272" y="384" xlink:href="#a"/><use x="304" y="407" xlink:href="#a"/><use x="336" y="384" xlink:href="#a"/><use x="368" y="407" xlink:href="#a"/><use x="400" y="384" xlink:href="#a"/><use x="432" y="407" xlink:href="#a"/><use x="464" y="384" xlink:href="#a"/><use x="-48" y="384" xlink:href="#a"/><use x="496" y="407" xlink:href="#a"/><use x="-16" y="407" xlink:href="#a"/><use x="16" y="430" xlink:href="#a"/><use x="528" y="430" xlink:href="#a"/><use x="48" y="453" xlink:href="#a"/><use x="560" y="453" xlink:href="#a"/><use x="560" y="-59" xlink:href="#a"/><use x="48" y="-59" xlink:href="#a"/><use x="560" y="-59" xlink:href="#a"/><use x="80" y="430" xlink:href="#a"/><use x="112" y="453" xlink:href="#a"/><use x="112" y="-59" xlink:href="#a"/><use x="144" y="430" xlink:href="#a"/><use x="176" y="453" xlink:href="#a"/><use x="176" y="-59" xlink:href="#a"/><use x="208" y="430" xlink:href="#a"/><use x="240" y="453" xlink:href="#a"/><use x="240" y="-59" xlink:href="#a"/><use x="272" y="430" xlink:href="#a"/><use x="304" y="453" xlink:href="#a"/><use x="304" y="-59" xlink:href="#a"/><use x="336" y="430" xlink:href="#a"/><use x="368" y="453" xlink:href="#a"/><use x="368" y="-59" xlink:href="#a"/><use x="400" y="430" xlink:href="#a"/><use x="432" y="453" xlink:href="#a"/><use x="432" y="-59" xlink:href="#a"/><use x="464" y="430" xlink:href="#a"/><use x="-48" y="430" xlink:href="#a"/><use x="496" y="453" xlink:href="#a"/><use x="-16" y="453" xlink:href="#a"/><use x="-16" y="-59" xlink:href="#a"/><use x="496" y="-59" xlink:href="#a"/><use x="-16" y="-59" xlink:href="#a"/><use x="16" y="477" xlink:href="#a"/><use x="528" y="477" xlink:href="#a"/><use x="528" y="-35" xlink:href="#a"/><use x="16" y="-35" xlink:href="#a"/><use x="528" y="-35" xlink:href="#a"/><use x="48" y="500" xlink:href="#a"/><use x="560" y="500" xlink:href="#a"/><use x="560" y="-12" xlink:href="#a"/><use x="48" y="-12" xlink:href="#a"/><use x="560" y="-12" xlink:href="#a"/><use x="80" y="477" xlink:href="#a"/><use x="80" y="-35" xlink:href="#a"/><use x="112" y="500" xlink:href="#a"/><use x="112" y="-12" xlink:href="#a"/><use x="144" y="477" xlink:href="#a"/><use x="144" y="-35" xlink:href="#a"/><use x="176" y="500" xlink:href="#a"/><use x="176" y="-12" xlink:href="#a"/><use x="208" y="477" xlink:href="#a"/><use x="208" y="-35" xlink:href="#a"/><use x="240" y="500" xlink:href="#a"/><use x="240" y="-12" xlink:href="#a"/><use x="272" y="477" xlink:href="#a"/><use x="272" y="-35" xlink:href="#a"/><use x="304" y="500" xlink:href="#a"/><use x="304" y="-12" xlink:href="#a"/><use x="336" y="477" xlink:href="#a"/><use x="336" y="-35" xlink:href="#a"/><use x="368" y="500" xlink:href="#a"/><use x="368" y="-12" xlink:href="#a"/><use x="400" y="477" xlink:href="#a"/><use x="400" y="-35" xlink:href="#a"/><use x="432" y="500" xlink:href="#a"/><use x="432" y="-12" xlink:href="#a"/><use x="464" y="477" xlink:href="#a"/><use x="-48" y="477" xlink:href="#a"/><use x="-48" y="-35" xlink:href="#a"/><use x="464" y="-35" xlink:href="#a"/><use x="-48" y="-35" xlink:href="#a"/><use x="496" y="500" xlink:href="#a"/><use x="-16" y="500" xlink:href="#a"/><use x="-16" y="-12" xlink:href="#a"/><use x="496" y="-12" xlink:href="#a"/><use x="-16" y="-12" xlink:href="#a"/></g><desc>Created with Snap</desc></svg>
