<svg id="c" width="512" height="512" version="1.1" xmlns="http://www.w3.org/2000/svg" xmlns:xlink="http://www.w3.org/1999/xlink"><defs><clipPath id="b"><rect width="512" height="512"/></clipPath><g id="a" transform="translate(-5 -12)" fill="#8ece8f"><path d="m4 9v4.125l-1.5938-2.4062-0.8125 0.5625 1.8125 2.7187h-2.4062v1h3 1 3v-1h-2.4062l1.8125-2.7187-0.8125-0.5625-1.5938 2.4062v-4.125h-1z"/></g></defs><g id="d" clip-path="url(#b)"><use x="390" y="403" xlink:href="#a"/><use x="171" y="109" xlink:href="#a"/><use x="31" y="295" xlink:href="#a"/><use x="543" y="295" xlink:href="#a"/><use x="460" y="319" xlink:href="#a"/><use x="-52" y="319" xlink:href="#a"/><use x="81" y="298" xlink:href="#a"/><use x="219" y="480" xlink:href="#a"/><use x="219" y="-32" xlink:href="#a"/><use x="268" y="439" xlink:href="#a"/><use x="272" y="366" xlink:href="#a"/><use x="125" y="153" xlink:href="#a"/><use x="346" y="316" xlink:href="#a"/><use x="64" y="79" xlink:href="#a"/><use x="404" y="67" xlink:href="#a"/><use x="225" y="505" xlink:href="#a"/><use x="225" y="-7" xlink:href="#a"/><use x="370" y="414" xlink:href="#a"/><use x="342" y="173" xlink:href="#a"/><use x="238" y="198" xlink:href="#a"/><use x="454" y="343" xlink:href="#a"/><use x="-58" y="343" xlink:href="#a"/><use x="39" y="507" xlink:href="#a"/><use x="551" y="507" xlink:href="#a"/><use x="551" y="-5" xlink:href="#a"/><use x="39" y="-5" xlink:href="#a"/><use x="551" y="-5" xlink:href="#a"/><use x="135" y="181" xlink:href="#a"/><use x="481" y="76" xlink:href="#a"/><use x="-31" y="76" xlink:href="#a"/><use x="362" y="254" xlink:href="#a"/><use x="13" y="124" xlink:href="#a"/><use x="525" y="124" xlink:href="#a"/><use x="365" y="277" xlink:href="#a"/><use x="474" y="290" xlink:href="#a"/><use x="-38" y="290" xlink:href="#a"/><use x="393" y="362" xlink:href="#a"/><use x="363" y="67" xlink:href="#a"/><use x="358" y="298" xlink:href="#a"/><use x="219" y="206" xlink:href="#a"/><use x="178" y="44" xlink:href="#a"/><use x="178" y="556" xlink:href="#a"/><use x="275" y="132" xlink:href="#a"/><use x="478" y="193" xlink:href="#a"/><use x="-34" y="193" xlink:href="#a"/><use x="413" y="273" xlink:href="#a"/><use x="300" y="32" xlink:href="#a"/><use x="300" y="544" xlink:href="#a"/><use x="54" y="240" xlink:href="#a"/><use x="566" y="240" xlink:href="#a"/><use x="157" y="496" xlink:href="#a"/><use x="157" y="-16" xlink:href="#a"/><use x="345" y="499" xlink:href="#a"/><use x="345" y="-13" xlink:href="#a"/><use x="112" y="406" xlink:href="#a"/><use x="356" y="436" xlink:href="#a"/><use x="8" y="10" xlink:href="#a"/><use x="520" y="10" xlink:href="#a"/><use x="520" y="522" xlink:href="#a"/><use x="8" y="522" xlink:href="#a"/><use x="520" y="522" xlink:href="#a"/><use x="54" y="429" xlink:href="#a"/><use x="566" y="429" xlink:href="#a"/><use x="172" y="391" xlink:href="#a"/><use x="457" y="463" xlink:href="#a"/><use x="-55" y="463" xlink:href="#a"/><use x="-55" y="-49" xlink:href="#a"/><use x="457" y="-49" xlink:href="#a"/><use x="-55" y="-49" xlink:href="#a"/><use x="138" y="365" xlink:href="#a"/><use x="246" y="333" xlink:href="#a"/><use x="317" y="136" xlink:href="#a"/><use x="151" y="243" xlink:href="#a"/><use x="472" y="247" xlink:href="#a"/><use x="-40" y="247" xlink:href="#a"/><use x="473" y="337" xlink:href="#a"/><use x="-39" y="337" xlink:href="#a"/><use x="451" y="206" xlink:href="#a"/><use x="-61" y="206" xlink:href="#a"/><use x="358" y="390" xlink:href="#a"/><use x="457" y="275" xlink:href="#a"/><use x="-55" y="275" xlink:href="#a"/><use x="346" y="408" xlink:href="#a"/><use x="278" y="40" xlink:href="#a"/><use x="278" y="552" xlink:href="#a"/><use x="150" y="427" xlink:href="#a"/><use x="297" y="219" xlink:href="#a"/><use x="11" y="428" xlink:href="#a"/><use x="523" y="428" xlink:href="#a"/><use x="309" y="246" xlink:href="#a"/><use x="65" y="449" xlink:href="#a"/><use x="65" y="-63" xlink:href="#a"/><use x="37" y="21" xlink:href="#a"/><use x="549" y="21" xlink:href="#a"/><use x="549" y="533" xlink:href="#a"/><use x="37" y="533" xlink:href="#a"/><use x="549" y="533" xlink:href="#a"/><use x="439" y="222" xlink:href="#a"/><use x="193" y="477" xlink:href="#a"/><use x="193" y="-35" xlink:href="#a"/><use x="337" y="289" xlink:href="#a"/><use x="288" y="381" xlink:href="#a"/><use x="415" y="414" xlink:href="#a"/><use x="85" y="463" xlink:href="#a"/><use x="85" y="-49" xlink:href="#a"/><use x="223" y="43" xlink:href="#a"/><use x="223" y="555" xlink:href="#a"/><use x="381" y="432" xlink:href="#a"/><use x="55" y="57" xlink:href="#a"/><use x="567" y="57" xlink:href="#a"/><use x="567" y="569" xlink:href="#a"/><use x="55" y="569" xlink:href="#a"/><use x="567" y="569" xlink:href="#a"/><use x="410" y="43" xlink:href="#a"/><use x="410" y="555" xlink:href="#a"/><use x="309" y="343" xlink:href="#a"/><use x="30" y="155" xlink:href="#a"/><use x="542" y="155" xlink:href="#a"/><use x="229" y="177" xlink:href="#a"/><use x="242" y="478" xlink:href="#a"/><use x="242" y="-34" xlink:href="#a"/><use x="102" y="243" xlink:href="#a"/><use x="336" y="426" xlink:href="#a"/><use x="17" y="174" xlink:href="#a"/><use x="529" y="174" xlink:href="#a"/><use x="439" y="78" xlink:href="#a"/><use x="111" y="216" xlink:href="#a"/><use x="79" y="156" xlink:href="#a"/><use x="253" y="313" xlink:href="#a"/><use x="380" y="339" xlink:href="#a"/><use x="334" y="476" xlink:href="#a"/><use x="334" y="-36" xlink:href="#a"/><use x="105" y="104" xlink:href="#a"/><use x="268" y="157" xlink:href="#a"/><use x="220" y="294" xlink:href="#a"/><use x="134" y="414" xlink:href="#a"/><use x="101" y="385" xlink:href="#a"/><use x="34" y="253" xlink:href="#a"/><use x="546" y="253" xlink:href="#a"/><use x="161" y="407" xlink:href="#a"/><use x="500" y="486" xlink:href="#a"/><use x="-12" y="486" xlink:href="#a"/><use x="-12" y="-26" xlink:href="#a"/><use x="500" y="-26" xlink:href="#a"/><use x="-12" y="-26" xlink:href="#a"/><use x="480" y="171" xlink:href="#a"/><use x="-32" y="171" xlink:href="#a"/><use x="404" y="434" xlink:href="#a"/><use x="473" y="56" xlink:href="#a"/><use x="-39" y="56" xlink:href="#a"/><use x="-39" y="568" xlink:href="#a"/><use x="473" y="568" xlink:href="#a"/><use x="-39" y="568" xlink:href="#a"/><use x="301" y="269" xlink:href="#a"/><use x="174" y="206" xlink:href="#a"/><use x="268" y="111" xlink:href="#a"/><use x="243" y="291" xlink:href="#a"/><use x="39" y="366" xlink:href="#a"/><use x="551" y="366" xlink:href="#a"/><use x="274" y="410" xlink:href="#a"/><use x="411" y="323" xlink:href="#a"/><use x="67" y="313" xlink:href="#a"/><use x="10" y="54" xlink:href="#a"/><use x="522" y="54" xlink:href="#a"/><use x="522" y="566" xlink:href="#a"/><use x="10" y="566" xlink:href="#a"/><use x="522" y="566" xlink:href="#a"/><use x="498" y="109" xlink:href="#a"/><use x="-14" y="109" xlink:href="#a"/><use x="334" y="107" xlink:href="#a"/><use x="88" y="276" xlink:href="#a"/><use x="111" y="266" xlink:href="#a"/><use x="288" y="246" xlink:href="#a"/><use x="43" y="88" xlink:href="#a"/><use x="555" y="88" xlink:href="#a"/><use x="478" y="474" xlink:href="#a"/><use x="-34" y="474" xlink:href="#a"/><use x="-34" y="-38" xlink:href="#a"/><use x="478" y="-38" xlink:href="#a"/><use x="-34" y="-38" xlink:href="#a"/><use x="384" y="381" xlink:href="#a"/><use x="388" y="217" xlink:href="#a"/><use x="245" y="429" xlink:href="#a"/><use x="81" y="251" xlink:href="#a"/><use x="336" y="149" xlink:href="#a"/><use x="126" y="63" xlink:href="#a"/><use x="126" y="575" xlink:href="#a"/><use x="67" y="360" xlink:href="#a"/><use x="459" y="367" xlink:href="#a"/><use x="-53" y="367" xlink:href="#a"/><use x="57" y="288" xlink:href="#a"/><use x="569" y="288" xlink:href="#a"/><use x="250" y="452" xlink:href="#a"/><use x="250" y="-60" xlink:href="#a"/><use x="381" y="194" xlink:href="#a"/><use x="463" y="227" xlink:href="#a"/><use x="-49" y="227" xlink:href="#a"/><use x="76" y="386" xlink:href="#a"/><use x="384" y="288" xlink:href="#a"/><use x="293" y="472" xlink:href="#a"/><use x="293" y="-40" xlink:href="#a"/><use x="318" y="45" xlink:href="#a"/><use x="318" y="557" xlink:href="#a"/><use x="56" y="103" xlink:href="#a"/><use x="568" y="103" xlink:href="#a"/><use x="151" y="197" xlink:href="#a"/><use x="21" y="502" xlink:href="#a"/><use x="533" y="502" xlink:href="#a"/><use x="533" y="-10" xlink:href="#a"/><use x="21" y="-10" xlink:href="#a"/><use x="533" y="-10" xlink:href="#a"/><use x="229" y="317" xlink:href="#a"/><use x="53" y="380" xlink:href="#a"/><use x="565" y="380" xlink:href="#a"/><use x="101" y="12" xlink:href="#a"/><use x="101" y="524" xlink:href="#a"/><use x="41" y="43" xlink:href="#a"/><use x="553" y="43" xlink:href="#a"/><use x="553" y="555" xlink:href="#a"/><use x="41" y="555" xlink:href="#a"/><use x="553" y="555" xlink:href="#a"/><use x="44" y="458" xlink:href="#a"/><use x="556" y="458" xlink:href="#a"/><use x="556" y="-54" xlink:href="#a"/><use x="44" y="-54" xlink:href="#a"/><use x="556" y="-54" xlink:href="#a"/><use x="114" y="31" xlink:href="#a"/><use x="114" y="543" xlink:href="#a"/><use x="10" y="378" xlink:href="#a"/><use x="522" y="378" xlink:href="#a"/><use x="18" y="30" xlink:href="#a"/><use x="530" y="30" xlink:href="#a"/><use x="530" y="542" xlink:href="#a"/><use x="18" y="542" xlink:href="#a"/><use x="530" y="542" xlink:href="#a"/><use x="296" y="125" xlink:href="#a"/><use x="426" y="12" xlink:href="#a"/><use x="426" y="524" xlink:href="#a"/><use x="229" y="272" xlink:href="#a"/><use x="42" y="130" xlink:href="#a"/><use x="554" y="130" xlink:href="#a"/><use x="314" y="15" xlink:href="#a"/><use x="314" y="527" xlink:href="#a"/><use x="174" y="68" xlink:href="#a"/><use x="335" y="338" xlink:href="#a"/><use x="285" y="57" xlink:href="#a"/><use x="285" y="569" xlink:href="#a"/><use x="91" y="88" xlink:href="#a"/><use x="80" y="438" xlink:href="#a"/><use x="363" y="41" xlink:href="#a"/><use x="363" y="553" xlink:href="#a"/><use x="42" y="416" xlink:href="#a"/><use x="554" y="416" xlink:href="#a"/><use x="478" y="100" xlink:href="#a"/><use x="-34" y="100" xlink:href="#a"/><use x="290" y="102" xlink:href="#a"/><use x="496" y="437" xlink:href="#a"/><use x="-16" y="437" xlink:href="#a"/><use x="218" y="435" xlink:href="#a"/><use x="416" y="177" xlink:href="#a"/><use x="176" y="184" xlink:href="#a"/><use x="359" y="204" xlink:href="#a"/><use x="482" y="218" xlink:href="#a"/><use x="-30" y="218" xlink:href="#a"/><use x="79" y="342" xlink:href="#a"/><use x="43" y="317" xlink:href="#a"/><use x="555" y="317" xlink:href="#a"/><use x="452" y="111" xlink:href="#a"/><use x="-60" y="111" xlink:href="#a"/><use x="287" y="428" xlink:href="#a"/><use x="229" y="86" xlink:href="#a"/><use x="481" y="454" xlink:href="#a"/><use x="-31" y="454" xlink:href="#a"/><use x="-31" y="-58" xlink:href="#a"/><use x="481" y="-58" xlink:href="#a"/><use x="-31" y="-58" xlink:href="#a"/><use x="478" y="427" xlink:href="#a"/><use x="-34" y="427" xlink:href="#a"/><use x="266" y="485" xlink:href="#a"/><use x="266" y="-27" xlink:href="#a"/><use x="63" y="263" xlink:href="#a"/><use x="575" y="263" xlink:href="#a"/><use x="484" y="269" xlink:href="#a"/><use x="-28" y="269" xlink:href="#a"/><use x="128" y="302" xlink:href="#a"/><use x="432" y="148" xlink:href="#a"/><use x="272" y="463" xlink:href="#a"/><use x="272" y="-49" xlink:href="#a"/><use x="205" y="312" xlink:href="#a"/><use x="201" y="378" xlink:href="#a"/><use x="416" y="86" xlink:href="#a"/><use x="337" y="242" xlink:href="#a"/><use x="497" y="250" xlink:href="#a"/><use x="-15" y="250" xlink:href="#a"/><use x="390" y="313" xlink:href="#a"/><use x="389" y="33" xlink:href="#a"/><use x="389" y="545" xlink:href="#a"/><use x="249" y="125" xlink:href="#a"/><use x="449" y="249" xlink:href="#a"/><use x="-63" y="249" xlink:href="#a"/><use x="322" y="365" xlink:href="#a"/><use x="88" y="43" xlink:href="#a"/><use x="88" y="555" xlink:href="#a"/><use x="473" y="12" xlink:href="#a"/><use x="-39" y="12" xlink:href="#a"/><use x="-39" y="524" xlink:href="#a"/><use x="473" y="524" xlink:href="#a"/><use x="-39" y="524" xlink:href="#a"/><use x="315" y="158" xlink:href="#a"/><use x="440" y="405" xlink:href="#a"/><use x="438" y="502" xlink:href="#a"/><use x="438" y="-10" xlink:href="#a"/><use x="274" y="319" xlink:href="#a"/><use x="67" y="34" xlink:href="#a"/><use x="67" y="546" xlink:href="#a"/><use x="295" y="309" xlink:href="#a"/><use x="337" y="9" xlink:href="#a"/><use x="337" y="521" xlink:href="#a"/><use x="506" y="86" xlink:href="#a"/><use x="-6" y="86" xlink:href="#a"/><use x="247" y="264" xlink:href="#a"/><use x="251" y="79" xlink:href="#a"/><use x="103" y="338" xlink:href="#a"/><use x="32" y="207" xlink:href="#a"/><use x="544" y="207" xlink:href="#a"/><use x="182" y="228" xlink:href="#a"/><use x="433" y="426" xlink:href="#a"/><use x="378" y="153" xlink:href="#a"/><use x="175" y="345" xlink:href="#a"/><use x="430" y="195" xlink:href="#a"/><use x="125" y="436" xlink:href="#a"/><use x="461" y="132" xlink:href="#a"/><use x="-51" y="132" xlink:href="#a"/><use x="196" y="8" xlink:href="#a"/><use x="196" y="520" xlink:href="#a"/><use x="427" y="240" xlink:href="#a"/><use x="500" y="343" xlink:href="#a"/><use x="-12" y="343" xlink:href="#a"/><use x="266" y="294" xlink:href="#a"/><use x="128" y="112" xlink:href="#a"/><use x="480" y="403" xlink:href="#a"/><use x="-32" y="403" xlink:href="#a"/><use x="132" y="323" xlink:href="#a"/><use x="287" y="13" xlink:href="#a"/><use x="287" y="525" xlink:href="#a"/><use x="149" y="150" xlink:href="#a"/><use x="320" y="414" xlink:href="#a"/><use x="157" y="29" xlink:href="#a"/><use x="157" y="541" xlink:href="#a"/><use x="218" y="156" xlink:href="#a"/><use x="343" y="263" xlink:href="#a"/><use x="245" y="239" xlink:href="#a"/><use x="403" y="155" xlink:href="#a"/><use x="100" y="427" xlink:href="#a"/><use x="383" y="476" xlink:href="#a"/><use x="383" y="-36" xlink:href="#a"/><use x="158" y="268" xlink:href="#a"/><use x="54" y="193" xlink:href="#a"/><use x="566" y="193" xlink:href="#a"/><use x="175" y="160" xlink:href="#a"/><use x="206" y="174" xlink:href="#a"/><use x="310" y="434" xlink:href="#a"/><use x="384" y="102" xlink:href="#a"/><use x="404" y="342" xlink:href="#a"/><use x="7" y="196" xlink:href="#a"/><use x="519" y="196" xlink:href="#a"/><use x="201" y="218" xlink:href="#a"/><use x="202" y="80" xlink:href="#a"/><use x="105" y="287" xlink:href="#a"/><use x="129" y="204" xlink:href="#a"/><use x="206" y="128" xlink:href="#a"/><use x="387" y="263" xlink:href="#a"/><use x="179" y="89" xlink:href="#a"/><use x="194" y="435" xlink:href="#a"/><use x="434" y="311" xlink:href="#a"/><use x="221" y="112" xlink:href="#a"/><use x="125" y="387" xlink:href="#a"/><use x="277" y="506" xlink:href="#a"/><use x="277" y="-6" xlink:href="#a"/><use x="482" y="125" xlink:href="#a"/><use x="-30" y="125" xlink:href="#a"/><use x="88" y="133" xlink:href="#a"/><use x="322" y="275" xlink:href="#a"/><use x="456" y="441" xlink:href="#a"/><use x="-56" y="441" xlink:href="#a"/><use x="7" y="477" xlink:href="#a"/><use x="519" y="477" xlink:href="#a"/><use x="519" y="-35" xlink:href="#a"/><use x="7" y="-35" xlink:href="#a"/><use x="519" y="-35" xlink:href="#a"/><use x="241" y="104" xlink:href="#a"/><use x="272" y="89" xlink:href="#a"/><use x="357" y="111" xlink:href="#a"/><use x="247" y="355" xlink:href="#a"/><use x="114" y="364" xlink:href="#a"/><use x="294" y="451" xlink:href="#a"/><use x="294" y="-61" xlink:href="#a"/><use x="252" y="173" xlink:href="#a"/><use x="333" y="197" xlink:href="#a"/><use x="205" y="498" xlink:href="#a"/><use x="205" y="-14" xlink:href="#a"/><use x="57" y="336" xlink:href="#a"/><use x="569" y="336" xlink:href="#a"/><use x="462" y="505" xlink:href="#a"/><use x="-50" y="505" xlink:href="#a"/><use x="-50" y="-7" xlink:href="#a"/><use x="462" y="-7" xlink:href="#a"/><use x="-50" y="-7" xlink:href="#a"/><use x="342" y="29" xlink:href="#a"/><use x="342" y="541" xlink:href="#a"/><use x="177" y="20" xlink:href="#a"/><use x="177" y="532" xlink:href="#a"/><use x="482" y="500" xlink:href="#a"/><use x="-30" y="500" xlink:href="#a"/><use x="-30" y="-12" xlink:href="#a"/><use x="482" y="-12" xlink:href="#a"/><use x="-30" y="-12" xlink:href="#a"/><use x="406" y="253" xlink:href="#a"/><use x="228" y="416" xlink:href="#a"/><use x="31" y="340" xlink:href="#a"/><use x="543" y="340" xlink:href="#a"/><use x="357" y="154" xlink:href="#a"/><use x="18" y="82" xlink:href="#a"/><use x="530" y="82" xlink:href="#a"/><use x="435" y="31" xlink:href="#a"/><use x="435" y="543" xlink:href="#a"/><use x="110" y="498" xlink:href="#a"/><use x="110" y="-14" xlink:href="#a"/><use x="507" y="459" xlink:href="#a"/><use x="-5" y="459" xlink:href="#a"/><use x="-5" y="-53" xlink:href="#a"/><use x="507" y="-53" xlink:href="#a"/><use x="-5" y="-53" xlink:href="#a"/><use x="322" y="89" xlink:href="#a"/><use x="300" y="363" xlink:href="#a"/><use x="404" y="18" xlink:href="#a"/><use x="404" y="530" xlink:href="#a"/><use x="81" y="68" xlink:href="#a"/><use x="183" y="131" xlink:href="#a"/><use x="253" y="35" xlink:href="#a"/><use x="253" y="547" xlink:href="#a"/><use x="291" y="333" xlink:href="#a"/><use x="451" y="17" xlink:href="#a"/><use x="-61" y="17" xlink:href="#a"/><use x="-61" y="529" xlink:href="#a"/><use x="451" y="529" xlink:href="#a"/><use x="-61" y="529" xlink:href="#a"/><use x="322" y="228" xlink:href="#a"/><use x="510" y="270" xlink:href="#a"/><use x="-2" y="270" xlink:href="#a"/><use x="407" y="114" xlink:href="#a"/><use x="220" y="68" xlink:href="#a"/><use x="476" y="149" xlink:href="#a"/><use x="-36" y="149" xlink:href="#a"/><use x="157" y="221" xlink:href="#a"/><use x="503" y="415" xlink:href="#a"/><use x="-9" y="415" xlink:href="#a"/><use x="223" y="394" xlink:href="#a"/><use x="384" y="240" xlink:href="#a"/><use x="10" y="102" xlink:href="#a"/><use x="522" y="102" xlink:href="#a"/><use x="39" y="178" xlink:href="#a"/><use x="551" y="178" xlink:href="#a"/><use x="170" y="435" xlink:href="#a"/><use x="314" y="483" xlink:href="#a"/><use x="314" y="-29" xlink:href="#a"/><use x="501" y="159" xlink:href="#a"/><use x="-11" y="159" xlink:href="#a"/><use x="79" y="17" xlink:href="#a"/><use x="79" y="529" xlink:href="#a"/><use x="145" y="290" xlink:href="#a"/><use x="158" y="357" xlink:href="#a"/><use x="411" y="507" xlink:href="#a"/><use x="411" y="-5" xlink:href="#a"/><use x="19" y="457" xlink:href="#a"/><use x="531" y="457" xlink:href="#a"/><use x="531" y="-55" xlink:href="#a"/><use x="19" y="-55" xlink:href="#a"/><use x="531" y="-55" xlink:href="#a"/><use x="55" y="479" xlink:href="#a"/><use x="567" y="479" xlink:href="#a"/><use x="567" y="-33" xlink:href="#a"/><use x="55" y="-33" xlink:href="#a"/><use x="567" y="-33" xlink:href="#a"/><use x="195" y="106" xlink:href="#a"/><use x="160" y="130" xlink:href="#a"/><use x="149" y="9" xlink:href="#a"/><use x="149" y="521" xlink:href="#a"/><use x="245" y="148" xlink:href="#a"/><use x="182" y="458" xlink:href="#a"/><use x="182" y="-54" xlink:href="#a"/><use x="18" y="357" xlink:href="#a"/><use x="530" y="357" xlink:href="#a"/><use x="261" y="15" xlink:href="#a"/><use x="261" y="527" xlink:href="#a"/><use x="198" y="192" xlink:href="#a"/><use x="275" y="272" xlink:href="#a"/><use x="406" y="391" xlink:href="#a"/><use x="384" y="7" xlink:href="#a"/><use x="384" y="519" xlink:href="#a"/><use x="14" y="402" xlink:href="#a"/><use x="526" y="402" xlink:href="#a"/><use x="452" y="388" xlink:href="#a"/><use x="-60" y="388" xlink:href="#a"/><use x="226" y="229" xlink:href="#a"/><use x="150" y="334" xlink:href="#a"/><use x="150" y="104" xlink:href="#a"/><use x="104" y="54" xlink:href="#a"/><use x="104" y="566" xlink:href="#a"/><use x="32" y="64" xlink:href="#a"/><use x="544" y="64" xlink:href="#a"/><use x="44" y="273" xlink:href="#a"/><use x="556" y="273" xlink:href="#a"/><use x="297" y="406" xlink:href="#a"/><use x="88" y="505" xlink:href="#a"/><use x="88" y="-7" xlink:href="#a"/><use x="135" y="42" xlink:href="#a"/><use x="135" y="554" xlink:href="#a"/><use x="368" y="178" xlink:href="#a"/><use x="264" y="390" xlink:href="#a"/><use x="64" y="172" xlink:href="#a"/><use x="275" y="227" xlink:href="#a"/><use x="173" y="251" xlink:href="#a"/><use x="220" y="250" xlink:href="#a"/><use x="300" y="78" xlink:href="#a"/><use x="133" y="459" xlink:href="#a"/><use x="133" y="-53" xlink:href="#a"/><use x="203" y="403" xlink:href="#a"/><use x="106" y="472" xlink:href="#a"/><use x="106" y="-40" xlink:href="#a"/><use x="415" y="461" xlink:href="#a"/><use x="415" y="-51" xlink:href="#a"/><use x="322" y="458" xlink:href="#a"/><use x="322" y="-54" xlink:href="#a"/><use x="291" y="286" xlink:href="#a"/><use x="427" y="103" xlink:href="#a"/><use x="294" y="170" xlink:href="#a"/><use x="311" y="391" xlink:href="#a"/><use x="13" y="241" xlink:href="#a"/><use x="525" y="241" xlink:href="#a"/><use x="102" y="151" xlink:href="#a"/><use x="380" y="56" xlink:href="#a"/><use x="380" y="568" xlink:href="#a"/><use x="370" y="457" xlink:href="#a"/><use x="370" y="-55" xlink:href="#a"/><use x="319" y="180" xlink:href="#a"/><use x="485" y="312" xlink:href="#a"/><use x="-27" y="312" xlink:href="#a"/><use x="43" y="225" xlink:href="#a"/><use x="555" y="225" xlink:href="#a"/><use x="497" y="15" xlink:href="#a"/><use x="-15" y="15" xlink:href="#a"/><use x="-15" y="527" xlink:href="#a"/><use x="497" y="527" xlink:href="#a"/><use x="-15" y="527" xlink:href="#a"/><use x="156" y="453" xlink:href="#a"/><use x="156" y="-59" xlink:href="#a"/><use x="364" y="91" xlink:href="#a"/><use x="171" y="480" xlink:href="#a"/><use x="171" y="-32" xlink:href="#a"/><use x="156" y="170" xlink:href="#a"/><use x="501" y="207" xlink:href="#a"/><use x="-11" y="207" xlink:href="#a"/><use x="460" y="416" xlink:href="#a"/><use x="-52" y="416" xlink:href="#a"/><use x="268" y="344" xlink:href="#a"/><use x="460" y="39" xlink:href="#a"/><use x="-52" y="39" xlink:href="#a"/><use x="-52" y="551" xlink:href="#a"/><use x="460" y="551" xlink:href="#a"/><use x="-52" y="551" xlink:href="#a"/><use x="363" y="19" xlink:href="#a"/><use x="363" y="531" xlink:href="#a"/><use x="134" y="271" xlink:href="#a"/><use x="368" y="319" xlink:href="#a"/><use x="425" y="290" xlink:href="#a"/><use x="394" y="176" xlink:href="#a"/><use x="169" y="294" xlink:href="#a"/><use x="193" y="246" xlink:href="#a"/><use x="195" y="290" xlink:href="#a"/><use x="31" y="394" xlink:href="#a"/><use x="543" y="394" xlink:href="#a"/><use x="365" y="506" xlink:href="#a"/><use x="365" y="-6" xlink:href="#a"/><use x="267" y="251" xlink:href="#a"/><use x="184" y="317" xlink:href="#a"/><use x="410" y="228" xlink:href="#a"/><use x="227" y="135" xlink:href="#a"/><use x="291" y="194" xlink:href="#a"/><use x="107" y="309" xlink:href="#a"/><use x="88" y="410" xlink:href="#a"/><use x="67" y="219" xlink:href="#a"/><use x="361" y="346" xlink:href="#a"/><use x="240" y="55" xlink:href="#a"/><use x="240" y="567" xlink:href="#a"/><use x="246" y="379" xlink:href="#a"/><use x="343" y="359" xlink:href="#a"/><use x="314" y="64" xlink:href="#a"/><use x="502" y="368" xlink:href="#a"/><use x="-10" y="368" xlink:href="#a"/><use x="101" y="196" xlink:href="#a"/><use x="451" y="483" xlink:href="#a"/><use x="-61" y="483" xlink:href="#a"/><use x="-61" y="-29" xlink:href="#a"/><use x="451" y="-29" xlink:href="#a"/><use x="-61" y="-29" xlink:href="#a"/><use x="112" y="78" xlink:href="#a"/><use x="389" y="80" xlink:href="#a"/><use x="31" y="479" xlink:href="#a"/><use x="543" y="479" xlink:href="#a"/><use x="543" y="-33" xlink:href="#a"/><use x="31" y="-33" xlink:href="#a"/><use x="543" y="-33" xlink:href="#a"/><use x="195" y="337" xlink:href="#a"/><use x="452" y="298" xlink:href="#a"/><use x="-60" y="298" xlink:href="#a"/><use x="263" y="202" xlink:href="#a"/><use x="90" y="225" xlink:href="#a"/><use x="131" y="229" xlink:href="#a"/><use x="9" y="333" xlink:href="#a"/><use x="521" y="333" xlink:href="#a"/><use x="148" y="385" xlink:href="#a"/><use x="502" y="135" xlink:href="#a"/><use x="-10" y="135" xlink:href="#a"/><use x="341" y="53" xlink:href="#a"/><use x="341" y="565" xlink:href="#a"/><use x="125" y="248" xlink:href="#a"/><use x="202" y="29" xlink:href="#a"/><use x="202" y="541" xlink:href="#a"/><use x="178" y="506" xlink:href="#a"/><use x="178" y="-6" xlink:href="#a"/><use x="195" y="150" xlink:href="#a"/><use x="146" y="476" xlink:href="#a"/><use x="146" y="-36" xlink:href="#a"/><use x="433" y="449" xlink:href="#a"/><use x="433" y="-63" xlink:href="#a"/><use x="6" y="293" xlink:href="#a"/><use x="518" y="293" xlink:href="#a"/><use x="221" y="19" xlink:href="#a"/><use x="221" y="531" xlink:href="#a"/><use x="206" y="269" xlink:href="#a"/><use x="264" y="64" xlink:href="#a"/><use x="126" y="344" xlink:href="#a"/><use x="486" y="35" xlink:href="#a"/><use x="-26" y="35" xlink:href="#a"/><use x="-26" y="547" xlink:href="#a"/><use x="486" y="547" xlink:href="#a"/><use x="-26" y="547" xlink:href="#a"/><use x="508" y="316" xlink:href="#a"/><use x="-4" y="316" xlink:href="#a"/><use x="76" y="200" xlink:href="#a"/><use x="76" y="110" xlink:href="#a"/><use x="183" y="415" xlink:href="#a"/><use x="426" y="55" xlink:href="#a"/><use x="426" y="567" xlink:href="#a"/><use x="207" y="456" xlink:href="#a"/><use x="207" y="-56" xlink:href="#a"/><use x="109" y="125" xlink:href="#a"/><use x="20" y="269" xlink:href="#a"/><use x="532" y="269" xlink:href="#a"/><use x="113" y="174" xlink:href="#a"/><use x="241" y="8" xlink:href="#a"/><use x="241" y="520" xlink:href="#a"/><use x="496" y="293" xlink:href="#a"/><use x="-16" y="293" xlink:href="#a"/><use x="436" y="125" xlink:href="#a"/><use x="438" y="172" xlink:href="#a"/><use x="133" y="88" xlink:href="#a"/><use x="87" y="322" xlink:href="#a"/><use x="478" y="381" xlink:href="#a"/><use x="-34" y="381" xlink:href="#a"/><use x="14" y="217" xlink:href="#a"/><use x="526" y="217" xlink:href="#a"/><use x="366" y="370" xlink:href="#a"/><use x="151" y="54" xlink:href="#a"/><use x="151" y="566" xlink:href="#a"/><use x="88" y="366" xlink:href="#a"/><use x="21" y="315" xlink:href="#a"/><use x="533" y="315" xlink:href="#a"/><use x="135" y="135" xlink:href="#a"/><use x="415" y="134" xlink:href="#a"/><use x="205" y="357" xlink:href="#a"/><use x="319" y="322" xlink:href="#a"/><use x="128" y="16" xlink:href="#a"/><use x="128" y="528" xlink:href="#a"/><use x="31" y="439" xlink:href="#a"/><use x="543" y="439" xlink:href="#a"/><use x="388" y="496" xlink:href="#a"/><use x="388" y="-16" xlink:href="#a"/><use x="32" y="112" xlink:href="#a"/><use x="544" y="112" xlink:href="#a"/><use x="56" y="9" xlink:href="#a"/><use x="568" y="9" xlink:href="#a"/><use x="568" y="521" xlink:href="#a"/><use x="56" y="521" xlink:href="#a"/><use x="568" y="521" xlink:href="#a"/><use x="296" y="497" xlink:href="#a"/><use x="296" y="-15" xlink:href="#a"/><use x="182" y="372" xlink:href="#a"/><use x="288" y="151" xlink:href="#a"/><use x="431" y="476" xlink:href="#a"/><use x="431" y="-36" xlink:href="#a"/><use x="481" y="355" xlink:href="#a"/><use x="-31" y="355" xlink:href="#a"/><use x="407" y="484" xlink:href="#a"/><use x="407" y="-28" xlink:href="#a"/><use x="159" y="313" xlink:href="#a"/><use x="502" y="394" xlink:href="#a"/><use x="-10" y="394" xlink:href="#a"/><use x="394" y="454" xlink:href="#a"/><use x="394" y="-58" xlink:href="#a"/><use x="345" y="129" xlink:href="#a"/><use x="225" y="368" xlink:href="#a"/><use x="108" y="449" xlink:href="#a"/><use x="108" y="-63" xlink:href="#a"/><use x="371" y="131" xlink:href="#a"/><use x="230" y="457" xlink:href="#a"/><use x="230" y="-55" xlink:href="#a"/><use x="342" y="451" xlink:href="#a"/><use x="342" y="-61" xlink:href="#a"/><use x="416" y="366" xlink:href="#a"/><use x="252" y="501" xlink:href="#a"/><use x="252" y="-11" xlink:href="#a"/><use x="357" y="478" xlink:href="#a"/><use x="357" y="-34" xlink:href="#a"/><use x="134" y="505" xlink:href="#a"/><use x="134" y="-7" xlink:href="#a"/><use x="459" y="88" xlink:href="#a"/><use x="-53" y="88" xlink:href="#a"/><use x="502" y="64" xlink:href="#a"/><use x="-10" y="64" xlink:href="#a"/><use x="67" y="500" xlink:href="#a"/><use x="67" y="-12" xlink:href="#a"/><use x="456" y="160" xlink:href="#a"/><use x="-56" y="160" xlink:href="#a"/><use x="450" y="62" xlink:href="#a"/><use x="-62" y="62" xlink:href="#a"/><use x="-62" y="574" xlink:href="#a"/><use x="450" y="574" xlink:href="#a"/><use x="-62" y="574" xlink:href="#a"/><use x="63" y="403" xlink:href="#a"/><use x="575" y="403" xlink:href="#a"/><use x="251" y="219" xlink:href="#a"/><use x="405" y="202" xlink:href="#a"/><use x="316" y="301" xlink:href="#a"/><use x="82" y="484" xlink:href="#a"/><use x="82" y="-28" xlink:href="#a"/><use x="156" y="79" xlink:href="#a"/><use x="333" y="384" xlink:href="#a"/><use x="52" y="151" xlink:href="#a"/><use x="564" y="151" xlink:href="#a"/><use x="437" y="356" xlink:href="#a"/><use x="341" y="79" xlink:href="#a"/><use x="503" y="231" xlink:href="#a"/><use x="-9" y="231" xlink:href="#a"/><use x="408" y="299" xlink:href="#a"/><use x="343" y="217" xlink:href="#a"/><use x="507" y="180" xlink:href="#a"/><use x="-5" y="180" xlink:href="#a"/><use x="126" y="483" xlink:href="#a"/><use x="126" y="-29" xlink:href="#a"/><use x="506" y="40" xlink:href="#a"/><use x="-6" y="40" xlink:href="#a"/><use x="-6" y="552" xlink:href="#a"/><use x="506" y="552" xlink:href="#a"/><use x="-6" y="552" xlink:href="#a"/><use x="506" y="506" xlink:href="#a"/><use x="-6" y="506" xlink:href="#a"/><use x="-6" y="-6" xlink:href="#a"/><use x="506" y="-6" xlink:href="#a"/><use x="-6" y="-6" xlink:href="#a"/><use x="310" y="108" xlink:href="#a"/><use x="248" y="405" xlink:href="#a"/><use x="10" y="147" xlink:href="#a"/><use x="522" y="147" xlink:href="#a"/><use x="437" y="268" xlink:href="#a"/><use x="427" y="385" xlink:href="#a"/><use x="391" y="129" xlink:href="#a"/><use x="458" y="185" xlink:href="#a"/><use x="-54" y="185" xlink:href="#a"/><use x="220" y="341" xlink:href="#a"/><use x="181" y="275" xlink:href="#a"/><use x="67" y="130" xlink:href="#a"/><use x="429" y="335" xlink:href="#a"/><use x="364" y="228" xlink:href="#a"/><use x="89" y="180" xlink:href="#a"/><use x="197" y="54" xlink:href="#a"/><use x="197" y="566" xlink:href="#a"/><use x="321" y="504" xlink:href="#a"/><use x="321" y="-8" xlink:href="#a"/><use x="272" y="184" xlink:href="#a"/><use x="313" y="206" xlink:href="#a"/></g><desc>Created with Snap</desc></svg>
