<svg id="c" width="512" height="512" version="1.1" xmlns="http://www.w3.org/2000/svg" xmlns:xlink="http://www.w3.org/1999/xlink"><defs><clipPath id="b"><rect width="512" height="512"/></clipPath><g id="a" transform="translate(-4 -11)"><path d="m4 6c-2.2091 0-4 1.7909-4 4 0 1.4941 0.81746 2.7819 2.0312 3.4688l0.375-0.6563c-0.9804-0.5596-1.6562-1.5625-1.6562-3.0625 0-1.7949 1.4551-3 3.25-3 1.25 0 2.75 1.4551 2.75 3.25 0 1.2075-0.44269 2.1897-1.3438 2.75l0.375 0.8125c1.3137-0.6557 2.2188-1.9945 2.2188-3.5625 0-2.2091-1.7909-4-4-4zm0 5.5c0 2.75 0.25 3.75 1.5 4.5h-3c0.5-0.25 0.5-3 0.5-4.5z"/></g></defs><g id="d" clip-path="url(#b)"><use x="15" y="23" xlink:href="#a"/><use x="527" y="23" xlink:href="#a"/><use x="527" y="535" xlink:href="#a"/><use x="15" y="535" xlink:href="#a"/><use x="527" y="535" xlink:href="#a"/><use x="37" y="17" xlink:href="#a"/><use x="549" y="17" xlink:href="#a"/><use x="549" y="529" xlink:href="#a"/><use x="37" y="529" xlink:href="#a"/><use x="549" y="529" xlink:href="#a"/><use x="67" y="6" xlink:href="#a"/><use x="67" y="518" xlink:href="#a"/><use x="80" y="23" xlink:href="#a"/><use x="80" y="535" xlink:href="#a"/><use x="106" y="15" xlink:href="#a"/><use x="106" y="527" xlink:href="#a"/><use x="131" y="21" xlink:href="#a"/><use x="131" y="533" xlink:href="#a"/><use x="157" y="17" xlink:href="#a"/><use x="157" y="529" xlink:href="#a"/><use x="177" y="8" xlink:href="#a"/><use x="177" y="520" xlink:href="#a"/><use x="200" y="3" xlink:href="#a"/><use x="200" y="515" xlink:href="#a"/><use x="225" y="17" xlink:href="#a"/><use x="225" y="529" xlink:href="#a"/><use x="243" y="7" xlink:href="#a"/><use x="243" y="519" xlink:href="#a"/><use x="260" y="22" xlink:href="#a"/><use x="260" y="534" xlink:href="#a"/><use x="291" y="2" xlink:href="#a"/><use x="291" y="514" xlink:href="#a"/><use x="306" y="15" xlink:href="#a"/><use x="306" y="527" xlink:href="#a"/><use x="337" y="9" xlink:href="#a"/><use x="337" y="521" xlink:href="#a"/><use x="363" y="14" xlink:href="#a"/><use x="363" y="526" xlink:href="#a"/><use x="385" y="7" xlink:href="#a"/><use x="385" y="519" xlink:href="#a"/><use x="409" y="10" xlink:href="#a"/><use x="409" y="522" xlink:href="#a"/><use x="426" y="22" xlink:href="#a"/><use x="426" y="534" xlink:href="#a"/><use x="456" y="3" xlink:href="#a"/><use x="-56" y="3" xlink:href="#a"/><use x="-56" y="515" xlink:href="#a"/><use x="456" y="515" xlink:href="#a"/><use x="-56" y="515" xlink:href="#a"/><use x="486" y="12" xlink:href="#a"/><use x="-26" y="12" xlink:href="#a"/><use x="-26" y="524" xlink:href="#a"/><use x="486" y="524" xlink:href="#a"/><use x="-26" y="524" xlink:href="#a"/><use x="508" y="511" xlink:href="#a"/><use x="-4" y="511" xlink:href="#a"/><use x="-4" y="-1" xlink:href="#a"/><use x="508" y="-1" xlink:href="#a"/><use x="-4" y="-1" xlink:href="#a"/><use x="511" y="25" xlink:href="#a"/><use x="-1" y="25" xlink:href="#a"/><use x="-1" y="537" xlink:href="#a"/><use x="511" y="537" xlink:href="#a"/><use x="-1" y="537" xlink:href="#a"/><use x="41" y="37" xlink:href="#a"/><use x="553" y="37" xlink:href="#a"/><use x="553" y="549" xlink:href="#a"/><use x="41" y="549" xlink:href="#a"/><use x="553" y="549" xlink:href="#a"/><use x="59" y="36" xlink:href="#a"/><use x="571" y="36" xlink:href="#a"/><use x="571" y="548" xlink:href="#a"/><use x="59" y="548" xlink:href="#a"/><use x="571" y="548" xlink:href="#a"/><use x="77" y="42" xlink:href="#a"/><use x="77" y="554" xlink:href="#a"/><use x="97" y="40" xlink:href="#a"/><use x="97" y="552" xlink:href="#a"/><use x="121" y="36" xlink:href="#a"/><use x="121" y="548" xlink:href="#a"/><use x="154" y="42" xlink:href="#a"/><use x="154" y="554" xlink:href="#a"/><use x="172" y="33" xlink:href="#a"/><use x="172" y="545" xlink:href="#a"/><use x="195" y="28" xlink:href="#a"/><use x="195" y="540" xlink:href="#a"/><use x="218" y="42" xlink:href="#a"/><use x="218" y="554" xlink:href="#a"/><use x="236" y="34" xlink:href="#a"/><use x="236" y="546" xlink:href="#a"/><use x="273" y="40" xlink:href="#a"/><use x="273" y="552" xlink:href="#a"/><use x="288" y="27" xlink:href="#a"/><use x="288" y="539" xlink:href="#a"/><use x="313" y="31" xlink:href="#a"/><use x="313" y="543" xlink:href="#a"/><use x="333" y="33" xlink:href="#a"/><use x="333" y="545" xlink:href="#a"/><use x="351" y="35" xlink:href="#a"/><use x="351" y="547" xlink:href="#a"/><use x="375" y="33" xlink:href="#a"/><use x="375" y="545" xlink:href="#a"/><use x="398" y="29" xlink:href="#a"/><use x="398" y="541" xlink:href="#a"/><use x="433" y="41" xlink:href="#a"/><use x="433" y="553" xlink:href="#a"/><use x="462" y="44" xlink:href="#a"/><use x="-50" y="44" xlink:href="#a"/><use x="-50" y="556" xlink:href="#a"/><use x="462" y="556" xlink:href="#a"/><use x="-50" y="556" xlink:href="#a"/><use x="461" y="25" xlink:href="#a"/><use x="-51" y="25" xlink:href="#a"/><use x="-51" y="537" xlink:href="#a"/><use x="461" y="537" xlink:href="#a"/><use x="-51" y="537" xlink:href="#a"/><use x="487" y="35" xlink:href="#a"/><use x="-25" y="35" xlink:href="#a"/><use x="-25" y="547" xlink:href="#a"/><use x="487" y="547" xlink:href="#a"/><use x="-25" y="547" xlink:href="#a"/><use x="4" y="48" xlink:href="#a"/><use x="516" y="48" xlink:href="#a"/><use x="516" y="560" xlink:href="#a"/><use x="4" y="560" xlink:href="#a"/><use x="516" y="560" xlink:href="#a"/><use x="26" y="55" xlink:href="#a"/><use x="538" y="55" xlink:href="#a"/><use x="538" y="567" xlink:href="#a"/><use x="26" y="567" xlink:href="#a"/><use x="538" y="567" xlink:href="#a"/><use x="57" y="59" xlink:href="#a"/><use x="569" y="59" xlink:href="#a"/><use x="569" y="571" xlink:href="#a"/><use x="57" y="571" xlink:href="#a"/><use x="569" y="571" xlink:href="#a"/><use x="74" y="69" xlink:href="#a"/><use x="105" y="55" xlink:href="#a"/><use x="105" y="567" xlink:href="#a"/><use x="135" y="52" xlink:href="#a"/><use x="135" y="564" xlink:href="#a"/><use x="139" y="70" xlink:href="#a"/><use x="180" y="63" xlink:href="#a"/><use x="180" y="575" xlink:href="#a"/><use x="198" y="53" xlink:href="#a"/><use x="198" y="565" xlink:href="#a"/><use x="213" y="65" xlink:href="#a"/><use x="251" y="49" xlink:href="#a"/><use x="251" y="561" xlink:href="#a"/><use x="265" y="67" xlink:href="#a"/><use x="292" y="55" xlink:href="#a"/><use x="292" y="567" xlink:href="#a"/><use x="315" y="56" xlink:href="#a"/><use x="315" y="568" xlink:href="#a"/><use x="339" y="65" xlink:href="#a"/><use x="356" y="61" xlink:href="#a"/><use x="356" y="573" xlink:href="#a"/><use x="381" y="55" xlink:href="#a"/><use x="381" y="567" xlink:href="#a"/><use x="404" y="53" xlink:href="#a"/><use x="404" y="565" xlink:href="#a"/><use x="423" y="63" xlink:href="#a"/><use x="423" y="575" xlink:href="#a"/><use x="448" y="61" xlink:href="#a"/><use x="448" y="573" xlink:href="#a"/><use x="473" y="65" xlink:href="#a"/><use x="-39" y="65" xlink:href="#a"/><use x="496" y="53" xlink:href="#a"/><use x="-16" y="53" xlink:href="#a"/><use x="-16" y="565" xlink:href="#a"/><use x="496" y="565" xlink:href="#a"/><use x="-16" y="565" xlink:href="#a"/><use x="7" y="74" xlink:href="#a"/><use x="519" y="74" xlink:href="#a"/><use x="21" y="87" xlink:href="#a"/><use x="533" y="87" xlink:href="#a"/><use x="44" y="76" xlink:href="#a"/><use x="556" y="76" xlink:href="#a"/><use x="82" y="87" xlink:href="#a"/><use x="104" y="82" xlink:href="#a"/><use x="121" y="77" xlink:href="#a"/><use x="162" y="70" xlink:href="#a"/><use x="173" y="88" xlink:href="#a"/><use x="200" y="87" xlink:href="#a"/><use x="225" y="82" xlink:href="#a"/><use x="243" y="71" xlink:href="#a"/><use x="269" y="88" xlink:href="#a"/><use x="291" y="78" xlink:href="#a"/><use x="312" y="86" xlink:href="#a"/><use x="328" y="77" xlink:href="#a"/><use x="374" y="77" xlink:href="#a"/><use x="391" y="89" xlink:href="#a"/><use x="411" y="82" xlink:href="#a"/><use x="438" y="80" xlink:href="#a"/><use x="455" y="89" xlink:href="#a"/><use x="-57" y="89" xlink:href="#a"/><use x="485" y="84" xlink:href="#a"/><use x="-27" y="84" xlink:href="#a"/><use x="501" y="75" xlink:href="#a"/><use x="-11" y="75" xlink:href="#a"/><use x="16" y="108" xlink:href="#a"/><use x="528" y="108" xlink:href="#a"/><use x="42" y="97" xlink:href="#a"/><use x="554" y="97" xlink:href="#a"/><use x="62" y="102" xlink:href="#a"/><use x="574" y="102" xlink:href="#a"/><use x="85" y="106" xlink:href="#a"/><use x="114" y="112" xlink:href="#a"/><use x="128" y="100" xlink:href="#a"/><use x="148" y="95" xlink:href="#a"/><use x="165" y="108" xlink:href="#a"/><use x="191" y="105" xlink:href="#a"/><use x="215" y="107" xlink:href="#a"/><use x="244" y="97" xlink:href="#a"/><use x="257" y="112" xlink:href="#a"/><use x="286" y="103" xlink:href="#a"/><use x="311" y="106" xlink:href="#a"/><use x="347" y="109" xlink:href="#a"/><use x="354" y="93" xlink:href="#a"/><use x="375" y="107" xlink:href="#a"/><use x="411" y="108" xlink:href="#a"/><use x="427" y="105" xlink:href="#a"/><use x="462" y="108" xlink:href="#a"/><use x="-50" y="108" xlink:href="#a"/><use x="482" y="103" xlink:href="#a"/><use x="-30" y="103" xlink:href="#a"/><use x="503" y="111" xlink:href="#a"/><use x="-9" y="111" xlink:href="#a"/><use x="10" y="130" xlink:href="#a"/><use x="522" y="130" xlink:href="#a"/><use x="34" y="119" xlink:href="#a"/><use x="546" y="119" xlink:href="#a"/><use x="53" y="130" xlink:href="#a"/><use x="565" y="130" xlink:href="#a"/><use x="73" y="133" xlink:href="#a"/><use x="99" y="125" xlink:href="#a"/><use x="131" y="136" xlink:href="#a"/><use x="147" y="129" xlink:href="#a"/><use x="169" y="130" xlink:href="#a"/><use x="195" y="126" xlink:href="#a"/><use x="228" y="121" xlink:href="#a"/><use x="244" y="134" xlink:href="#a"/><use x="267" y="131" xlink:href="#a"/><use x="292" y="124" xlink:href="#a"/><use x="313" y="138" xlink:href="#a"/><use x="328" y="118" xlink:href="#a"/><use x="363" y="125" xlink:href="#a"/><use x="392" y="119" xlink:href="#a"/><use x="406" y="133" xlink:href="#a"/><use x="436" y="125" xlink:href="#a"/><use x="456" y="127" xlink:href="#a"/><use x="-56" y="127" xlink:href="#a"/><use x="482" y="126" xlink:href="#a"/><use x="-30" y="126" xlink:href="#a"/><use x="501" y="137" xlink:href="#a"/><use x="-11" y="137" xlink:href="#a"/><use x="11" y="152" xlink:href="#a"/><use x="523" y="152" xlink:href="#a"/><use x="30" y="150" xlink:href="#a"/><use x="542" y="150" xlink:href="#a"/><use x="52" y="150" xlink:href="#a"/><use x="564" y="150" xlink:href="#a"/><use x="86" y="148" xlink:href="#a"/><use x="109" y="145" xlink:href="#a"/><use x="124" y="157" xlink:href="#a"/><use x="161" y="155" xlink:href="#a"/><use x="184" y="149" xlink:href="#a"/><use x="207" y="152" xlink:href="#a"/><use x="225" y="145" xlink:href="#a"/><use x="248" y="155" xlink:href="#a"/><use x="272" y="153" xlink:href="#a"/><use x="296" y="146" xlink:href="#a"/><use x="325" y="158" xlink:href="#a"/><use x="339" y="141" xlink:href="#a"/><use x="360" y="146" xlink:href="#a"/><use x="379" y="156" xlink:href="#a"/><use x="397" y="153" xlink:href="#a"/><use x="424" y="144" xlink:href="#a"/><use x="460" y="159" xlink:href="#a"/><use x="-52" y="159" xlink:href="#a"/><use x="474" y="147" xlink:href="#a"/><use x="-38" y="147" xlink:href="#a"/><use x="500" y="160" xlink:href="#a"/><use x="-12" y="160" xlink:href="#a"/><use x="9" y="177" xlink:href="#a"/><use x="521" y="177" xlink:href="#a"/><use x="31" y="182" xlink:href="#a"/><use x="543" y="182" xlink:href="#a"/><use x="52" y="168" xlink:href="#a"/><use x="564" y="168" xlink:href="#a"/><use x="76" y="167" xlink:href="#a"/><use x="99" y="174" xlink:href="#a"/><use x="126" y="177" xlink:href="#a"/><use x="146" y="168" xlink:href="#a"/><use x="186" y="169" xlink:href="#a"/><use x="203" y="183" xlink:href="#a"/><use x="221" y="177" xlink:href="#a"/><use x="242" y="175" xlink:href="#a"/><use x="266" y="176" xlink:href="#a"/><use x="291" y="167" xlink:href="#a"/><use x="307" y="181" xlink:href="#a"/><use x="332" y="175" xlink:href="#a"/><use x="355" y="172" xlink:href="#a"/><use x="388" y="183" xlink:href="#a"/><use x="410" y="172" xlink:href="#a"/><use x="428" y="173" xlink:href="#a"/><use x="442" y="163" xlink:href="#a"/><use x="481" y="171" xlink:href="#a"/><use x="-31" y="171" xlink:href="#a"/><use x="497" y="187" xlink:href="#a"/><use x="-15" y="187" xlink:href="#a"/><use x="23" y="205" xlink:href="#a"/><use x="535" y="205" xlink:href="#a"/><use x="46" y="193" xlink:href="#a"/><use x="558" y="193" xlink:href="#a"/><use x="70" y="191" xlink:href="#a"/><use x="87" y="204" xlink:href="#a"/><use x="109" y="196" xlink:href="#a"/><use x="131" y="200" xlink:href="#a"/><use x="158" y="187" xlink:href="#a"/><use x="168" y="204" xlink:href="#a"/><use x="186" y="196" xlink:href="#a"/><use x="220" y="201" xlink:href="#a"/><use x="245" y="199" xlink:href="#a"/><use x="271" y="192" xlink:href="#a"/><use x="284" y="208" xlink:href="#a"/><use x="309" y="205" xlink:href="#a"/><use x="331" y="199" xlink:href="#a"/><use x="356" y="202" xlink:href="#a"/><use x="370" y="186" xlink:href="#a"/><use x="402" y="197" xlink:href="#a"/><use x="432" y="195" xlink:href="#a"/><use x="458" y="185" xlink:href="#a"/><use x="-54" y="185" xlink:href="#a"/><use x="471" y="196" xlink:href="#a"/><use x="-41" y="196" xlink:href="#a"/><use x="509" y="201" xlink:href="#a"/><use x="-3" y="201" xlink:href="#a"/><use x="17" y="224" xlink:href="#a"/><use x="529" y="224" xlink:href="#a"/><use x="41" y="219" xlink:href="#a"/><use x="553" y="219" xlink:href="#a"/><use x="59" y="217" xlink:href="#a"/><use x="571" y="217" xlink:href="#a"/><use x="83" y="224" xlink:href="#a"/><use x="107" y="219" xlink:href="#a"/><use x="130" y="230" xlink:href="#a"/><use x="146" y="217" xlink:href="#a"/><use x="164" y="229" xlink:href="#a"/><use x="192" y="214" xlink:href="#a"/><use x="222" y="222" xlink:href="#a"/><use x="255" y="218" xlink:href="#a"/><use x="275" y="229" xlink:href="#a"/><use x="300" y="230" xlink:href="#a"/><use x="319" y="225" xlink:href="#a"/><use x="342" y="220" xlink:href="#a"/><use x="367" y="219" xlink:href="#a"/><use x="383" y="230" xlink:href="#a"/><use x="400" y="217" xlink:href="#a"/><use x="420" y="215" xlink:href="#a"/><use x="445" y="212" xlink:href="#a"/><use x="473" y="219" xlink:href="#a"/><use x="-39" y="219" xlink:href="#a"/><use x="492" y="216" xlink:href="#a"/><use x="-20" y="216" xlink:href="#a"/><use x="17" y="248" xlink:href="#a"/><use x="529" y="248" xlink:href="#a"/><use x="39" y="245" xlink:href="#a"/><use x="551" y="245" xlink:href="#a"/><use x="65" y="245" xlink:href="#a"/><use x="85" y="244" xlink:href="#a"/><use x="104" y="248" xlink:href="#a"/><use x="128" y="253" xlink:href="#a"/><use x="148" y="250" xlink:href="#a"/><use x="172" y="249" xlink:href="#a"/><use x="193" y="237" xlink:href="#a"/><use x="217" y="245" xlink:href="#a"/><use x="235" y="238" xlink:href="#a"/><use x="257" y="245" xlink:href="#a"/><use x="284" y="246" xlink:href="#a"/><use x="312" y="250" xlink:href="#a"/><use x="340" y="239" xlink:href="#a"/><use x="361" y="249" xlink:href="#a"/><use x="392" y="247" xlink:href="#a"/><use x="422" y="237" xlink:href="#a"/><use x="439" y="252" xlink:href="#a"/><use x="453" y="233" xlink:href="#a"/><use x="-59" y="233" xlink:href="#a"/><use x="475" y="244" xlink:href="#a"/><use x="-37" y="244" xlink:href="#a"/><use x="506" y="233" xlink:href="#a"/><use x="-6" y="233" xlink:href="#a"/><use x="7" y="274" xlink:href="#a"/><use x="519" y="274" xlink:href="#a"/><use x="26" y="269" xlink:href="#a"/><use x="538" y="269" xlink:href="#a"/><use x="51" y="262" xlink:href="#a"/><use x="563" y="262" xlink:href="#a"/><use x="78" y="267" xlink:href="#a"/><use x="98" y="273" xlink:href="#a"/><use x="120" y="276" xlink:href="#a"/><use x="147" y="268" xlink:href="#a"/><use x="181" y="271" xlink:href="#a"/><use x="204" y="257" xlink:href="#a"/><use x="225" y="269" xlink:href="#a"/><use x="249" y="268" xlink:href="#a"/><use x="268" y="270" xlink:href="#a"/><use x="292" y="266" xlink:href="#a"/><use x="314" y="271" xlink:href="#a"/><use x="337" y="263" xlink:href="#a"/><use x="368" y="266" xlink:href="#a"/><use x="400" y="275" xlink:href="#a"/><use x="412" y="256" xlink:href="#a"/><use x="431" y="273" xlink:href="#a"/><use x="454" y="270" xlink:href="#a"/><use x="-58" y="270" xlink:href="#a"/><use x="476" y="260" xlink:href="#a"/><use x="-36" y="260" xlink:href="#a"/><use x="500" y="254" xlink:href="#a"/><use x="-12" y="254" xlink:href="#a"/><use y="296" xlink:href="#a"/><use x="512" y="296" xlink:href="#a"/><use x="32" y="295" xlink:href="#a"/><use x="544" y="295" xlink:href="#a"/><use x="49" y="283" xlink:href="#a"/><use x="561" y="283" xlink:href="#a"/><use x="74" y="288" xlink:href="#a"/><use x="95" y="302" xlink:href="#a"/><use x="134" y="296" xlink:href="#a"/><use x="154" y="287" xlink:href="#a"/><use x="174" y="298" xlink:href="#a"/><use x="200" y="282" xlink:href="#a"/><use x="213" y="298" xlink:href="#a"/><use x="237" y="288" xlink:href="#a"/><use x="264" y="292" xlink:href="#a"/><use x="294" y="291" xlink:href="#a"/><use x="317" y="295" xlink:href="#a"/><use x="336" y="284" xlink:href="#a"/><use x="358" y="289" xlink:href="#a"/><use x="381" y="282" xlink:href="#a"/><use x="399" y="298" xlink:href="#a"/><use x="427" y="291" xlink:href="#a"/><use x="458" y="297" xlink:href="#a"/><use x="-54" y="297" xlink:href="#a"/><use x="475" y="283" xlink:href="#a"/><use x="-37" y="283" xlink:href="#a"/><use x="497" y="279" xlink:href="#a"/><use x="-15" y="279" xlink:href="#a"/><use x="15" y="312" xlink:href="#a"/><use x="527" y="312" xlink:href="#a"/><use x="32" y="324" xlink:href="#a"/><use x="544" y="324" xlink:href="#a"/><use x="76" y="321" xlink:href="#a"/><use x="64" y="304" xlink:href="#a"/><use x="111" y="310" xlink:href="#a"/><use x="129" y="320" xlink:href="#a"/><use x="147" y="315" xlink:href="#a"/><use x="180" y="317" xlink:href="#a"/><use x="198" y="307" xlink:href="#a"/><use x="226" y="319" xlink:href="#a"/><use x="243" y="308" xlink:href="#a"/><use x="272" y="310" xlink:href="#a"/><use x="298" y="313" xlink:href="#a"/><use x="318" y="324" xlink:href="#a"/><use x="336" y="312" xlink:href="#a"/><use x="358" y="313" xlink:href="#a"/><use x="379" y="310" xlink:href="#a"/><use x="399" y="322" xlink:href="#a"/><use x="422" y="318" xlink:href="#a"/><use x="442" y="313" xlink:href="#a"/><use x="480" y="309" xlink:href="#a"/><use x="-32" y="309" xlink:href="#a"/><use x="501" y="313" xlink:href="#a"/><use x="-11" y="313" xlink:href="#a"/><use x="13" y="337" xlink:href="#a"/><use x="525" y="337" xlink:href="#a"/><use x="43" y="347" xlink:href="#a"/><use x="555" y="347" xlink:href="#a"/><use x="54" y="326" xlink:href="#a"/><use x="566" y="326" xlink:href="#a"/><use x="84" y="336" xlink:href="#a"/><use x="103" y="337" xlink:href="#a"/><use x="121" y="342" xlink:href="#a"/><use x="151" y="342" xlink:href="#a"/><use x="167" y="333" xlink:href="#a"/><use x="195" y="336" xlink:href="#a"/><use x="219" y="343" xlink:href="#a"/><use x="245" y="332" xlink:href="#a"/><use x="265" y="333" xlink:href="#a"/><use x="289" y="330" xlink:href="#a"/><use x="324" y="347" xlink:href="#a"/><use x="342" y="333" xlink:href="#a"/><use x="362" y="340" xlink:href="#a"/><use x="381" y="336" xlink:href="#a"/><use x="407" y="341" xlink:href="#a"/><use x="440" y="336" xlink:href="#a"/><use x="461" y="332" xlink:href="#a"/><use x="-51" y="332" xlink:href="#a"/><use x="480" y="328" xlink:href="#a"/><use x="-32" y="328" xlink:href="#a"/><use x="504" y="340" xlink:href="#a"/><use x="-8" y="340" xlink:href="#a"/><use x="7" y="369" xlink:href="#a"/><use x="519" y="369" xlink:href="#a"/><use x="23" y="356" xlink:href="#a"/><use x="535" y="356" xlink:href="#a"/><use x="64" y="353" xlink:href="#a"/><use x="84" y="365" xlink:href="#a"/><use x="105" y="365" xlink:href="#a"/><use x="134" y="360" xlink:href="#a"/><use x="160" y="360" xlink:href="#a"/><use x="180" y="361" xlink:href="#a"/><use x="199" y="360" xlink:href="#a"/><use x="222" y="365" xlink:href="#a"/><use x="245" y="353" xlink:href="#a"/><use x="269" y="366" xlink:href="#a"/><use x="284" y="353" xlink:href="#a"/><use x="305" y="356" xlink:href="#a"/><use x="345" y="357" xlink:href="#a"/><use x="367" y="368" xlink:href="#a"/><use x="387" y="361" xlink:href="#a"/><use x="408" y="367" xlink:href="#a"/><use x="429" y="354" xlink:href="#a"/><use x="451" y="360" xlink:href="#a"/><use x="-61" y="360" xlink:href="#a"/><use x="476" y="352" xlink:href="#a"/><use x="-36" y="352" xlink:href="#a"/><use x="493" y="363" xlink:href="#a"/><use x="-19" y="363" xlink:href="#a"/><use x="11" y="390" xlink:href="#a"/><use x="523" y="390" xlink:href="#a"/><use x="44" y="372" xlink:href="#a"/><use x="556" y="372" xlink:href="#a"/><use x="57" y="386" xlink:href="#a"/><use x="569" y="386" xlink:href="#a"/><use x="77" y="388" xlink:href="#a"/><use x="110" y="391" xlink:href="#a"/><use x="127" y="383" xlink:href="#a"/><use x="150" y="381" xlink:href="#a"/><use x="173" y="387" xlink:href="#a"/><use x="208" y="382" xlink:href="#a"/><use x="230" y="389" xlink:href="#a"/><use x="246" y="377" xlink:href="#a"/><use x="272" y="390" xlink:href="#a"/><use x="293" y="383" xlink:href="#a"/><use x="311" y="378" xlink:href="#a"/><use x="333" y="378" xlink:href="#a"/><use x="358" y="384" xlink:href="#a"/><use x="395" y="392" xlink:href="#a"/><use x="414" y="391" xlink:href="#a"/><use x="430" y="378" xlink:href="#a"/><use x="461" y="374" xlink:href="#a"/><use x="-51" y="374" xlink:href="#a"/><use x="481" y="392" xlink:href="#a"/><use x="-31" y="392" xlink:href="#a"/><use x="500" y="383" xlink:href="#a"/><use x="-12" y="383" xlink:href="#a"/><use x="22" y="410" xlink:href="#a"/><use x="534" y="410" xlink:href="#a"/><use x="33" y="390" xlink:href="#a"/><use x="545" y="390" xlink:href="#a"/><use x="56" y="410" xlink:href="#a"/><use x="568" y="410" xlink:href="#a"/><use x="91" y="415" xlink:href="#a"/><use x="91" y="398" xlink:href="#a"/><use x="130" y="405" xlink:href="#a"/><use x="155" y="405" xlink:href="#a"/><use x="188" y="398" xlink:href="#a"/><use x="193" y="415" xlink:href="#a"/><use x="219" y="410" xlink:href="#a"/><use x="250" y="398" xlink:href="#a"/><use x="269" y="414" xlink:href="#a"/><use x="300" y="406" xlink:href="#a"/><use x="318" y="411" xlink:href="#a"/><use x="335" y="410" xlink:href="#a"/><use x="354" y="404" xlink:href="#a"/><use x="377" y="397" xlink:href="#a"/><use x="414" y="414" xlink:href="#a"/><use x="439" y="400" xlink:href="#a"/><use x="455" y="414" xlink:href="#a"/><use x="-57" y="414" xlink:href="#a"/><use x="465" y="396" xlink:href="#a"/><use x="-47" y="396" xlink:href="#a"/><use x="504" y="409" xlink:href="#a"/><use x="-8" y="409" xlink:href="#a"/><use x="9" y="427" xlink:href="#a"/><use x="521" y="427" xlink:href="#a"/><use x="34" y="427" xlink:href="#a"/><use x="546" y="427" xlink:href="#a"/><use x="60" y="431" xlink:href="#a"/><use x="572" y="431" xlink:href="#a"/><use x="81" y="432" xlink:href="#a"/><use x="108" y="429" xlink:href="#a"/><use x="129" y="424" xlink:href="#a"/><use x="159" y="422" xlink:href="#a"/><use x="166" y="442" xlink:href="#a"/><use x="187" y="432" xlink:href="#a"/><use x="224" y="432" xlink:href="#a"/><use x="245" y="425" xlink:href="#a"/><use x="265" y="438" xlink:href="#a"/><use x="289" y="424" xlink:href="#a"/><use x="307" y="442" xlink:href="#a"/><use x="329" y="436" xlink:href="#a"/><use x="360" y="430" xlink:href="#a"/><use x="380" y="422" xlink:href="#a"/><use x="403" y="431" xlink:href="#a"/><use x="430" y="430" xlink:href="#a"/><use x="453" y="439" xlink:href="#a"/><use x="-59" y="439" xlink:href="#a"/><use x="472" y="427" xlink:href="#a"/><use x="-40" y="427" xlink:href="#a"/><use x="493" y="427" xlink:href="#a"/><use x="-19" y="427" xlink:href="#a"/><use x="18" y="452" xlink:href="#a"/><use x="530" y="452" xlink:href="#a"/><use x="530" y="-60" xlink:href="#a"/><use x="18" y="-60" xlink:href="#a"/><use x="530" y="-60" xlink:href="#a"/><use x="39" y="453" xlink:href="#a"/><use x="551" y="453" xlink:href="#a"/><use x="551" y="-59" xlink:href="#a"/><use x="39" y="-59" xlink:href="#a"/><use x="551" y="-59" xlink:href="#a"/><use x="59" y="451" xlink:href="#a"/><use x="571" y="451" xlink:href="#a"/><use x="571" y="-61" xlink:href="#a"/><use x="59" y="-61" xlink:href="#a"/><use x="571" y="-61" xlink:href="#a"/><use x="81" y="455" xlink:href="#a"/><use x="81" y="-57" xlink:href="#a"/><use x="103" y="454" xlink:href="#a"/><use x="103" y="-58" xlink:href="#a"/><use x="126" y="452" xlink:href="#a"/><use x="126" y="-60" xlink:href="#a"/><use x="144" y="445" xlink:href="#a"/><use x="167" y="461" xlink:href="#a"/><use x="167" y="-51" xlink:href="#a"/><use x="200" y="446" xlink:href="#a"/><use x="219" y="454" xlink:href="#a"/><use x="219" y="-58" xlink:href="#a"/><use x="238" y="453" xlink:href="#a"/><use x="238" y="-59" xlink:href="#a"/><use x="262" y="458" xlink:href="#a"/><use x="262" y="-54" xlink:href="#a"/><use x="285" y="450" xlink:href="#a"/><use x="285" y="-62" xlink:href="#a"/><use x="322" y="459" xlink:href="#a"/><use x="322" y="-53" xlink:href="#a"/><use x="345" y="452" xlink:href="#a"/><use x="345" y="-60" xlink:href="#a"/><use x="367" y="453" xlink:href="#a"/><use x="367" y="-59" xlink:href="#a"/><use x="386" y="449" xlink:href="#a"/><use x="386" y="-63" xlink:href="#a"/><use x="406" y="455" xlink:href="#a"/><use x="406" y="-57" xlink:href="#a"/><use x="434" y="452" xlink:href="#a"/><use x="434" y="-60" xlink:href="#a"/><use x="466" y="459" xlink:href="#a"/><use x="-46" y="459" xlink:href="#a"/><use x="-46" y="-53" xlink:href="#a"/><use x="466" y="-53" xlink:href="#a"/><use x="-46" y="-53" xlink:href="#a"/><use x="488" y="455" xlink:href="#a"/><use x="-24" y="455" xlink:href="#a"/><use x="-24" y="-57" xlink:href="#a"/><use x="488" y="-57" xlink:href="#a"/><use x="-24" y="-57" xlink:href="#a"/><use x="508" y="447" xlink:href="#a"/><use x="-4" y="447" xlink:href="#a"/><use x="16" y="476" xlink:href="#a"/><use x="528" y="476" xlink:href="#a"/><use x="528" y="-36" xlink:href="#a"/><use x="16" y="-36" xlink:href="#a"/><use x="528" y="-36" xlink:href="#a"/><use x="40" y="476" xlink:href="#a"/><use x="552" y="476" xlink:href="#a"/><use x="552" y="-36" xlink:href="#a"/><use x="40" y="-36" xlink:href="#a"/><use x="552" y="-36" xlink:href="#a"/><use x="57" y="486" xlink:href="#a"/><use x="569" y="486" xlink:href="#a"/><use x="569" y="-26" xlink:href="#a"/><use x="57" y="-26" xlink:href="#a"/><use x="569" y="-26" xlink:href="#a"/><use x="78" y="474" xlink:href="#a"/><use x="78" y="-38" xlink:href="#a"/><use x="110" y="485" xlink:href="#a"/><use x="110" y="-27" xlink:href="#a"/><use x="124" y="474" xlink:href="#a"/><use x="124" y="-38" xlink:href="#a"/><use x="146" y="480" xlink:href="#a"/><use x="146" y="-32" xlink:href="#a"/><use x="179" y="478" xlink:href="#a"/><use x="179" y="-34" xlink:href="#a"/><use x="200" y="471" xlink:href="#a"/><use x="200" y="-41" xlink:href="#a"/><use x="220" y="484" xlink:href="#a"/><use x="220" y="-28" xlink:href="#a"/><use x="252" y="476" xlink:href="#a"/><use x="252" y="-36" xlink:href="#a"/><use x="279" y="478" xlink:href="#a"/><use x="279" y="-34" xlink:href="#a"/><use x="298" y="472" xlink:href="#a"/><use x="298" y="-40" xlink:href="#a"/><use x="317" y="482" xlink:href="#a"/><use x="317" y="-30" xlink:href="#a"/><use x="340" y="473" xlink:href="#a"/><use x="340" y="-39" xlink:href="#a"/><use x="361" y="483" xlink:href="#a"/><use x="361" y="-29" xlink:href="#a"/><use x="381" y="475" xlink:href="#a"/><use x="381" y="-37" xlink:href="#a"/><use x="404" y="477" xlink:href="#a"/><use x="404" y="-35" xlink:href="#a"/><use x="427" y="472" xlink:href="#a"/><use x="427" y="-40" xlink:href="#a"/><use x="450" y="474" xlink:href="#a"/><use x="-62" y="474" xlink:href="#a"/><use x="-62" y="-38" xlink:href="#a"/><use x="450" y="-38" xlink:href="#a"/><use x="-62" y="-38" xlink:href="#a"/><use x="468" y="486" xlink:href="#a"/><use x="-44" y="486" xlink:href="#a"/><use x="-44" y="-26" xlink:href="#a"/><use x="468" y="-26" xlink:href="#a"/><use x="-44" y="-26" xlink:href="#a"/><use x="506" y="474" xlink:href="#a"/><use x="-6" y="474" xlink:href="#a"/><use x="-6" y="-38" xlink:href="#a"/><use x="506" y="-38" xlink:href="#a"/><use x="-6" y="-38" xlink:href="#a"/><use x="17" y="499" xlink:href="#a"/><use x="529" y="499" xlink:href="#a"/><use x="529" y="-13" xlink:href="#a"/><use x="17" y="-13" xlink:href="#a"/><use x="529" y="-13" xlink:href="#a"/><use x="33" y="509" xlink:href="#a"/><use x="545" y="509" xlink:href="#a"/><use x="545" y="-3" xlink:href="#a"/><use x="33" y="-3" xlink:href="#a"/><use x="545" y="-3" xlink:href="#a"/><use x="53" y="505" xlink:href="#a"/><use x="565" y="505" xlink:href="#a"/><use x="565" y="-7" xlink:href="#a"/><use x="53" y="-7" xlink:href="#a"/><use x="565" y="-7" xlink:href="#a"/><use x="81" y="496" xlink:href="#a"/><use x="81" y="-16" xlink:href="#a"/><use x="99" y="501" xlink:href="#a"/><use x="99" y="-11" xlink:href="#a"/><use x="121" y="505" xlink:href="#a"/><use x="121" y="-7" xlink:href="#a"/><use x="144" y="502" xlink:href="#a"/><use x="144" y="-10" xlink:href="#a"/><use x="167" y="501" xlink:href="#a"/><use x="167" y="-11" xlink:href="#a"/><use x="191" y="496" xlink:href="#a"/><use x="191" y="-16" xlink:href="#a"/><use x="219" y="506" xlink:href="#a"/><use x="219" y="-6" xlink:href="#a"/><use x="241" y="495" xlink:href="#a"/><use x="241" y="-17" xlink:href="#a"/><use x="261" y="503" xlink:href="#a"/><use x="261" y="-9" xlink:href="#a"/><use x="282" y="500" xlink:href="#a"/><use x="282" y="-12" xlink:href="#a"/><use x="317" y="505" xlink:href="#a"/><use x="317" y="-7" xlink:href="#a"/><use x="344" y="498" xlink:href="#a"/><use x="344" y="-14" xlink:href="#a"/><use x="366" y="505" xlink:href="#a"/><use x="366" y="-7" xlink:href="#a"/><use x="394" y="501" xlink:href="#a"/><use x="394" y="-11" xlink:href="#a"/><use x="418" y="493" xlink:href="#a"/><use x="418" y="-19" xlink:href="#a"/><use x="430" xlink:href="#a"/><use x="430" y="512" xlink:href="#a"/><use x="445" y="498" xlink:href="#a"/><use x="445" y="-14" xlink:href="#a"/><use x="481" y="505" xlink:href="#a"/><use x="-31" y="505" xlink:href="#a"/><use x="-31" y="-7" xlink:href="#a"/><use x="481" y="-7" xlink:href="#a"/><use x="-31" y="-7" xlink:href="#a"/><use x="494" y="487" xlink:href="#a"/><use x="-18" y="487" xlink:href="#a"/><use x="-18" y="-25" xlink:href="#a"/><use x="494" y="-25" xlink:href="#a"/><use x="-18" y="-25" xlink:href="#a"/></g><desc>Created with Snap</desc></svg>
