<svg width="14" height="14" version="1.1" viewBox="0 0 14 14" xmlns="http://www.w3.org/2000/svg"><rect id="a" width="14" height="14" fill="none" visibility="hidden"/><path id="b" d="m3 0c-0.36611-0.0087457-0.86195 0.068848-0.95938 0.49005-0.074695 0.4421-0.027106 0.8946-0.040619 1.3415-0.0074868 0.43405 0.015623 0.87003-0.012772 1.3028-0.12057 0.486-0.63102 0.70049-0.98723 0.99066-0.56031 0.38265-0.9744 1.0021-0.99426 1.6933-0.013244 1.7499-0.0020185 3.5002-0.0057373 5.2503 0.0034158 0.67862-0.0069401 1.3577 0.0053754 2.036 0.042729 0.54264 0.58018 0.95442 1.1134 0.89545 1.3304-0.0031 2.6611 0.0061 3.9912-0.0046 0.48957-0.01479 0.89601-0.45277 0.8888-0.93978 5.746e-4 -2.3976 0.0046943-4.7954-0.0020774-7.193-0.0092339-0.68443-0.39628-1.3151-0.9499-1.7021-0.35904-0.2998-0.8691-0.50632-1.0244-0.98402-0.046747-0.38546-0.011495-0.77797-0.022461-1.1665-0.011033-0.49747 0.026916-0.99831-0.030518-1.4929-0.05699-0.39072-0.4958-0.51684-0.83535-0.51432-0.044683-0.0019659-0.089411-0.0028265-0.13414-0.0028282zm4 5c0.015801 1.1907 0.027741 2.4315 0.51189 3.5419 0.29016 0.68061 0.90318 1.2159 1.6331 1.3663 0.25872 0.11149 0.6886 0.013513 0.85499 0.15119-0.00191 0.66736 0.0038 1.3349-0.00288 2.0021-0.077073 0.53037-0.64979 0.77853-1.1129 0.89063-0.52329 0.1285-1.1153-0.068991-1.5971 0.2258-0.23759 0.1683-0.34483 0.61499-0.24751 0.82202h6.9604c0.012553-0.35566-0.081449-0.80706-0.47461-0.91626-0.56087-0.17034-1.176 0.025477-1.7197-0.23308-0.39782-0.14883-0.85505-0.46977-0.80566-0.94965v-1.901c0.80013 0.018063 1.6557-0.25682 2.1448-0.92319 0.63605-0.85825 0.75652-1.9667 0.82767-3.0006-0.020587-0.33621 0.11093-0.83964-0.031843-1.0762h-6.9406z"/></svg>
