<svg width="14" height="14" version="1.0" viewBox="0 0 14 14" xmlns="http://www.w3.org/2000/svg"><rect id="a" width="14" height="14" fill="none" visibility="hidden"/><path d="m7-1e-7c-2.0907-0.015974-4.1539 0.97745-5.4545 2.6127-1.3219 1.6179-1.8402 3.8458-1.3852 5.8832 0.46199 2.1893 2.0507 4.095 4.1152 4.954 0.91333 0.38066 1.912 0.58815 2.9025 0.53676 0.67645-0.08183 1.1511-0.83226 0.94253-1.4794-0.093142-0.38182-0.48994-0.60585-0.52844-1.0117-0.14747-0.66666 0.40241-1.3702 1.0861-1.3827 0.65881-0.01628 1.3206 0.03157 1.9768-0.03926 1.5087-0.1938 2.8285-1.3615 3.2103-2.8329 0.3089-1.1966 0.061139-2.4883-0.48366-3.5793-1.1862-2.3395-3.8113-3.6803-6.3816-3.6613zm1.9336 1.3047c1.2846-0.074916 1.8772 1.754 0.86634 2.4757-0.96659 0.85933-2.6829-0.25669-2.1869-1.516 0.17361-0.56119 0.73321-0.96783 1.3206-0.95961zm-3.8945 0.019531c1.2722-0.069137 1.9457 1.7976 0.81712 2.5146-1.0045 0.81973-2.6076-0.34474-2.1382-1.5535 0.17312-0.56191 0.73315-0.96934 1.3211-0.9611zm-2.332 3.123c1.271-0.066889 1.9423 1.796 0.81611 2.5139-1.0039 0.82093-2.6066-0.34472-2.1372-1.5528 0.17312-0.56191 0.73315-0.96934 1.3211-0.9611zm8.5586 0c1.2708-0.067215 1.9426 1.7968 0.81611 2.5139-1.0039 0.82093-2.6066-0.34472-2.1372-1.5528 0.17312-0.56191 0.73315-0.96934 1.3211-0.9611z"/></svg>
