<svg width="14" height="14" version="1.1" viewBox="0 0 14 14" xmlns="http://www.w3.org/2000/svg"><rect id="a" width="14" height="14" fill="none" visibility="hidden"/><path id="b" d="m6 1c-0.91677 0.024422-1.7271 0.76411-1.9551 1.633-0.082004 0.42687-0.030409 0.86521-0.044922 1.2976 0.017737 0.13988-0.2054 0.038887-0.29698 0.069447h-0.45302v9h7.5v-9h-0.75c-0.012849-0.44209 0.031364-0.88851-0.034915-1.3268-0.21826-0.95064-1.1481-1.7398-2.1433-1.6732h-1.8218zm0.5 1.25c0.45623 0.013676 0.91764-0.034886 1.369 0.041811 0.57399 0.11285 0.92214 0.70908 0.88102 1.2676v0.4406h-3.5c0.0023835-0.48111-0.053221-1.0262 0.30878-1.4039 0.23788-0.25841 0.60089-0.34823 0.94122-0.34614zm-4.5 1.75c-0.64321-0.012707-1.3851 0.17126-1.7249 0.77105-0.37232 0.64451-0.2545 1.4086-0.27513 2.1199 0.003136 1.4317-0.0063598 2.8636 0.0049075 4.2951 0.01423 0.6437 0.31854 1.3305 0.93421 1.6036 0.32928 0.15749 0.69878 0.21 1.0609 0.21029v-9zm10 0v9c0.69532 0.01991 1.4485-0.28752 1.7669-0.93912 0.32448-0.61518 0.21214-1.3241 0.23305-1.9914-0.0026-1.4167 0.0053-2.8336-0.0041-4.2502-0.010439-0.62937-0.27294-1.3225-0.8791-1.5999-0.34515-0.16972-0.73623-0.21855-1.1168-0.2194z"/></svg>
