<svg version="1.1" viewBox="0 0 14 14" xmlns="http://www.w3.org/2000/svg"><rect id="a" width="14" height="14" fill="none" visibility="hidden"/><path d="m4.3199 1.7494c-1.1159 0.013749-2.2048 0.50765-3.0003 1.2803-1.4384 1.4277-1.7024 3.7982-0.78251 5.5741 0.7938 1.6677 2.3862 2.8783 4.154 3.3574 1.6013 0.45671 3.3355 0.35973 4.8971-0.20401 2.113-0.73222 3.9001-2.5542 4.3203-4.7859 0.17405-0.95921 0.099633-1.971-0.24661-2.8829-0.6161-1.5253-2.3077-2.4748-3.9285-2.3186-0.94963 0.09936-1.853 0.48872-2.6469 1.008-0.75192-0.67131-1.7595-1.0438-2.7667-1.0283zm0.041511 1.9882c0.4286 0.0020238 0.85863 0.12525 1.2156 0.36426-1.0181 1.1583-1.7647 2.5277-2.3948 3.9276-0.25145 0.58144 0.19885 1.308 0.83092 1.3432 0.4899 0.058564 0.9348-0.30272 1.0738-0.75858 0.53561-1.1391 1.1552-2.2569 1.9938-3.2034 0.79419 0.87825 1.4551 1.8924 1.8761 3.0019 0.14724 0.60866 0.92269 0.9291 1.4539 0.59473 0.45032-0.24706 0.61503-0.85163 0.39184-1.3062-0.49464-1.297-1.2486-2.4925-2.1674-3.5306 0.60187-0.3173 1.3168-0.57472 1.9935-0.34426 0.67039 0.19846 1.2584 0.7739 1.3289 1.4904 0.25168 1.2576-0.34005 2.5416-1.2251 3.416-0.64657 0.65606-1.4795 1.1126-2.3718 1.333-1.7562 0.46536-3.7646 0.076699-5.1376-1.1385-0.78297-0.70176-1.3355-1.743-1.2094-2.8173 0.075528-0.90113 0.57873-1.8182 1.4427-2.1746 0.28099-0.13523 0.59421-0.19877 0.90522-0.19761z" fill-rule="evenodd"/></svg>
