<svg width="14" height="14" version="1.1" viewBox="0 0 14 14" xmlns="http://www.w3.org/2000/svg"><rect id="a" width="14" height="14" fill="none" visibility="hidden"/><path d="m5 0c-1.2116-0.0062743-2.2838 0.71915-3.0937 1.5625-0.67294 0.69553-1.425 1.3786-1.7909 2.2969-0.08861 0.26978-0.26718 0.73723 0.1971 0.63398 0.73128 0.12145 1.4558 0.49828 2.2102 0.29206 0.84578-0.19279 1.3506-0.96046 1.8535-1.5985 0.28615-0.35218 0.55953-0.73719 0.97659-0.94362 0.68567-0.42018 1.5414-0.40962 2.3051-0.26279 1.6588 0.4261 3.2434 1.111 4.7519 1.9152 0.54683 0.29803 1.0814 0.61991 1.5902 0.97938-1.6307-1.6843-3.405-3.323-5.5937-4.244-0.55641-0.23167-1.1115-0.49258-1.7188-0.55839-0.55863-0.080525-1.1246-0.072716-1.6875-0.07258zm7.3438 5.1562c-1.3438 0.58333-2.6875 1.1667-4.0312 1.75-2.1864 0.34076-4.4137-0.0026378-6.549-0.50048-0.19498-0.026846-0.70166-0.24365-0.38849 0.094235-0.45833 1.1667-0.91667 2.3333-1.375 3.5 0.86458-0.66667 1.7292-1.3333 2.5938-2 0.13542 1.3333 0.27083 2.6667 0.40625 4l1.9688-3.1875c0.23385 0.084964 0.59779-0.020154 0.6559 0.29049 0.45845 0.96567 0.9169 1.9313 1.3753 2.897 0.36458-1.0312 0.72917-2.0625 1.0938-3.0938 0.32944-0.011364 0.6934-0.27553 0.97541-0.23552 0.64361 0.77642 1.2872 1.5528 1.9308 2.3293 0.010417-1.2188 0.020833-2.4375 0.03125-3.6562 0.099054-0.25766 0.24991-0.14418 0.40462-0.024676 0.85471 0.56031 1.7094 1.1206 2.5641 1.6809l-1.875-3.2812c0.08108-0.18415 0.15702-0.37088 0.21875-0.5625z"/></svg>
