<svg width="14" height="14" version="1.1" viewBox="0 0 14 14" xmlns="http://www.w3.org/2000/svg"><rect id="a" width="14" height="14" fill="none" visibility="hidden"/><path d="m1e-6 10.266v-1.4581h12.594c0.02071-2.0772 0.04143-4.1544 0.06214-6.2316 0.23102-0.10688 0.44118-0.31386 0.70859-0.29286 0.20591 0.065476 0.38376 0.19411 0.5745 0.29292 0.02034 3.0492 0.04068 6.0985 0.06102 9.1477h-1.4024v-1.633h-11.198v1.633h-1.3997c3.3333e-7 -0.48602 6.6667e-7 -0.97203 1e-6 -1.4581zm0-3.5343c0.010081-0.37292-0.0067779-0.7585 0.10879-1.1175 0.2863-0.20055 0.7152-0.09867 1.0581-0.14946 2.7961-0.062649 5.5933-0.032086 8.39-0.039434h1.9909v2.3329h-11.548c0-0.34216 1e-14 -0.68431 1e-14 -1.0265z" stroke-width=".11664"/></svg>
