<svg width="14" height="14" version="1.1" viewBox="0 0 14 14" xmlns="http://www.w3.org/2000/svg"><rect id="a" width="14" height="14" fill="none" visibility="hidden"/><path id="b" d="m3 0c-0.36015-0.019339-0.80243 0.10031-0.897 0.49921-0.2077 0.70725 0.023043 1.4684-0.23422 2.1664-0.50839 1.6411-1.2993 3.1812-1.7828 4.8305-0.14053 0.47956-0.068048 0.98208-0.085938 1.4741 0.0035381 1.3781-0.0071061 2.7566 0.0053754 4.1344 0.042729 0.54264 0.58018 0.95442 1.1134 0.89545 1.3304-0.0031 2.6611 0.0061 3.9912-0.0046 0.48957-0.01479 0.89601-0.45277 0.8888-0.93978 0.001754-1.7015 0.0023232-3.4032-2.826e-4 -5.1047-0.10904-0.78516-0.44805-1.5146-0.7206-2.2528-0.42273-1.1085-0.92771-2.1921-1.2285-3.3428-0.12838-0.6344 0.042116-1.3077-0.17444-1.9295-0.12394-0.36552-0.5392-0.43227-0.875-0.42586zm7.875 1c-0.33333 1.3333-0.66667 2.6667-1 4h1.125l0.75-3h2.25v-1h-3.125zm-3.875 5c0.33333 2.3333 0.66667 4.6667 1 7-0.00185 0.48422 0.35456 0.9767 0.86586 0.99361 0.74126 0.01259 1.4835 0.0062 2.225 0.0035 0.46429 3.15e-4 0.84283-0.3921 0.89352-0.84088 0.19104-1.445 0.41005-2.8871 0.61202-4.331 0.13453-0.94173 0.26907-1.8835 0.4036-2.8252h-6z"/></svg>
