<svg width="14" height="14" version="1.1" viewBox="0 0 14 14" xmlns="http://www.w3.org/2000/svg"><rect id="a" width="14" height="14" fill="none" visibility="hidden"/><path id="b" d="m8 1.5v0.875c0.41667 0.26042 0.83333 0.52083 1.25 0.78125v1.0938h-4.25v-0.75c0.38815-0.016696 0.8445 0.080607 1.1445-0.23193 0.27725-0.29366-0.043955-0.72183-0.38965-0.74335-0.45172-0.049876-0.90931-0.013692-1.3636-0.024719-0.38185 0.0103-0.76686-0.024079-1.1461 0.024719-0.34569 0.021518-0.66689 0.44969-0.38965 0.74335 0.29994 0.31258 0.75627 0.21528 1.1445 0.23193-0.0062453 0.25503 0.012484 0.51633-0.0093495 0.76745-0.30938 0.57752-0.61877 1.155-0.92815 1.7325-1.5582-0.050923-2.9921 1.2958-3.0585 2.8495-0.10277 1.5623 1.2166 3.0339 2.7708 3.1414 1.5349 0.14226 3.014-1.0994 3.2003-2.6178 0.065116-0.46218 3.616e-4 -0.93735-0.16264-1.3732 0.42819-3.87e-5 0.91591 0.044562 1.2444-0.28795 0.72319-0.81747 1.4408-1.6418 2.1618-2.4621 0.17708 0.34375 0.35417 0.6875 0.53125 1.0312-1.2168 0.55995-1.9895 1.9879-1.6872 3.3106 0.29358 1.4465 1.7555 2.5691 3.2366 2.3922 1.5237-0.14684 2.7969-1.5981 2.6966-3.1345-0.06633-1.5484-1.4902-2.8915-3.0429-2.8499-0.11608-0.029252-0.13544-0.21905-0.21069-0.31607-0.24746-0.47784-0.49491-0.95569-0.74237-1.4335v-1.5938c-0.66667-0.38542-1.3333-0.77083-2-1.1562zm-3.2188 3.75h3.125c-0.52083 0.58333-1.0417 1.1667-1.5625 1.75h-1.1875c-0.22611-0.33816-0.73533-0.5034-0.91809-0.78451 0.18103-0.32183 0.36206-0.64366 0.54309-0.96549zm-1.7812 1.75c0.99236 0.023313 1.8842 0.88027 1.9935 1.8587 0.069225 0.98333-0.72781 1.8972-1.6652 2.1069-0.92862 0.1896-1.8508-0.48041-2.1959-1.3175-0.31128-0.69418-0.038316-1.5177 0.49041-2.0252 0.36317-0.36225 0.85585-0.62144 1.3771-0.62286zm8 0c0.99236 0.023314 1.8842 0.88027 1.9935 1.8587 0.06923 0.98333-0.72781 1.8972-1.6652 2.1069-0.92862 0.1896-1.8508-0.48041-2.1959-1.3175-0.31128-0.69418-0.038316-1.5177 0.49041-2.0252 0.36317-0.36225 0.85585-0.62144 1.3771-0.62286z"/></svg>
