<svg width="14" height="14" version="1.1" viewBox="0 0 14 14" xmlns="http://www.w3.org/2000/svg"><path d="m0 0v3c0.56371-0.035206 1.0493 0.49654 0.99878 1.0515-0.0091545 0.51842-0.48021 0.96655-0.99875 0.94853v3h2v-1h-1v-1.283c0.82922-0.45943 1.2333-1.5503 0.86481-2.4312-0.16419-0.41929-0.47654-0.77624-0.86481-1.0028v-1.283h12v1.283c-0.81255 0.4509-1.2158 1.5043-0.8884 2.3785 0.15512 0.44757 0.47745 0.83349 0.8884 1.0685v1.27h-1v1h2v-3c-0.54734 0.040445-1.0248-0.46056-1.0001-1-0.026846-0.52728 0.42671-1.038 0.96877-0.99805 0.071261-0.045403 0.011672-0.22166 0.03126-0.31873v-2.6832h-14z" stroke-width="3.78"/><path d="m7 3c-0.9321-0.0063893-1.6929 0.75806-1.9662 1.6031-0.39152 1.1317-0.10262 2.5556 0.89175 3.2873 0.31306 0.022866 0.21578 0.57675-0.045632 0.33172-0.45358-0.67148-1.3392-1.0711-2.1301-0.80222-0.99926 0.32665-1.5674 1.4014-1.5981 2.4064-0.05323 1.0408 0.44907 2.1914 1.4472 2.6192 0.7436 0.33004 1.6472 0.04171 2.1483-0.57599 0.4565-0.52681 0.6695-1.2304 0.67366-1.9202 0.19012-0.38841 0.41764 0.13904 0.30115 0.36047-0.12683 1.1679-0.2923 2.3358-0.56415 3.4795-0.21463 0.39353 0.3542 0.04049 0.56807 0.08792 0.39761-0.04722 0.80081 0.01777 1.1843 0.12259-0.25476-0.82066-0.35631-1.68-0.49053-2.5268-0.055107-0.50727-0.17198-1.0177-0.14234-1.5285 0.17422-0.36292 0.39764 0.096256 0.31892 0.31496 0.077748 0.98443 0.69222 2.0137 1.6941 2.2713 0.79818 0.21515 1.645-0.22569 2.0732-0.90173 0.78669-1.1782 0.62531-2.9653-0.49674-3.8781-0.60726-0.51082-1.547-0.55285-2.1891-0.081343-0.30689 0.11871-0.42763 0.58955-0.73745 0.60357-0.24769-0.35471 0.40732-0.46645 0.54111-0.7611 0.97109-1.1648 0.86126-3.1259-0.33169-4.0983-0.32446-0.25844-0.73277-0.41582-1.1498-0.41368z" stroke-width="3.78"/></svg>
