<svg width="12" height="12" version="1.1" viewBox="0 0 12 12" xmlns="http://www.w3.org/2000/svg"><path d="m9.368 11.517c-0.72259-0.8256-1.3597-1.7244-1.9511-2.6475-0.16826-0.23307-0.27987-0.58619-0.51378-0.71851-0.64961 0.3825-1.2374 0.86381-1.9006 1.2238-0.25547-0.068893-0.4027-0.39623-0.59432-0.58321-1.0826-1.3602-2.073-2.8037-2.8283-4.3734-0.30578-0.64173-0.60258-1.2955-0.78827-1.9831-0.031707-0.28898 0.33349-0.37808 0.52156-0.5154 1.2107-0.64203 2.4642-1.2029 3.7358-1.7129 0.22041-0.054578 0.49349-0.25296 0.69498-0.17095 0.37263 1.1866 0.67444 2.3995 1.1693 3.5443 0.48918 1.178 1.1798 2.261 1.9417 3.2794 0.41744 0.37626 0.68737 0.88236 0.98553 1.3524 0.48124 0.82348 0.96279 1.6547 1.3106 2.5451 0.14666 0.27698 0.01043 0.60061-0.23603 0.76704-0.25959 0.20326-0.5421 0.41288-0.87189 0.47547-0.27072-0.065176-0.48286-0.29216-0.67534-0.48267zm-3.1343-3.6225c0.57115-0.44336 1.1521-0.87763 1.6753-1.3781-0.49508-0.70113-0.94553-1.4348-1.307-2.2144-0.49799-1.0423-0.88346-2.138-1.1421-3.2639-0.04013-0.39904-0.47231-0.23675-0.70778-0.12804-1.0469 0.42689-2.0825 0.88593-3.0881 1.4032-0.34913 0.091996-0.27395 0.46096-0.1311 0.69799 0.52683 1.1259 1.0831 2.2417 1.7319 3.3029 0.52843 0.79249 1.0644 1.5858 1.6931 2.3031 0.20973 0.21112 0.4581-0.19153 0.66583-0.26974 0.20567-0.14779 0.40871-0.29921 0.60994-0.45297zm-2.0362-5.0437c-0.2966-0.1649-0.31985-0.60289-0.049427-0.8036 0.26503-0.25077 0.74049-0.167 0.90943 0.155 0.24766 0.22776 0.05013 0.51395-0.16448 0.66823-0.203 0.22656-0.48722 0.15023-0.69553-0.019621z" stroke-width=".11357"/></svg>
