<svg width="14" height="14" version="1.1" viewBox="0 1 14 14" xmlns="http://www.w3.org/2000/svg"><rect id="a" width="14" height="14" fill="none" visibility="hidden"/><path id="b" d="m0 10.5c-0.035959 0.9608 0.90011 1.5839 1.7772 1.5h10.723c0.9608 0.03596 1.5839-0.90011 1.5-1.7772-0.0051-0.95981 0.01041-1.9202-0.0082-2.8796-0.06226-0.80097-0.84179-1.416-1.6304-1.3432h-10.861c-0.9608-0.035959-1.5839 0.90011-1.5 1.7772v2.7228zm1.6-2v0.01zm9 0v0.01z" fill-rule="evenodd"/><g id="c" transform="translate(0,1)"><rect x="1" y="10" width="2" height="3"/><rect x="11" y="10" width="2" height="3"/></g><path id="d" d="m2 6v-2.5c-0.035959-0.9608 0.90011-1.5839 1.7772-1.5h6.7228c0.85042-0.024886 1.5777 0.77853 1.5 1.6188v2.3812h-1.5c-0.004907-0.54344 0.010315-1.0875-0.008555-1.6305-0.055444-0.54736-0.60053-0.92612-1.13-0.86947h-4.8614c-0.71468-0.026233-1.0585 0.68403-1 1.297v1.203h-1.5z"/></svg>
