<svg width="14" height="14" version="1.1" viewBox="0 0 14 14" xmlns="http://www.w3.org/2000/svg"><rect id="a" width="14" height="14" fill="none" visibility="hidden"/><path d="m9 3v-2h3v2h-3zm-7 0v-2h3v2h-3zm-2 0v10h14v-10h-14zm3.4456 2h1.5544v2h2v1.5779h-2v2.0235c-0.52097 0.01097-1.0419 0.02195-1.5629 0.03292 0.00815-0.70142 0.016293-1.4028 0.024439-2.1043-0.69012 0.0053222-1.3802 0.010643-2.0704 0.015964 0.010313-0.51532 0.020625-1.0306 0.030938-1.546h2.0075c0.0053212-0.66667 0.010642-1.3333 0.015964-2zm5.5544 2h4v1.6108c-1.3333-0.0053212-2.6667-0.010642-4-0.015964v-1.5948z" fill-rule="evenodd"/></svg>
