<svg width="14" height="14" version="1.1" viewBox="0 0 14 14" xmlns="http://www.w3.org/2000/svg"><rect id="a" width="14" height="14" fill="none" visibility="hidden"/><path d="m13.516 13c-0.0019-4.0722 0.0028-8.1444 0.02192-12.217 0.027363-0.31211-0.069157-0.73184-0.45436-0.74284-0.35843-0.053523-0.72233-0.035931-1.0835-0.040619 0.0015 4.361-0.0029 8.7221 0.0022 13.083 0.05549 0.29576-0.09227 0.81869 0.30773 0.90238 0.3473 0.0058 0.72511 0.07262 1.0509-0.06915 0.21969-0.23841 0.13145-0.61777 0.15511-0.91626zm-11.008-1.3752c1.1514 0.37799 2.3897 0.61674 3.5941 0.35786 0.51134-0.09839 1.0099-0.25329 1.4997-0.42821-0.20045-2.5181-0.40089-5.0363-0.60134-7.5544-0.94977 0.13144-1.9125 0.31301-2.8718 0.16116-0.3771-0.046133-0.75257-0.10431-1.1282-0.16116l-0.49246 7.6248zm1.8124-11.625h1.3987c0.18481 1 0.36963 2 0.55444 3-0.69242 0.22945-1.4464 0.31351-2.1565 0.11053-0.1809-0.058249-0.49498-0.047639-0.35901-0.30465 0.18748-0.93529 0.37495-1.8706 0.56243-2.8059zm-2.2965 14c0.078169-0.33333 0.15634-0.66667 0.23451-1h5.4992c0.085985 0.33333 0.17197 0.66667 0.25796 1h-5.9916zm7.4606-14h1.9598v0.60972h-1.9598v-0.60972zm0 1h1.9598v0.60972h-1.9598v-0.60972zm0 1h1.9598v0.60972h-1.9598v-0.60972zm0 1h1.9598v0.60972h-1.9598v-0.60972zm0 1h1.9598v0.60972h-1.9598v-0.60972z" fill-rule="evenodd"/></svg>
