<svg width="14" height="14" version="1.1" viewBox="0 0 14 14" xmlns="http://www.w3.org/2000/svg"><rect id="a" width="14" height="14" fill="none" visibility="hidden"/><path id="b" d="m3 1c-1 0.66667-2 1.3333-3 2 0.33333 1.1167 0.66667 2.2333 1 3.35 0.66667-0.45 1.3333-0.9 2-1.35v8h8v-8c0.66667 0.45 1.3333 0.9 2 1.35 0.33333-1.1167 0.66667-2.2333 1-3.35-1-0.66667-2-1.3333-3-2h-2c-0.024416 0.96144-0.83063 1.821-1.7661 1.9822-0.91816 0.12664-1.7942-0.55227-2.1185-1.3812-0.15596-0.16304 0.015492-0.61446-0.23419-0.60099h-1.8812z"/></svg>
