<svg width="14" height="14" version="1.1" xmlns="http://www.w3.org/2000/svg"><path d="m12.384 0.56304c-0.71365-0.59932-1.7438-0.69823-2.6053-0.39405-1.4692 0.47805-2.8536 1.1914-4.1699 1.9941-0.83742 0.50413-1.5959 1.1256-2.293 1.8086-1.0507 1.0199-2.0884 2.0913-2.8111 3.3762-0.2623 0.46389-0.42535 0.98206-0.44079 1.5169-0.087151 0.71189-0.14018 1.4825 0.23367 2.1288 0.33528 0.59955 0.80372 1.1196 1.3158 1.5731 0.82505 0.62013 1.9243 0.64431 2.9088 0.53362 0.89925-0.11623 1.7902-0.33693 2.6293-0.68164 1.6987-0.86333 3.2703-2.0305 4.4611-3.5282 0.68464-0.87871 1.1873-1.8829 1.6544-2.8893 0.34101-0.77879 0.64274-1.594 0.69859-2.4487 0.11268-0.8714-0.042962-1.8722-0.71843-2.4919-0.23261-0.17939-0.62504-0.42219-0.89118-0.18391-0.70958 0.48557-1.3206 1.0954-1.8743 1.7495-0.29297 0.35728-0.65536 0.6551-1.0836 0.83434-0.35067 0.16091-0.67704 0.39731-0.8486 0.75318-0.78148 1.363-1.6011 2.764-2.8607 3.7448-0.77828 0.64741-1.6314 1.1938-2.4686 1.7596-0.39659 0.25028-0.61195 0.67373-0.87729 1.0418-0.33869 0.36665-0.52417-0.22923-0.45473-0.51162 0.030839-0.55995 0.14744-1.1613 0.52817-1.5942 0.59823-0.59886 1.5333-0.72253 2.0687-1.3969 0.6623-0.85002 1.1748-1.8059 1.8382-2.656 0.81168-1.0962 1.8196-2.0439 2.9739-2.772 0.9217-0.58342 1.9221-1.1153 3.0172-1.2617z"/></svg>
