<svg width="14" height="14" enable-background="new 0 0 580 580" version="1.1" viewBox="0 0 14 14" xmlns="http://www.w3.org/2000/svg"><rect id="a" width="14" height="14" fill="none" visibility="hidden"/><path d="m3 1c-0.57008 0.025419-1.0618 0.58783-1 1.1584 9.984e-4 1.9623-2e-3 3.9247 0.0015 5.887 0.0579 0.55932 0.61345 1.0214 1.1767 0.9546 2.6224-9.982e-4 5.2449 2e-3 7.8672-0.0015 0.55932-0.0579 1.0214-0.61345 0.9546-1.1767-9.98e-4 -1.9557 0.001996-3.9115-0.001497-5.8672-0.057898-0.55933-0.61345-1.0214-1.1767-0.9546h-7.8218zm0 1h8v6h-8v-6zm-1 8c-0.33973 8.45e-4 -0.43859 0.378-0.53175 0.64157-0.33447 0.96258-0.66894 1.9252-1.0034 2.8877-0.15496 0.32061 0.34548 0.48522 0.59455 0.4707 3.9963-0.0019 7.9927 0.0038 11.989-0.0029 0.24599-0.02874 0.6059-0.25756 0.46048-0.5425-0.36424-1.0292-0.72848-2.0583-1.0927-3.0875-0.082798-0.25553-0.30773-0.41583-0.57441-0.36715h-9.8416z"/></svg>
