<svg width="14" height="14" version="1.1" viewBox="0 0 14 14" xmlns="http://www.w3.org/2000/svg"><rect id="a" width="14" height="14" fill="none" visibility="hidden"/><path d="m0.40107 7c0.036725-0.68489 0.47359-1.2711 0.92548-1.7564 0.71728-0.73781 1.7158-1.2837 2.7672-1.2362 0.70606 0.12428 1.2119 0.68644 1.7812 1.0744 0.39871 0.30352 0.89361 0.54065 1.4062 0.44645 0.72593-0.1765 1.2232-0.78686 1.8281-1.1823 0.33503-0.24561 0.74907-0.40561 1.1689-0.333 1.2759 0.12985 2.3947 1.0028 3.0176 2.0965 0.11022 0.24577 0.37408 0.69959 0.21915 0.89062h-0.98374c-0.48534-0.94085-1.5259-1.5495-2.5782-1.5485-0.75493 0.14923-1.2957 0.75099-1.9219 1.1508-0.42576 0.30372-0.98505 0.52703-1.5 0.31495-0.86866-0.32245-1.4751-1.1419-2.3906-1.3596-1.0386-0.12429-2.1643 0.45033-2.5612 1.4423h-1.1783zm8.5989-5c0.021522 0.97641-0.77457 1.8802-1.7453 1.9839-0.95103 0.14228-1.9338-0.5074-2.1789-1.4364-0.27639-0.90509 0.19716-1.9562 1.057-2.3503 0.84249-0.42588 1.9563-0.13987 2.4919 0.63631 0.14665 0.20387 0.25397 0.43575 0.31496 0.67934m-5.9398 11.487c-0.66667-1.6667-1.3333-3.3333-2-5 0.74917 0.15508 1.2597 0.82858 2 1 0.38385-0.021335 0.69172-0.30242 1.0126-0.48804 0.31779-0.1848 0.61354-0.46044 0.98737-0.51196 0.63021 0.038269 1.0659 0.54229 1.5697 0.85424 0.37583 0.24338 0.87853 0.17436 1.2045-0.12122 0.39193-0.3088 0.79245-0.69857 1.3154-0.73772 0.48386 0.10755 0.84269 0.4874 1.2615 0.73042 0.32113 0.22212 0.74112 0.38127 1.1178 0.1948 0.55137-0.23749 0.92662-0.79127 1.5311-0.92051-0.66667 1.6667-1.3333 3.3333-2 5-0.54744 0.58454-1.3301 0.89079-2.1191 0.94727-1.0427 0.08022-2.0904 0.05376-3.1352 0.03986-0.88236-0.017569-1.8289-0.15985-2.5108-0.77058-0.081373-0.068734-0.15954-0.14123-0.23485-0.21654z"/></svg>
