<svg width="14" height="14" version="1.1" viewBox="0 0 14 14" xmlns="http://www.w3.org/2000/svg"><rect id="a" width="14" height="14" fill="none" visibility="hidden"/><g id="b" transform="translate(0,1)" fill="param(fill)"><rect x="1" y="6" width="11" height=".5"/><rect x="2" y="8" width="9.5" height=".5"/></g><g id="c" transform="translate(0,1)" fill="param(fill)"><rect x="3" y="4.5" width=".5" height="5.5"/><rect x="5" y="4.5" width=".5" height="5.5"/><rect x="7.5" y="4.5" width=".5" height="5.5"/><rect x="9.5" y="4.5" width=".5" height="5.5"/></g><path id="d" d="m5.9 5c0.66667-1 1.3333-2 2-3 0.29305-0.71918 1.3243-0.014366 0.85322 0.51538-0.55108 0.82821-1.1021 1.6564-1.6532 2.4846h-1.2z"/><path id="e" d="m0 5h13c-0.66667 2.3333-1.3333 4.6667-2 7h-9c-0.66667-2.3333-1.3333-4.6667-2-7zm1.25 1h10.5c-0.5 1.6667-1 3.3333-1.5 5h-7.5c-0.5-1.6667-1-3.3333-1.5-5z" fill-rule="evenodd"/></svg>
