<svg width="14" height="14" version="1.1" viewBox="0 0 14 14" xmlns="http://www.w3.org/2000/svg"><rect id="a" width="14" height="14" fill="none" visibility="hidden"/><path d="m0.077782 13.914c-0.076146-0.93104-0.054031-1.8695-0.071643-2.8038-0.011186-2.0689-0.0041638-4.1378-0.0061372-6.2067 0.28321-0.68399 0.62183-1.3477 0.84044-2.0562 0.19872-0.85172-0.016697-1.7475 0.20556-2.5955 0.18142-0.30907 0.61868-0.19979 0.92295-0.23987 1.5021-0.010222 3.0041 0.024807 4.5061 0.038145 0.047882 0.8713 0.041189 1.7474 0.1508 2.6138 0.13047 0.69809 0.49731 1.3179 0.77026 1.9662 0.12109 0.18946 0.053223 0.41962 0.070607 0.63142v3.0135h6.5333v5.7167c-4.2772-0.0069-8.5545 0.02161-12.831-0.03673-0.36332-0.01136-0.72932-0.0031-1.0908-0.04105zm3.4222-3.1306v-2.5083h1.5167c0.011223-1.0155-0.031128-2.0332 0.042963-3.0468 0.0574-0.6456 0.42738-1.2011 0.65289-1.7949 0.076396-0.175 0.15279-0.35 0.22919-0.525h-4.3917c-0.32222 0.73183-0.64444 1.4637-0.96666 2.1955 0.008677 2.574-0.027108 5.1486 0.045847 7.7219-0.0361 0.26582 0.033492 0.50477 0.35359 0.43459 0.83815 0.0494 1.6781 0.02564 2.5172 0.03132-7e-7 -0.83611-1.3e-6 -1.6722-2e-6 -2.5083zm5.4146 2.0327c0.31354-0.32995 0.39688-0.87164 0.11163-1.2459-0.23881-0.37877-0.69778-0.65379-1.1523-0.52631-0.57531 0.0932-0.97835 0.71339-0.82425 1.2763 0.11123 0.41286 0.4441 0.86091 0.91374 0.8517 0.3624 0.03587 0.73804-0.02759 0.95117-0.35579zm3.7379-1.1564c0.5033-0.46326 0.48744-1.3264-0.0067-1.7896-0.38369-0.38389-1.0281-0.48584-1.5122-0.24855-0.48819 0.30213-0.82409 0.8999-0.66845 1.4775 0.13937 0.66437 0.86354 1.119 1.5226 0.95132 0.25152-0.06596 0.48007-0.2096 0.66477-0.39071zm-6.8275-0.8135c0.59927-0.35798 0.54992-1.3872-0.090144-1.6779-0.44818-0.17898-1.0765-0.06634-1.2671 0.42919-0.22847 0.45526-0.056016 1.1549 0.46812 1.3097 0.28963 0.0674 0.61598 0.06697 0.88916-0.06094zm1.0504-4.2336c-0.024258-0.76072 0.073403-1.5722-0.29446-2.2721-0.15807-0.34188-0.31901-0.68243-0.4784-1.0237-0.22703 0.53423-0.52779 1.0431-0.66645 1.6099-0.11311 0.78275-0.056511 1.5772-0.069437 2.3659v0.98257h1.5167c-0.00264-0.55417-0.00528-1.1083-0.00792-1.6625zm-0.92541-4.9875v-0.93333h-4.3167v1.8667h4.3167v-0.93333z" stroke-width=".11667"/></svg>
