<svg width="14" height="14" version="1.0" viewBox="0 0 14 14" xmlns="http://www.w3.org/2000/svg"><rect id="a" width="14" height="14" fill="none" visibility="hidden"/><path d="m6 0c1.194 0.0089251 2.389-0.02375 3.582 0.030518 0.46224 0.046454 1.0342 0.071603 1.3125 0.50586 0.17041 0.34068 0.084292 0.73093 0.10547 1.0972v0.36643h-8c0.01144-0.41832-0.026358-0.84036 0.026367-1.2557 0.10053-0.49554 0.65558-0.63741 1.0876-0.68469 0.62575-0.071309 1.2573-0.055881 1.886-0.059605zm-2 3c0.013171 0.51201-0.12131 1.0863-0.57951 1.38-0.35751 0.22836-0.74924 0.49195-0.84374 0.93759-0.12991 0.54124-0.056528 1.1016-0.070689 1.6526 0.012344 1.4094 0.010447 2.8192 0.031969 4.2284 0.0642 0.95669 0.42808 2.0006 1.2952 2.5105 0.5978 0.36966 1.311 0.27964 1.9786 0.29097 1.1238-0.0037 2.2478 0.0075 3.3714-0.0058 0.7962-0.02811 1.5308-0.5288 1.8843-1.2378 0.36697-0.66835 0.45828-1.441 0.43259-2.192-0.0028-1.5811 0.0056-3.1623-0.0043-4.7433-0.0024398-0.48788-0.20448-0.99571-0.64054-1.2501-0.3612-0.21456-0.71272-0.51332-0.79071-0.94984-0.13989-0.16992 0.088638-0.66055-0.20305-0.62109h-5.8614zm3 4c1.0654 0.043065 2.1023 0.3324 3.127 0.60742v2.7852c-1.0246 0.27502-2.0615 0.56436-3.127 0.60742-1.0654-0.043065-2.1023-0.3324-3.127-0.60742v-2.7852c1.0236-0.27473 2.0628-0.56467 3.127-0.60742z" fill-rule="evenodd"/></svg>
