<svg width="14" height="14" version="1.1" viewBox="0 0 14 14" xmlns="http://www.w3.org/2000/svg"><rect id="a" width="14" height="14" fill="none" visibility="hidden"/><path d="m7.0664 0c-1.4709-0.019263-2.9049 0.92023-3.4418 2.2954-0.16145 0.39886-0.25016 0.82711-0.25934 1.2574h-1.8672c-0.16497 3.1598-0.3383 6.3194-0.49805 9.4793v0.96795h12.064c-0.18424-3.4824-0.36849-6.9648-0.55273-10.447h-1.7441c-0.014474-1.4677-1.0297-2.8428-2.4101-3.3248-0.41259-0.15084-0.85179-0.22809-1.2911-0.22794zm0 1.5273c1.0363-0.023919 2.0341 0.78355 2.1565 1.8257 0.12315 0.26824-0.13835 0.19084-0.29945 0.19967h-4.0309c0.024601-1.134 1.0561-2.0471 2.1738-2.0254zm-0.29883 3.6738c0.70578-0.0027 1.5176 0.12016 1.9727 0.72133 0.43713 0.52644 0.32791 1.3198-0.09462 1.8183-0.28553 0.335-0.67708 0.55313-1.0343 0.80215 0.33173 0.33175 0.6812 0.64595 1.0488 0.9375 0.13516-0.16994 0.14322-0.53567 0.30797-0.60425 0.47937 0.10701 0.95875 0.21403 1.4381 0.32104-0.11625 0.44037-0.29541 0.86234-0.53125 1.252 0.35135 0.23472 0.68769 0.49318 1.0586 0.69726-0.34375 0.39518-0.6875 0.79036-1.0313 1.1855-0.39172-0.20336-0.74893-0.46432-1.1289-0.6875-0.95357 0.65686-2.1682 0.76736-3.2903 0.64208-0.74561-0.077624-1.5038-0.46414-1.8369-1.1639-0.36059-0.72262-0.11268-1.6374 0.48919-2.1521 0.30061-0.26697 0.66212-0.45501 1.0326-0.60536-0.40609-0.46414-0.74155-1.0636-0.64463-1.7016 0.07134-0.70289 0.68644-1.2429 1.3584-1.371 0.2899-0.067982 0.58867-0.091177 0.88587-0.091475zm0.080078 1.0352c-0.39817-0.039639-0.80564 0.38976-0.60768 0.77854 0.15531 0.19986 0.34738 0.78267 0.64238 0.53621 0.31155-0.20104 0.68876-0.53101 0.57671-0.94316-0.081827-0.25321-0.35951-0.38174-0.6114-0.37159zm-0.82422 3.0938c-0.33873 0.22712-0.73287 0.56215-0.64384 1.0189 0.10441 0.5551 0.73696 0.83867 1.2566 0.74044 0.34417-0.05001 0.66283-0.20448 0.95557-0.3863-0.54928-0.42624-1.0624-0.89688-1.5684-1.373z"/></svg>
