<svg width="14" height="14" version="1.1" viewBox="0 0 14 14" xmlns="http://www.w3.org/2000/svg"><rect id="a" width="14" height="14" fill="none" visibility="hidden"/><path id="b" d="m9 0c-0.99762 0.63292-1.4897 1.9472-1.14 3.078 0.20853 0.71674 0.72697 1.332 1.39 1.672 0.00226 2.6239-0.00453 5.2479 0.0034 7.8717 0.00962 0.63226 0.43935 1.3129 1.1125 1.3711 0.60565 0.089 1.1792-0.36885 1.3126-0.94975 0.12044-0.4818 0.0545-0.98225 0.07154-1.4736v-6.8194c1.0108-0.50408 1.6423-1.671 1.4771-2.7936-0.098342-0.78958-0.5595-1.5238-1.2271-1.9564v1.5l-1.5 1.5-1.5-1.5v-1.5zm-5 0c-0.43868-0.0033829-0.96194 0.2698-1 0.75h-1.5c-0.41667 0.58333-0.83333 1.1667-1.25 1.75 0.41667 0.58333 0.83333 1.1667 1.25 1.75h1.5c7.329e-4 2.8546-0.00147 5.7092 0.0011 8.5638-4.139e-4 0.5221 0.31721 1.1228 0.88498 1.1796 0.5046 0.08161 0.96829-0.31793 1.0612-0.80111 0.092688-0.471 0.037845-0.9549 0.052732-1.4323v-7.51h2v-3.5h-2c-0.011243-0.50314-0.55805-0.76312-1-0.75zm6.5 12c0.4061-0.02112 0.66039 0.51812 0.38582 0.81805-0.24077 0.32462-0.81449 0.18216-0.87567-0.21728-0.069756-0.29987 0.18195-0.60883 0.48984-0.60077z"/></svg>
