<svg width="14" height="14" version="1.1" viewBox="0 0 14 14" xmlns="http://www.w3.org/2000/svg"><rect id="a" width="14" height="14" fill="none" visibility="hidden"/><path id="b" d="m9.375 0.03125c-0.35862-0.044723-0.55246 0.30168-0.78562 0.50812-0.85271 0.86188-1.7054 1.7238-2.5581 2.5856-0.66527-0.67785-1.3344-1.3528-1.9971-2.0326-0.34341-0.29933-0.98185-0.095588-1.0113 0.38373-0.058287 0.2995 0.14848 0.52972 0.35219 0.71338 0.59376 0.60349 1.1875 1.207 1.7813 1.8105-1.0989 0.004188-2.1982-0.0084655-3.2968 0.0064888-0.94791 0.109-1.7749 0.94662-1.8566 1.8998-0.0048208 2.0623-0.0048375 4.1251 0 6.1874 0.083207 0.96773 0.93565 1.8202 1.9034 1.9034 3.3801 0.0063 6.7604 0.0019 10.141 0.0022 0.9577-0.05345 1.8061-0.87002 1.9417-1.812 0.02552-0.75451 0.0047-1.5109 0.01148-2.2662-0.0019-1.3383 0.0038-2.6767-0.0029-4.0148-0.083211-0.96776-0.93565-1.8202-1.9034-1.9034-1.729-0.0067429-3.4583-9.827e-4 -5.1875-0.0028992 0.9797-0.99187 1.9627-1.9806 2.9403-2.9744 0.32558-0.36965-0.035815-0.9459-0.47159-0.99434zm-3.375 5.9688c0.91098 0.018682 1.8466-0.052296 2.7331 0.20114 0.56028 0.14772 0.97106 0.63322 1.1013 1.1869 0.21134 0.84801 0.18988 1.7374 0.11679 2.6022-0.066356 0.63567-0.27354 1.3547-0.88587 1.6688-0.74184 0.36371-1.5943 0.31495-2.3983 0.3395-1.0302-0.015927-2.0723 0.057878-3.0924-0.12043-0.58051-0.090401-1.1383-0.45267-1.3299-1.0288-0.29061-0.81668-0.25658-1.705-0.22196-2.5582 0.051545-0.68098 0.17918-1.4719 0.79471-1.8799 0.67841-0.41071 1.5039-0.37854 2.2686-0.40734 0.30462-0.0041656 0.60927-0.0038541 0.91391-0.0039253zm6 0.125c0.55092-0.019986 1.0042 0.56507 0.84745 1.0937-0.12091 0.55179-0.82919 0.84062-1.3012 0.52965-0.49229-0.27416-0.56574-1.033-0.13461-1.396 0.15888-0.14553 0.37282-0.22833 0.58833-0.22731zm0 3c0.55092-0.019986 1.0042 0.56507 0.84745 1.0937-0.12091 0.55179-0.82919 0.84062-1.3012 0.52965-0.49229-0.27416-0.56574-1.033-0.13461-1.396 0.15888-0.14553 0.37282-0.22833 0.58833-0.22731z"/></svg>
