<svg width="14" height="14" version="1.1" viewBox="0 0 14 14" xmlns="http://www.w3.org/2000/svg"><rect id="a" width="14" height="14" fill="none" visibility="hidden"/><path id="b" d="m3 0c0.51867 1.5388 0.22146 3.1936 0.55138 4.7634 0.151 0.75153 0.61274 1.4584 1.3207 1.7888 0.42945 0.21578 0.90353 0.32552 1.3779 0.38578v5.562c-0.040254-0.84591-0.51161-1.6009-1.0143-2.2545-1.0208-1.2791-2.5612-2.2475-4.2357-2.2455 0.89508 0.57248 1.4676 1.5272 1.7681 2.5278 0.31195 0.91148 0.42793 1.9392 1.0716 2.6977 0.57494 0.66387 1.5067 0.79577 2.3385 0.77455 0.75451-8e-3 1.51 0.01822 2.2637-0.01795 0.76159-0.04299 1.5493-0.38115 1.9462-1.0621 0.57454-0.96687 0.6506-2.1292 1.1275-3.1387 0.31507-0.71734 0.82665-1.3513 1.4844-1.7813-1.8052-8.875e-4 -3.4645 1.0891-4.4802 2.5329-0.3973 0.58313-0.74901 1.2466-0.76976 1.9671v-5.562c0.8772-0.098965 1.8183-0.42154 2.3076-1.2066 0.55706-0.90462 0.52753-2.01 0.57906-3.034 0.033783-0.90664 0.075193-1.8292 0.36337-2.6974-0.47565 0.041224-0.78533 0.47552-1.0589 0.81976-0.48511 0.67402-0.85932 1.4211-1.1911 2.1802-0.43719-1.0725-0.94705-2.1498-1.75-3-0.80295 0.85024-1.3128 1.9275-1.75 3-0.40832-0.91212-0.8512-1.8336-1.525-2.5829-0.19577-0.19677-0.43163-0.40899-0.72501-0.41714z"/></svg>
