<svg width="14" height="14" version="1.1" viewBox="0 0 14 14" xmlns="http://www.w3.org/2000/svg"><rect id="a" width="14" height="14" fill="none" visibility="hidden"/><path id="b" d="m3 2c-0.96144 0.024416-1.821 0.83063-1.9822 1.7661-0.14287 0.38868 0.38024 0.18234 0.60253 0.2882 1.0528 0.16776 1.9413 0.98905 2.2361 2.0075 0.16156 0.26971 0.036146 0.78715 0.22275 0.93821h5.9208c-0.01945-1.1338 0.61409-2.3019 1.6875-2.7447 0.41241-0.17931 0.86431-0.2557 1.3125-0.25526-0.024416-0.96144-0.83063-1.821-1.7661-1.9822-0.56474-0.037572-1.1328-0.0088196-1.699-0.017834h-6.5349zm-2 3c-0.44536-0.028236-0.87146 0.28612-0.95938 0.72675-0.19752 0.6038 0.34023 1.273 0.95938 1.2733 0.00317 1.0391-0.0064 2.0786 0.0049 3.1176 0.010758 0.47165 0.41978 0.86867 0.88885 0.87829 0.20191 0.008341 0.40418 0.002309 0.60625 0.004142-0.0018451 0.48422 0.35456 0.9767 0.86586 0.99361 0.44803 0.066406 0.94144-0.17733 1.0671-0.63259 0.047499-0.21654 0.029391-0.43734 0.30464-0.36102h4.7624c-0.00185 0.48422 0.35456 0.9767 0.86586 0.99361 0.44803 0.06641 0.94144-0.17733 1.0671-0.63259 0.0475-0.21654 0.02939-0.43734 0.30464-0.36102 0.32675 0.02036 0.67679-0.02711 0.9178-0.27258 0.27604-0.23171 0.37415-0.59763 0.34461-0.94521v-2.7822c0.59018 0.016066 1.1086-0.57055 0.98438-1.1562-0.050696-0.44878-0.42923-0.8412-0.89352-0.84088-0.78316-0.055278-1.4562 0.54319-1.7498 1.2283-0.25231 0.55239-0.34032 1.1656-0.34104 1.7688h-8c-3.389e-4 -0.95687-0.23053-2.0168-1.0094-2.6455-0.28051-0.22073-0.63172-0.35594-0.99063-0.35449z"/></svg>
