<svg width="14" height="14" version="1.1" viewBox="0 0 14 14" xmlns="http://www.w3.org/2000/svg"><rect id="a" width="14" height="14" fill="none" visibility="hidden"/><path id="b" d="m10 1c-1.4425-0.057909-2.9278 0.70647-3.5881 2.0151-0.48389 0.94057-0.56929 2.0506-0.38787 3.081 0.24213 0.96799 0.48426 1.936 0.7264 2.904-1.0704-0.66667-2.1407-1.3333-3.2111-2-0.014809-0.66667-0.029618-1.3333-0.044428-2-0.2666-0.33333-0.5332-0.66667-0.79979-1-0.45054 0.072744-0.77792 0.44327-1.1016 0.73511-0.61605 0.63679-1.1961 1.3426-1.5261 2.1733-0.10001 0.19864-0.094834 0.39865 0.13855 0.45959 0.36664 0.21068 0.73328 0.42136 1.0999 0.63205 0.56469-0.098828 1.1294-0.19765 1.6941-0.29648 1.6667 2.0988 3.3333 4.1977 5 6.2965h4.4221c0.52596-2.6667 1.0519-5.3333 1.5779-8-0.004242-1.2983-0.20833-2.6851-1.0461-3.7269-0.70304-0.88887-1.8485-1.2806-2.9539-1.2731zm0 1.3987c0.91228-0.011418 1.8698 0.4133 2.3073 1.2465 0.39358 0.71495 0.40796 1.5763 0.22366 2.3548h-5.0151c-0.21254-0.84997-0.33482-1.8201 0.13195-2.6109 0.48533-0.79724 1.4903-0.99386 2.3521-0.99044z" fill-rule="evenodd"/></svg>
