<svg width="14" height="14" version="1.1" viewBox="0 0 14 14" xmlns="http://www.w3.org/2000/svg"><rect id="a" width="14" height="14" fill="none" visibility="hidden"/><path id="b" d="m4.375 0.5c-0.77484-0.017752-1.5446 0.52607-1.7005 1.3015-0.10869 0.59157-0.056517 1.2771 0.35241 1.7497 0.40882 0.45132 1.0474 0.46125 1.6107 0.44877 1.7249-0.0025166 3.4499 0.0050549 5.1747-0.0038399 0.58805-0.0075625 1.2201-0.30124 1.425-0.88846 0.27205-0.73675 0.16651-1.6806-0.47228-2.1988-0.61062-0.52446-1.5086-0.48871-2.2188-0.20805-0.76204 0.29666-1.3329 0.98585-1.5462 1.7679-0.24298-0.9299-1.0096-1.7152-1.9643-1.8998-0.21681-0.047337-0.43891-0.068974-0.66072-0.068947zm0 0.875c0.59187-0.024994 1.2127 0.26251 1.4761 0.81228 0.098702 0.25576 0.36892 0.78098 0.19471 0.93772-0.61063-0.0055916-1.2221 0.011615-1.8322-0.0094133-0.43813-0.018792-0.74788-0.44551-0.71362-0.86559-0.03425-0.42008 0.2755-0.84679 0.71362-0.86559 0.053538-0.0065456 0.10746-0.0094111 0.16138-0.0094133zm5.25 0c0.42721-0.035244 0.82011 0.29821 0.86133 0.72241 0.0898 0.43062-0.15669 0.94902-0.62728 1.0069-0.50484 0.042818-1.0142 0.010844-1.521 0.02073h-0.46307c0.073605-0.63458 0.3427-1.3451 0.9778-1.606 0.2425-0.10537 0.50925-0.14407 0.7722-0.14403zm-5.625 3.625c-0.96144 0.024416-1.821 0.83063-1.9822 1.7661-0.037572 0.56475-0.0088196 1.1328-0.017834 1.699 0.029802 0.091555-0.072976 0.31569 0.079196 0.28487h4.1708v-3.75h-2.25zm3.75 0v3.75h4.25c-0.0066-0.64564 0.01391-1.2924-0.01148-1.9373-0.1355-0.94199-0.98395-1.7586-1.9416-1.812-0.76561-0.0016934-1.5313-2.478e-4 -2.2969-7.286e-4zm-5.75 5.25c0.00664 0.64564-0.013906 1.2924 0.011475 1.9373 0.13551 0.94199 0.98396 1.7586 1.9417 1.812 0.76561 0.001694 1.5312 2.48e-4 2.2969 7.29e-4v-3.75h-4.25zm5.75 0v3.75c0.79678-0.0041 1.5941 0.0083 2.3905-0.0065 0.94791-0.109 1.7749-0.94662 1.8566-1.8998 0.0066-0.61446 0.0011-1.2292 0.0029-1.8437h-4.25z"/></svg>
