<svg width="14" height="14" version="1.1" viewBox="0 0 14 14" xmlns="http://www.w3.org/2000/svg"><rect id="a" width="14" height="14" fill="none" visibility="hidden"/><path id="b" d="m7.6811 0.38453c-0.71066 0.72939-1.2251 1.6984-1.2523 2.7317-0.02828 0.38775-0.043831 0.77632-0.053816 1.1649 0.25679 0.064853 0.51621 0.46138 0.74881 0.28682 0.23819-0.18436 0.64589-0.24817 0.54473-0.6289 0.028469-0.65141 0.009648-1.3384 0.33962-1.9258 0.1094-0.28968 0.4196-0.55447 0.51999-0.78168-0.28233-0.28233-0.56467-0.56467-0.847-0.847zm-7.1811 0.61547c0.29295 1.1642 1.3118 2.0678 2.4764 2.3061 0.84452 0.18816 1.7441 0.060548 2.5236-0.30605-0.39772-0.91954-1.1146-1.7592-2.0982-2.0605-0.94158-0.30237-1.9613-0.17628-2.9018 0.060474zm1.5 4.25c-0.69372 0.76485-1.0075 1.825-0.99854 2.8448 0.067425 1.2048 0.57366 2.3456 1.2136 3.3523 0.55335 0.82306 1.2554 1.6396 2.2241 1.9648 0.59542 0.20905 1.2318 0.01551 1.7674-0.26633 0.28173-0.10594 0.55987-0.33959 0.83994-0.37225 0.6542 0.30216 1.2967 0.7568 2.0473 0.7242 0.9133-0.06803 1.6464-0.7258 2.2097-1.3951 0.8353-1.0401 1.4525-2.2843 1.6609-3.6085 0.11772-0.98975-0.084779-2.0419-0.64763-2.8737-0.53633-0.80281-1.559-1.1388-2.491-1.0462-1.036 0.085958-2.0029 0.55995-2.8257 1.1758-0.99987-0.69691-2.183-1.265-3.43-1.2059-0.58573 0.031902-1.1752 0.26107-1.57 0.70617z"/></svg>
