<svg width="14" height="14" version="1.1" viewBox="0 0 14 14" xmlns="http://www.w3.org/2000/svg"><rect id="a" width="14" height="14" fill="none" visibility="hidden"/><path id="b" d="m4 0v9.5312c-0.70121-0.56053-1.7113-0.69727-2.5263-0.30949-1.0417 0.45237-1.673 1.6691-1.4227 2.7804 0.21792 1.1513 1.3323 2.0456 2.5052 1.9972 1.1332-0.005549 2.1712-0.89026 2.3813-1.9994 0.27039-0.02281 0.15861 0.45008 0.33382 0.60655 0.46335 0.9755 1.6066 1.5655 2.6697 1.3542 1.1586-0.18909 2.0807-1.2853 2.059-2.4608 0.02172-1.1755-0.90036-2.2717-2.059-2.4608-0.68019-0.13343-1.3985 0.070112-1.941 0.49201v-9.5312h-2zm4 0v2h4v1h-4v1h4v1h-4v1h4v1h-4v1h4v6h2c-0.0019-4.0312 0.0039-8.0626-0.0029-12.094-0.083206-0.96773-0.93565-1.8202-1.9034-1.9034-1.3644-0.0067306-2.7292-9.9174e-4 -4.0937-0.0028992zm-5.5 10c0.80333-0.024441 1.5244 0.69667 1.5 1.5 0.024441 0.80333-0.69667 1.5244-1.5 1.5-0.80333 0.024441-1.5244-0.69667-1.5-1.5-0.018237-0.81083 0.68823-1.5181 1.5-1.5zm5 0c0.80333-0.024441 1.5244 0.69667 1.5 1.5 0.024441 0.80333-0.69667 1.5244-1.5 1.5-0.80333 0.024441-1.5244-0.69667-1.5-1.5-0.018237-0.81083 0.68823-1.5181 1.5-1.5z"/></svg>
