<svg width="14" height="14" version="1.1" viewBox="0 0 14 14" xmlns="http://www.w3.org/2000/svg"><rect id="a" width="14" height="14" fill="none" visibility="hidden"/><path d="m8.5118 9.5349c0.079892 1.3982-1.9563 2.0598-2.7135 0.88168-0.8409-1.0302 0.25559-2.691 1.5254-2.3489 0.67779 0.13241 1.1995 0.77666 1.1881 1.4672zm-6.5118-9.5349v14h10v-14h-10zm5.0703 0.96875c0.97641-0.021522 1.8802 0.77457 1.9839 1.7453 0.14228 0.95103-0.5074 1.9338-1.4364 2.1789-0.90509 0.27639-1.9562-0.19716-2.3503-1.057-0.42694-0.84568-0.13822-1.9649 0.645-2.4981 0.33512-0.23964 0.74584-0.37027 1.1578-0.36899zm-0.060547 5.0195c1.6128-0.029587 3.1276 1.2028 3.4268 2.7879 0.58035 2.331-1.7581 4.7192-4.1096 4.1448-2.3717-0.37074-3.6423-3.438-2.2273-5.3772 0.63183-0.96084 1.7602-1.564 2.9101-1.5555z" fill-rule="evenodd"/></svg>
