<svg width="14" height="14" version="1.1" viewBox="0 0 14 14" xmlns="http://www.w3.org/2000/svg"><rect id="a" width="14" height="14" fill="none" visibility="hidden"/><path id="b" d="m5 0c-1.3326-0.024009-2.5934 0.9557-2.9056 2.2503-0.15244 0.575-0.11764 1.1939 0.093052 1.7497h5.625c0.48341-1.2192-0.0015771-2.7081-1.0758-3.4465-0.50268-0.35945-1.1188-0.5554-1.7367-0.55348zm4 0c-0.3528 0.0093935-0.90011 0.089427-1.0929 0.28385 0.92268 0.96574 1.3429 2.4253 0.93669 3.7161h2.9688c0.48341-1.2192-0.001577-2.7081-1.0758-3.4465-0.50268-0.35945-1.1188-0.5554-1.7367-0.55348zm-5.75 5 3.75 9 3.75-9h-7.5z"/></svg>
