<svg width="14" height="14" version="1.1" viewBox="0 0 14 14" xmlns="http://www.w3.org/2000/svg"><path d="m1.3066 0c-0.43555 1.6042-0.87109 3.2083-1.3066 4.8125h2.8613v8.0664h-1.3457v1.1211h3.8145v-1.1211h-1.3457v-8.0664h2.8613c-0.43945-1.6042-0.87891-3.2083-1.3184-4.8125h-4.2207zm9.9395 0.54297c-0.51554-0.0075168-1.0057 0.36176-1.1406 0.85938-1.1963-0.37113-2.0426 1.4216-0.99023 2.1074-0.93014 0.60552-0.39507 2.2078 0.70703 2.1445l0.29883-0.039063c0.07221 0.38113 0.47173 0.5908 0.7168 0.77983v2.2612h-2.2949c0.35091 1.7813 0.70182 3.5625 1.0527 5.3438h3.3633c0.347-1.7812 0.69401-3.5625 1.041-5.3438h-2.3496v-2.2988c0.37845-0.13288 0.67509-0.47081 0.75781-0.86328 1.1346 0.49328 2.1944-1.1692 1.2168-1.9785 0.9735-0.80637-0.072721-2.4645-1.207-1.9844-0.084746-0.5573-0.60826-0.9988-1.1719-0.98828zm0.07031 2.0586c0.81335-0.046208 1.2118 1.1282 0.53869 1.5868-0.642 0.54867-1.7473-0.2371-1.3562-1.0407 0.12956-0.32498 0.46767-0.55086 0.81749-0.54614z"/></svg>
