<svg width="14" height="14" version="1.1" viewBox="0 0 14 14" xmlns="http://www.w3.org/2000/svg"><rect id="a" width="14" height="14" fill="none" visibility="hidden"/><path id="b" d="m5.5002-0.03125c-0.50003 0.66667-1.0001 1.3333-1.5001 2h6.0003c-0.50003-0.66667-1.0001-1.3333-1.5001-2h-3.0002zm-1.5001 3c1.0001 0.91667 2.0001 1.8333 3.0002 2.75 1.0001-0.91667 2.0001-1.8333 3.0002-2.75h-6.0003zm-0.12501 2.125c-1.326 1.0849-2.0932 2.862-1.8246 4.5721 0.30448 2.2037 2.21 4.0794 4.4294 4.3079 1.8684 0.21533 3.7485-0.82284 4.7119-2.4096 0.86263-1.3633 0.99333-3.1605 0.29631-4.621-0.32274-0.69923-0.80552-1.3222-1.394-1.8181l-1.1251 1.0312c0.95561 0.70495 1.6668 1.8758 1.5473 3.0934-0.16002 1.2956-1.1215 2.4072-2.2975 2.9215-0.86438 0.39128-1.897 0.34028-2.7287-0.11052-1.1125-0.58479-1.9936-1.729-2.0513-3.0116-0.022407-1.1585 0.68007-2.228 1.5926-2.8928-0.38544-0.35417-0.77087-0.70833-1.1563-1.0625z"/></svg>
