<svg width="14" height="14" version="1.1" viewBox="0 0 14 14" xmlns="http://www.w3.org/2000/svg"><rect id="a" width="14" height="14" fill="none" visibility="hidden"/><path d="m9.5 8.5c0.022572 1.154-0.86242 2.2372-1.9962 2.4492-1.0903 0.24366-2.2891-0.3513-2.7571-1.365-0.16269-0.33649-0.24711-0.70998-0.2467-1.0836m-3.5-8.5006v14h12v-14h-12zm2 1h5v2h-5v-2zm7 0h2v2h-2v-2zm-3 4c1.488-0.020531 2.9094 1.0179 3.3447 2.4405 0.10819 0.34199 0.10318 0.70646 0.15535 1.0595 0.019113 1.3763-0.8655 2.7036-2.1376 3.225-1.2497 0.5443-2.8022 0.26267-3.7771-0.69141-0.98794-0.91797-1.3484-2.4303-0.88731-3.6966 0.44589-1.3126 1.7353-2.2803 3.122-2.3323 0.059985-0.0030408 0.12005-0.0045543 0.18011-0.0045542z" fill-rule="evenodd"/></svg>
