<svg width="14" height="14" version="1.1" viewBox="0 0 14 14" xmlns="http://www.w3.org/2000/svg"><path d="m5.5449 1c-1.2843-0.069456-2.0179 1.7016-1.0607 2.5607 0.90611 1.0146 2.7596 0.12863 2.5534-1.2077-0.061115-0.75088-0.73924-1.3657-1.4928-1.353zm-1.2148 3.5098c-0.45947 0.049986-0.82323 0.42326-0.92691 0.86205-0.41499 1.2094-0.82998 2.4188-1.245 3.6282h2.0684c0.31576-0.91927 0.63151-1.8385 0.94727-2.7578 0.33919 0.34896 0.67839 0.69792 1.0176 1.0469 0.26611 0.20323 0.61158 0.22872 0.92062 0.33422 0.45036 0.12022 0.89544 0.26504 1.3493 0.36896 0.40082 0.050108 0.69385-0.46379 0.44707-0.78328-0.17645-0.23737-0.49775-0.23564-0.75477-0.33035-0.44314-0.1249-0.88627-0.2498-1.3294-0.3747-0.55273-0.56836-1.1055-1.1367-1.6582-1.7051-0.21993-0.21659-0.52652-0.33694-0.83594-0.28906zm7.1699 3.4902c-1.2843-0.069456-2.0179 1.7016-1.0607 2.5607 0.90436 1.0121 2.762 0.13214 2.5534-1.2077-0.061115-0.75088-0.73924-1.3657-1.4928-1.353zm-10.5 2c-0.59229-0.020245-1.0978 0.57063-0.98852 1.1527 0.065602 0.52029 0.58431 0.90258 1.0992 0.84731h8.0847c0.70353 0.32202 1.4037 0.65201 2.1093 0.969 0.34902 0.0605 0.70824 0.01856 1.062 0.03099 0.41129-0.0061 0.82413 0.01255 1.2344-0.01012 0.39983-0.06069 0.54134-0.63516 0.21739-0.87597-0.23395-0.18152-0.54309-0.092451-0.81626-0.1139h-1.4416c-1.4056-0.64909-2.8112-1.2982-4.2168-1.9473-0.35677-0.086431-0.73254-0.041491-1.0998-0.052734h-5.244z"/></svg>
