<svg width="14" height="14" version="1.1" viewBox="0 0 14 14" xmlns="http://www.w3.org/2000/svg"><rect id="a" width="14" height="14" fill="none" visibility="hidden"/><path d="m1.0663 13.8c-0.52423-0.29728-1.0478-0.81869-0.991-1.4706 0.0033736-0.54762 0.09574-1.1605 0.55291-1.5229 0.29693-0.26329 0.72643-0.41003 0.85185-0.8266 0.21477-0.53664 0.35929-1.0979 0.53585-1.6477 0.98136-0.021813 1.9627-0.043627 2.9441-0.06544 0.23709-0.54593 0.5543-1.06 0.99365-1.4678 0.28881-0.29046 0.63249-0.51501 0.96082-0.75675h-2.2665v-1.4092h5.28c0.17725-0.85315 0.24033-1.7256 0.35539-2.5885 0.078458-0.6024 0.13422-1.2097 0.25109-1.8058 0.8795-0.1238 1.7693-0.17954 2.6556-0.23677 0.30633-0.040801 0.76757 0.019109 0.72728 0.42993 0.01007 0.29335 0.0053 0.58701 0.0081 0.88051-0.56577 0.069568-1.1315 0.13914-1.6973 0.2087-0.16858 1.5076-0.38761 3.0106-0.49033 4.5247-0.08065 0.35462 0.08003 0.65377 0.31365 0.90699 0.5158 0.70126 1.0322 1.4796 1.0598 2.3804 0.05901 0.84791-0.04556 1.7313-0.49257 2.4712-0.55282 1.0843-1.6281 1.8716-2.8277 2.0747-1.4165 0.26718-2.9999-0.13285-3.9848-1.2213-0.55925-0.59162-0.87939-1.3621-1.0494-2.1489-0.052776-0.090535-0.010913-0.29822-0.13539-0.3-0.53014-0.0092-1.0622-0.06975-1.5911-0.02535-0.42054 0.29628 0.27007 0.70591 0.41631 0.99724 0.59109 0.90895 0.13848 2.2611-0.85641 2.668-0.48264 0.20641-1.0598 0.2105-1.524-0.04877zm8.669-1.4248c0.66413-0.22901 1.2078-0.75012 1.5649-1.3453 0.34699-0.6964 0.34954-1.5589 0.037415-2.2683-0.45236-1.0028-1.5674-1.6773-2.6709-1.5259-1.1833 0.13896-2.175 1.1656-2.3524 2.3295-0.15514 1.093 0.56709 2.1334 1.4934 2.6484 0.58563 0.3276 1.2953 0.34688 1.9276 0.16159z" stroke-width=".11743"/></svg>
