<svg width="14" height="14" version="1.1" viewBox="0 0 14 14" xmlns="http://www.w3.org/2000/svg"><rect id="a" width="14" height="14" fill="none" visibility="hidden"/><path id="b" d="m6 0c-0.5707-0.0096573-1.0658 0.52957-1 1.099v0.901c-0.91938 0.045443-1.8164 0.71709-1.9692 1.6511-0.059016 0.50271-0.019091 1.0115-0.030793 1.517 0.00156 2.3129-0.00311 4.6258 0.00234 6.9387 0.011362 0.79606 0.54406 1.5691 1.3206 1.7925 0.52782 0.16064 1.0846 0.08163 1.6274 0.10072 1.0717-0.0035 2.1438 0.0072 3.2153-0.0056 0.78398-0.02868 1.5255-0.57233 1.7384-1.3359 0.15425-0.5226 0.0772-1.0723 0.096-1.6089-0.0016-2.3855 0.0031-4.771-0.0023-7.1565-0.011402-0.79601-0.5441-1.5691-1.3206-1.7924-0.52782-0.16064-1.0846-0.081632-1.6274-0.10072h-1.0496c-0.010115-0.40832 0.023286-0.81972-0.023165-1.2256-0.087177-0.45205-0.52355-0.77786-0.97684-0.77445zm-2 4h6v7h-6v-7zm2 8h2v1h-2v-1z"/></svg>
