<svg width="14" height="14" enable-background="new 0 0 580 580" version="1.1" viewBox="0 0 14 14" xmlns="http://www.w3.org/2000/svg"><rect id="a" width="14" height="14" fill="none" visibility="hidden"/><path d="m11 6c0.96144 0.024416 1.821 0.83063 1.9822 1.7661 0.03757 0.56475 0.0088 1.1328 0.01783 1.699 2.95e-4 0.43629 0.03524 0.89553-0.19147 1.2901-0.37131 0.73513-1.1576 1.3125-2.0065 1.2448-1.6319-0.00192-3.2639 0.003848-4.8957-0.002899-0.96773-0.083207-1.8202-0.93565-1.9034-1.9034-0.0025598-0.74458-0.0093848-1.4899 0.0035896-2.2342 0.109-0.94791 0.94662-1.7749 1.8998-1.8566 0.36447-0.0064297 0.72916-0.0012099 1.0937-0.0028992-0.57288 0.3096-1.2171 0.5405-1.6729 1.0225-0.38777 0.47645-0.30366 1.1365-0.3269 1.7091-0.030468 0.34774 0.036119 0.72768 0.31791 0.96321 0.25844 0.25536 0.6282 0.33117 0.97887 0.30517 1.6046-0.00336 3.2096 0.0067 4.814-0.0051 0.52399-0.023634 0.93162-0.52704 0.889-1.0414-0.020863-0.58598 0.063519-1.2148-0.20599-1.7571-0.31158-0.50747-0.90163-0.72735-1.4011-1.003-0.14931-0.086608-0.5693-0.23682-0.19492-0.19714 0.26734 0.0012658 0.53468 0.0025316 0.80201 0.0037974zm-4-3v1.9883c-0.66667 0.0039063-1.3333 0.0078125-2 0.011719v1h2v2h1v-2h1v2h1v-2h3c-0.02824 0.44536 0.28612 0.87146 0.72675 0.95938 0.2617 0.13619 0.30601-0.021843 0.27325-0.23657v-2.7228c-0.46881-9.363e-4 -0.97167 0.32047-0.99361 0.82534 0.050082 0.2093-0.19895 0.10286-0.32316 0.12964-0.89441 0.0052406-1.7888 0.010481-2.6832 0.015722v-1.9707h-1v1.9766c-0.33333 0.0019533-0.66667 0.0039067-1 0.00586v-1.9824h-1zm-7 7v-9c0.85028-0.024896 1.6646 0.40029 2.1973 1.051 0.6886 0.77408 1.0513 1.7881 1.7896 2.521 0.27027 0.25962 0.63327 0.4349 1.0131 0.42807v1c-0.65875-0.015168-1.1599 0.50131-1.4994 1.0094-0.63122 0.91868-1.1047 2.0233-2.0966 2.6215-0.42115 0.25377-0.91432 0.37188-1.4041 0.36914z" fill-rule="evenodd"/></svg>
