<svg width="14" height="14" version="1.1" viewBox="0 0 14 14" xmlns="http://www.w3.org/2000/svg"><rect id="a" width="14" height="14" fill="none" visibility="hidden"/><path d="m1.3369 13.835c-0.52526-0.20969-1.0494-0.57039-1.2755-1.1069-0.17573-0.51653 0.1361-1.0295 0.48193-1.3922 0.63694-0.74782 1.625-1.0881 2.5833-1.138 0.31923-0.019817 0.63852-0.038727 0.95778-0.058185 0.0029438-2.723-0.0055849-5.4461 0.002057-8.169 0.025349-0.50237-0.020179-1.0286 0.15754-1.5079 0.18469-0.34346 0.6384-0.20545 0.95377-0.29059 0.28219 0.028028 0.84227-0.34122 0.80771 0.17028 0.085177 1.3137 0.049564 2.632 0.062196 3.9478 0.00134 2.584 4.238e-4 5.168 6.942e-4 7.752-0.42461 0.46591-0.84658 0.95214-1.411 1.2544-0.753 0.43208-1.6205 0.63561-2.4797 0.70282-0.28908 0.0091-0.5714-0.06647-0.84086-0.16435zm4.7023 0.10234c-0.36957 0.03366-0.3253-0.28546-0.059765-0.41268 0.55313-0.52137 1.3598-0.45703 2.0537-0.59914 1.1768-0.19198 2.2767-0.77186 3.1092-1.6241 1.2376-1.1915 1.9445-2.9292 1.8073-4.6499-0.10846-1.4536-0.71328-2.8934-1.7884-3.896-0.93641-0.88642-2.1334-1.5779-3.4388-1.6822-0.23994-0.012096-0.48032-0.00442-0.72047-0.00659v-1.0671c0.85925 0.092124 1.7244 0.21498 2.5284 0.54872 1.7926 0.69186 3.2775 2.1478 3.9647 3.9468 0.62588 1.5292 0.65194 3.2852 0.07819 4.8341-0.52731 1.5366-1.6518 2.8312-3.0227 3.6828-1.2482 0.71411-2.714 1.0619-4.1502 0.96678-0.12085-0.0097-0.24139-0.02337-0.36126-0.04152zm-5.4418-4.2083c-0.42918-0.88887-0.51912-1.8985-0.52632-2.8737-0.011577-0.9056 0.1857-1.8068 0.5748-2.6244 0.42063-0.94699 1.0703-1.7716 1.82-2.4799 0.16997-0.16972 0.33993-0.33944 0.5099-0.50915 0.0079367 0.39238 0.085023 0.78956 0.013344 1.1782-0.17447 0.42261-0.58147 0.68554-0.82958 1.0617-1.2413 1.6571-1.4854 3.9695-0.70874 5.8768-0.0021309 0.32449-0.47553 0.46779-0.74685 0.50368-0.053969-0.025967-0.078022-0.085446-0.1065-0.13333zm6.4046-1.179c-0.10344-0.44654 0.33531-0.59499 0.64208-0.76189 0.42745-0.28675 0.53602-0.92358 0.21572-1.33-0.17373-0.27756-0.49013-0.38658-0.76791-0.51344-0.11907-0.25265-0.18038-0.71678 0.067373-0.90031 0.38583 0.0088813 0.7595 0.19901 1.0552 0.44165 0.69382 0.58785 0.99427 1.7024 0.46924 2.4936-0.32634 0.52477-0.87155 0.96891-1.5034 1.0173-0.19828-0.037104-0.16929-0.29594-0.1783-0.4469z" stroke-width=".1167"/></svg>
