<svg width="14" height="14" version="1.1" viewBox="0 0 14 14" xmlns="http://www.w3.org/2000/svg"><rect id="a" width="14" height="14" fill="none" visibility="hidden"/><path id="b" d="m5 3c-1.6667 1-3.3333 2-5 3 0.014488 1.3084 0.06213 2.6353 0.40324 3.9055 0.13263 0.40299 0.27741 0.90651 0.71103 1.0751 0.37855 0.04158 0.76403 9e-3 1.1455 0.01936 0.92884-0.0017 1.8579 0.0034 2.7866-0.0025 0.41015-0.081272 0.57413-0.53783 0.71346-0.8807 0.29105-0.84219 0.40919-1.7331 0.49021-2.6168 0.4632-0.24621 1.0368-0.24621 1.5 0 0.096174 0.9786 0.21418 1.978 0.60251 2.8903 0.13187 0.29814 0.37313 0.658 0.74649 0.60965 1.2324-0.0015 2.465 0.0029 3.6973-0.0022 0.44272-0.07328 0.61768-0.56734 0.75199-0.93638 0.36057-1.1881 0.41426-2.4425 0.44863-3.6757 0.0067-0.20299 0.05841-0.43368-0.1837-0.49779-1.6199-0.96886-3.2348-1.947-4.8578-2.9101-0.33156-0.12681-0.52973 0.3116-0.46513 0.58236 0.049081 0.43107 0.43906 0.6626 0.78335 0.84941 0.90879 0.53013 1.8176 1.0603 2.7264 1.5904h-10c1.039-0.61079 2.0867-1.2077 3.1201-1.8273 0.37038-0.22209 0.53663-0.7948 0.19628-1.1143-0.08201-0.07755-0.2124-0.12222-0.31643-0.058323zm-3.75 4.25h3.75c-0.16667 0.83333-0.33333 1.6667-0.5 2.5h-2.75c-0.16667-0.83333-0.33333-1.6667-0.5-2.5zm7.75 0h3.75c-0.16667 0.83333-0.33333 1.6667-0.5 2.5h-2.75c-0.16667-0.83333-0.33333-1.6667-0.5-2.5z"/></svg>
