<svg width="14" height="14" version="1.1" viewBox="0 0 14 14" xmlns="http://www.w3.org/2000/svg"><rect id="a" width="14" height="14" fill="none" visibility="hidden"/><path d="m5.5 1.0156c-1.3982-0.079892-2.0598 1.9563-0.88168 2.7135 1.0302 0.8409 2.691-0.25559 2.3489-1.5254-0.13368-0.67904-0.77517-1.1986-1.4672-1.1881zm4.5 0.98438c-0.66667 0.33333-1.3333 0.66667-2 1l3 6c0.66667-0.33333 1.3333-0.66667 2-1l-3-6zm-2 2c-0.66667 0.33333-1.3333 0.66667-2 1 0.098307 0.49023 0.19661 0.98047 0.29492 1.4707-0.76497 0.50977-1.5299 1.0195-2.2949 1.5293-1-0.33333-2-0.66667-3-1v1c1 0.66667 2 1.3333 3 2 0.88216-0.58854 1.7643-1.1771 2.6465-1.7656 0.11784 0.58854 0.23568 1.1771 0.35352 1.7656 1-0.33333 2-0.66667 3-1-0.66667-1.6667-1.3333-3.3333-2-5zm-7 5v5h1v-5h-1zm9 1c-1 0.33333-2 0.66667-3 1-0.66667 1-1.3333 2-2 3h1.834c0.51042-0.66667 1.0208-1.3333 1.5312-2 0.21159 0.66667 0.42318 1.3333 0.63477 2h2c-0.33333-1.3333-0.66667-2.6667-1-4z" fill-rule="evenodd"/></svg>
