<svg width="14" height="14" version="1.1" viewBox="0 0 14 14" xmlns="http://www.w3.org/2000/svg"><rect id="a" width="14" height="14" fill="none" visibility="hidden"/><path id="b" d="m9.413 0.0021516c-0.89553 0.09594-1.5369 0.87754-1.8193 1.6809-0.32483 0.93175-0.38159 2.0407 0.1678 2.902 0.30744 0.49245 0.91037 0.8911 1.5059 0.70895 0.7857-0.21862 1.3131-0.94971 1.5755-1.6862 0.30536-0.9498 0.35227-2.0832-0.23881-2.9356-0.26895-0.38918-0.7044-0.68224-1.1911-0.66996zm-5.0729 0.056367c-0.72324 0.042471-1.2304 0.70061-1.4006 1.356-0.18624 0.71026-0.097794 1.4753 0.13806 2.1632 0.29058 0.82211 0.93234 1.6063 1.8245 1.7765 0.66398 0.058161 1.2084-0.48183 1.4386-1.0593 0.31649-0.78266 0.22784-1.6786-0.030577-2.4645-0.27805-0.81956-0.91647-1.6024-1.8046-1.7634-0.054775-0.0069747-0.11008-0.0099093-0.16528-0.0084593zm8.315 4.1451c-0.97411 0.062607-1.7287 0.86229-2.0648 1.7297-0.30424 0.77418-0.42165 1.7206 0.05081 2.4551 0.26036 0.44687 0.80021 0.75138 1.3194 0.60898 1.0274-0.21368 1.7074-1.1862 1.9388-2.1575 0.20456-0.79381 0.13875-1.7554-0.50753-2.3344-0.20236-0.17983-0.46486-0.29331-0.73673-0.30183zm-12.644 1.8049c-0.096592 1.2439 0.56776 2.595 1.7452 3.0965 0.40097 0.17301 0.89914 0.23214 1.2622-0.061223 0.59369-0.45386 0.74283-1.2764 0.62103-1.978-0.14309-0.9467-0.66749-1.9194-1.5711-2.3268-0.63428-0.27866-1.4993-0.1367-1.8596 0.50405-0.13689 0.22954-0.20374 0.49865-0.19779 0.76537zm7.1486 1.2638c-1.448 0.002734-2.7503 0.97646-3.4199 2.2194-0.57393 0.94134-1.0414 1.9888-1.1123 3.1017 0.028537 0.83488 0.8835 1.5645 1.7165 1.3567 1.1352-0.16823 2.1494-0.93053 3.331-0.81354 1.0827 0.06594 1.9611 0.9381 3.0689 0.86015 0.72317-0.04195 1.2145-0.78912 1.1681-1.4736-0.03826-0.47041-0.2585-0.90322-0.43569-1.334-0.47708-1.0089-1.1422-1.9228-1.8915-2.7457-0.63813-0.64887-1.4796-1.2041-2.425-1.1711z"/></svg>
