<svg width="14" height="14" version="1.1" viewBox="0 0 14 14" xmlns="http://www.w3.org/2000/svg"><rect id="a" width="14" height="14" fill="none" visibility="hidden"/><path id="b" d="m1.8994 3.9829c-0.50223 0.021092-1.0392-0.02569-1.5018 0.20472-0.4037 0.25204-0.37139 0.78622-0.39335 1.2018-0.005101 2.4763 0.010779 4.9528 0.012453 7.4291 0.019487 0.37023 0.0028215 0.86133 0.38846 1.0569 0.50204 0.19566 1.0569 0.13413 1.5852 0.15924 3.5913-0.01448 7.1826-0.02258 10.774-0.04121 0.39129-0.02096 0.91698-8.7e-4 1.1158-0.41612 0.1982-0.52584 0.14151-1.1038 0.17042-1.6558-0.0034-2.0353 5e-3 -4.0708-0.0058-6.1061-0.032456-0.4872 0.025532-1.0113-0.19899-1.4608-0.25058-0.37216-0.75664-0.32938-1.1505-0.35625-2.7033-0.015787-5.4068-0.0072578-8.1102-0.013214l-2.6855-0.0023889zm6.1006 1.0327c1.5228-0.019736 2.9972 0.92475 3.6264 2.3097 0.66661 1.3903 0.42286 3.1545-0.60177 4.308-0.95094 1.1237-2.5504 1.6319-3.9762 1.2684-1.5227-0.35426-2.7562-1.6818-2.9944-3.2274-0.25649-1.4456 0.36748-2.9979 1.5528-3.8641 0.68443-0.51481 1.5369-0.79749 2.3933-0.79466zm-6.0164-3.0343c0.41503 0.010327 0.8329-0.023076 1.2458 0.021642 0.4992 0.072843 0.73555 0.59477 0.76857 1.0468 0.014649 0.2084 0.12789 0.52735-0.18481 0.44158-0.92095 0.010116-1.8419 0.020233-2.7628 0.030349-0.048282-0.50486-0.025416-1.1601 0.47763-1.436 0.14016-0.072732 0.29899-0.1015 0.4557-0.1044zm8.5228 7.0567c0.022572 1.154-0.86242 2.2372-1.9962 2.4492-1.0905 0.2437-2.2894-0.35146-2.7573-1.3654-0.5127-1.0199-0.201-2.3623 0.71001-3.0506 0.90111-0.73581 2.3148-0.70196 3.1795 0.076416 0.54409 0.46635 0.86868 1.1734 0.86394 1.8904zm-1.5053-8.0556c-0.0057077 0.86811-0.011415 1.7362-0.017123 2.6043 1.6772-0.0053067 3.3544-0.010613 5.0316-0.01592 0.001651-0.95189 0.02099-1.9041 0.011116-2.8558 0.047392-0.35791-0.12775-0.77936-0.55349-0.70831-1.323-0.0083896-2.6465 0.0068684-3.9694 0.010306-0.45935-0.057875-0.54807 0.44409-0.50262 0.79245-2.026e-4 0.057644-1.167e-4 0.11529-5.21e-5 0.17293zm1.1029 0.048339c0.97117-0.00571 1.9423-0.011415 2.9135-0.017123 0.01116 0.66197 0.02233 1.3239 0.03349 1.9859-0.97167 0.00531-1.9433 0.010613-2.915 0.01592-0.01066-0.66157-0.02133-1.3231-0.03199-1.9847z"/></svg>
