<svg width="14" height="14" enable-background="new 0 0 580 580" version="1.1" viewBox="0 0 14 14" xmlns="http://www.w3.org/2000/svg"><rect id="a" width="14" height="14" fill="none" visibility="hidden"/><path d="m6 3c-1.7573 0.015522-3.532 0.63939-4.8494 1.8153-0.66849 0.6095-1.2451 1.4747-1.1371 2.4189 0.13452 1.0238 0.89964 1.8304 1.7058 2.4087 1.3176 0.91568 2.9393 1.4146 4.5457 1.3456 1.4174-0.13009 2.761-0.83124 3.7444-1.85 0.63821-0.67143 1.1428-1.6083 0.94743-2.5597-0.23516-1.0517-1.0469-1.8616-1.8972-2.4665-0.90006-0.61272-1.955-1.0907-3.0597-1.1124zm5 4c-0.01731 1.1165 0.57378 2.1588 1.3901 2.8878 0.48232 0.44249 1.0333 0.80505 1.6099 1.1122 0.015933-0.95644-0.19749-1.905-0.5787-2.7801-0.16097-0.39903-0.31827-0.80132-0.4213-1.2199 0.25817-1.018 0.82523-1.9443 0.93628-3.0024 0.045231-0.33045 0.063719-0.66416 0.063721-0.99756-1.1538 0.63404-2.2691 1.5268-2.7699 2.783-0.1511 0.38686-0.23078 0.80152-0.23008 1.217zm-8.0176-2c1.0179-0.077858 1.39 1.4238 0.52096 1.8641-0.90851 0.59578-2.0687-0.77977-1.2209-1.5609l0.31991-0.22096z" fill-rule="evenodd"/></svg>
