<svg width="14" height="14" version="1.1" viewBox="0 0 14 14" xmlns="http://www.w3.org/2000/svg"><rect id="a" width="14" height="14" fill="none" visibility="hidden"/><path id="b" d="m0.75 3c-0.5094 1.6994-0.74156 3.4778-0.75 5.25 1.8492 0.00191 3.6987-0.00382 5.5477 0.00287 0.49674 0.12096 0.84362 0.54498 1.1775 0.90485 0.075922 0.15946 0.27073 0.068554 0.41133 0.092284h6.8634c0.022296-0.92289-0.34771-1.8837-1.1125-2.4344-0.93212-0.68912-2.1349-0.84113-3.2637-0.81564h-1.6238c-0.65178-1.2828-1.7498-2.3081-3-3-0.28626-0.083418-0.3468 0.19424-0.49165 0.38447-0.54058 0.72875-1.597 0.94168-2.4049 0.56013-0.45089-0.19705-0.83047-0.53779-1.1034-0.9446h-0.25zm4.75 1c0.4061-0.021122 0.66039 0.51812 0.38582 0.81805-0.24077 0.32462-0.81449 0.18216-0.87567-0.21728-0.069756-0.29987 0.18195-0.60883 0.48984-0.60077zm1 1c0.4061-0.021122 0.66039 0.51812 0.38582 0.81805-0.24077 0.32462-0.81449 0.18216-0.87567-0.21728-0.069756-0.29987 0.18195-0.60883 0.48984-0.60077zm-6.5 4v2h5.25v-2h-5.25zm7.3 1c0.30166 0.38753 0.62136 0.82557 1.1041 0.98877 0.57817 0.02555 1.1597 0.0042 1.7392 0.01123h3.8567v-1h-6.7z"/></svg>
