<svg width="14" height="14" enable-background="new 0 0 580 580" version="1.1" viewBox="0 0 14 14" xmlns="http://www.w3.org/2000/svg"><rect id="a" width="14" height="14" fill="none" visibility="hidden"/><path d="m5.5433 1.2756c0.058403 1.1571-1.6399 1.7601-2.2933 0.74052-0.74493-0.90961 0.31747-2.3698 1.4174-1.9387 0.51041 0.15651 0.88367 0.66344 0.87597 1.1982zm6.8522 8.5591c-0.90953 0.23123-1.817 0.47211-2.7278 0.69729-0.31522 0.029974-0.68828-0.049291-0.83334-0.36446-0.40941-0.6746-0.81882-1.3492-1.2282-2.0238-0.53192 0.57096-1.0638 1.1419-1.5957 1.7129 0.22394 1.1247 0.45714 2.2489 0.6752 3.374 0.028454 0.46277-0.4565 0.8983-0.91108 0.71623-0.40519-0.15084-0.4104-0.62992-0.49479-0.98909-0.24296-1.2272-0.50162-2.4517-0.73426-3.6806-0.056603-0.30471 0.049423-0.61616 0.27934-0.82081 0.42578-0.47533 0.85156-0.95066 1.2773-1.426-0.50631-0.6565-1.0126-1.313-1.5189-1.9695-0.35575 0.38838-0.69478 0.79348-1.0615 1.1708-0.29888 0.23444-0.67885-0.0048528-0.87202-0.26371-0.50872-0.57535-1.0333-1.1385-1.532-1.7215-0.2545-0.36515 0.02256-0.98336 0.49545-0.93085 0.28476 0.024277 0.41379 0.31315 0.6023 0.48878 0.33417 0.37316 0.66834 0.74632 1.0025 1.1195 0.56663-0.62379 1.1164-1.2641 1.6941-1.8771 0.23979-0.22461 0.55237-0.04572 0.82576-0.0069856 1.0211 0.23077 2.0458 0.4484 3.0646 0.68743 0.34362 0.19717 0.46781 0.59617 0.67581 0.9115 0.18131 0.30383 0.34411 0.62185 0.55192 0.90571 0.18221 0.3743-0.1513 0.91627-0.58677 0.80502-0.31577-0.084862-0.40253-0.42946-0.57198-0.66857-0.20393-0.34155-0.40786-0.6831-0.61179-1.0247-0.48521-0.082221-0.97042-0.16444-1.4556-0.24666 1.0066 1.5626 2.0131 3.1252 3.0197 4.6878 0.82015-0.23547 1.6403-0.47093 2.4605-0.7064 0.43839-0.03565 0.90129 0.42901 0.73912 0.87119-0.09346 0.2797-0.34028 0.50524-0.62762 0.57254z" fill-rule="evenodd"/></svg>
