<svg width="14" height="14" version="1.1" viewBox="0 0 14 14" xmlns="http://www.w3.org/2000/svg"><rect id="a" width="14" height="14" fill="none" visibility="hidden"/><path id="b" d="m5 10c0.00244-2.7998-0.00495-5.5996 0.00381-8.3993-0.07534-0.40833 0.28477-0.67072 0.66611-0.59872 0.6528 0.00463 1.3073-0.02108 1.9588 0.020294 0.42407 0.03192 0.36716 0.53934 0.3712 0.84362-0.0029 2.3809-0.00712 4.7617-0.010531 7.1426h-1c0.0035494-2.0028 0.007094-4.0056 0.010639-6.0084h-1c0.0037492 2.1568-0.020442 4.3139-0.0039716 6.4705-0.065312 0.43869 0.39285 0.57874 0.74555 0.52686 0.62539-0.0029358 1.2524 0.033388 1.8765-0.011243 0.42407-0.03192 0.36716-0.53934 0.3712-0.84362 4.235e-4 -2.6244 0.014883-5.2489 0.0061202-7.8732-0.023436-0.39572 0.007133-0.9308-0.41313-1.1352-0.52308-0.19135-1.0951-0.11471-1.6416-0.13409-0.74836 0.012644-1.5009-0.037125-2.2454 0.05233-0.36367 0.024163-0.63332 0.33399-0.65073 0.69028-0.077667 0.79238-0.032673 1.5907-0.044495 2.3859 0.00143 2.3764-0.00287 4.7529 0.00219 7.1294-0.024343 0.68056 0.50236 1.1773 0.92056 1.6437 0.62445 0.67361 1.2973 1.305 1.9201 1.9768 0.31653 0.18966 0.71087 0.10211 1.0615 0.11528 0.45439-0.0093 0.69384-0.44556 0.98651-0.72528 0.6302-0.70155 1.315-1.3629 1.852-2.1417 0.34562-0.48732 0.24014-1.1005 0.25716-1.6612v-7.4654h-1v8c-0.10182 0.45607-0.40905 0.83511-0.65587 1.2231-0.43603 0.60499-0.8827 1.2231-1.4755 1.6849-0.3094 0.24498-0.6974 0.004779-0.94368-0.21814-0.70651-0.63017-1.3075-1.3847-1.7651-2.2133-0.072714-0.15038-0.15107-0.30664-0.15979-0.47654z" fill-rule="evenodd"/></svg>
