<svg width="14" height="14" version="1.1" viewBox="0 0 14 14" xmlns="http://www.w3.org/2000/svg"><rect id="a" width="14" height="14" fill="none" visibility="hidden"/><g id="b" transform="translate(0,1)"><rect x="3.5" y="2.5" width=".5" height="5"/><rect x="5.5" y="2.5" width=".5" height="5.5"/><rect x="7.5" y="2.5" width=".5" height="6"/><rect x="9.5" y="2.5" width=".5" height="6"/></g><g id="c" transform="translate(0,1)"><rect x="1" y="4" width="10.5" height=".5"/><rect x="1" y="6" width="10.5" height=".5"/></g><g id="d" transform="translate(0,1)"><circle cx="9.5" cy="11.2" r="1"/><circle cx="3.5" cy="11.2" r="1"/></g><path id="e" d="m11 10v2h-9.5c-0.80578-0.042845-0.48806-1.158 0.17819-1h8.3218v-1.5c0.33333 0.16667 0.66667 0.33333 1 0.5z"/><path id="f" d="m11.5 3c0.089333-0.41667 0.17867-0.83333 0.268-1.25 0.494-0.18333 0.988-0.36667 1.482-0.55 0.7084-0.26609 1.0304 0.93218 0.29394 1.0696-0.31465 0.11013-0.62929 0.22025-0.94394 0.33038-0.033333 0.13333-0.066667 0.26667-0.1 0.4"/><path id="g" d="m0 3h12.5c-0.5 2.3333-1 4.6667-1.5 7-3.3333-0.33333-6.6667-0.66667-10-1m0.167-5h10.119c-0.34533 1.6333-0.69067 3.2667-1.036 4.9-2.7833-0.26667-5.5667-0.53333-8.35-0.8-0.24433-1.3667-0.48867-2.7333-0.733-4.1z" fill-rule="evenodd"/></svg>
