<svg width="14" height="14" version="1.1" viewBox="0 0 14 14" xmlns="http://www.w3.org/2000/svg"><rect id="a" width="14" height="14" fill="none" visibility="hidden"/><path d="m6.832 1.8984c-0.7722-0.10519-1.6247 0.84851-0.97282 1.5093l0.26898 0.21016 0.33861 0.13404c-1.2923 0.095135-2.5463 0.77711-3.2656 1.8652-0.65161-0.28194-1.4346-0.39194-2.1073-0.11458-0.73658 0.33216-1.0439 1.1756-1.0827 1.9327-0.070127 0.68333 0.096609 1.4556 0.68136 1.8793 0.59204 0.43547 1.3453 0.55964 2.0586 0.63898 0.32254-0.093668 0.2732 0.35313 0.41687 0.54281 0.2551 0.56792 0.57984 1.1344 1.0918 1.5074h5.1465c0.72174-0.54865 1.0914-1.4195 1.3691-2.2559 0.52359 0.095924 0.93596-0.34028 1.2648-0.68437 0.56628-0.64354 1.0681-1.3771 1.2709-2.2216 0.27737-0.99235 0.4881-2.0019 0.68886-3.012-0.51674 0.12013-1.0725 0.16289-1.584-0.00391-0.22602 0.79117-0.34859 1.6408-0.83826 2.3254-0.13022 0.28045-0.68942 0.77916-0.73605 0.21054-0.57143-1.4872-2.0754-2.501-3.6464-2.6102 0.79875-0.075229 1.1613-1.2008 0.43607-1.6146-0.23252-0.16159-0.51779-0.23855-0.79935-0.23888zm-4.8535 4.25c0.2496 0.016539 0.85304 0.05125 0.7883 0.35317-0.29614 0.7659-0.27111 1.6099-0.098445 2.401 0.19425 0.42-0.45034 0.16368-0.68208 0.15922-0.48329-0.080117-0.84955-0.50744-0.88467-0.98998-0.04169-0.55995 0.0020244-1.1652 0.29079-1.6595 0.12019-0.2097 0.36068-0.26355 0.58611-0.26385z"/></svg>
