<svg width="14" height="14" enable-background="new 0 0 580 580" version="1.1" viewBox="0 0 14 14" xmlns="http://www.w3.org/2000/svg"><rect id="a" width="14" height="14" fill="none" visibility="hidden"/><path d="m2 11h1v3h-1v-3zm-1-1c0.57554-0.86923 1.4613-1.5187 1.892-2.4844 0.13991-0.31746 0.16619-0.71841-0.088829-0.98819-0.59552-0.6846-1.4066-1.1386-2.0149-1.8125-0.50607-0.52195-0.87779-1.2382-0.77524-1.9834 0.038739-0.64499 0.46944-1.2059 1.0329-1.4976 0.9419-0.50905 2.0039-0.74108 2.9541-1.2341-0.23804 0.93922-1.0892 1.4999-1.6712 2.2131-0.16273 0.22788-0.41048 0.56183-0.28117 0.83377 0.89899 0.84215 2.034 1.5015 2.6243 2.625 0.38567 0.725 0.42244 1.6109 0.1741 2.3849-0.25186 0.69537-0.98937 0.99221-1.6325 1.2228-0.73233 0.25663-1.4784 0.47201-2.2135 0.72042zm-1 1h1v3h-1v-3zm14 3h-10v-3h10v3z" fill-rule="evenodd"/></svg>
