<svg width="14" height="14" version="1.1" viewBox="0 0 14 14" xmlns="http://www.w3.org/2000/svg"><rect id="a" width="14" height="14" fill="none" visibility="hidden"/><path d="m3 0v2c-0.88446 0.51766-1.6976 1.1509-2.4848 1.8047-0.32898 0.20076-0.31903 0.61255-0.34172 0.95178-0.0013316 0.39538-0.026666 0.81977 0.1517 1.1833 0.29046 0.15183 0.61867-0.20058 0.89383-0.30657 0.6635-0.36846 1.2884-0.84551 2.0306-1.0441 0.41227-0.12788 0.60492 0.33825 0.6532 0.66424 0.15289 0.9073 0.064922 1.8317 0.097199 2.7467-0.65628 0.81442-0.9272 1.8719-1.625 2.6562-0.3832-0.3378-0.76504-0.67844-1.1355-1.0292-0.32261-0.23366-0.82064-0.029957-0.88018 0.36777-0.15228 0.43712 0.27288 0.7258 0.54094 0.98917 1.2185 1.169 2.686 2.1463 4.3584 2.5011 1.277 0.26643 2.6209 0.3031 3.8943-0.0031 1.4288-0.3443 2.5999-1.3008 3.6329-2.3018 0.2541-0.29927 0.65073-0.50802 0.77701-0.89395 0.16356-0.38142-0.10572-0.84535-0.54682-0.75633-0.32088 0.019162-0.47056 0.34935-0.70612 0.52318-0.20649 0.14249-0.44192 0.51975-0.63435 0.48191-0.48284-0.61394-0.79048-1.3417-0.98219-2.0944-0.22722-0.81465-0.44771-1.6313-0.69336-2.4407 0.64443-0.18778 1.3749-0.063699 1.8898 0.37884 0.75745 0.59609 1.2131 1.5432 2.1102 1.9645-0.004341-0.81128 0.008738-1.6234-0.006641-2.4341-0.084932-0.4558-0.60918-0.60311-1.0027-0.67437-0.99694-0.14778-2.0144-0.019472-2.9906 0.20263-0.38523-0.59757-1.0364-0.99792-1.742-1.0784-0.54012-0.076977-1.09-0.031682-1.6248 0.062571-0.12747-0.68871-0.41419-1.3988-1.0177-1.8028-0.34366-0.25528-0.74177-0.42961-1.1115-0.63468-0.50132-0.66141-1.0026-1.3228-1.504-1.9842zm2 8c0.75813 0.45799 1.6876 0.51348 2.5512 0.45752 0.50206-0.054482 1.0418-0.1339 1.4488-0.45752 0.71214 0.50121 1.1226 1.3058 1.5153 2.0591 0.18397 0.37051 0.35281 0.74831 0.51597 1.1284-0.90611 0.73864-2.0155 1.2409-3.1877 1.3351-1.417 0.12556-2.9293-0.0082-4.1552-0.79078-0.24376-0.18433-0.77066-0.34608-0.38351-0.66776 0.65063-0.97248 1.1761-2.0177 1.6951-3.0641z"/></svg>
