<svg width="14" height="14" version="1.1" viewBox="0 0 14 14" xmlns="http://www.w3.org/2000/svg"><rect id="a" width="14" height="14" fill="none" visibility="hidden"/><path d="m0 9c0.031813-0.32011-0.10711-0.82083 0.28262-0.95938 0.51699-0.07442 1.0437-0.027509 1.5651-0.040619 2.1839 0.00238 4.3678-0.00486 6.5516 0.00381 0.40833-0.07534 0.67072 0.28477 0.59872 0.66611 5.962e-4 1.5979 0.00872 3.196-0.00464 4.7937 0.065907 0.43515-0.38088 0.59288-0.7377 0.53555-2.5517-5.1e-4 -5.1034 0.0052-7.655-3e-3 -0.40833 0.07534-0.67072-0.28477-0.59872-0.66611-0.004383-1.4433-7.7583e-4 -2.8867-0.0019518-4.3301zm13-4.9688v2.9688h1v-2.9688h-1zm-1.7812-0.34375c-0.54167 0.82292-1.0833 1.6458-1.625 2.4688 0.27083 0.17708 0.54167 0.35417 0.8125 0.53125 0.55208-0.8125 1.1042-1.625 1.6562-2.4375l-0.84375-0.5625zm-1.2812-1.6562c-0.9375 0.38542-1.875 0.77083-2.8125 1.1562 0.125 0.30208 0.25 0.60417 0.375 0.90625l2.8125-1.125-0.375-0.9375zm-2.9375-2.0625v1c1.0312 0.010417 2.0625 0.020833 3.0938 0.03125v-1c-1.0312-0.010417-2.0625-0.020833-3.0938-0.03125zm-4 8.0312v-1.7035h3v1.7035h1c-0.0065518-0.85933 0.015246-1.7195-0.015625-2.5781 0.0063464-0.45407-0.52936-0.4327-0.85024-0.42177-1.2191 0.0051638-2.4386-0.011776-3.6573 0.010364-0.45862-0.04192-0.51021 0.47532-0.47659 0.81351-5.469e-4 0.72534-9.79e-5 1.4507-2.441e-4 2.176h1zm11.727-6.5129c0.02279 0.99446-0.8043 1.9101-1.7955 1.9897-0.97122 0.12127-1.952-0.58094-2.1533-1.538-0.2364-0.93367 0.31336-1.9774 1.2154-2.3129 0.91668-0.38271 2.0714 0.046508 2.5092 0.94096 0.07119 0.13739 0.12623 0.28311 0.16389 0.43319" fill-rule="evenodd"/></svg>
