<svg width="14" height="14" version="1.1" viewBox="0 0 14 14" xmlns="http://www.w3.org/2000/svg"><rect id="a" width="14" height="14" fill="none" visibility="hidden"/><path d="m1.683 13.9c-0.68294-0.20416-1.1362-0.84127-1.3941-1.4759-0.31383-0.86769-0.23592-1.8159-0.15145-2.717 0.18225-1.4539 0.5197-2.9122 1.1897-4.2238 0.3845-0.72419 0.97357-1.4207 1.807-1.6115 0.74975-0.22762 1.5498-0.051908 2.2334 0.29272 0.4056 0.19874 0.80135 0.41685 1.202 0.62522 0.10043-0.35411 0.24764-0.69205 0.4624-0.99311 0.4373-0.7095 1.0152-1.3263 1.4249-2.0517-0.17818-0.34687-0.63364-0.49433-0.99154-0.34586-0.74501 0.23786-1.1962 1.0272-1.9945 1.1413-1.3517 0.17104-2.7105-0.46946-3.6319-1.435-0.21985-0.25173-0.504-0.51133-0.53147-0.86306 0.1225-0.35769 0.66031-0.27232 0.92604-0.11881 0.38057 0.27531 0.6649 0.66937 1.0835 0.8977 0.62916 0.37676 1.4121 0.66124 2.1434 0.43774 0.37503-0.15332 0.64166-0.4831 0.99022-0.68429 0.57553-0.40822 1.3416-0.50433 2.0158-0.32572 0.56485 0.14423 0.91117 0.71063 0.92086 1.2713 0.076156 0.62825-0.40741 1.1076-0.74387 1.5756-0.29668 0.42222-0.65727 0.81199-0.8737 1.283 0.22756 0.067546 0.52785-0.25609 0.76885-0.36517 0.85369-0.48229 1.9545-0.60812 2.8531-0.17567 0.9098 0.48856 1.3992 1.4621 1.7725 2.3822 0.38312 0.98558 0.68481 2.0169 0.71857 3.0804 0.03201 0.92743 0.12003 1.8664-0.02999 2.7878-0.1225 0.72949-0.71868 1.3006-1.3764 1.5817-0.78328 0.31293-1.6431-0.03918-2.263-0.53816-0.67446-0.51866-1.1776-1.211-1.6877-1.8826h-2.9611c-0.67581 0.87357-1.3433 1.8187-2.3518 2.3313-0.4467 0.18574-0.95328 0.29355-1.4273 0.14323l-0.04988-0.01152-0.052639-0.01232zm2.7799-4.2353c0.19278-0.40652 0.15479-0.87258 0.19702-1.3114 0.42182-0.043177 0.86764 1.72e-5 1.2617-0.1799 0.37808-0.1975 0.15891-0.75322-0.23524-0.75682-0.35554-0.084038-0.72306-0.04859-1.0849-0.056332-0.01271-0.39903 0.034359-0.80491-0.045571-1.1978-0.15638-0.32416-0.79503-0.36543-0.84049 0.073379-0.079832 0.36916-0.038002 0.74965-0.048575 1.1244-0.37133 0.015139-0.75482-0.043799-1.1148 0.066275-0.26919 0.11651-0.50716 0.58754-0.16777 0.76314 0.35569 0.16236 0.7569 0.088028 1.1356 0.10522 0.07466 0.45941 0.076562 0.94612 0.28558 1.3698 0.161 0.19163 0.49641 0.19157 0.65738-4.7e-5zm6.2338-0.16118c0.42825-0.36101 0.15616-1.1339-0.38348-1.1996-0.42466-0.093788-0.87949 0.29038-0.79494 0.73199 0.060884 0.49736 0.70798 0.86158 1.1235 0.51308l0.05494-0.045512zm-1.2561-1.1983c0.3416-0.37492 0.10396-0.97475-0.31133-1.1818-0.31976-0.18799-0.75536 0.11452-0.8709 0.42752-0.11311 0.3416 0.025563 0.75866 0.37669 0.89314 0.26358 0.12223 0.60768 0.087258 0.80554-0.13881zm2.4244-0.08685c0.32932-0.26103 0.21898-0.72726-0.07418-0.96487-0.27197-0.37254-0.84047-0.27061-1.0281 0.12687-0.26981 0.43761 0.11786 1.0493 0.62139 1.0272 0.17702 0.00152 0.35094-0.069861 0.48084-0.18916zm-1.3051-1.0918c0.3826-0.3048 0.22364-0.85985-0.1714-1.0663-0.38004-0.27898-0.87024 0.10595-0.97846 0.48984-0.073116 0.40232 0.3397 0.81187 0.73425 0.80537 0.15688-0.032349 0.30065-0.11904 0.41561-0.22889z" stroke-width=".11683"/></svg>
